<svg width="199" height="64" viewBox="0 0 199 64" fill="none" xmlns="http://www.w3.org/2000/svg">
<path fill-rule="evenodd" clip-rule="evenodd" d="M20 0C8.95431 0 0 8.95432 0 20V27.3313C0 38.377 8.95431 47.3313 20 47.3313H29.1916L20.1242 59.8396C18.9481 61.4619 20.6233 63.6134 22.4844 62.8711L61.4437 47.3313H178.231C189.277 47.3313 198.231 38.377 198.231 27.3313V20C198.231 8.9543 189.277 0 178.231 0H20Z" fill="#4F4F4F"/>
<path d="M12.1591 29H10.6818L16.8864 17.3636H18.3409L20.6818 29H19.2045L17.3636 19.2045H17.2727L12.1591 29ZM13.4545 24.4545H19.4091L19.2045 25.7045H13.25L13.4545 24.4545ZM24.517 23.75L23.6534 29H22.3125L23.767 20.2727H25.0625L24.8352 21.6364H24.9489C25.2216 21.1932 25.5909 20.8371 26.0568 20.5682C26.5227 20.2955 27.0852 20.1591 27.7443 20.1591C28.3277 20.1591 28.8201 20.2803 29.2216 20.5227C29.6269 20.7614 29.9129 21.125 30.0795 21.6136C30.25 22.0985 30.2746 22.7121 30.1534 23.4545L29.2216 29H27.8807L28.7898 23.5455C28.9034 22.8636 28.8144 22.3295 28.5227 21.9432C28.2348 21.5568 27.7784 21.3636 27.1534 21.3636C26.7216 21.3636 26.322 21.4564 25.9545 21.642C25.5909 21.8277 25.2822 22.0985 25.0284 22.4545C24.7784 22.8106 24.608 23.2424 24.517 23.75ZM25.6307 19.2273L24.608 19.1818C24.6989 18.6023 24.9394 18.1288 25.3295 17.7614C25.7235 17.3902 26.1648 17.2045 26.6534 17.2045C26.8693 17.2045 27.0549 17.2424 27.2102 17.3182C27.3655 17.3902 27.5114 17.4735 27.6477 17.5682C27.7841 17.6629 27.9261 17.7481 28.0739 17.8239C28.2254 17.8958 28.4034 17.9318 28.608 17.9318C28.8239 17.9318 29.0208 17.8485 29.1989 17.6818C29.3769 17.5114 29.483 17.3068 29.517 17.0682L30.517 17.1591C30.4261 17.75 30.1837 18.2197 29.7898 18.5682C29.3996 18.9167 28.9602 19.0909 28.4716 19.0909C28.2102 19.0909 28.0019 19.0549 27.8466 18.983C27.6913 18.9072 27.5549 18.822 27.4375 18.7273C27.3201 18.6326 27.1951 18.5492 27.0625 18.4773C26.9299 18.4015 26.7557 18.3636 26.5398 18.3636C26.3239 18.3636 26.1288 18.4489 25.9545 18.6193C25.7841 18.786 25.6761 18.9886 25.6307 19.2273ZM34.2173 29.2045C33.6643 29.2045 33.1795 29.1004 32.7628 28.892C32.3461 28.6799 32.0374 28.375 31.8366 27.9773C31.6359 27.5758 31.581 27.0909 31.6719 26.5227C31.759 26.0227 31.9276 25.6174 32.1776 25.3068C32.4276 24.9924 32.7306 24.7462 33.0866 24.5682C33.4465 24.3864 33.8329 24.2519 34.2457 24.1648C34.6624 24.0739 35.0772 24.0038 35.4901 23.9545C36.0279 23.8864 36.4654 23.8333 36.8026 23.7955C37.1397 23.7576 37.3935 23.6951 37.5639 23.608C37.7344 23.5208 37.8385 23.3712 37.8764 23.1591V23.1136C37.9673 22.5568 37.8935 22.1231 37.6548 21.8125C37.4162 21.4981 36.9901 21.3409 36.3764 21.3409C35.7401 21.3409 35.2079 21.4811 34.7798 21.7614C34.3518 22.0417 34.0355 22.3409 33.831 22.6591L32.6491 22.2045C32.9598 21.6742 33.331 21.2614 33.7628 20.9659C34.1946 20.6667 34.6473 20.4583 35.1207 20.3409C35.5942 20.2197 36.0507 20.1591 36.4901 20.1591C36.7704 20.1591 37.0866 20.1932 37.4389 20.2614C37.7912 20.3258 38.1207 20.4602 38.4276 20.6648C38.7382 20.8693 38.9711 21.178 39.1264 21.5909C39.2855 22.0038 39.3082 22.5568 39.1946 23.25L38.2401 29H36.8991L37.1037 27.8182H37.0355C36.9143 28.0076 36.7287 28.2102 36.4787 28.4261C36.2325 28.642 35.92 28.8258 35.5412 28.9773C35.1662 29.1288 34.7249 29.2045 34.2173 29.2045ZM34.6037 28C35.134 28 35.598 27.8958 35.9957 27.6875C36.3973 27.4792 36.7192 27.2102 36.9616 26.8807C37.2079 26.5511 37.3613 26.2045 37.4219 25.8409L37.6264 24.6136C37.5582 24.6818 37.4238 24.7443 37.223 24.8011C37.0223 24.8542 36.795 24.9015 36.5412 24.9432C36.2912 24.9811 36.0469 25.0152 35.8082 25.0455C35.5734 25.072 35.384 25.0947 35.2401 25.1136C34.884 25.1591 34.545 25.233 34.223 25.3352C33.9048 25.4337 33.6359 25.5833 33.4162 25.7841C33.2003 25.9811 33.0658 26.25 33.0128 26.5909C32.9332 27.0568 33.045 27.4091 33.348 27.6477C33.651 27.8826 34.0696 28 34.6037 28ZM43.9716 29.1818C43.2405 29.1818 42.6269 28.9981 42.1307 28.6307C41.6345 28.2595 41.2841 27.7367 41.0795 27.0625C40.8788 26.3845 40.8542 25.5833 41.0057 24.6591C41.161 23.7424 41.4508 22.947 41.875 22.2727C42.303 21.5985 42.8277 21.0777 43.4489 20.7102C44.0701 20.3428 44.7481 20.1591 45.483 20.1591C46.0511 20.1591 46.4848 20.2538 46.7841 20.4432C47.0871 20.6288 47.3068 20.8409 47.4432 21.0795C47.5795 21.3144 47.6837 21.5076 47.7557 21.6591H47.8693L48.5852 17.3636H49.9261L47.9943 29H46.6989L46.9261 27.6591H46.767C46.642 27.8182 46.4678 28.0189 46.2443 28.2614C46.0208 28.5 45.7254 28.714 45.358 28.9034C44.9943 29.089 44.5322 29.1818 43.9716 29.1818ZM44.3011 27.9773C44.839 27.9773 45.3201 27.8371 45.7443 27.5568C46.1723 27.2727 46.5284 26.8807 46.8125 26.3807C47.0966 25.8769 47.2936 25.2955 47.4034 24.6364C47.5133 23.9848 47.5095 23.4148 47.392 22.9261C47.2746 22.4337 47.0492 22.0511 46.7159 21.7784C46.3826 21.5019 45.9413 21.3636 45.392 21.3636C44.8277 21.3636 44.3371 21.5095 43.9205 21.8011C43.5038 22.089 43.1648 22.4811 42.9034 22.9773C42.642 23.4697 42.4602 24.0227 42.358 24.6364C42.2557 25.2576 42.2538 25.822 42.3523 26.3295C42.4508 26.8333 42.6591 27.2348 42.9773 27.5341C43.2992 27.8295 43.7405 27.9773 44.3011 27.9773ZM54.2614 29.1818C53.4242 29.1818 52.733 28.9962 52.1875 28.625C51.642 28.25 51.2614 27.7273 51.0455 27.0568C50.8295 26.3826 50.7955 25.5985 50.9432 24.7045C51.0909 23.8106 51.3845 23.0227 51.8239 22.3409C52.2633 21.6553 52.8106 21.1212 53.4659 20.7386C54.1212 20.3523 54.8409 20.1591 55.625 20.1591C56.0795 20.1591 56.517 20.2348 56.9375 20.3864C57.358 20.5379 57.7216 20.7841 58.0284 21.125C58.3352 21.4621 58.5492 21.9091 58.6705 22.4659C58.7917 23.0227 58.7841 23.7083 58.6477 24.5227L58.5568 25.0909H51.8295L52.0114 23.9318H57.375C57.4621 23.4394 57.4394 23 57.3068 22.6136C57.178 22.2273 56.9527 21.9223 56.6307 21.6989C56.3125 21.4754 55.9091 21.3636 55.4205 21.3636C54.9167 21.3636 54.447 21.5 54.0114 21.7727C53.5758 22.0417 53.2121 22.3826 52.9205 22.7955C52.6288 23.2045 52.447 23.6212 52.375 24.0455L52.2159 25.0455C52.1023 25.7689 52.1193 26.3447 52.267 26.7727C52.4186 27.2008 52.6818 27.5095 53.0568 27.6989C53.4318 27.8845 53.9015 27.9773 54.4659 27.9773C54.8258 27.9773 55.1572 27.928 55.4602 27.8295C55.7633 27.7273 56.0341 27.5758 56.2727 27.375C56.5114 27.1705 56.7121 26.9167 56.875 26.6136L58.1023 26.9773C57.8939 27.4167 57.6004 27.803 57.2216 28.1364C56.8466 28.4659 56.4072 28.7235 55.9034 28.9091C55.4034 29.0909 54.8561 29.1818 54.2614 29.1818ZM66.6733 23.75L65.8097 29H64.4688L65.9233 20.2727H67.2188L66.9915 21.6364H67.1051C67.3778 21.1932 67.7472 20.8371 68.2131 20.5682C68.679 20.2955 69.2415 20.1591 69.9006 20.1591C70.4839 20.1591 70.9763 20.2803 71.3778 20.5227C71.7831 20.7614 72.0691 21.125 72.2358 21.6136C72.4063 22.0985 72.4309 22.7121 72.3097 23.4545L71.3778 29H70.0369L70.946 23.5455C71.0597 22.8636 70.9706 22.3295 70.679 21.9432C70.3911 21.5568 69.9347 21.3636 69.3097 21.3636C68.8778 21.3636 68.4782 21.4564 68.1108 21.642C67.7472 21.8277 67.4384 22.0985 67.1847 22.4545C66.9347 22.8106 66.7642 23.2424 66.6733 23.75ZM79.919 25.4318L80.7827 20.2727H82.1236L80.669 29H79.3281L79.5781 27.5227H79.4872C79.2145 27.9659 78.8338 28.3428 78.3452 28.6534C77.8565 28.9602 77.2827 29.1136 76.6236 29.1136C76.0781 29.1136 75.6122 28.9943 75.2259 28.7557C74.8433 28.5133 74.5705 28.1496 74.4077 27.6648C74.2486 27.1761 74.2296 26.5606 74.3509 25.8182L75.2827 20.2727H76.6236L75.7145 25.7273C75.6122 26.3636 75.7088 26.8712 76.0043 27.25C76.2997 27.6288 76.7259 27.8182 77.2827 27.8182C77.616 27.8182 77.9683 27.733 78.3395 27.5625C78.7145 27.392 79.0478 27.1307 79.3395 26.7784C79.6349 26.4261 79.8281 25.9773 79.919 25.4318ZM86.7614 29.1818C85.9242 29.1818 85.233 28.9962 84.6875 28.625C84.142 28.25 83.7614 27.7273 83.5455 27.0568C83.3295 26.3826 83.2955 25.5985 83.4432 24.7045C83.5909 23.8106 83.8845 23.0227 84.3239 22.3409C84.7633 21.6553 85.3106 21.1212 85.9659 20.7386C86.6212 20.3523 87.3409 20.1591 88.125 20.1591C88.5795 20.1591 89.017 20.2348 89.4375 20.3864C89.858 20.5379 90.2216 20.7841 90.5284 21.125C90.8352 21.4621 91.0492 21.9091 91.1705 22.4659C91.2917 23.0227 91.2841 23.7083 91.1477 24.5227L91.0568 25.0909H84.3295L84.5114 23.9318H89.875C89.9621 23.4394 89.9394 23 89.8068 22.6136C89.678 22.2273 89.4527 21.9223 89.1307 21.6989C88.8125 21.4754 88.4091 21.3636 87.9205 21.3636C87.4167 21.3636 86.947 21.5 86.5114 21.7727C86.0758 22.0417 85.7121 22.3826 85.4205 22.7955C85.1288 23.2045 84.947 23.6212 84.875 24.0455L84.7159 25.0455C84.6023 25.7689 84.6193 26.3447 84.767 26.7727C84.9186 27.2008 85.1818 27.5095 85.5568 27.6989C85.9318 27.8845 86.4015 27.9773 86.9659 27.9773C87.3258 27.9773 87.6572 27.928 87.9602 27.8295C88.2633 27.7273 88.5341 27.5758 88.7727 27.375C89.0114 27.1705 89.2121 26.9167 89.375 26.6136L90.6023 26.9773C90.3939 27.4167 90.1004 27.803 89.7216 28.1364C89.3466 28.4659 88.9072 28.7235 88.4034 28.9091C87.9034 29.0909 87.3561 29.1818 86.7614 29.1818ZM100.794 20.2727L96.1122 29H94.7486L92.9759 20.2727H94.3736L95.6236 27.2273H95.7145L99.2827 20.2727H100.794ZM104.399 29.1818C103.596 29.1818 102.924 28.9905 102.382 28.608C101.84 28.2254 101.458 27.6894 101.234 27C101.015 26.3106 100.979 25.5076 101.126 24.5909C101.27 23.697 101.556 22.9186 101.984 22.2557C102.416 21.589 102.952 21.0739 103.592 20.7102C104.236 20.3428 104.945 20.1591 105.717 20.1591C106.52 20.1591 107.191 20.3523 107.729 20.7386C108.27 21.1212 108.653 21.6591 108.876 22.3523C109.1 23.0417 109.138 23.8485 108.99 24.7727C108.846 25.6591 108.556 26.4337 108.121 27.0966C107.689 27.7557 107.153 28.2689 106.513 28.6364C105.876 29 105.172 29.1818 104.399 29.1818ZM104.422 27.9773C105.036 27.9773 105.568 27.8201 106.018 27.5057C106.473 27.1913 106.84 26.7765 107.121 26.2614C107.405 25.7462 107.596 25.1894 107.695 24.5909C107.786 24.0227 107.782 23.4943 107.683 23.0057C107.585 22.5133 107.375 22.1174 107.053 21.8182C106.731 21.5152 106.278 21.3636 105.695 21.3636C105.081 21.3636 104.545 21.5227 104.087 21.8409C103.632 22.1591 103.265 22.5777 102.984 23.0966C102.704 23.6155 102.517 24.1742 102.422 24.7727C102.331 25.3409 102.333 25.8693 102.428 26.358C102.526 26.8428 102.736 27.2348 103.058 27.5341C103.384 27.8295 103.839 27.9773 104.422 27.9773ZM117.662 22.2273L116.389 22.5682C116.344 22.3636 116.264 22.1667 116.151 21.9773C116.041 21.7841 115.87 21.6269 115.639 21.5057C115.412 21.3807 115.101 21.3182 114.707 21.3182C114.173 21.3182 113.709 21.4413 113.315 21.6875C112.921 21.9299 112.696 22.2386 112.639 22.6136C112.582 22.9432 112.658 23.2064 112.866 23.4034C113.075 23.6004 113.423 23.7614 113.912 23.8864L115.162 24.2045C115.912 24.3977 116.446 24.6875 116.764 25.0739C117.086 25.4564 117.196 25.9545 117.094 26.5682C117.01 27.0682 116.793 27.5152 116.44 27.9091C116.088 28.303 115.637 28.6136 115.088 28.8409C114.539 29.0682 113.927 29.1818 113.253 29.1818C112.355 29.1818 111.647 28.9886 111.128 28.6023C110.609 28.2121 110.332 27.6477 110.298 26.9091L111.639 26.5909C111.673 27.0568 111.84 27.4091 112.139 27.6477C112.442 27.8826 112.866 28 113.412 28C114.037 28 114.558 27.8674 114.974 27.6023C115.391 27.3333 115.628 27.0114 115.685 26.6364C115.741 26.3295 115.681 26.0739 115.503 25.8693C115.329 25.6648 115.026 25.5114 114.594 25.4091L113.207 25.0682C112.435 24.875 111.893 24.5795 111.582 24.1818C111.276 23.7841 111.173 23.2841 111.276 22.6818C111.359 22.1894 111.571 21.7538 111.912 21.375C112.257 20.9962 112.688 20.6989 113.207 20.483C113.73 20.267 114.298 20.1591 114.912 20.1591C115.776 20.1591 116.421 20.3485 116.849 20.7273C117.277 21.1023 117.548 21.6023 117.662 22.2273ZM129.294 25.4318L130.158 20.2727H131.499L130.044 29H128.703L128.953 27.5227H128.862C128.589 27.9659 128.209 28.3428 127.72 28.6534C127.232 28.9602 126.658 29.1136 125.999 29.1136C125.453 29.1136 124.987 28.9943 124.601 28.7557C124.218 28.5133 123.946 28.1496 123.783 27.6648C123.624 27.1761 123.605 26.5606 123.726 25.8182L124.658 20.2727H125.999L125.089 25.7273C124.987 26.3636 125.084 26.8712 125.379 27.25C125.675 27.6288 126.101 27.8182 126.658 27.8182C126.991 27.8182 127.343 27.733 127.714 27.5625C128.089 27.392 128.423 27.1307 128.714 26.7784C129.01 26.4261 129.203 25.9773 129.294 25.4318ZM139.818 22.2273L138.545 22.5682C138.5 22.3636 138.42 22.1667 138.307 21.9773C138.197 21.7841 138.027 21.6269 137.795 21.5057C137.568 21.3807 137.258 21.3182 136.864 21.3182C136.33 21.3182 135.866 21.4413 135.472 21.6875C135.078 21.9299 134.852 22.2386 134.795 22.6136C134.739 22.9432 134.814 23.2064 135.023 23.4034C135.231 23.6004 135.58 23.7614 136.068 23.8864L137.318 24.2045C138.068 24.3977 138.602 24.6875 138.92 25.0739C139.242 25.4564 139.352 25.9545 139.25 26.5682C139.167 27.0682 138.949 27.5152 138.597 27.9091C138.244 28.303 137.794 28.6136 137.244 28.8409C136.695 29.0682 136.083 29.1818 135.409 29.1818C134.511 29.1818 133.803 28.9886 133.284 28.6023C132.765 28.2121 132.489 27.6477 132.455 26.9091L133.795 26.5909C133.83 27.0568 133.996 27.4091 134.295 27.6477C134.598 27.8826 135.023 28 135.568 28C136.193 28 136.714 27.8674 137.131 27.6023C137.547 27.3333 137.784 27.0114 137.841 26.6364C137.898 26.3295 137.837 26.0739 137.659 25.8693C137.485 25.6648 137.182 25.5114 136.75 25.4091L135.364 25.0682C134.591 24.875 134.049 24.5795 133.739 24.1818C133.432 23.7841 133.33 23.2841 133.432 22.6818C133.515 22.1894 133.727 21.7538 134.068 21.375C134.413 20.9962 134.845 20.6989 135.364 20.483C135.886 20.267 136.455 20.1591 137.068 20.1591C137.932 20.1591 138.578 20.3485 139.006 20.7273C139.434 21.1023 139.705 21.6023 139.818 22.2273ZM146.95 25.4318L147.814 20.2727H149.155L147.7 29H146.359L146.609 27.5227H146.518C146.246 27.9659 145.865 28.3428 145.376 28.6534C144.888 28.9602 144.314 29.1136 143.655 29.1136C143.109 29.1136 142.643 28.9943 142.257 28.7557C141.875 28.5133 141.602 28.1496 141.439 27.6648C141.28 27.1761 141.261 26.5606 141.382 25.8182L142.314 20.2727H143.655L142.746 25.7273C142.643 26.3636 142.74 26.8712 143.036 27.25C143.331 27.6288 143.757 27.8182 144.314 27.8182C144.647 27.8182 145 27.733 145.371 27.5625C145.746 27.392 146.079 27.1307 146.371 26.7784C146.666 26.4261 146.859 25.9773 146.95 25.4318ZM152.702 29.2045C152.149 29.2045 151.664 29.1004 151.247 28.892C150.83 28.6799 150.522 28.375 150.321 27.9773C150.12 27.5758 150.065 27.0909 150.156 26.5227C150.243 26.0227 150.412 25.6174 150.662 25.3068C150.912 24.9924 151.215 24.7462 151.571 24.5682C151.931 24.3864 152.317 24.2519 152.73 24.1648C153.147 24.0739 153.562 24.0038 153.974 23.9545C154.512 23.8864 154.95 23.8333 155.287 23.7955C155.624 23.7576 155.878 23.6951 156.048 23.608C156.219 23.5208 156.323 23.3712 156.361 23.1591V23.1136C156.452 22.5568 156.378 22.1231 156.139 21.8125C155.901 21.4981 155.474 21.3409 154.861 21.3409C154.224 21.3409 153.692 21.4811 153.264 21.7614C152.836 22.0417 152.52 22.3409 152.315 22.6591L151.134 22.2045C151.444 21.6742 151.815 21.2614 152.247 20.9659C152.679 20.6667 153.132 20.4583 153.605 20.3409C154.079 20.2197 154.535 20.1591 154.974 20.1591C155.255 20.1591 155.571 20.1932 155.923 20.2614C156.276 20.3258 156.605 20.4602 156.912 20.6648C157.223 20.8693 157.455 21.178 157.611 21.5909C157.77 22.0038 157.793 22.5568 157.679 23.25L156.724 29H155.384L155.588 27.8182H155.52C155.399 28.0076 155.213 28.2102 154.963 28.4261C154.717 28.642 154.404 28.8258 154.026 28.9773C153.651 29.1288 153.209 29.2045 152.702 29.2045ZM153.088 28C153.618 28 154.082 27.8958 154.48 27.6875C154.882 27.4792 155.204 27.2102 155.446 26.8807C155.692 26.5511 155.846 26.2045 155.906 25.8409L156.111 24.6136C156.043 24.6818 155.908 24.7443 155.707 24.8011C155.507 24.8542 155.279 24.9015 155.026 24.9432C154.776 24.9811 154.531 25.0152 154.293 25.0455C154.058 25.072 153.868 25.0947 153.724 25.1136C153.368 25.1591 153.029 25.233 152.707 25.3352C152.389 25.4337 152.12 25.5833 151.901 25.7841C151.685 25.9811 151.55 26.25 151.497 26.5909C151.418 27.0568 151.529 27.4091 151.832 27.6477C152.135 27.8826 152.554 28 153.088 28ZM159.172 29L160.626 20.2727H161.922L161.695 21.5909H161.786C162.013 21.1591 162.359 20.8087 162.825 20.5398C163.291 20.2708 163.786 20.1364 164.308 20.1364C164.411 20.1364 164.534 20.1383 164.678 20.142C164.821 20.142 164.933 20.1477 165.013 20.1591L164.786 21.5227C164.74 21.5114 164.638 21.4943 164.479 21.4716C164.32 21.4451 164.149 21.4318 163.967 21.4318C163.543 21.4318 163.151 21.5208 162.791 21.6989C162.431 21.8731 162.13 22.1155 161.888 22.4261C161.645 22.733 161.49 23.0833 161.422 23.4773L160.513 29H159.172ZM165.156 29L166.611 20.2727H167.952L166.497 29H165.156ZM167.69 18.7955C167.429 18.7955 167.204 18.7064 167.014 18.5284C166.829 18.3504 166.736 18.1364 166.736 17.8864C166.736 17.6364 166.829 17.4223 167.014 17.2443C167.204 17.0663 167.429 16.9773 167.69 16.9773C167.952 16.9773 168.175 17.0663 168.361 17.2443C168.55 17.4223 168.645 17.6364 168.645 17.8864C168.645 18.1364 168.55 18.3504 168.361 18.5284C168.175 18.7064 167.952 18.7955 167.69 18.7955ZM172.555 29.1818C171.752 29.1818 171.08 28.9905 170.538 28.608C169.997 28.2254 169.614 27.6894 169.391 27C169.171 26.3106 169.135 25.5076 169.283 24.5909C169.427 23.697 169.713 22.9186 170.141 22.2557C170.572 21.589 171.108 21.0739 171.749 20.7102C172.393 20.3428 173.101 20.1591 173.874 20.1591C174.677 20.1591 175.347 20.3523 175.885 20.7386C176.427 21.1212 176.809 21.6591 177.033 22.3523C177.256 23.0417 177.294 23.8485 177.146 24.7727C177.002 25.6591 176.713 26.4337 176.277 27.0966C175.845 27.7557 175.309 28.2689 174.669 28.6364C174.033 29 173.328 29.1818 172.555 29.1818ZM172.578 27.9773C173.192 27.9773 173.724 27.8201 174.175 27.5057C174.629 27.1913 174.997 26.7765 175.277 26.2614C175.561 25.7462 175.752 25.1894 175.851 24.5909C175.942 24.0227 175.938 23.4943 175.839 23.0057C175.741 22.5133 175.531 22.1174 175.209 21.8182C174.887 21.5152 174.434 21.3636 173.851 21.3636C173.237 21.3636 172.701 21.5227 172.243 21.8409C171.788 22.1591 171.421 22.5777 171.141 23.0966C170.86 23.6155 170.673 24.1742 170.578 24.7727C170.487 25.3409 170.489 25.8693 170.584 26.358C170.682 26.8428 170.893 27.2348 171.214 27.5341C171.54 27.8295 171.995 27.9773 172.578 27.9773ZM185.818 22.2273L184.545 22.5682C184.5 22.3636 184.42 22.1667 184.307 21.9773C184.197 21.7841 184.027 21.6269 183.795 21.5057C183.568 21.3807 183.258 21.3182 182.864 21.3182C182.33 21.3182 181.866 21.4413 181.472 21.6875C181.078 21.9299 180.852 22.2386 180.795 22.6136C180.739 22.9432 180.814 23.2064 181.023 23.4034C181.231 23.6004 181.58 23.7614 182.068 23.8864L183.318 24.2045C184.068 24.3977 184.602 24.6875 184.92 25.0739C185.242 25.4564 185.352 25.9545 185.25 26.5682C185.167 27.0682 184.949 27.5152 184.597 27.9091C184.244 28.303 183.794 28.6136 183.244 28.8409C182.695 29.0682 182.083 29.1818 181.409 29.1818C180.511 29.1818 179.803 28.9886 179.284 28.6023C178.765 28.2121 178.489 27.6477 178.455 26.9091L179.795 26.5909C179.83 27.0568 179.996 27.4091 180.295 27.6477C180.598 27.8826 181.023 28 181.568 28C182.193 28 182.714 27.8674 183.131 27.6023C183.547 27.3333 183.784 27.0114 183.841 26.6364C183.898 26.3295 183.837 26.0739 183.659 25.8693C183.485 25.6648 183.182 25.5114 182.75 25.4091L181.364 25.0682C180.591 24.875 180.049 24.5795 179.739 24.1818C179.432 23.7841 179.33 23.2841 179.432 22.6818C179.515 22.1894 179.727 21.7538 180.068 21.375C180.413 20.9962 180.845 20.6989 181.364 20.483C181.886 20.267 182.455 20.1591 183.068 20.1591C183.932 20.1591 184.578 20.3485 185.006 20.7273C185.434 21.1023 185.705 21.6023 185.818 22.2273Z" fill="white"/>
</svg>
