<svg width="218" height="64" viewBox="0 0 218 64" fill="none" xmlns="http://www.w3.org/2000/svg">
<path fill-rule="evenodd" clip-rule="evenodd" d="M20.231 0C9.18526 0 0.230957 8.95432 0.230957 20V27.3313C0.230957 38.377 9.18527 47.3313 20.231 47.3313H32.2994L22.3032 59.8835C21.0458 61.4624 22.6531 63.6982 24.5503 63.0094L67.7303 47.3313H198C209.046 47.3313 218 38.377 218 27.3313V20C218 8.9543 209.046 0 198 0H20.231Z" fill="#4F4F4F"/>
<path d="M22.3636 21H20.9773C20.9621 20.5947 20.8788 20.2386 20.7273 19.9318C20.5758 19.625 20.3712 19.3674 20.1136 19.1591C19.8598 18.947 19.5682 18.7879 19.2386 18.6818C18.9091 18.5758 18.5568 18.5227 18.1818 18.5227C17.4621 18.5227 16.7803 18.7064 16.1364 19.0739C15.4924 19.4375 14.9413 19.9735 14.483 20.6818C14.0246 21.3864 13.7121 22.25 13.5455 23.2727C13.3788 24.2652 13.4034 25.1004 13.6193 25.7784C13.8352 26.4564 14.1932 26.9697 14.6932 27.3182C15.1932 27.6667 15.7879 27.8409 16.4773 27.8409C16.875 27.8409 17.2652 27.7879 17.6477 27.6818C18.0341 27.5758 18.3939 27.4186 18.7273 27.2102C19.0644 26.9981 19.3636 26.7386 19.625 26.4318C19.8902 26.1212 20.0985 25.7652 20.25 25.3636H21.6591C21.4508 25.9583 21.1686 26.4905 20.8125 26.9602C20.4602 27.4299 20.053 27.8295 19.5909 28.1591C19.1288 28.4848 18.6307 28.733 18.0966 28.9034C17.5625 29.0739 17.0076 29.1591 16.4318 29.1591C15.4242 29.1591 14.5663 28.9129 13.858 28.4205C13.1534 27.9242 12.6496 27.2235 12.3466 26.3182C12.0473 25.4091 12 24.3333 12.2045 23.0909C12.4091 21.8788 12.8011 20.8333 13.3807 19.9545C13.9602 19.072 14.6705 18.3939 15.5114 17.9205C16.3523 17.4432 17.2652 17.2045 18.25 17.2045C18.8409 17.2045 19.3845 17.2898 19.8807 17.4602C20.3769 17.6307 20.8087 17.8807 21.1761 18.2102C21.5436 18.536 21.8295 18.9337 22.0341 19.4034C22.2424 19.8693 22.3523 20.4015 22.3636 21ZM29.2315 25.4318L30.0952 20.2727H31.4361L29.9815 29H28.6406L28.8906 27.5227H28.7997C28.527 27.9659 28.1463 28.3428 27.6577 28.6534C27.169 28.9602 26.5952 29.1136 25.9361 29.1136C25.3906 29.1136 24.9247 28.9943 24.5384 28.7557C24.1558 28.5133 23.883 28.1496 23.7202 27.6648C23.5611 27.1761 23.5421 26.5606 23.6634 25.8182L24.5952 20.2727H25.9361L25.027 25.7273C24.9247 26.3636 25.0213 26.8712 25.3168 27.25C25.6122 27.6288 26.0384 27.8182 26.5952 27.8182C26.9285 27.8182 27.2808 27.733 27.652 27.5625C28.027 27.392 28.3603 27.1307 28.652 26.7784C28.9474 26.4261 29.1406 25.9773 29.2315 25.4318ZM36.0739 29.1818C35.2367 29.1818 34.5455 28.9962 34 28.625C33.4545 28.25 33.0739 27.7273 32.858 27.0568C32.642 26.3826 32.608 25.5985 32.7557 24.7045C32.9034 23.8106 33.197 23.0227 33.6364 22.3409C34.0758 21.6553 34.6231 21.1212 35.2784 20.7386C35.9337 20.3523 36.6534 20.1591 37.4375 20.1591C37.892 20.1591 38.3295 20.2348 38.75 20.3864C39.1705 20.5379 39.5341 20.7841 39.8409 21.125C40.1477 21.4621 40.3617 21.9091 40.483 22.4659C40.6042 23.0227 40.5966 23.7083 40.4602 24.5227L40.3693 25.0909H33.642L33.8239 23.9318H39.1875C39.2746 23.4394 39.2519 23 39.1193 22.6136C38.9905 22.2273 38.7652 21.9223 38.4432 21.6989C38.125 21.4754 37.7216 21.3636 37.233 21.3636C36.7292 21.3636 36.2595 21.5 35.8239 21.7727C35.3883 22.0417 35.0246 22.3826 34.733 22.7955C34.4413 23.2045 34.2595 23.6212 34.1875 24.0455L34.0284 25.0455C33.9148 25.7689 33.9318 26.3447 34.0795 26.7727C34.2311 27.2008 34.4943 27.5095 34.8693 27.6989C35.2443 27.8845 35.714 27.9773 36.2784 27.9773C36.6383 27.9773 36.9697 27.928 37.2727 27.8295C37.5758 27.7273 37.8466 27.5758 38.0852 27.375C38.3239 27.1705 38.5246 26.9167 38.6875 26.6136L39.9148 26.9773C39.7064 27.4167 39.4129 27.803 39.0341 28.1364C38.6591 28.4659 38.2197 28.7235 37.7159 28.9091C37.2159 29.0909 36.6686 29.1818 36.0739 29.1818ZM36.9148 19.0909L38.733 16.4545H40.3011L38.0966 19.0909H36.9148ZM43.9858 23.75L43.1222 29H41.7812L43.2358 20.2727H44.5312L44.304 21.6364H44.4176C44.6903 21.1932 45.0597 20.8371 45.5256 20.5682C45.9915 20.2955 46.554 20.1591 47.2131 20.1591C47.7964 20.1591 48.2888 20.2803 48.6903 20.5227C49.0956 20.7614 49.3816 21.125 49.5483 21.6136C49.7188 22.0985 49.7434 22.7121 49.6222 23.4545L48.6903 29H47.3494L48.2585 23.5455C48.3722 22.8636 48.2831 22.3295 47.9915 21.9432C47.7036 21.5568 47.2472 21.3636 46.6222 21.3636C46.1903 21.3636 45.7907 21.4564 45.4233 21.642C45.0597 21.8277 44.7509 22.0985 44.4972 22.4545C44.2472 22.8106 44.0767 23.2424 43.9858 23.75ZM56.3906 20.2727L56.2088 21.4091H51.6861L51.8679 20.2727H56.3906ZM53.527 18.1818H54.8679L53.4815 26.5C53.4209 26.8788 53.4304 27.1629 53.5099 27.3523C53.5933 27.5379 53.7183 27.6629 53.8849 27.7273C54.0554 27.7879 54.2391 27.8182 54.4361 27.8182C54.5838 27.8182 54.705 27.8106 54.7997 27.7955C54.8944 27.7765 54.9702 27.7614 55.027 27.75L55.1179 28.9545C55.0156 28.9886 54.8774 29.0227 54.7031 29.0568C54.5327 29.0947 54.3224 29.1136 54.0724 29.1136C53.6937 29.1136 53.3376 29.0322 53.0043 28.8693C52.6709 28.7064 52.4152 28.4583 52.2372 28.125C52.0592 27.7917 52.0118 27.3712 52.0952 26.8636L53.527 18.1818ZM59.4986 29.2045C58.9455 29.2045 58.4607 29.1004 58.044 28.892C57.6274 28.6799 57.3187 28.375 57.1179 27.9773C56.9171 27.5758 56.8622 27.0909 56.9531 26.5227C57.0402 26.0227 57.2088 25.6174 57.4588 25.3068C57.7088 24.9924 58.0118 24.7462 58.3679 24.5682C58.7277 24.3864 59.1141 24.2519 59.527 24.1648C59.9437 24.0739 60.3584 24.0038 60.7713 23.9545C61.3092 23.8864 61.7467 23.8333 62.0838 23.7955C62.4209 23.7576 62.6747 23.6951 62.8452 23.608C63.0156 23.5208 63.1198 23.3712 63.1577 23.1591V23.1136C63.2486 22.5568 63.1747 22.1231 62.9361 21.8125C62.6974 21.4981 62.2713 21.3409 61.6577 21.3409C61.0213 21.3409 60.4891 21.4811 60.0611 21.7614C59.633 22.0417 59.3168 22.3409 59.1122 22.6591L57.9304 22.2045C58.241 21.6742 58.6122 21.2614 59.044 20.9659C59.4759 20.6667 59.9285 20.4583 60.402 20.3409C60.8755 20.2197 61.3319 20.1591 61.7713 20.1591C62.0516 20.1591 62.3679 20.1932 62.7202 20.2614C63.0724 20.3258 63.402 20.4602 63.7088 20.6648C64.0194 20.8693 64.2524 21.178 64.4077 21.5909C64.5668 22.0038 64.5895 22.5568 64.4759 23.25L63.5213 29H62.1804L62.3849 27.8182H62.3168C62.1955 28.0076 62.0099 28.2102 61.7599 28.4261C61.5137 28.642 61.2012 28.8258 60.8224 28.9773C60.4474 29.1288 60.0062 29.2045 59.4986 29.2045ZM59.8849 28C60.4152 28 60.8793 27.8958 61.277 27.6875C61.6785 27.4792 62.0005 27.2102 62.2429 26.8807C62.4891 26.5511 62.6425 26.2045 62.7031 25.8409L62.9077 24.6136C62.8395 24.6818 62.705 24.7443 62.5043 24.8011C62.3035 24.8542 62.0762 24.9015 61.8224 24.9432C61.5724 24.9811 61.3281 25.0152 61.0895 25.0455C60.8546 25.072 60.6652 25.0947 60.5213 25.1136C60.1652 25.1591 59.8262 25.233 59.5043 25.3352C59.1861 25.4337 58.9171 25.5833 58.6974 25.7841C58.4815 25.9811 58.3471 26.25 58.294 26.5909C58.2145 27.0568 58.3262 27.4091 58.6293 27.6477C58.9323 27.8826 59.3509 28 59.8849 28ZM68.1733 23.75L67.3097 29H65.9688L67.4233 20.2727H68.7188L68.4915 21.6364H68.6051C68.8778 21.1932 69.2472 20.8371 69.7131 20.5682C70.179 20.2955 70.7415 20.1591 71.4006 20.1591C71.9839 20.1591 72.4763 20.2803 72.8778 20.5227C73.2831 20.7614 73.5691 21.125 73.7358 21.6136C73.9063 22.0985 73.9309 22.7121 73.8097 23.4545L72.8778 29H71.5369L72.446 23.5455C72.5597 22.8636 72.4706 22.3295 72.179 21.9432C71.8911 21.5568 71.4347 21.3636 70.8097 21.3636C70.3778 21.3636 69.9782 21.4564 69.6108 21.642C69.2472 21.8277 68.9384 22.0985 68.6847 22.4545C68.4347 22.8106 68.2642 23.2424 68.1733 23.75ZM78.9304 29.1818C78.1274 29.1818 77.455 28.9905 76.9134 28.608C76.3717 28.2254 75.9891 27.6894 75.7656 27C75.5459 26.3106 75.5099 25.5076 75.6577 24.5909C75.8016 23.697 76.0876 22.9186 76.5156 22.2557C76.9474 21.589 77.4834 21.0739 78.1236 20.7102C78.7675 20.3428 79.4759 20.1591 80.2486 20.1591C81.0516 20.1591 81.7221 20.3523 82.2599 20.7386C82.8016 21.1212 83.1842 21.6591 83.4077 22.3523C83.6312 23.0417 83.669 23.8485 83.5213 24.7727C83.3774 25.6591 83.0876 26.4337 82.652 27.0966C82.2202 27.7557 81.6842 28.2689 81.044 28.6364C80.4077 29 79.7031 29.1818 78.9304 29.1818ZM78.9531 27.9773C79.5668 27.9773 80.099 27.8201 80.5497 27.5057C81.0043 27.1913 81.3717 26.7765 81.652 26.2614C81.9361 25.7462 82.1274 25.1894 82.2259 24.5909C82.3168 24.0227 82.313 23.4943 82.2145 23.0057C82.116 22.5133 81.9058 22.1174 81.5838 21.8182C81.2618 21.5152 80.8092 21.3636 80.2259 21.3636C79.6122 21.3636 79.0762 21.5227 78.6179 21.8409C78.1634 22.1591 77.7959 22.5777 77.5156 23.0966C77.2353 23.6155 77.0478 24.1742 76.9531 24.7727C76.8622 25.3409 76.8641 25.8693 76.9588 26.358C77.0573 26.8428 77.2675 27.2348 77.5895 27.5341C77.9152 27.8295 78.3698 27.9773 78.9531 27.9773ZM92.1932 22.2273L90.9205 22.5682C90.875 22.3636 90.7955 22.1667 90.6818 21.9773C90.572 21.7841 90.4015 21.6269 90.1705 21.5057C89.9432 21.3807 89.6326 21.3182 89.2386 21.3182C88.7045 21.3182 88.2405 21.4413 87.8466 21.6875C87.4527 21.9299 87.2273 22.2386 87.1705 22.6136C87.1136 22.9432 87.1894 23.2064 87.3977 23.4034C87.6061 23.6004 87.9545 23.7614 88.4432 23.8864L89.6932 24.2045C90.4432 24.3977 90.9773 24.6875 91.2955 25.0739C91.6174 25.4564 91.7273 25.9545 91.625 26.5682C91.5417 27.0682 91.3239 27.5152 90.9716 27.9091C90.6193 28.303 90.1686 28.6136 89.6193 28.8409C89.0701 29.0682 88.4583 29.1818 87.7841 29.1818C86.8864 29.1818 86.178 28.9886 85.6591 28.6023C85.1402 28.2121 84.8636 27.6477 84.8295 26.9091L86.1705 26.5909C86.2045 27.0568 86.3712 27.4091 86.6705 27.6477C86.9735 27.8826 87.3977 28 87.9432 28C88.5682 28 89.089 27.8674 89.5057 27.6023C89.9223 27.3333 90.1591 27.0114 90.2159 26.6364C90.2727 26.3295 90.2121 26.0739 90.0341 25.8693C89.8598 25.6648 89.5568 25.5114 89.125 25.4091L87.7386 25.0682C86.9659 24.875 86.4242 24.5795 86.1136 24.1818C85.8068 23.7841 85.7045 23.2841 85.8068 22.6818C85.8902 22.1894 86.1023 21.7538 86.4432 21.375C86.7879 20.9962 87.2197 20.6989 87.7386 20.483C88.2614 20.267 88.8295 20.1591 89.4432 20.1591C90.3068 20.1591 90.9527 20.3485 91.3807 20.7273C91.8087 21.1023 92.0795 21.6023 92.1932 22.2273ZM103.825 25.4318L104.689 20.2727H106.03L104.575 29H103.234L103.484 27.5227H103.393C103.121 27.9659 102.74 28.3428 102.251 28.6534C101.763 28.9602 101.189 29.1136 100.53 29.1136C99.9844 29.1136 99.5185 28.9943 99.1321 28.7557C98.7495 28.5133 98.4768 28.1496 98.3139 27.6648C98.1548 27.1761 98.1359 26.5606 98.2571 25.8182L99.1889 20.2727H100.53L99.6207 25.7273C99.5185 26.3636 99.6151 26.8712 99.9105 27.25C100.206 27.6288 100.632 27.8182 101.189 27.8182C101.522 27.8182 101.875 27.733 102.246 27.5625C102.621 27.392 102.954 27.1307 103.246 26.7784C103.541 26.4261 103.734 25.9773 103.825 25.4318ZM109.236 23.75L108.372 29H107.031L108.486 20.2727H109.781L109.554 21.6364H109.668C109.94 21.1932 110.31 20.8371 110.776 20.5682C111.241 20.2955 111.804 20.1591 112.463 20.1591C113.046 20.1591 113.539 20.2803 113.94 20.5227C114.346 20.7614 114.632 21.125 114.798 21.6136C114.969 22.0985 114.993 22.7121 114.872 23.4545L113.94 29H112.599L113.509 23.5455C113.622 22.8636 113.533 22.3295 113.241 21.9432C112.954 21.5568 112.497 21.3636 111.872 21.3636C111.44 21.3636 111.041 21.4564 110.673 21.642C110.31 21.8277 110.001 22.0985 109.747 22.4545C109.497 22.8106 109.327 23.2424 109.236 23.75ZM120.345 32.2727L122.357 20.2727H123.652L123.425 21.6591H123.584C123.705 21.5076 123.872 21.3144 124.084 21.0795C124.3 20.8409 124.589 20.6288 124.953 20.4432C125.321 20.2538 125.788 20.1591 126.357 20.1591C127.091 20.1591 127.707 20.3428 128.203 20.7102C128.699 21.0777 129.05 21.5985 129.254 22.2727C129.459 22.947 129.485 23.7424 129.334 24.6591C129.182 25.5833 128.893 26.3845 128.464 27.0625C128.036 27.7367 127.514 28.2595 126.896 28.6307C126.279 28.9981 125.607 29.1818 124.879 29.1818C124.319 29.1818 123.885 29.089 123.578 28.9034C123.271 28.714 123.048 28.5 122.908 28.2614C122.768 28.0189 122.66 27.8182 122.584 27.6591H122.47L121.697 32.2727H120.345ZM122.947 24.6364C122.841 25.2955 122.841 25.8769 122.947 26.3807C123.057 26.8807 123.275 27.2727 123.601 27.5568C123.93 27.8371 124.364 27.9773 124.902 27.9773C125.463 27.9773 125.953 27.8295 126.374 27.5341C126.798 27.2348 127.146 26.8333 127.419 26.3295C127.696 25.822 127.887 25.2576 127.993 24.6364C128.091 24.0227 128.088 23.4697 127.982 22.9773C127.875 22.4811 127.66 22.089 127.334 21.8011C127.008 21.5095 126.561 21.3636 125.993 21.3636C125.447 21.3636 124.964 21.5019 124.544 21.7784C124.127 22.0511 123.783 22.4337 123.51 22.9261C123.241 23.4148 123.054 23.9848 122.947 24.6364ZM134.259 29.1818C133.455 29.1818 132.783 28.9905 132.241 28.608C131.7 28.2254 131.317 27.6894 131.094 27C130.874 26.3106 130.838 25.5076 130.986 24.5909C131.13 23.697 131.416 22.9186 131.844 22.2557C132.276 21.589 132.812 21.0739 133.452 20.7102C134.096 20.3428 134.804 20.1591 135.577 20.1591C136.38 20.1591 137.05 20.3523 137.588 20.7386C138.13 21.1212 138.512 21.6591 138.736 22.3523C138.959 23.0417 138.997 23.8485 138.849 24.7727C138.705 25.6591 138.416 26.4337 137.98 27.0966C137.548 27.7557 137.012 28.2689 136.372 28.6364C135.736 29 135.031 29.1818 134.259 29.1818ZM134.281 27.9773C134.895 27.9773 135.427 27.8201 135.878 27.5057C136.332 27.1913 136.7 26.7765 136.98 26.2614C137.264 25.7462 137.455 25.1894 137.554 24.5909C137.645 24.0227 137.641 23.4943 137.543 23.0057C137.444 22.5133 137.234 22.1174 136.912 21.8182C136.59 21.5152 136.137 21.3636 135.554 21.3636C134.94 21.3636 134.404 21.5227 133.946 21.8409C133.491 22.1591 133.124 22.5777 132.844 23.0966C132.563 23.6155 132.376 24.1742 132.281 24.7727C132.19 25.3409 132.192 25.8693 132.287 26.358C132.385 26.8428 132.596 27.2348 132.918 27.5341C133.243 27.8295 133.698 27.9773 134.281 27.9773ZM143.726 29.1818C142.904 29.1818 142.23 28.9886 141.703 28.6023C141.18 28.2159 140.817 27.6837 140.612 27.0057C140.408 26.3277 140.377 25.553 140.521 24.6818C140.665 23.7955 140.957 23.0133 141.396 22.3352C141.836 21.6534 142.383 21.1212 143.038 20.7386C143.694 20.3523 144.415 20.1591 145.203 20.1591C145.817 20.1591 146.351 20.2727 146.805 20.5C147.26 20.7273 147.61 21.0455 147.857 21.4545C148.103 21.8636 148.218 22.3409 148.203 22.8864H146.862C146.824 22.4886 146.654 22.1364 146.351 21.8295C146.052 21.5189 145.608 21.3636 145.021 21.3636C144.499 21.3636 144.018 21.5 143.578 21.7727C143.139 22.0417 142.769 22.4223 142.47 22.9148C142.171 23.4034 141.968 23.9773 141.862 24.6364C141.749 25.3106 141.758 25.8977 141.891 26.3977C142.023 26.8977 142.264 27.286 142.612 27.5625C142.961 27.839 143.4 27.9773 143.93 27.9773C144.279 27.9773 144.605 27.9167 144.908 27.7955C145.211 27.6742 145.48 27.5 145.714 27.2727C145.949 27.0455 146.135 26.7727 146.271 26.4545H147.612C147.446 26.9697 147.179 27.4337 146.811 27.8466C146.444 28.2557 145.999 28.5814 145.476 28.8239C144.953 29.0625 144.37 29.1818 143.726 29.1818ZM152.743 29.1818C151.94 29.1818 151.268 28.9905 150.726 28.608C150.184 28.2254 149.802 27.6894 149.578 27C149.358 26.3106 149.322 25.5076 149.47 24.5909C149.614 23.697 149.9 22.9186 150.328 22.2557C150.76 21.589 151.296 21.0739 151.936 20.7102C152.58 20.3428 153.288 20.1591 154.061 20.1591C154.864 20.1591 155.535 20.3523 156.072 20.7386C156.614 21.1212 156.997 21.6591 157.22 22.3523C157.444 23.0417 157.482 23.8485 157.334 24.7727C157.19 25.6591 156.9 26.4337 156.464 27.0966C156.033 27.7557 155.497 28.2689 154.857 28.6364C154.22 29 153.516 29.1818 152.743 29.1818ZM152.766 27.9773C153.379 27.9773 153.911 27.8201 154.362 27.5057C154.817 27.1913 155.184 26.7765 155.464 26.2614C155.749 25.7462 155.94 25.1894 156.038 24.5909C156.129 24.0227 156.125 23.4943 156.027 23.0057C155.929 22.5133 155.718 22.1174 155.396 21.8182C155.074 21.5152 154.622 21.3636 154.038 21.3636C153.425 21.3636 152.889 21.5227 152.43 21.8409C151.976 22.1591 151.608 22.5777 151.328 23.0966C151.048 23.6155 150.86 24.1742 150.766 24.7727C150.675 25.3409 150.677 25.8693 150.771 26.358C150.87 26.8428 151.08 27.2348 151.402 27.5341C151.728 27.8295 152.182 27.9773 152.766 27.9773ZM163.188 29L164.642 20.2727H165.938L165.71 21.6364H165.824C166.085 21.1705 166.439 20.8087 166.886 20.5511C167.337 20.2898 167.847 20.1591 168.415 20.1591C168.983 20.1591 169.439 20.2898 169.784 20.5511C170.129 20.8087 170.369 21.1705 170.506 21.6364H170.597C170.892 21.1818 171.286 20.822 171.778 20.5568C172.275 20.2917 172.835 20.1591 173.46 20.1591C174.233 20.1591 174.828 20.4034 175.244 20.892C175.665 21.3807 175.79 22.1364 175.619 23.1591L174.642 29H173.301L174.278 23.1591C174.381 22.5114 174.278 22.0511 173.972 21.7784C173.669 21.5019 173.278 21.3636 172.801 21.3636C172.188 21.3636 171.682 21.5473 171.284 21.9148C170.886 22.2822 170.642 22.75 170.551 23.3182L169.597 29H168.233L169.233 23.0227C169.313 22.5227 169.218 22.1212 168.949 21.8182C168.68 21.5152 168.29 21.3636 167.778 21.3636C167.43 21.3636 167.089 21.4583 166.756 21.6477C166.422 21.8333 166.136 22.0909 165.898 22.4205C165.659 22.7462 165.506 23.1212 165.438 23.5455L164.528 29H163.188ZM179.639 29.2045C179.086 29.2045 178.601 29.1004 178.185 28.892C177.768 28.6799 177.459 28.375 177.259 27.9773C177.058 27.5758 177.003 27.0909 177.094 26.5227C177.181 26.0227 177.349 25.6174 177.599 25.3068C177.849 24.9924 178.152 24.7462 178.509 24.5682C178.868 24.3864 179.255 24.2519 179.668 24.1648C180.084 24.0739 180.499 24.0038 180.912 23.9545C181.45 23.8864 181.887 23.8333 182.224 23.7955C182.562 23.7576 182.815 23.6951 182.986 23.608C183.156 23.5208 183.26 23.3712 183.298 23.1591V23.1136C183.389 22.5568 183.315 22.1231 183.077 21.8125C182.838 21.4981 182.412 21.3409 181.798 21.3409C181.162 21.3409 180.63 21.4811 180.202 21.7614C179.774 22.0417 179.457 22.3409 179.253 22.6591L178.071 22.2045C178.382 21.6742 178.753 21.2614 179.185 20.9659C179.616 20.6667 180.069 20.4583 180.543 20.3409C181.016 20.2197 181.473 20.1591 181.912 20.1591C182.192 20.1591 182.509 20.1932 182.861 20.2614C183.213 20.3258 183.543 20.4602 183.849 20.6648C184.16 20.8693 184.393 21.178 184.548 21.5909C184.707 22.0038 184.73 22.5568 184.616 23.25L183.662 29H182.321L182.526 27.8182H182.457C182.336 28.0076 182.151 28.2102 181.901 28.4261C181.654 28.642 181.342 28.8258 180.963 28.9773C180.588 29.1288 180.147 29.2045 179.639 29.2045ZM180.026 28C180.556 28 181.02 27.8958 181.418 27.6875C181.819 27.4792 182.141 27.2102 182.384 26.8807C182.63 26.5511 182.783 26.2045 182.844 25.8409L183.048 24.6136C182.98 24.6818 182.846 24.7443 182.645 24.8011C182.444 24.8542 182.217 24.9015 181.963 24.9432C181.713 24.9811 181.469 25.0152 181.23 25.0455C180.995 25.072 180.806 25.0947 180.662 25.1136C180.306 25.1591 179.967 25.233 179.645 25.3352C179.327 25.4337 179.058 25.5833 178.838 25.7841C178.622 25.9811 178.488 26.25 178.435 26.5909C178.355 27.0568 178.467 27.4091 178.77 27.6477C179.073 27.8826 179.491 28 180.026 28ZM181.548 19.0909L183.366 16.4545H184.935L182.73 19.0909H181.548ZM193.428 22.2273L192.155 22.5682C192.109 22.3636 192.03 22.1667 191.916 21.9773C191.806 21.7841 191.636 21.6269 191.405 21.5057C191.178 21.3807 190.867 21.3182 190.473 21.3182C189.939 21.3182 189.475 21.4413 189.081 21.6875C188.687 21.9299 188.462 22.2386 188.405 22.6136C188.348 22.9432 188.424 23.2064 188.632 23.4034C188.84 23.6004 189.189 23.7614 189.678 23.8864L190.928 24.2045C191.678 24.3977 192.212 24.6875 192.53 25.0739C192.852 25.4564 192.962 25.9545 192.859 26.5682C192.776 27.0682 192.558 27.5152 192.206 27.9091C191.854 28.303 191.403 28.6136 190.854 28.8409C190.304 29.0682 189.693 29.1818 189.018 29.1818C188.121 29.1818 187.412 28.9886 186.893 28.6023C186.375 28.2121 186.098 27.6477 186.064 26.9091L187.405 26.5909C187.439 27.0568 187.606 27.4091 187.905 27.6477C188.208 27.8826 188.632 28 189.178 28C189.803 28 190.323 27.8674 190.74 27.6023C191.157 27.3333 191.393 27.0114 191.45 26.6364C191.507 26.3295 191.446 26.0739 191.268 25.8693C191.094 25.6648 190.791 25.5114 190.359 25.4091L188.973 25.0682C188.2 24.875 187.659 24.5795 187.348 24.1818C187.041 23.7841 186.939 23.2841 187.041 22.6818C187.125 22.1894 187.337 21.7538 187.678 21.375C188.022 20.9962 188.454 20.6989 188.973 20.483C189.496 20.267 190.064 20.1591 190.678 20.1591C191.541 20.1591 192.187 20.3485 192.615 20.7273C193.043 21.1023 193.314 21.6023 193.428 22.2273ZM195.605 29.0909C195.317 29.0909 195.077 28.9924 194.884 28.7955C194.69 28.5947 194.59 28.3523 194.582 28.0682C194.579 27.7841 194.679 27.5473 194.884 27.358C195.088 27.1648 195.329 27.0682 195.605 27.0682C195.885 27.0682 196.128 27.1667 196.332 27.3636C196.537 27.5606 196.635 27.7955 196.628 28.0682C196.624 28.2576 196.575 28.4299 196.48 28.5852C196.389 28.7405 196.266 28.8636 196.111 28.9545C195.959 29.0455 195.791 29.0909 195.605 29.0909ZM200.011 29.0909C199.723 29.0909 199.483 28.9924 199.29 28.7955C199.097 28.5947 198.996 28.3523 198.989 28.0682C198.985 27.7841 199.085 27.5473 199.29 27.358C199.494 27.1648 199.735 27.0682 200.011 27.0682C200.292 27.0682 200.534 27.1667 200.739 27.3636C200.943 27.5606 201.042 27.7955 201.034 28.0682C201.03 28.2576 200.981 28.4299 200.886 28.5852C200.795 28.7405 200.672 28.8636 200.517 28.9545C200.366 29.0455 200.197 29.0909 200.011 29.0909ZM204.418 29.0909C204.13 29.0909 203.889 28.9924 203.696 28.7955C203.503 28.5947 203.402 28.3523 203.395 28.0682C203.391 27.7841 203.491 27.5473 203.696 27.358C203.901 27.1648 204.141 27.0682 204.418 27.0682C204.698 27.0682 204.94 27.1667 205.145 27.3636C205.349 27.5606 205.448 27.7955 205.44 28.0682C205.437 28.2576 205.387 28.4299 205.293 28.5852C205.202 28.7405 205.079 28.8636 204.923 28.9545C204.772 29.0455 204.603 29.0909 204.418 29.0909Z" fill="white"/>
</svg>
