<svg width="54" height="82" viewBox="0 0 54 82" fill="none" xmlns="http://www.w3.org/2000/svg">
<path opacity="0.3" d="M53.0588 75.2128C53.0588 80.4222 38.3607 84.8873 28.6909 79.678C19.0211 74.4686 12.0588 73.2825 12.0588 68.8873C12.0588 64.492 18.1717 66.2826 27.1437 66.2826C36.1158 66.2826 53.0588 70.0035 53.0588 75.2128Z" fill="#742919"/>
<path fill-rule="evenodd" clip-rule="evenodd" d="M50.5342 75.482C50.4138 75.5836 50.2728 75.6655 50.1149 75.6851C50.016 75.6974 49.8916 75.669 49.7762 75.6355C49.6498 75.5989 49.4945 75.5433 49.3161 75.4735C48.9588 75.3337 48.493 75.1305 47.9518 74.8889C47.7143 74.7829 47.4619 74.6693 47.1969 74.5501C46.251 74.1245 45.1456 73.6272 43.9905 73.1456C42.5116 72.529 40.959 71.9417 39.5675 71.5676C38.165 71.1906 36.9663 71.0419 36.1738 71.2628C36.0646 71.2933 35.9514 71.2294 35.921 71.1202C35.8905 71.0111 35.9544 70.8979 36.0636 70.8674C36.9726 70.614 38.2674 70.793 39.6741 71.1712C41.0916 71.5523 42.6637 72.1477 44.1485 72.7667C45.3094 73.2507 46.4219 73.7512 47.3682 74.177C47.6323 74.2958 47.8835 74.4088 48.1192 74.514C48.6607 74.7558 49.1184 74.9554 49.4656 75.0912C49.6395 75.1593 49.7817 75.2097 49.8907 75.2413C49.9451 75.2571 49.9881 75.2673 50.0207 75.2728C50.0481 75.2775 50.0612 75.2777 50.0641 75.2777C50.0649 75.2777 50.0649 75.2777 50.0642 75.2778C50.1135 75.2717 50.1819 75.2421 50.2695 75.1682C50.3557 75.0955 50.4476 74.9905 50.5424 74.8577C50.7321 74.5921 50.9161 74.2404 51.0783 73.8827C51.2399 73.5268 51.3764 73.173 51.4727 72.9075C51.5208 72.7749 51.5587 72.6648 51.5845 72.588C51.5974 72.5497 51.6073 72.5197 51.6139 72.4994C51.6172 72.4892 51.6197 72.4815 51.6213 72.4764L51.6232 72.4707L51.6237 72.469C51.6579 72.361 51.7732 72.301 51.8813 72.3352C51.9894 72.3694 52.0493 72.4848 52.0151 72.5928L51.8336 72.5354C52.0151 72.5928 52.0151 72.5928 52.0151 72.5928L52.0143 72.5953L52.0122 72.6018C52.0104 72.6075 52.0077 72.6158 52.0042 72.6265C51.9972 72.648 51.9869 72.6792 51.9736 72.7189C51.9469 72.7983 51.9079 72.9114 51.8586 73.0474C51.76 73.3191 51.6195 73.6835 51.4522 74.0524C51.2856 74.4195 51.0888 74.799 50.8765 75.0963C50.7703 75.2449 50.6559 75.3793 50.5342 75.482Z" fill="#742919"/>
<path fill-rule="evenodd" clip-rule="evenodd" d="M36.9309 78.4295C36.799 78.5156 36.649 78.5797 36.4898 78.5799C36.3903 78.58 36.2702 78.5366 36.1598 78.4893C36.0389 78.4374 35.8915 78.3632 35.7229 78.2722C35.3854 78.0897 34.948 77.831 34.4404 77.5251C34.2177 77.3908 33.981 77.2472 33.7326 77.0965C32.8459 76.5584 31.8096 75.9296 30.722 75.3104C29.3296 74.5176 27.8605 73.7448 26.5252 73.2034C25.1794 72.6576 24.0079 72.3635 23.1943 72.4858C23.0822 72.5027 22.9776 72.4255 22.9608 72.3134C22.9439 72.2013 23.0211 72.0968 23.1332 72.0799C24.0664 71.9395 25.3296 72.2756 26.6795 72.823C28.0398 73.3746 29.5272 74.1578 30.9252 74.9537C32.0182 75.5761 33.0611 76.2089 33.9483 76.7472C34.1959 76.8974 34.4313 77.0403 34.6524 77.1735C35.1603 77.4797 35.5901 77.7338 35.9181 77.911C36.0824 77.9998 36.2173 78.0673 36.3216 78.112C36.3738 78.1343 36.4152 78.1497 36.4468 78.1592C36.4734 78.1672 36.4864 78.1689 36.4893 78.1693C36.4901 78.1694 36.4901 78.1694 36.4894 78.1694C36.539 78.1694 36.6106 78.1484 36.7065 78.0858C36.801 78.0241 36.905 77.9312 37.0154 77.8109C37.2362 77.5705 37.4617 77.244 37.6665 76.9089C37.8704 76.5753 38.0491 76.2409 38.1772 75.9891C38.2411 75.8634 38.2922 75.7588 38.3272 75.6858C38.3447 75.6493 38.3582 75.6207 38.3673 75.6013C38.3718 75.5917 38.3752 75.5843 38.3774 75.5794L38.38 75.574L38.3807 75.5724C38.4278 75.4694 38.5496 75.424 38.6527 75.4712C38.7558 75.5183 38.8011 75.6401 38.754 75.7432L38.5808 75.664C38.754 75.7432 38.754 75.7431 38.754 75.7432L38.7529 75.7455L38.75 75.7517C38.7475 75.7571 38.7439 75.765 38.7391 75.7753C38.7295 75.7957 38.7155 75.8255 38.6974 75.8632C38.6612 75.9387 38.6087 76.0463 38.5431 76.1752C38.4121 76.4328 38.228 76.7773 38.0168 77.1229C37.8066 77.4669 37.5649 77.8195 37.3178 78.0886C37.1942 78.2231 37.0642 78.3425 36.9309 78.4295Z" fill="#742919"/>
<path d="M50.5044 41.015C57.0461 56.5003 50.8892 68.7569 33.5732 73.2411C17.4116 77.4263 3.05698 62.7781 0.480449 44.3632C-2.21319 25.1112 6.25246 -2.32619e-06 30.1101 0C53.9676 2.32619e-06 43.9628 25.5297 50.5044 41.015Z" fill="#BB4B33"/>
<path fill-rule="evenodd" clip-rule="evenodd" d="M50.6209 61.0674C53.436 55.6439 53.3653 48.8394 50.1263 41.172C48.464 37.2368 47.8596 32.6822 47.5043 28.1047C47.3948 26.6927 47.3089 25.281 47.2238 23.8828C47.0316 20.723 46.8436 17.6321 46.3956 14.7627C45.7506 10.6311 44.5772 7.05576 42.1442 4.5106C39.7244 1.97926 35.9985 0.406481 30.1101 0.40648C18.3569 0.406479 10.4018 6.5791 5.69869 15.1563C0.985745 23.7513 -0.450502 34.7515 0.886498 44.3073C2.16325 53.4325 6.35706 61.6088 12.2108 66.9788C18.059 72.3436 25.5485 74.899 33.4697 72.8478C42.0549 70.6245 47.8046 66.4936 50.6209 61.0674ZM33.5732 73.2411C50.8892 68.7569 57.046 56.5003 50.5044 41.015C48.3696 35.9613 47.997 29.8378 47.6346 23.881C46.8865 11.5853 46.1816 1.56703e-06 30.1101 0C6.25246 -2.32619e-06 -2.21319 25.1112 0.480449 44.3632C3.05698 62.7781 17.4116 77.4263 33.5732 73.2411Z" fill="#AC422A"/>
<path fill-rule="evenodd" clip-rule="evenodd" d="M33.3432 68.557C33.3441 68.4436 33.2529 68.351 33.1395 68.3502C26.1282 68.2979 21.9083 65.0298 20.1243 62.0678C20.0659 61.9707 19.9397 61.9394 19.8426 61.9979C19.7455 62.0564 19.7142 62.1825 19.7727 62.2796C21.6342 65.3704 25.99 68.7074 33.1365 68.7607C33.2498 68.7615 33.3424 68.6703 33.3432 68.557Z" fill="#742919"/>
<path fill-rule="evenodd" clip-rule="evenodd" d="M42.352 63.6215C42.2718 63.5414 42.2718 63.4114 42.352 63.3313C45.0075 60.6757 46.2878 57.33 46.1141 53.8616C46.1085 53.7484 46.1957 53.652 46.3089 53.6464C46.4221 53.6407 46.5185 53.7279 46.5241 53.8411C46.7038 57.4296 45.3767 60.887 42.6423 63.6215C42.5621 63.7017 42.4321 63.7017 42.352 63.6215Z" fill="#742919"/>
<path fill-rule="evenodd" clip-rule="evenodd" d="M37.749 52.635C38.1802 52.7769 38.505 53.1709 38.6695 53.5026C38.7073 53.5788 38.7997 53.6099 38.8758 53.5721C38.952 53.5344 38.9831 53.442 38.9453 53.3658C38.7611 52.9943 38.3846 52.5201 37.8453 52.3426C37.2868 52.1588 36.6079 52.3092 35.868 53.0839C35.8093 53.1454 35.8116 53.2428 35.873 53.3016C35.9345 53.3603 36.0319 53.358 36.0907 53.2966C36.7762 52.5787 37.337 52.4995 37.749 52.635Z" fill="#742919"/>
<path fill-rule="evenodd" clip-rule="evenodd" d="M26.3921 51.9344C26.8331 52.0418 27.1879 52.409 27.3781 52.7267C27.4217 52.7996 27.5162 52.8233 27.5892 52.7797C27.6621 52.736 27.6859 52.6415 27.6422 52.5685C27.4292 52.2127 27.0166 51.7696 26.4649 51.6353C25.8937 51.4961 25.2288 51.6996 24.5523 52.5303C24.4986 52.5962 24.5085 52.6932 24.5744 52.7468C24.6404 52.8005 24.7373 52.7906 24.791 52.7247C25.4178 51.955 25.9706 51.8317 26.3921 51.9344Z" fill="#742919"/>
<path d="M29.8577 58.0238C29.844 58.3174 29.8883 58.6108 29.988 58.8873C30.0877 59.1638 30.2408 59.4179 30.4387 59.6352C30.6365 59.8525 30.8752 60.0287 31.1411 60.1537C31.407 60.2787 31.6949 60.3501 31.9884 60.3638C32.2819 60.3775 32.5752 60.3332 32.8515 60.2335C33.1279 60.1338 33.3819 59.9806 33.5991 59.7827C33.8163 59.5847 33.9923 59.3459 34.1173 59.0799C34.2422 58.8139 34.3135 58.5259 34.3272 58.2323L32.0924 58.128L29.8577 58.0238Z" fill="#742919"/>
<path d="M44.1519 39.7027C45.238 41.7092 45.8099 43.8938 44.1519 44.7301C42.6044 45.5107 39.7405 43.4276 39.2285 40.6659C38.6933 37.7787 39.1853 33.9034 41.5555 33.6855C43.9258 33.4677 43.0658 37.6963 44.1519 39.7027Z" fill="#A7351C"/>
<path fill-rule="evenodd" clip-rule="evenodd" d="M12.8495 15.6481C12.9506 15.6994 13.0741 15.6591 13.1254 15.558C15.5117 10.8559 19.9519 8.69648 23.3276 8.12274C23.4394 8.10375 23.5146 7.99776 23.4956 7.88601C23.4766 7.77426 23.3706 7.69906 23.2589 7.71806C19.7898 8.30765 15.2188 10.5259 12.7594 15.3722C12.7081 15.4733 12.7484 15.5968 12.8495 15.6481Z" fill="#E3775F"/>
</svg>
