<svg width="225" height="64" viewBox="0 0 225 64" fill="none" xmlns="http://www.w3.org/2000/svg">
<path fill-rule="evenodd" clip-rule="evenodd" d="M20.231 0C9.18526 0 0.230957 8.95432 0.230957 20V27.3313C0.230957 38.377 9.18526 47.3313 20.231 47.3313H33.3302L23.0034 59.8949C21.7181 61.4586 23.3027 63.7232 25.2121 63.0515L69.9 47.3313H205C216.046 47.3313 225 38.377 225 27.3313V20C225 8.9543 216.046 0 205 0H20.231Z" fill="#4F4F4F"/>
<path d="M17.7727 18.6136L17.9773 17.3636H26.7045L26.5 18.6136H22.8409L21.1136 29H19.7045L21.4318 18.6136H17.7727ZM31.669 25.4318L32.5327 20.2727H33.8736L32.419 29H31.0781L31.3281 27.5227H31.2372C30.9645 27.9659 30.5838 28.3428 30.0952 28.6534C29.6065 28.9602 29.0327 29.1136 28.3736 29.1136C27.8281 29.1136 27.3622 28.9943 26.9759 28.7557C26.5933 28.5133 26.3205 28.1496 26.1577 27.6648C25.9986 27.1761 25.9796 26.5606 26.1009 25.8182L27.0327 20.2727H28.3736L27.4645 25.7273C27.3622 26.3636 27.4588 26.8712 27.7543 27.25C28.0497 27.6288 28.4759 27.8182 29.0327 27.8182C29.366 27.8182 29.7183 27.733 30.0895 27.5625C30.4645 27.392 30.7978 27.1307 31.0895 26.7784C31.3849 26.4261 31.5781 25.9773 31.669 25.4318ZM41.5795 23.75L40.7159 29H39.375L40.8295 20.2727H42.125L41.8977 21.6364H42.0114C42.2841 21.1932 42.6534 20.8371 43.1193 20.5682C43.5852 20.2955 44.1477 20.1591 44.8068 20.1591C45.3902 20.1591 45.8826 20.2803 46.2841 20.5227C46.6894 20.7614 46.9754 21.125 47.142 21.6136C47.3125 22.0985 47.3371 22.7121 47.2159 23.4545L46.2841 29H44.9432L45.8523 23.5455C45.9659 22.8636 45.8769 22.3295 45.5852 21.9432C45.2973 21.5568 44.8409 21.3636 44.2159 21.3636C43.7841 21.3636 43.3845 21.4564 43.017 21.642C42.6534 21.8277 42.3447 22.0985 42.0909 22.4545C41.8409 22.8106 41.6705 23.2424 41.5795 23.75ZM52.3707 29.1818C51.5336 29.1818 50.8423 28.9962 50.2969 28.625C49.7514 28.25 49.3707 27.7273 49.1548 27.0568C48.9389 26.3826 48.9048 25.5985 49.0526 24.7045C49.2003 23.8106 49.4938 23.0227 49.9332 22.3409C50.3726 21.6553 50.92 21.1212 51.5753 20.7386C52.2306 20.3523 52.9503 20.1591 53.7344 20.1591C54.1889 20.1591 54.6264 20.2348 55.0469 20.3864C55.4673 20.5379 55.831 20.7841 56.1378 21.125C56.4446 21.4621 56.6586 21.9091 56.7798 22.4659C56.901 23.0227 56.8935 23.7083 56.7571 24.5227L56.6662 25.0909H49.9389L50.1207 23.9318H55.4844C55.5715 23.4394 55.5488 23 55.4162 22.6136C55.2874 22.2273 55.062 21.9223 54.7401 21.6989C54.4219 21.4754 54.0185 21.3636 53.5298 21.3636C53.026 21.3636 52.5563 21.5 52.1207 21.7727C51.6851 22.0417 51.3215 22.3826 51.0298 22.7955C50.7382 23.2045 50.5563 23.6212 50.4844 24.0455L50.3253 25.0455C50.2116 25.7689 50.2287 26.3447 50.3764 26.7727C50.5279 27.2008 50.7912 27.5095 51.1662 27.6989C51.5412 27.8845 52.0109 27.9773 52.5753 27.9773C52.9351 27.9773 53.2666 27.928 53.5696 27.8295C53.8726 27.7273 54.1435 27.5758 54.3821 27.375C54.6207 27.1705 54.8215 26.9167 54.9844 26.6136L56.2116 26.9773C56.0033 27.4167 55.7098 27.803 55.331 28.1364C54.956 28.4659 54.5166 28.7235 54.0128 28.9091C53.5128 29.0909 52.9654 29.1818 52.3707 29.1818ZM61.0554 32.4545C60.4039 32.4545 59.8584 32.3712 59.419 32.2045C58.9796 32.0417 58.6274 31.8258 58.3622 31.5568C58.0971 31.2917 57.8963 31.0076 57.7599 30.7045L58.9645 29.9545C59.0554 30.1136 59.1728 30.2955 59.3168 30.5C59.4607 30.7083 59.6785 30.8883 59.9702 31.0398C60.2656 31.1951 60.6804 31.2727 61.2145 31.2727C61.9152 31.2727 62.5289 31.1023 63.0554 30.7614C63.5819 30.4205 63.9077 29.8864 64.0327 29.1591L64.3054 27.3864H64.1918C64.0705 27.5455 63.902 27.7424 63.6861 27.9773C63.4702 28.2083 63.1804 28.4148 62.8168 28.5966C62.4531 28.7746 61.9872 28.8636 61.419 28.8636C60.7107 28.8636 60.1046 28.697 59.6009 28.3636C59.0971 28.0303 58.7353 27.5455 58.5156 26.9091C58.2997 26.2727 58.2675 25.5 58.419 24.5909C58.5668 23.697 58.8509 22.9186 59.2713 22.2557C59.6955 21.589 60.2183 21.0739 60.8395 20.7102C61.4607 20.3428 62.1387 20.1591 62.8736 20.1591C63.4418 20.1591 63.8774 20.2538 64.1804 20.4432C64.4872 20.6288 64.7107 20.8409 64.8509 21.0795C64.991 21.3144 65.0971 21.5076 65.169 21.6591H65.3054L65.5327 20.2727H66.8281L65.3509 29.25C65.2259 30 64.955 30.6098 64.5384 31.0795C64.1217 31.553 63.6103 31.8996 63.0043 32.1193C62.3982 32.3428 61.7486 32.4545 61.0554 32.4545ZM61.7599 27.6591C62.294 27.6591 62.7694 27.536 63.1861 27.2898C63.6065 27.0436 63.955 26.6894 64.2315 26.2273C64.508 25.7652 64.6993 25.2121 64.8054 24.5682C64.9115 23.9394 64.9039 23.3845 64.7827 22.9034C64.6615 22.4223 64.4323 22.0455 64.0952 21.7727C63.7618 21.5 63.3243 21.3636 62.7827 21.3636C62.2107 21.3636 61.7164 21.5076 61.2997 21.7955C60.8868 22.0833 60.5516 22.4697 60.294 22.9545C60.0365 23.4394 59.8584 23.9773 59.7599 24.5682C59.6615 25.1742 59.6652 25.7102 59.7713 26.1761C59.8774 26.6383 60.0933 27.0019 60.419 27.267C60.7486 27.5284 61.1955 27.6591 61.7599 27.6591ZM71.4304 29.1818C70.6274 29.1818 69.955 28.9905 69.4134 28.608C68.8717 28.2254 68.4891 27.6894 68.2656 27C68.0459 26.3106 68.0099 25.5076 68.1577 24.5909C68.3016 23.697 68.5876 22.9186 69.0156 22.2557C69.4474 21.589 69.9834 21.0739 70.6236 20.7102C71.2675 20.3428 71.9759 20.1591 72.7486 20.1591C73.5516 20.1591 74.2221 20.3523 74.7599 20.7386C75.3016 21.1212 75.6842 21.6591 75.9077 22.3523C76.1312 23.0417 76.169 23.8485 76.0213 24.7727C75.8774 25.6591 75.5876 26.4337 75.152 27.0966C74.7202 27.7557 74.1842 28.2689 73.544 28.6364C72.9077 29 72.2031 29.1818 71.4304 29.1818ZM71.4531 27.9773C72.0668 27.9773 72.599 27.8201 73.0497 27.5057C73.5043 27.1913 73.8717 26.7765 74.152 26.2614C74.4361 25.7462 74.6274 25.1894 74.7259 24.5909C74.8168 24.0227 74.813 23.4943 74.7145 23.0057C74.616 22.5133 74.4058 22.1174 74.0838 21.8182C73.7618 21.5152 73.3092 21.3636 72.7259 21.3636C72.1122 21.3636 71.5762 21.5227 71.1179 21.8409C70.6634 22.1591 70.2959 22.5777 70.0156 23.0966C69.7353 23.6155 69.5478 24.1742 69.4531 24.7727C69.3622 25.3409 69.3641 25.8693 69.4588 26.358C69.5573 26.8428 69.7675 27.2348 70.0895 27.5341C70.4152 27.8295 70.8698 27.9773 71.4531 27.9773ZM80.8977 29.1818C80.0758 29.1818 79.4015 28.9886 78.875 28.6023C78.3523 28.2159 77.9886 27.6837 77.7841 27.0057C77.5795 26.3277 77.5492 25.553 77.6932 24.6818C77.8371 23.7955 78.1288 23.0133 78.5682 22.3352C79.0076 21.6534 79.5549 21.1212 80.2102 20.7386C80.8655 20.3523 81.5871 20.1591 82.375 20.1591C82.9886 20.1591 83.5227 20.2727 83.9773 20.5C84.4318 20.7273 84.7822 21.0455 85.0284 21.4545C85.2746 21.8636 85.3902 22.3409 85.375 22.8864H84.0341C83.9962 22.4886 83.8258 22.1364 83.5227 21.8295C83.2235 21.5189 82.7803 21.3636 82.1932 21.3636C81.6705 21.3636 81.1894 21.5 80.75 21.7727C80.3106 22.0417 79.9413 22.4223 79.642 22.9148C79.3428 23.4034 79.1402 23.9773 79.0341 24.6364C78.9205 25.3106 78.9299 25.8977 79.0625 26.3977C79.1951 26.8977 79.4356 27.286 79.7841 27.5625C80.1326 27.839 80.572 27.9773 81.1023 27.9773C81.4508 27.9773 81.7765 27.9167 82.0795 27.7955C82.3826 27.6742 82.6515 27.5 82.8864 27.2727C83.1212 27.0455 83.3068 26.7727 83.4432 26.4545H84.7841C84.6174 26.9697 84.3504 27.4337 83.983 27.8466C83.6155 28.2557 83.1705 28.5814 82.6477 28.8239C82.125 29.0625 81.5417 29.1818 80.8977 29.1818ZM86.3125 29L87.767 20.2727H89.108L87.6534 29H86.3125ZM88.8466 18.7955C88.5852 18.7955 88.3598 18.7064 88.1705 18.5284C87.9848 18.3504 87.892 18.1364 87.892 17.8864C87.892 17.6364 87.9848 17.4223 88.1705 17.2443C88.3598 17.0663 88.5852 16.9773 88.8466 16.9773C89.108 16.9773 89.3314 17.0663 89.517 17.2443C89.7064 17.4223 89.8011 17.6364 89.8011 17.8864C89.8011 18.1364 89.7064 18.3504 89.517 18.5284C89.3314 18.7064 89.108 18.7955 88.8466 18.7955ZM93.7116 29.1818C92.9086 29.1818 92.2363 28.9905 91.6946 28.608C91.1529 28.2254 90.7704 27.6894 90.5469 27C90.3272 26.3106 90.2912 25.5076 90.4389 24.5909C90.5829 23.697 90.8688 22.9186 91.2969 22.2557C91.7287 21.589 92.2647 21.0739 92.9048 20.7102C93.5488 20.3428 94.2571 20.1591 95.0298 20.1591C95.8329 20.1591 96.5033 20.3523 97.0412 20.7386C97.5829 21.1212 97.9654 21.6591 98.1889 22.3523C98.4124 23.0417 98.4503 23.8485 98.3026 24.7727C98.1586 25.6591 97.8688 26.4337 97.4332 27.0966C97.0014 27.7557 96.4654 28.2689 95.8253 28.6364C95.1889 29 94.4844 29.1818 93.7116 29.1818ZM93.7344 27.9773C94.348 27.9773 94.8802 27.8201 95.331 27.5057C95.7855 27.1913 96.1529 26.7765 96.4332 26.2614C96.7173 25.7462 96.9086 25.1894 97.0071 24.5909C97.098 24.0227 97.0942 23.4943 96.9957 23.0057C96.8973 22.5133 96.687 22.1174 96.3651 21.8182C96.0431 21.5152 95.5904 21.3636 95.0071 21.3636C94.3935 21.3636 93.8575 21.5227 93.3991 21.8409C92.9446 22.1591 92.5772 22.5777 92.2969 23.0966C92.0166 23.6155 91.8291 24.1742 91.7344 24.7727C91.6435 25.3409 91.6454 25.8693 91.7401 26.358C91.8385 26.8428 92.0488 27.2348 92.3707 27.5341C92.6965 27.8295 93.151 27.9773 93.7344 27.9773ZM107.793 29.1818C106.955 29.1818 106.264 28.9962 105.719 28.625C105.173 28.25 104.793 27.7273 104.577 27.0568C104.361 26.3826 104.327 25.5985 104.474 24.7045C104.622 23.8106 104.916 23.0227 105.355 22.3409C105.795 21.6553 106.342 21.1212 106.997 20.7386C107.652 20.3523 108.372 20.1591 109.156 20.1591C109.611 20.1591 110.048 20.2348 110.469 20.3864C110.889 20.5379 111.253 20.7841 111.56 21.125C111.866 21.4621 112.08 21.9091 112.202 22.4659C112.323 23.0227 112.315 23.7083 112.179 24.5227L112.088 25.0909H105.361L105.543 23.9318H110.906C110.993 23.4394 110.971 23 110.838 22.6136C110.709 22.2273 110.484 21.9223 110.162 21.6989C109.844 21.4754 109.44 21.3636 108.952 21.3636C108.448 21.3636 107.978 21.5 107.543 21.7727C107.107 22.0417 106.743 22.3826 106.452 22.7955C106.16 23.2045 105.978 23.6212 105.906 24.0455L105.747 25.0455C105.634 25.7689 105.651 26.3447 105.798 26.7727C105.95 27.2008 106.213 27.5095 106.588 27.6989C106.963 27.8845 107.433 27.9773 107.997 27.9773C108.357 27.9773 108.688 27.928 108.991 27.8295C109.295 27.7273 109.565 27.5758 109.804 27.375C110.043 27.1705 110.243 26.9167 110.406 26.6136L111.634 26.9773C111.425 27.4167 111.132 27.803 110.753 28.1364C110.378 28.4659 109.938 28.7235 109.435 28.9091C108.935 29.0909 108.387 29.1818 107.793 29.1818ZM120.818 22.2273L119.545 22.5682C119.5 22.3636 119.42 22.1667 119.307 21.9773C119.197 21.7841 119.027 21.6269 118.795 21.5057C118.568 21.3807 118.258 21.3182 117.864 21.3182C117.33 21.3182 116.866 21.4413 116.472 21.6875C116.078 21.9299 115.852 22.2386 115.795 22.6136C115.739 22.9432 115.814 23.2064 116.023 23.4034C116.231 23.6004 116.58 23.7614 117.068 23.8864L118.318 24.2045C119.068 24.3977 119.602 24.6875 119.92 25.0739C120.242 25.4564 120.352 25.9545 120.25 26.5682C120.167 27.0682 119.949 27.5152 119.597 27.9091C119.244 28.303 118.794 28.6136 118.244 28.8409C117.695 29.0682 117.083 29.1818 116.409 29.1818C115.511 29.1818 114.803 28.9886 114.284 28.6023C113.765 28.2121 113.489 27.6477 113.455 26.9091L114.795 26.5909C114.83 27.0568 114.996 27.4091 115.295 27.6477C115.598 27.8826 116.023 28 116.568 28C117.193 28 117.714 27.8674 118.131 27.6023C118.547 27.3333 118.784 27.0114 118.841 26.6364C118.898 26.3295 118.837 26.0739 118.659 25.8693C118.485 25.6648 118.182 25.5114 117.75 25.4091L116.364 25.0682C115.591 24.875 115.049 24.5795 114.739 24.1818C114.432 23.7841 114.33 23.2841 114.432 22.6818C114.515 22.1894 114.727 21.7538 115.068 21.375C115.413 20.9962 115.845 20.6989 116.364 20.483C116.886 20.267 117.455 20.1591 118.068 20.1591C118.932 20.1591 119.578 20.3485 120.006 20.7273C120.434 21.1023 120.705 21.6023 120.818 22.2273ZM127.109 20.2727L126.928 21.4091H122.405L122.587 20.2727H127.109ZM124.246 18.1818H125.587L124.2 26.5C124.14 26.8788 124.149 27.1629 124.229 27.3523C124.312 27.5379 124.437 27.6629 124.604 27.7273C124.774 27.7879 124.958 27.8182 125.155 27.8182C125.303 27.8182 125.424 27.8106 125.518 27.7955C125.613 27.7765 125.689 27.7614 125.746 27.75L125.837 28.9545C125.734 28.9886 125.596 29.0227 125.422 29.0568C125.251 29.0947 125.041 29.1136 124.791 29.1136C124.412 29.1136 124.056 29.0322 123.723 28.8693C123.39 28.7064 123.134 28.4583 122.956 28.125C122.778 27.7917 122.731 27.3712 122.814 26.8636L124.246 18.1818ZM130.217 29.2045C129.664 29.2045 129.179 29.1004 128.763 28.892C128.346 28.6799 128.037 28.375 127.837 27.9773C127.636 27.5758 127.581 27.0909 127.672 26.5227C127.759 26.0227 127.928 25.6174 128.178 25.3068C128.428 24.9924 128.731 24.7462 129.087 24.5682C129.446 24.3864 129.833 24.2519 130.246 24.1648C130.662 24.0739 131.077 24.0038 131.49 23.9545C132.028 23.8864 132.465 23.8333 132.803 23.7955C133.14 23.7576 133.393 23.6951 133.564 23.608C133.734 23.5208 133.839 23.3712 133.876 23.1591V23.1136C133.967 22.5568 133.893 22.1231 133.655 21.8125C133.416 21.4981 132.99 21.3409 132.376 21.3409C131.74 21.3409 131.208 21.4811 130.78 21.7614C130.352 22.0417 130.036 22.3409 129.831 22.6591L128.649 22.2045C128.96 21.6742 129.331 21.2614 129.763 20.9659C130.195 20.6667 130.647 20.4583 131.121 20.3409C131.594 20.2197 132.051 20.1591 132.49 20.1591C132.77 20.1591 133.087 20.1932 133.439 20.2614C133.791 20.3258 134.121 20.4602 134.428 20.6648C134.738 20.8693 134.971 21.178 135.126 21.5909C135.286 22.0038 135.308 22.5568 135.195 23.25L134.24 29H132.899L133.104 27.8182H133.036C132.914 28.0076 132.729 28.2102 132.479 28.4261C132.232 28.642 131.92 28.8258 131.541 28.9773C131.166 29.1288 130.725 29.2045 130.217 29.2045ZM130.604 28C131.134 28 131.598 27.8958 131.996 27.6875C132.397 27.4792 132.719 27.2102 132.962 26.8807C133.208 26.5511 133.361 26.2045 133.422 25.8409L133.626 24.6136C133.558 24.6818 133.424 24.7443 133.223 24.8011C133.022 24.8542 132.795 24.9015 132.541 24.9432C132.291 24.9811 132.047 25.0152 131.808 25.0455C131.573 25.072 131.384 25.0947 131.24 25.1136C130.884 25.1591 130.545 25.233 130.223 25.3352C129.905 25.4337 129.636 25.5833 129.416 25.7841C129.2 25.9811 129.066 26.25 129.013 26.5909C128.933 27.0568 129.045 27.4091 129.348 27.6477C129.651 27.8826 130.07 28 130.604 28ZM132.126 19.0909L133.945 16.4545H135.513L133.308 19.0909H132.126ZM144.71 29.1818C143.888 29.1818 143.214 28.9886 142.688 28.6023C142.165 28.2159 141.801 27.6837 141.597 27.0057C141.392 26.3277 141.362 25.553 141.506 24.6818C141.65 23.7955 141.941 23.0133 142.381 22.3352C142.82 21.6534 143.367 21.1212 144.023 20.7386C144.678 20.3523 145.4 20.1591 146.188 20.1591C146.801 20.1591 147.335 20.2727 147.79 20.5C148.244 20.7273 148.595 21.0455 148.841 21.4545C149.087 21.8636 149.203 22.3409 149.188 22.8864H147.847C147.809 22.4886 147.638 22.1364 147.335 21.8295C147.036 21.5189 146.593 21.3636 146.006 21.3636C145.483 21.3636 145.002 21.5 144.562 21.7727C144.123 22.0417 143.754 22.4223 143.455 22.9148C143.155 23.4034 142.953 23.9773 142.847 24.6364C142.733 25.3106 142.742 25.8977 142.875 26.3977C143.008 26.8977 143.248 27.286 143.597 27.5625C143.945 27.839 144.384 27.9773 144.915 27.9773C145.263 27.9773 145.589 27.9167 145.892 27.7955C146.195 27.6742 146.464 27.5 146.699 27.2727C146.934 27.0455 147.119 26.7727 147.256 26.4545H148.597C148.43 26.9697 148.163 27.4337 147.795 27.8466C147.428 28.2557 146.983 28.5814 146.46 28.8239C145.938 29.0625 145.354 29.1818 144.71 29.1818ZM152.67 29.2045C152.117 29.2045 151.633 29.1004 151.216 28.892C150.799 28.6799 150.491 28.375 150.29 27.9773C150.089 27.5758 150.034 27.0909 150.125 26.5227C150.212 26.0227 150.381 25.6174 150.631 25.3068C150.881 24.9924 151.184 24.7462 151.54 24.5682C151.9 24.3864 152.286 24.2519 152.699 24.1648C153.116 24.0739 153.53 24.0038 153.943 23.9545C154.481 23.8864 154.919 23.8333 155.256 23.7955C155.593 23.7576 155.847 23.6951 156.017 23.608C156.188 23.5208 156.292 23.3712 156.33 23.1591V23.1136C156.42 22.5568 156.347 22.1231 156.108 21.8125C155.869 21.4981 155.443 21.3409 154.83 21.3409C154.193 21.3409 153.661 21.4811 153.233 21.7614C152.805 22.0417 152.489 22.3409 152.284 22.6591L151.102 22.2045C151.413 21.6742 151.784 21.2614 152.216 20.9659C152.648 20.6667 153.1 20.4583 153.574 20.3409C154.047 20.2197 154.504 20.1591 154.943 20.1591C155.223 20.1591 155.54 20.1932 155.892 20.2614C156.244 20.3258 156.574 20.4602 156.881 20.6648C157.191 20.8693 157.424 21.178 157.58 21.5909C157.739 22.0038 157.761 22.5568 157.648 23.25L156.693 29H155.352L155.557 27.8182H155.489C155.367 28.0076 155.182 28.2102 154.932 28.4261C154.686 28.642 154.373 28.8258 153.994 28.9773C153.619 29.1288 153.178 29.2045 152.67 29.2045ZM153.057 28C153.587 28 154.051 27.8958 154.449 27.6875C154.85 27.4792 155.172 27.2102 155.415 26.8807C155.661 26.5511 155.814 26.2045 155.875 25.8409L156.08 24.6136C156.011 24.6818 155.877 24.7443 155.676 24.8011C155.475 24.8542 155.248 24.9015 154.994 24.9432C154.744 24.9811 154.5 25.0152 154.261 25.0455C154.027 25.072 153.837 25.0947 153.693 25.1136C153.337 25.1591 152.998 25.233 152.676 25.3352C152.358 25.4337 152.089 25.5833 151.869 25.7841C151.653 25.9811 151.519 26.25 151.466 26.5909C151.386 27.0568 151.498 27.4091 151.801 27.6477C152.104 27.8826 152.523 28 153.057 28ZM166.459 22.2273L165.186 22.5682C165.141 22.3636 165.061 22.1667 164.947 21.9773C164.838 21.7841 164.667 21.6269 164.436 21.5057C164.209 21.3807 163.898 21.3182 163.504 21.3182C162.97 21.3182 162.506 21.4413 162.112 21.6875C161.718 21.9299 161.493 22.2386 161.436 22.6136C161.379 22.9432 161.455 23.2064 161.663 23.4034C161.872 23.6004 162.22 23.7614 162.709 23.8864L163.959 24.2045C164.709 24.3977 165.243 24.6875 165.561 25.0739C165.883 25.4564 165.993 25.9545 165.891 26.5682C165.807 27.0682 165.589 27.5152 165.237 27.9091C164.885 28.303 164.434 28.6136 163.885 28.8409C163.336 29.0682 162.724 29.1818 162.05 29.1818C161.152 29.1818 160.444 28.9886 159.925 28.6023C159.406 28.2121 159.129 27.6477 159.095 26.9091L160.436 26.5909C160.47 27.0568 160.637 27.4091 160.936 27.6477C161.239 27.8826 161.663 28 162.209 28C162.834 28 163.355 27.8674 163.771 27.6023C164.188 27.3333 164.425 27.0114 164.482 26.6364C164.538 26.3295 164.478 26.0739 164.3 25.8693C164.125 25.6648 163.822 25.5114 163.391 25.4091L162.004 25.0682C161.232 24.875 160.69 24.5795 160.379 24.1818C160.072 23.7841 159.97 23.2841 160.072 22.6818C160.156 22.1894 160.368 21.7538 160.709 21.375C161.054 20.9962 161.485 20.6989 162.004 20.483C162.527 20.267 163.095 20.1591 163.709 20.1591C164.572 20.1591 165.218 20.3485 165.646 20.7273C166.074 21.1023 166.345 21.6023 166.459 22.2273ZM167.5 29L168.955 20.2727H170.295L168.841 29H167.5ZM170.034 18.7955C169.773 18.7955 169.547 18.7064 169.358 18.5284C169.172 18.3504 169.08 18.1364 169.08 17.8864C169.08 17.6364 169.172 17.4223 169.358 17.2443C169.547 17.0663 169.773 16.9773 170.034 16.9773C170.295 16.9773 170.519 17.0663 170.705 17.2443C170.894 17.4223 170.989 17.6364 170.989 17.8864C170.989 18.1364 170.894 18.3504 170.705 18.5284C170.519 18.7064 170.295 18.7955 170.034 18.7955ZM179.07 17.3636L177.138 29H175.797L177.729 17.3636H179.07ZM179.594 29L181.048 20.2727H182.389L180.935 29H179.594ZM182.128 18.7955C181.866 18.7955 181.641 18.7064 181.452 18.5284C181.266 18.3504 181.173 18.1364 181.173 17.8864C181.173 17.6364 181.266 17.4223 181.452 17.2443C181.641 17.0663 181.866 16.9773 182.128 16.9773C182.389 16.9773 182.613 17.0663 182.798 17.2443C182.988 17.4223 183.082 17.6364 183.082 17.8864C183.082 18.1364 182.988 18.3504 182.798 18.5284C182.613 18.7064 182.389 18.7955 182.128 18.7955ZM190.709 22.2273L189.436 22.5682C189.391 22.3636 189.311 22.1667 189.197 21.9773C189.088 21.7841 188.917 21.6269 188.686 21.5057C188.459 21.3807 188.148 21.3182 187.754 21.3182C187.22 21.3182 186.756 21.4413 186.362 21.6875C185.968 21.9299 185.743 22.2386 185.686 22.6136C185.629 22.9432 185.705 23.2064 185.913 23.4034C186.122 23.6004 186.47 23.7614 186.959 23.8864L188.209 24.2045C188.959 24.3977 189.493 24.6875 189.811 25.0739C190.133 25.4564 190.243 25.9545 190.141 26.5682C190.057 27.0682 189.839 27.5152 189.487 27.9091C189.135 28.303 188.684 28.6136 188.135 28.8409C187.586 29.0682 186.974 29.1818 186.3 29.1818C185.402 29.1818 184.694 28.9886 184.175 28.6023C183.656 28.2121 183.379 27.6477 183.345 26.9091L184.686 26.5909C184.72 27.0568 184.887 27.4091 185.186 27.6477C185.489 27.8826 185.913 28 186.459 28C187.084 28 187.605 27.8674 188.021 27.6023C188.438 27.3333 188.675 27.0114 188.732 26.6364C188.788 26.3295 188.728 26.0739 188.55 25.8693C188.375 25.6648 188.072 25.5114 187.641 25.4091L186.254 25.0682C185.482 24.875 184.94 24.5795 184.629 24.1818C184.322 23.7841 184.22 23.2841 184.322 22.6818C184.406 22.1894 184.618 21.7538 184.959 21.375C185.304 20.9962 185.735 20.6989 186.254 20.483C186.777 20.267 187.345 20.1591 187.959 20.1591C188.822 20.1591 189.468 20.3485 189.896 20.7273C190.324 21.1023 190.595 21.6023 190.709 22.2273ZM197 20.2727L196.818 21.4091H192.295L192.477 20.2727H197ZM194.136 18.1818H195.477L194.091 26.5C194.03 26.8788 194.04 27.1629 194.119 27.3523C194.203 27.5379 194.328 27.6629 194.494 27.7273C194.665 27.7879 194.848 27.8182 195.045 27.8182C195.193 27.8182 195.314 27.8106 195.409 27.7955C195.504 27.7765 195.58 27.7614 195.636 27.75L195.727 28.9545C195.625 28.9886 195.487 29.0227 195.312 29.0568C195.142 29.0947 194.932 29.1136 194.682 29.1136C194.303 29.1136 193.947 29.0322 193.614 28.8693C193.28 28.7064 193.025 28.4583 192.847 28.125C192.669 27.7917 192.621 27.3712 192.705 26.8636L194.136 18.1818ZM201.071 29.1818C200.268 29.1818 199.596 28.9905 199.054 28.608C198.512 28.2254 198.13 27.6894 197.906 27C197.687 26.3106 197.651 25.5076 197.798 24.5909C197.942 23.697 198.228 22.9186 198.656 22.2557C199.088 21.589 199.624 21.0739 200.264 20.7102C200.908 20.3428 201.616 20.1591 202.389 20.1591C203.192 20.1591 203.863 20.3523 204.401 20.7386C204.942 21.1212 205.325 21.6591 205.548 22.3523C205.772 23.0417 205.81 23.8485 205.662 24.7727C205.518 25.6591 205.228 26.4337 204.793 27.0966C204.361 27.7557 203.825 28.2689 203.185 28.6364C202.548 29 201.844 29.1818 201.071 29.1818ZM201.094 27.9773C201.707 27.9773 202.24 27.8201 202.69 27.5057C203.145 27.1913 203.512 26.7765 203.793 26.2614C204.077 25.7462 204.268 25.1894 204.366 24.5909C204.457 24.0227 204.454 23.4943 204.355 23.0057C204.257 22.5133 204.046 22.1174 203.724 21.8182C203.402 21.5152 202.95 21.3636 202.366 21.3636C201.753 21.3636 201.217 21.5227 200.759 21.8409C200.304 22.1591 199.937 22.5777 199.656 23.0966C199.376 23.6155 199.188 24.1742 199.094 24.7727C199.003 25.3409 199.005 25.8693 199.099 26.358C199.198 26.8428 199.408 27.2348 199.73 27.5341C200.056 27.8295 200.51 27.9773 201.094 27.9773Z" fill="white"/>
</svg>
