<svg width="82" height="62" viewBox="0 0 82 62" fill="none" xmlns="http://www.w3.org/2000/svg">
<path fill-rule="evenodd" clip-rule="evenodd" d="M7.34707 23.6597C7.37695 23.7547 7.33319 23.8654 7.24933 23.9071C5.84403 24.606 4.97118 25.4568 4.46241 26.3693C3.95422 27.2808 3.79776 28.2746 3.85665 29.2829C3.97471 31.3047 4.95397 33.3426 5.64724 34.7854L5.6568 34.8052C5.69891 34.8929 5.66946 35.0089 5.59103 35.0644C5.51259 35.1198 5.41487 35.0937 5.37276 35.0061L5.34974 34.9582C4.66421 33.5317 3.65778 31.4376 3.53499 29.335C3.47249 28.2646 3.63784 27.1816 4.19575 26.181C4.75309 25.1813 5.69064 24.2846 7.14112 23.5633C7.22498 23.5216 7.31719 23.5647 7.34707 23.6597Z" fill="#757575"/>
<path d="M6.5214 35.9757C4.21749 23.451 12.2584 11.4751 24.4812 9.22672C36.704 6.97833 48.4803 15.3089 50.7842 27.8335C53.0881 40.3581 45.0472 52.334 32.8244 54.5824C20.6016 56.8308 8.82531 48.5003 6.5214 35.9757Z" fill="#F8F8F8"/>
<path fill-rule="evenodd" clip-rule="evenodd" d="M24.5445 9.57095C12.5197 11.7829 4.59521 23.5699 6.86562 35.9123C9.13603 48.2548 20.7362 56.4502 32.7611 54.2382C44.7859 52.0262 52.7104 40.2393 50.44 27.8968C48.1696 15.5543 36.5694 7.35897 24.5445 9.57095ZM24.4812 9.22672C12.2584 11.4751 4.21749 23.451 6.5214 35.9757C8.82531 48.5003 20.6016 56.8308 32.8244 54.5824C45.0472 52.334 53.0881 40.3581 50.7842 27.8335C48.4803 15.3089 36.704 6.97833 24.4812 9.22672Z" fill="#EBEBEB"/>
<path d="M26.0979 21.1783C25.562 19.7718 26.2679 18.1971 27.6744 17.6612C29.081 17.1253 30.6557 17.8312 31.1916 19.2377C31.7274 20.6443 31.0216 22.219 29.6151 22.7548C28.2085 23.2907 26.6338 22.5849 26.0979 21.1783Z" fill="#757575"/>
<path d="M15.1632 24.1492C14.6716 22.8588 15.3191 21.4142 16.6095 20.9225C17.8999 20.4309 19.3445 21.0784 19.8362 22.3688C20.3278 23.6592 19.6802 25.1039 18.3898 25.5955C17.0994 26.0871 15.6548 25.4396 15.1632 24.1492Z" fill="#757575"/>
<path fill-rule="evenodd" clip-rule="evenodd" d="M75.124 42.2567C72.5928 41.9256 64.8364 42.4624 57.8907 43.0628C59.5725 40.5851 60.7565 37.7976 61.3756 34.8574C61.9986 31.8983 62.0374 28.8424 61.4895 25.8643C60.9417 22.8862 59.8181 20.0442 58.1828 17.5005C56.5474 14.9568 54.4325 12.7613 51.9586 11.0393C49.4848 9.31724 46.7005 8.10244 43.7647 7.46425C40.829 6.82605 35.4483 6.9882 34.9053 7.17036C34.9023 7.17136 34.8995 7.17303 34.8968 7.17538C32.9692 7.41338 22.7241 9.55034 22.7241 9.55034L22.7244 9.55195C35.533 7.36521 47.6956 15.5588 49.9808 27.9813C52.2659 40.4037 43.8151 52.3891 31.0668 54.9036L31.0673 54.906C31.0673 54.906 39.3544 53.4914 43.1478 52.6945C44.5376 52.5671 46.3241 52.3772 48.3555 52.1614L48.3555 52.1614C56.9029 51.253 69.7858 49.8839 75.6978 50.7655C83.592 51.9427 80.0517 42.9014 75.124 42.2567Z" fill="#267029"/>
<path d="M32.1152 26.8607C32.266 26.6012 32.5653 26.4613 32.856 26.5301C34.2373 26.8572 35.5303 27.4666 36.6417 28.317C37.8833 29.267 38.8599 30.4884 39.4852 31.8732C40.1104 33.2579 40.3649 34.7632 40.2261 36.2556C40.0873 37.7481 39.5596 39.1817 38.6896 40.4294C37.8196 41.6772 36.6342 42.7005 35.2384 43.4089C33.8427 44.1172 32.2796 44.4887 30.6877 44.4904C29.0958 44.4921 27.5241 44.1239 26.112 43.4185C24.8645 42.7954 23.7756 41.926 22.9189 40.8729C22.7192 40.6273 22.7352 40.2747 22.9402 40.0286L27.9331 34.0372C27.9586 34.0065 27.9815 33.9738 28.0015 33.9394L32.1152 26.8607Z" fill="#F5E767"/>
<path fill-rule="evenodd" clip-rule="evenodd" d="M36.5337 28.4559C35.4419 27.6205 34.1712 27.0215 32.8134 26.7C32.6033 26.6502 32.3809 26.7504 32.2668 26.9467L28.1531 34.0254C28.1281 34.0684 28.0995 34.1093 28.0675 34.1476L23.0747 40.139C22.9193 40.3255 22.9121 40.5854 23.0558 40.762C23.8967 41.7959 24.9663 42.6499 26.1923 43.2623C27.5801 43.9555 29.1249 44.3175 30.6896 44.3158C32.2544 44.3141 33.7899 43.949 35.1603 43.2536C36.5305 42.5581 37.6931 41.5541 38.5458 40.3311C39.3985 39.1082 39.9155 37.7036 40.0514 36.2417C40.1874 34.7797 39.9382 33.3044 39.325 31.9463C38.7118 30.5882 37.7534 29.3891 36.5337 28.4559ZM32.856 26.5301C32.5653 26.4613 32.266 26.6012 32.1152 26.8607L28.0015 33.9394C27.9815 33.9738 27.9586 34.0065 27.9331 34.0372L22.9402 40.0286C22.7352 40.2747 22.7192 40.6273 22.9189 40.8729C23.7756 41.926 24.8645 42.7954 26.112 43.4185C27.5241 44.1239 29.0958 44.4921 30.6877 44.4904C32.2796 44.4887 33.8427 44.1172 35.2384 43.4089C36.6342 42.7005 37.8196 41.6772 38.6896 40.4294C39.5596 39.1817 40.0873 37.7481 40.2261 36.2556C40.3649 34.7632 40.1104 33.2579 39.4852 31.8732C38.8599 30.4884 37.8833 29.267 36.6417 28.317C35.5303 27.4666 34.2373 26.8572 32.856 26.5301Z" fill="#E4D651"/>
<path d="M22.2372 40.3952C22.5972 37.6932 26.5146 35.775 29.8135 36.1768C33.1125 36.5787 36.606 39.1003 36.246 41.8024C35.8859 44.5044 32.4921 45.7319 29.1932 45.3301C25.8943 44.9282 21.8771 43.0973 22.2372 40.3952Z" fill="#B4DE92"/>
<path fill-rule="evenodd" clip-rule="evenodd" d="M25.0047 37.2759C23.5938 38.0292 22.5804 39.1445 22.4109 40.4164C22.2448 41.663 23.083 42.7419 24.4364 43.5763C25.7823 44.4061 27.586 44.958 29.2163 45.1566C30.8403 45.3544 32.4797 45.1497 33.7503 44.5713C35.0192 43.9938 35.9026 43.0542 36.0722 41.7812C36.2408 40.5159 35.5089 39.2633 34.2896 38.2624C33.0743 37.265 31.4072 36.5473 29.7904 36.3503C28.1792 36.154 26.4115 36.5248 25.0047 37.2759ZM29.8135 36.1768C26.5146 35.775 22.5972 37.6932 22.2372 40.3952C21.8771 43.0973 25.8943 44.9282 29.1932 45.3301C32.4921 45.7319 35.8859 44.5044 36.246 41.8024C36.606 39.1003 33.1125 36.5787 29.8135 36.1768Z" fill="#A1D279"/>
<path d="M28.3508 44.6088C28.2936 44.9911 27.936 45.2607 27.5577 45.1827C26.1198 44.8863 24.7616 44.2928 23.5746 43.4384C22.1994 42.4486 21.0963 41.1394 20.3631 39.6266C19.6299 38.1138 19.2892 36.4442 19.3712 34.7657C19.4531 33.0872 19.9552 31.4516 20.8329 30.0038C21.7107 28.556 22.937 27.3406 24.4033 26.4653C25.8696 25.5901 27.5305 25.082 29.239 24.986C30.9476 24.89 32.6509 25.2091 34.1982 25.9151C35.5289 26.5223 36.7088 27.3994 37.6623 28.4862C37.9186 28.7783 37.8504 29.2243 37.5339 29.4575L29.9989 35.0097C29.8471 35.1216 29.7459 35.289 29.7182 35.4745L28.3508 44.6088Z" fill="#ECA979"/>
<mask id="mask0_1644_10141" style="mask-type:alpha" maskUnits="userSpaceOnUse" x="19" y="24" width="19" height="22">
<path d="M28.3508 44.6088C28.2936 44.9911 27.936 45.2607 27.5577 45.1827C26.1198 44.8863 24.7616 44.2928 23.5746 43.4384C22.1994 42.4486 21.0963 41.1394 20.3631 39.6266C19.6299 38.1138 19.2892 36.4442 19.3712 34.7657C19.4531 33.0872 19.9552 31.4516 20.8329 30.0038C21.7107 28.556 22.937 27.3406 24.4033 26.4653C25.8696 25.5901 27.5305 25.082 29.239 24.986C30.9476 24.89 32.6509 25.2091 34.1982 25.9151C35.5289 26.5223 36.7088 27.3994 37.6623 28.4862C37.9186 28.7783 37.8504 29.2243 37.5339 29.4575L29.9989 35.0097C29.8471 35.1216 29.7459 35.289 29.7182 35.4745L28.3508 44.6088Z" fill="#ECA979"/>
</mask>
<g mask="url(#mask0_1644_10141)">
<path fill-rule="evenodd" clip-rule="evenodd" d="M28.6328 44.3526C28.6072 44.4419 28.5172 44.4716 28.4319 44.4189C27.7531 43.9997 27.0043 43.0926 26.2467 41.9401C25.4838 40.7794 24.6921 39.3388 23.9304 37.8155C22.4067 34.7683 20.9927 31.3694 20.1558 29.1686C20.1172 29.0672 20.151 28.9677 20.2313 28.9463C20.3116 28.925 20.4079 28.9899 20.4465 29.0914C21.2791 31.2808 22.6863 34.6628 24.2001 37.6903C24.9572 39.2044 25.7384 40.6246 26.4855 41.7611C27.2379 42.9057 27.9363 43.7321 28.5249 44.0956C28.6102 44.1482 28.6585 44.2633 28.6328 44.3526Z" fill="#FFE7DD"/>
<path fill-rule="evenodd" clip-rule="evenodd" d="M32.2106 40.7866C32.1849 40.8759 32.095 40.9056 32.0097 40.8529C31.3309 40.4337 30.5821 39.5265 29.8245 38.374C29.0615 37.2134 28.2699 35.7728 27.5082 34.2495C25.9845 31.2023 24.5705 27.8034 23.7335 25.6026C23.6949 25.5012 23.7287 25.4016 23.809 25.3803C23.8893 25.359 23.9857 25.4239 24.0243 25.5254C24.8569 27.7147 26.2641 31.0968 27.7779 34.1243C28.535 35.6383 29.3162 37.0586 30.0632 38.1951C30.8156 39.3397 31.514 40.166 32.1026 40.5295C32.1879 40.5822 32.2363 40.6973 32.2106 40.7866Z" fill="#FFE7DD"/>
<path fill-rule="evenodd" clip-rule="evenodd" d="M37.8076 39.1746C37.782 39.2639 37.692 39.2936 37.6067 39.2409C36.9279 38.8217 36.1791 37.9146 35.4215 36.7621C34.6586 35.6014 33.8669 34.1609 33.1052 32.6376C31.5815 29.5903 30.1675 26.1915 29.3306 23.9907C29.292 23.8892 29.3258 23.7897 29.4061 23.7684C29.4864 23.747 29.5827 23.812 29.6213 23.9134C30.4539 26.1028 31.8611 29.4849 33.3749 32.5123C34.132 34.0264 34.9132 35.4466 35.6603 36.5831C36.4127 37.7278 37.1111 38.5541 37.6997 38.9176C37.785 38.9703 37.8333 39.0854 37.8076 39.1746Z" fill="#FFE7DD"/>
</g>
<path fill-rule="evenodd" clip-rule="evenodd" d="M23.6783 43.2964C24.8454 44.1364 26.181 44.7201 27.595 45.0116C27.8667 45.0676 28.134 44.875 28.1775 44.5849L29.5448 35.4506C29.5795 35.2188 29.7059 35.0095 29.8957 34.8696L37.4308 29.3174C37.6709 29.1404 37.7136 28.8115 37.5298 28.6021C36.5925 27.5336 35.4323 26.6712 34.1237 26.0741C32.6022 25.3799 30.9271 25.066 29.2469 25.1604C27.5668 25.2548 25.9336 25.7545 24.4921 26.6149C23.0506 27.4754 21.8453 28.6701 20.9827 30.0929C20.1201 31.5157 19.6268 33.1229 19.5462 34.7723C19.4657 36.4216 19.8005 38.0623 20.5211 39.5492C21.2418 41.036 22.3261 42.3232 23.6783 43.2964ZM27.5577 45.1827C27.936 45.2607 28.2936 44.9911 28.3508 44.6088L29.7182 35.4745C29.7459 35.289 29.8471 35.1216 29.9989 35.0097L37.5339 29.4575C37.8504 29.2243 37.9186 28.7783 37.6623 28.4862C36.7088 27.3994 35.5289 26.5223 34.1982 25.9151C32.6509 25.2091 30.9476 24.89 29.239 24.986C27.5305 25.082 25.8696 25.5901 24.4033 26.4653C22.937 27.3406 21.7107 28.556 20.8329 30.0038C19.9552 31.4516 19.4531 33.0872 19.3712 34.7657C19.2892 36.4442 19.6299 38.1138 20.3631 39.6266C21.0963 41.1394 22.1994 42.4486 23.5746 43.4384C24.7616 44.2928 26.1198 44.8863 27.5577 45.1827Z" fill="#DF9966"/>
<path fill-rule="evenodd" clip-rule="evenodd" d="M23.6853 16.4185C23.6427 16.5053 23.5378 16.5411 23.4511 16.4984C22.9457 16.2501 22.11 16.0293 21.2593 16.1748C20.4196 16.3184 19.5508 16.8205 18.9579 18.0462C18.9158 18.1332 18.8111 18.1696 18.7241 18.1276C18.6371 18.0855 18.6007 17.9808 18.6428 17.8938C19.2855 16.5653 20.2502 15.9923 21.2003 15.8298C22.1393 15.6692 23.0498 15.9113 23.6055 16.1843C23.6922 16.2269 23.728 16.3318 23.6853 16.4185Z" fill="#757575"/>
<path fill-rule="evenodd" clip-rule="evenodd" d="M45.0684 6.67872C45.0413 6.77367 45.0886 6.88331 45.174 6.92363C47.2042 7.88117 48.4532 9.40286 49.0885 11.2725C49.7267 13.151 49.7522 15.4014 49.2944 17.8154C49.2757 17.9138 49.3317 18.0186 49.4194 18.0494C49.5071 18.0803 49.5934 18.0255 49.612 17.9271C50.0775 15.473 50.0608 13.1413 49.3896 11.1658C48.7154 9.18156 47.3877 7.57753 45.2724 6.57981C45.1869 6.5395 45.0956 6.58378 45.0684 6.67872Z" fill="#757575"/>
</svg>
