<svg width="63" height="81" viewBox="0 0 63 81" fill="none" xmlns="http://www.w3.org/2000/svg">
<path opacity="0.2" d="M46.562 78.9549C46.562 79.6854 41.2747 80.2775 34.7525 80.2775C28.2303 80.2775 22.943 80.6082 22.943 78.9549C22.943 77.3016 28.2303 77.6322 34.7525 77.6322C41.2747 77.6322 46.562 78.2244 46.562 78.9549Z" fill="#A1783A"/>
<path fill-rule="evenodd" clip-rule="evenodd" d="M43.8785 70.5094C43.9493 70.5046 44.0284 70.52 44.0835 70.5826C44.1362 70.6425 44.143 70.7196 44.1387 70.7785C44.1304 70.893 44.0729 71.0347 44.0036 71.1743C43.8599 71.4637 43.6114 71.8461 43.3501 72.2208C43.0871 72.5979 42.8049 72.9759 42.5889 73.2591C42.4808 73.4008 42.3891 73.5191 42.3243 73.602C42.2919 73.6435 42.2662 73.6761 42.2486 73.6984C42.2398 73.7096 42.2331 73.7182 42.2285 73.724L42.2214 73.7329C42.2214 73.7329 42.2214 73.7329 42.0911 73.6414L42.2214 73.7329C42.1592 73.8111 42.0505 73.8335 41.9785 73.7829C41.9066 73.7324 41.8986 73.628 41.9608 73.5498L42.0911 73.6414C41.9608 73.5498 41.9608 73.5499 41.9608 73.5498L41.9674 73.5415C41.9718 73.5359 41.9784 73.5275 41.987 73.5166C42.0043 73.4948 42.0296 73.4626 42.0615 73.4217C42.1255 73.3398 42.2163 73.2228 42.3232 73.0825C42.5374 72.8017 42.8158 72.4288 43.0742 72.0583C43.3342 71.6854 43.5679 71.3236 43.6977 71.0623C43.7456 70.9659 43.7732 70.8949 43.7862 70.8475C38.6514 70.9471 36.1051 69.5661 34.8211 67.7987C33.7083 66.2668 33.5628 64.4622 33.46 63.1863C33.4445 62.9944 33.43 62.8145 33.4134 62.6492C33.4042 62.5587 33.4735 62.4678 33.5682 62.4461C33.6628 62.4245 33.7469 62.4804 33.7561 62.5709C33.7735 62.7431 33.7885 62.9279 33.8044 63.1229C33.9088 64.4018 34.0487 66.117 35.1109 67.5793C36.3263 69.2523 38.7744 70.618 43.8785 70.5094ZM43.7954 70.7934C43.7953 70.7934 43.7954 70.7937 43.7954 70.7944C43.7954 70.7937 43.7954 70.7933 43.7954 70.7934Z" fill="#A2783A"/>
<path fill-rule="evenodd" clip-rule="evenodd" d="M31.8247 76.6295C31.8793 76.6656 31.9273 76.7197 31.9368 76.795C31.9467 76.8742 31.909 76.9418 31.8724 76.9881C31.8012 77.0781 31.6741 77.1631 31.5384 77.2397C31.2569 77.3984 30.8365 77.5752 30.4098 77.7384C29.9805 77.9027 29.5347 78.057 29.1969 78.17C29.0279 78.2265 28.8855 78.2728 28.7854 78.3051C28.7353 78.3212 28.6957 78.3338 28.6686 78.3423C28.6551 78.3466 28.6446 78.3499 28.6376 78.3521L28.6267 78.3555C28.6267 78.3555 28.6267 78.3556 28.5703 78.2066L28.6267 78.3555C28.5314 78.3853 28.4288 78.3428 28.3977 78.2605C28.3666 78.1783 28.4186 78.0875 28.5139 78.0577L28.5703 78.2066C28.5139 78.0577 28.5139 78.0577 28.5139 78.0577L28.5241 78.0545C28.5309 78.0524 28.541 78.0492 28.5543 78.045C28.5808 78.0366 28.6198 78.0242 28.6693 78.0083C28.7682 77.9765 28.909 77.9306 29.0763 77.8747C29.4112 77.7626 29.851 77.6104 30.2728 77.449C30.6975 77.2865 31.094 77.1185 31.3481 76.9752C31.4471 76.9194 31.5113 76.8745 31.5479 76.8421C28.4244 73.8205 27.1083 71.2547 26.7357 69.1459C26.362 67.0315 26.9399 65.3932 27.5647 64.2381C27.608 64.1581 27.7164 64.1218 27.8068 64.157C27.8973 64.1923 27.9355 64.2858 27.8922 64.3658C27.2899 65.4795 26.7348 67.0522 27.0946 69.0881C27.4542 71.1231 28.7308 73.6375 31.8247 76.6295ZM31.58 76.8075C31.58 76.8075 31.5798 76.8079 31.5795 76.8085C31.5799 76.8078 31.58 76.8075 31.58 76.8075Z" fill="#A2783A"/>
<path fill-rule="evenodd" clip-rule="evenodd" d="M0.0880854 52.6585C0.130324 52.5744 0.232723 52.5405 0.316799 52.5827C2.95321 53.9072 4.97332 54.7463 6.82619 54.8742C8.66468 55.001 10.358 54.4279 12.3413 52.8738C12.4153 52.8158 12.5224 52.8288 12.5804 52.9029C12.6385 52.9769 12.6255 53.084 12.5514 53.142C10.5201 54.7338 8.74588 55.3482 6.80273 55.2141C4.87397 55.081 2.79836 54.2107 0.16384 52.8872C0.0797635 52.845 0.0458469 52.7426 0.0880854 52.6585Z" fill="#A2783A"/>
<path fill-rule="evenodd" clip-rule="evenodd" d="M50.0787 57.1415C50.097 57.0492 50.1867 56.9892 50.279 57.0075C53.173 57.5814 55.3437 57.8518 57.1636 57.4811C58.9694 57.1134 60.4487 56.1097 61.946 54.0832C62.002 54.0075 62.1086 53.9915 62.1843 54.0474C62.26 54.1033 62.276 54.21 62.2201 54.2857C60.6865 56.3613 59.1402 57.4263 57.2316 57.815C55.3372 58.2008 53.1047 57.9152 50.2127 57.3418C50.1204 57.3235 50.0604 57.2338 50.0787 57.1415Z" fill="#A2783A"/>
<path d="M8.78006 37.7916C8.78006 56.7942 8.49803 66.2763 29.086 68.2505C49.674 70.2247 62.0831 53.4099 62.0831 34.4073C62.0831 15.4047 58.4168 0 31.3422 0C4.26763 0 8.78006 18.789 8.78006 37.7916Z" fill="#FAD296"/>
<path fill-rule="evenodd" clip-rule="evenodd" d="M9.1207 38.5453C9.12074 38.2958 9.12079 38.0446 9.12079 37.7916C9.12079 35.4103 9.05011 33.0333 8.97962 30.7016L8.97604 30.5829C8.90672 28.2905 8.83876 26.0432 8.83876 23.8699C8.83876 19.4444 9.12126 15.3576 10.2328 11.8734C11.3407 8.40022 13.2702 5.53191 16.5718 3.52381C19.8833 1.50975 24.6083 0.340731 31.3422 0.340731C44.8152 0.340731 52.371 4.1702 56.5853 10.2713C60.821 16.4035 61.7424 24.9085 61.7424 34.4073C61.7424 43.8382 58.6627 52.7074 53.0513 58.9677C47.447 65.2203 39.3035 68.8879 29.1185 67.9113C18.867 66.9283 13.9411 64.089 11.5171 59.254C10.2942 56.8146 9.69106 53.8364 9.39727 50.262C9.11906 46.8773 9.11982 42.9868 9.1207 38.5453ZM8.77995 38.5517C8.78001 38.3 8.78006 38.0467 8.78006 37.7916C8.78006 35.3753 8.7071 32.9624 8.6354 30.5912C8.14321 14.3145 7.71036 0 31.3422 0C58.4168 0 62.0831 15.4047 62.0831 34.4073C62.0831 53.4099 49.674 70.2247 29.086 68.2505C8.77439 66.3028 8.77625 57.0474 8.77995 38.5517Z" fill="#E3B46E"/>
<path fill-rule="evenodd" clip-rule="evenodd" d="M38.3524 49.2913C38.8813 49.4764 39.2398 49.9106 39.4057 50.256C39.4363 50.3196 39.5126 50.3464 39.5762 50.3158C39.6398 50.2853 39.6666 50.2089 39.6361 50.1453C39.4494 49.7569 39.0465 49.2634 38.4367 49.0501C37.8183 48.8337 37.0165 48.9155 36.0603 49.6264C36.0037 49.6685 35.9919 49.7485 36.034 49.8051C36.0761 49.8618 36.1562 49.8736 36.2128 49.8315C37.118 49.1585 37.8321 49.1093 38.3524 49.2913Z" fill="#A2783A"/>
<path fill-rule="evenodd" clip-rule="evenodd" d="M23.6094 47.727C24.2041 47.9232 24.6446 48.4627 24.8659 48.9099C24.8972 48.9732 24.9739 48.9991 25.0371 48.9678C25.1004 48.9364 25.1263 48.8598 25.095 48.7966C24.8572 48.3162 24.3739 47.7101 23.6894 47.4843C22.989 47.2532 22.1226 47.4334 21.1594 48.4403C21.1106 48.4913 21.1124 48.5722 21.1634 48.621C21.2144 48.6697 21.2953 48.6679 21.3441 48.6169C22.2621 47.6573 23.0305 47.536 23.6094 47.727Z" fill="#A2783A"/>
<path d="M27.6561 52.0004C27.6073 52.3849 27.6347 52.7752 27.7367 53.1491C27.8387 53.523 28.0133 53.8731 28.2505 54.1795C28.4877 54.4859 28.7829 54.7425 29.1193 54.9347C29.4557 55.127 29.8266 55.251 30.2109 55.2999C30.5952 55.3487 30.9853 55.3213 31.359 55.2193C31.7327 55.1173 32.0827 54.9426 32.3889 54.7053C32.6952 54.4679 32.9517 54.1726 33.1438 53.836C33.336 53.4995 33.46 53.1284 33.5088 52.744L30.5825 52.3722L27.6561 52.0004Z" fill="#A2783A"/>
<path opacity="0.3" d="M46.4161 9.7056C45.9511 10.3931 46.7073 10.8097 47.9974 11.6824C49.2876 12.5551 50.6232 13.5534 51.0882 12.8659C51.5532 12.1784 50.8843 10.9136 49.5941 10.041C48.304 9.16827 46.8811 9.01813 46.4161 9.7056Z" fill="#A2783A"/>
<path opacity="0.3" d="M38.3929 54.1492C38.3929 54.7723 39.0242 55.2773 39.803 55.2773C40.5818 55.2773 41.2131 54.7723 41.2131 54.1492C41.2131 53.5262 40.5818 53.0211 39.803 53.0211C39.0242 53.0211 38.3929 53.5262 38.3929 54.1492Z" fill="#A2783A"/>
<path opacity="0.3" d="M20.9072 52.1752C20.9072 52.6425 20.2758 53.0213 19.497 53.0213C18.7183 53.0213 18.0869 52.6425 18.0869 52.1752C18.0869 51.7079 18.7183 51.3291 19.497 51.3291C20.2758 51.3291 20.9072 51.7079 20.9072 52.1752Z" fill="#A2783A"/>
<path opacity="0.3" d="M42.6232 55.5593C42.6232 55.7151 42.8463 56.1233 43.4693 56.1233C44.0923 56.1233 44.5974 56.4054 44.5974 55.8413C44.5974 55.2773 44.0923 54.9952 43.4693 54.9952C42.8463 54.9952 42.6232 55.4035 42.6232 55.5593Z" fill="#A2783A"/>
<path opacity="0.3" d="M15.3405 18.7315C15.4185 19.0141 16.1758 19.6024 17.7201 19.1763C19.2645 18.7501 20.6577 18.9164 20.3753 17.8929C20.0929 16.8694 18.6997 16.7031 17.1553 17.1293C15.6109 17.5554 15.2625 18.4488 15.3405 18.7315Z" fill="#A2783A"/>
<path opacity="0.3" d="M22.0271 22.6989C22.0292 22.4057 22.608 21.6411 24.21 21.6521C25.8121 21.6632 27.1145 21.1412 27.1071 22.2029C27.0998 23.2647 25.7975 23.7866 24.1954 23.7756C22.5934 23.7645 22.0251 22.9921 22.0271 22.6989Z" fill="#A2783A"/>
<path opacity="0.3" d="M18.0869 53.3031C18.0869 53.4589 17.5818 53.5852 16.9588 53.5852C16.3358 53.5852 15.8307 53.4589 15.8307 53.3031C15.8307 53.1474 16.3358 53.0211 16.9588 53.0211C17.5818 53.0211 18.0869 53.1474 18.0869 53.3031Z" fill="#A2783A"/>
<path opacity="0.3" d="M37.2647 55.5591C37.2647 55.7149 37.5173 55.8412 37.8288 55.8412C38.1403 55.8412 38.3928 55.7149 38.3928 55.5591C38.3928 55.4034 38.1403 55.2771 37.8288 55.2771C37.5173 55.2771 37.2647 55.4034 37.2647 55.5591Z" fill="#A2783A"/>
<path opacity="0.3" d="M22.0353 53.3031C22.0353 53.4589 21.7828 53.5852 21.4713 53.5852C21.1598 53.5852 20.9072 53.4589 20.9072 53.3031C20.9072 53.1474 21.1598 53.0211 21.4713 53.0211C21.7828 53.0211 22.0353 53.1474 22.0353 53.3031Z" fill="#A2783A"/>
</svg>
