<svg width="129" height="63" viewBox="0 0 129 63" fill="none" xmlns="http://www.w3.org/2000/svg">
<path fill-rule="evenodd" clip-rule="evenodd" d="M20 0C8.95431 0 0 8.95432 0 20V27.3313C0 38.0332 8.40556 46.7719 18.9749 47.3055L13.2959 59.3653C12.4493 61.1631 14.4585 62.9615 16.1518 61.9217L39.9133 47.3313H108.769C119.815 47.3313 128.769 38.377 128.769 27.3313V20C128.769 8.9543 119.815 0 108.769 0H20Z" fill="#4F4F4F"/>
<path d="M18.25 31.9545L19.75 23.5909H21.0682L19.7955 31.9545H18.25ZM20.7955 20.2273C21.0871 20.2273 21.3295 20.3277 21.5227 20.5284C21.7159 20.7254 21.8144 20.9659 21.8182 21.25C21.8258 21.5341 21.7273 21.7727 21.5227 21.9659C21.3182 22.1553 21.0758 22.25 20.7955 22.25C20.5189 22.25 20.2784 22.1515 20.0739 21.9545C19.8693 21.7576 19.7689 21.5227 19.7727 21.25C19.7765 21.0606 19.8239 20.8883 19.9148 20.733C20.0095 20.5777 20.1326 20.4545 20.2841 20.3636C20.4394 20.2727 20.6098 20.2273 20.7955 20.2273ZM23.1349 29L25.0668 17.3636H29.1349C29.9455 17.3636 30.5914 17.5038 31.0724 17.7841C31.5535 18.0606 31.883 18.4337 32.0611 18.9034C32.2391 19.3693 32.2789 19.8864 32.1804 20.4545C32.0971 20.9545 31.9399 21.3674 31.7088 21.6932C31.4815 22.0189 31.2088 22.2765 30.8906 22.4659C30.5762 22.6553 30.2486 22.7955 29.9077 22.8864L29.8849 23C30.2334 23.0227 30.5687 23.1477 30.8906 23.375C31.2126 23.6023 31.4607 23.928 31.6349 24.3523C31.8092 24.7765 31.8471 25.2955 31.7486 25.9091C31.6501 26.4924 31.4285 27.017 31.0838 27.483C30.7391 27.9489 30.258 28.3182 29.6406 28.5909C29.0232 28.8636 28.2562 29 27.3395 29H23.1349ZM24.7486 27.75H27.544C28.4645 27.75 29.1482 27.572 29.5952 27.2159C30.0459 26.8561 30.3168 26.4205 30.4077 25.9091C30.4683 25.5152 30.4247 25.1515 30.277 24.8182C30.133 24.4811 29.8925 24.2121 29.5554 24.0114C29.2221 23.8068 28.8016 23.7045 28.294 23.7045H25.4304L24.7486 27.75ZM25.6349 22.4773H28.2486C28.6728 22.4773 29.0705 22.3939 29.4418 22.2273C29.813 22.0606 30.1236 21.8258 30.3736 21.5227C30.6236 21.2197 30.7789 20.8636 30.8395 20.4545C30.9304 19.9432 30.8281 19.5095 30.5327 19.1534C30.2372 18.7936 29.7031 18.6136 28.9304 18.6136H26.2713L25.6349 22.4773ZM33.3594 29L34.8139 20.2727H36.1548L34.7003 29H33.3594ZM35.8935 18.7955C35.6321 18.7955 35.4067 18.7064 35.2173 18.5284C35.0317 18.3504 34.9389 18.1364 34.9389 17.8864C34.9389 17.6364 35.0317 17.4223 35.2173 17.2443C35.4067 17.0663 35.6321 16.9773 35.8935 16.9773C36.1548 16.9773 36.3783 17.0663 36.5639 17.2443C36.7533 17.4223 36.848 17.6364 36.848 17.8864C36.848 18.1364 36.7533 18.3504 36.5639 18.5284C36.3783 18.7064 36.1548 18.7955 35.8935 18.7955ZM40.7926 29.1818C39.9555 29.1818 39.2642 28.9962 38.7188 28.625C38.1733 28.25 37.7926 27.7273 37.5767 27.0568C37.3608 26.3826 37.3267 25.5985 37.4744 24.7045C37.6222 23.8106 37.9157 23.0227 38.3551 22.3409C38.7945 21.6553 39.3419 21.1212 39.9972 20.7386C40.6525 20.3523 41.3722 20.1591 42.1562 20.1591C42.6108 20.1591 43.0483 20.2348 43.4688 20.3864C43.8892 20.5379 44.2528 20.7841 44.5597 21.125C44.8665 21.4621 45.0805 21.9091 45.2017 22.4659C45.3229 23.0227 45.3153 23.7083 45.179 24.5227L45.0881 25.0909H38.3608L38.5426 23.9318H43.9062C43.9934 23.4394 43.9706 23 43.8381 22.6136C43.7093 22.2273 43.4839 21.9223 43.1619 21.6989C42.8438 21.4754 42.4403 21.3636 41.9517 21.3636C41.4479 21.3636 40.9782 21.5 40.5426 21.7727C40.107 22.0417 39.7434 22.3826 39.4517 22.7955C39.16 23.2045 38.9782 23.6212 38.9062 24.0455L38.7472 25.0455C38.6335 25.7689 38.6506 26.3447 38.7983 26.7727C38.9498 27.2008 39.2131 27.5095 39.5881 27.6989C39.9631 27.8845 40.4328 27.9773 40.9972 27.9773C41.357 27.9773 41.6884 27.928 41.9915 27.8295C42.2945 27.7273 42.5653 27.5758 42.804 27.375C43.0426 27.1705 43.2434 26.9167 43.4062 26.6136L44.6335 26.9773C44.4252 27.4167 44.1316 27.803 43.7528 28.1364C43.3778 28.4659 42.9384 28.7235 42.4347 28.9091C41.9347 29.0909 41.3873 29.1818 40.7926 29.1818ZM48.7045 23.75L47.8409 29H46.5L47.9545 20.2727H49.25L49.0227 21.6364H49.1364C49.4091 21.1932 49.7784 20.8371 50.2443 20.5682C50.7102 20.2955 51.2727 20.1591 51.9318 20.1591C52.5152 20.1591 53.0076 20.2803 53.4091 20.5227C53.8144 20.7614 54.1004 21.125 54.267 21.6136C54.4375 22.0985 54.4621 22.7121 54.3409 23.4545L53.4091 29H52.0682L52.9773 23.5455C53.0909 22.8636 53.0019 22.3295 52.7102 21.9432C52.4223 21.5568 51.9659 21.3636 51.3409 21.3636C50.9091 21.3636 50.5095 21.4564 50.142 21.642C49.7784 21.8277 49.4697 22.0985 49.2159 22.4545C48.9659 22.8106 48.7955 23.2424 48.7045 23.75ZM64.1378 20.2727L59.456 29H58.0923L56.3196 20.2727H57.7173L58.9673 27.2273H59.0582L62.6264 20.2727H64.1378ZM67.777 29.1818C66.9399 29.1818 66.2486 28.9962 65.7031 28.625C65.1577 28.25 64.777 27.7273 64.5611 27.0568C64.3452 26.3826 64.3111 25.5985 64.4588 24.7045C64.6065 23.8106 64.9001 23.0227 65.3395 22.3409C65.7789 21.6553 66.3262 21.1212 66.9815 20.7386C67.6368 20.3523 68.3565 20.1591 69.1406 20.1591C69.5952 20.1591 70.0327 20.2348 70.4531 20.3864C70.8736 20.5379 71.2372 20.7841 71.544 21.125C71.8509 21.4621 72.0649 21.9091 72.1861 22.4659C72.3073 23.0227 72.2997 23.7083 72.1634 24.5227L72.0724 25.0909H65.3452L65.527 23.9318H70.8906C70.9777 23.4394 70.955 23 70.8224 22.6136C70.6937 22.2273 70.4683 21.9223 70.1463 21.6989C69.8281 21.4754 69.4247 21.3636 68.9361 21.3636C68.4323 21.3636 67.9626 21.5 67.527 21.7727C67.0914 22.0417 66.7277 22.3826 66.4361 22.7955C66.1444 23.2045 65.9626 23.6212 65.8906 24.0455L65.7315 25.0455C65.6179 25.7689 65.6349 26.3447 65.7827 26.7727C65.9342 27.2008 66.1974 27.5095 66.5724 27.6989C66.9474 27.8845 67.4171 27.9773 67.9815 27.9773C68.3414 27.9773 68.6728 27.928 68.9759 27.8295C69.2789 27.7273 69.5497 27.5758 69.7884 27.375C70.027 27.1705 70.2277 26.9167 70.3906 26.6136L71.6179 26.9773C71.4096 27.4167 71.116 27.803 70.7372 28.1364C70.3622 28.4659 69.9228 28.7235 69.419 28.9091C68.919 29.0909 68.3717 29.1818 67.777 29.1818ZM75.6889 23.75L74.8253 29H73.4844L74.9389 20.2727H76.2344L76.0071 21.6364H76.1207C76.3935 21.1932 76.7628 20.8371 77.2287 20.5682C77.6946 20.2955 78.2571 20.1591 78.9162 20.1591C79.4995 20.1591 79.992 20.2803 80.3935 20.5227C80.7988 20.7614 81.0848 21.125 81.2514 21.6136C81.4219 22.0985 81.4465 22.7121 81.3253 23.4545L80.3935 29H79.0526L79.9616 23.5455C80.0753 22.8636 79.9863 22.3295 79.6946 21.9432C79.4067 21.5568 78.9503 21.3636 78.3253 21.3636C77.8935 21.3636 77.4938 21.4564 77.1264 21.642C76.7628 21.8277 76.4541 22.0985 76.2003 22.4545C75.9503 22.8106 75.7798 23.2424 75.6889 23.75ZM82.8438 29L84.2983 20.2727H85.6392L84.1847 29H82.8438ZM85.3778 18.7955C85.1165 18.7955 84.8911 18.7064 84.7017 18.5284C84.5161 18.3504 84.4233 18.1364 84.4233 17.8864C84.4233 17.6364 84.5161 17.4223 84.7017 17.2443C84.8911 17.0663 85.1165 16.9773 85.3778 16.9773C85.6392 16.9773 85.8627 17.0663 86.0483 17.2443C86.2377 17.4223 86.3324 17.6364 86.3324 17.8864C86.3324 18.1364 86.2377 18.3504 86.0483 18.5284C85.8627 18.7064 85.6392 18.7955 85.3778 18.7955ZM89.9247 29.1818C89.1937 29.1818 88.58 28.9981 88.0838 28.6307C87.5876 28.2595 87.2372 27.7367 87.0327 27.0625C86.8319 26.3845 86.8073 25.5833 86.9588 24.6591C87.1141 23.7424 87.4039 22.947 87.8281 22.2727C88.2562 21.5985 88.7808 21.0777 89.402 20.7102C90.0232 20.3428 90.7012 20.1591 91.4361 20.1591C92.0043 20.1591 92.438 20.2538 92.7372 20.4432C93.0402 20.6288 93.2599 20.8409 93.3963 21.0795C93.5327 21.3144 93.6368 21.5076 93.7088 21.6591H93.8224L94.5384 17.3636H95.8793L93.9474 29H92.652L92.8793 27.6591H92.7202C92.5952 27.8182 92.4209 28.0189 92.1974 28.2614C91.974 28.5 91.6785 28.714 91.3111 28.9034C90.9474 29.089 90.4853 29.1818 89.9247 29.1818ZM90.2543 27.9773C90.7921 27.9773 91.2732 27.8371 91.6974 27.5568C92.1255 27.2727 92.4815 26.8807 92.7656 26.3807C93.0497 25.8769 93.2467 25.2955 93.3565 24.6364C93.4664 23.9848 93.4626 23.4148 93.3452 22.9261C93.2277 22.4337 93.0024 22.0511 92.669 21.7784C92.3357 21.5019 91.8944 21.3636 91.3452 21.3636C90.7808 21.3636 90.2902 21.5095 89.8736 21.8011C89.4569 22.089 89.1179 22.4811 88.8565 22.9773C88.5952 23.4697 88.4134 24.0227 88.3111 24.6364C88.2088 25.2576 88.2069 25.822 88.3054 26.3295C88.4039 26.8333 88.6122 27.2348 88.9304 27.5341C89.2524 27.8295 89.6937 27.9773 90.2543 27.9773ZM100.18 29.1818C99.3774 29.1818 98.705 28.9905 98.1634 28.608C97.6217 28.2254 97.2391 27.6894 97.0156 27C96.7959 26.3106 96.7599 25.5076 96.9077 24.5909C97.0516 23.697 97.3376 22.9186 97.7656 22.2557C98.1974 21.589 98.7334 21.0739 99.3736 20.7102C100.018 20.3428 100.726 20.1591 101.499 20.1591C102.302 20.1591 102.972 20.3523 103.51 20.7386C104.052 21.1212 104.434 21.6591 104.658 22.3523C104.881 23.0417 104.919 23.8485 104.771 24.7727C104.627 25.6591 104.338 26.4337 103.902 27.0966C103.47 27.7557 102.934 28.2689 102.294 28.6364C101.658 29 100.953 29.1818 100.18 29.1818ZM100.203 27.9773C100.817 27.9773 101.349 27.8201 101.8 27.5057C102.254 27.1913 102.622 26.7765 102.902 26.2614C103.186 25.7462 103.377 25.1894 103.476 24.5909C103.567 24.0227 103.563 23.4943 103.464 23.0057C103.366 22.5133 103.156 22.1174 102.834 21.8182C102.512 21.5152 102.059 21.3636 101.476 21.3636C100.862 21.3636 100.326 21.5227 99.8679 21.8409C99.4134 22.1591 99.0459 22.5777 98.7656 23.0966C98.4853 23.6155 98.2978 24.1742 98.2031 24.7727C98.1122 25.3409 98.1141 25.8693 98.2088 26.358C98.3073 26.8428 98.5175 27.2348 98.8395 27.5341C99.1652 27.8295 99.6198 27.9773 100.203 27.9773ZM109.83 17.3636L108.33 25.7273H107.011L108.284 17.3636H109.83ZM107.284 29.0909C106.996 29.0909 106.756 28.9924 106.562 28.7955C106.369 28.5947 106.269 28.3523 106.261 28.0682C106.258 27.7841 106.358 27.5473 106.562 27.358C106.767 27.1648 107.008 27.0682 107.284 27.0682C107.564 27.0682 107.807 27.1667 108.011 27.3636C108.216 27.5606 108.314 27.7955 108.307 28.0682C108.303 28.2576 108.254 28.4299 108.159 28.5852C108.068 28.7405 107.945 28.8636 107.79 28.9545C107.638 29.0455 107.47 29.0909 107.284 29.0909Z" fill="white"/>
</svg>
