<svg width="82" height="99" viewBox="0 0 82 99" fill="none" xmlns="http://www.w3.org/2000/svg">
<path fill-rule="evenodd" clip-rule="evenodd" d="M60.1268 67.2811C60.0737 67.1922 60.1027 67.077 60.1916 67.0239C62.6 65.584 65.0035 64.0721 66.7561 62.4341C68.5117 60.7933 69.576 59.0617 69.3885 57.182C69.3782 57.079 69.4534 56.9871 69.5565 56.9768C69.6595 56.9665 69.7514 57.0417 69.7617 57.1447C69.9669 59.202 68.7948 61.042 67.0122 62.7081C65.2265 64.377 62.79 65.9074 60.384 67.3458C60.2951 67.399 60.1799 67.37 60.1268 67.2811Z" fill="#4B862F"/>
<path fill-rule="evenodd" clip-rule="evenodd" d="M57.6413 86.4237C57.5434 86.4559 57.4313 86.4735 57.321 86.4442C57.2482 86.4249 57.1748 86.3723 57.1174 86.3272C57.0518 86.2757 56.9746 86.207 56.8885 86.1258C56.716 85.9632 56.4967 85.7397 56.2441 85.4782C56.1331 85.3631 56.0153 85.2404 55.8917 85.1117C55.4511 84.6526 54.9368 84.1168 54.3905 83.5784C53.6909 82.8889 52.9443 82.2008 52.2414 81.6712C51.5303 81.1353 50.894 80.7854 50.4104 80.7315C50.3074 80.72 50.2333 80.6273 50.2448 80.5243C50.2563 80.4214 50.349 80.3473 50.452 80.3587C51.0454 80.4249 51.7529 80.8334 52.4672 81.3716C53.1897 81.9161 53.9501 82.6177 54.6538 83.3113C55.2042 83.8537 55.7234 84.3946 56.1643 84.8541C56.2873 84.9822 56.4042 85.1039 56.5139 85.2176C56.7667 85.4795 56.9805 85.6971 57.1458 85.853C57.2286 85.931 57.2964 85.9909 57.3491 86.0322C57.3993 86.0717 57.4205 86.0817 57.4202 86.0823C57.4202 86.0823 57.4202 86.0824 57.4202 86.0823C57.4352 86.0854 57.4674 86.0861 57.524 86.0674C57.5831 86.048 57.6547 86.0121 57.7367 85.9598C57.9006 85.8552 58.0825 85.7003 58.2557 85.535C58.4276 85.3709 58.5853 85.202 58.7003 85.0737C58.7577 85.0096 58.8041 84.956 58.8362 84.9185C58.8522 84.8998 58.8645 84.8851 58.8728 84.8752C58.877 84.8703 58.8801 84.8665 58.8822 84.8641L58.8844 84.8613L58.885 84.8606C58.9509 84.7807 59.0691 84.7693 59.149 84.8351C59.2289 84.901 59.2403 85.0191 59.1745 85.0991L59.0298 84.9798C59.1745 85.0991 59.1745 85.0991 59.1745 85.0991L59.1734 85.1004L59.1706 85.1037C59.1682 85.1066 59.1648 85.1108 59.1603 85.1162C59.1512 85.1269 59.1381 85.1425 59.1213 85.1622C59.0876 85.2016 59.0392 85.2574 58.9796 85.3239C58.8606 85.4567 58.6959 85.6332 58.5146 85.8063C58.3346 85.9782 58.1323 86.1523 57.9384 86.276C57.8414 86.3378 57.7407 86.3909 57.6413 86.4237Z" fill="#4B862F"/>
<path fill-rule="evenodd" clip-rule="evenodd" d="M37.5414 93.1C37.6394 93.068 37.7401 93.0158 37.8117 92.9269C37.859 92.8682 37.887 92.7824 37.9066 92.7121C37.929 92.6317 37.9506 92.5305 37.9719 92.4142C38.0147 92.181 38.0593 91.871 38.1081 91.5106C38.1295 91.3521 38.1519 91.1834 38.1753 91.0065C38.2588 90.3755 38.3563 89.6391 38.478 88.8817C38.6339 87.9117 38.8286 86.9149 39.0817 86.0718C39.3378 85.2188 39.6437 84.5599 40.0016 84.23C40.0777 84.1598 40.0826 84.0412 40.0124 83.965C39.9423 83.8888 39.8237 83.884 39.7475 83.9542C39.3084 84.3589 38.9798 85.1071 38.7226 85.964C38.4623 86.8307 38.2646 87.8465 38.1078 88.8222C37.9851 89.5854 37.8867 90.3288 37.8031 90.9602C37.7798 91.1363 37.7577 91.3036 37.7365 91.4603C37.6876 91.8211 37.6441 92.1231 37.6031 92.3466C37.5826 92.4585 37.5633 92.5469 37.5454 92.6114C37.5282 92.673 37.5171 92.6936 37.5177 92.6939C37.5176 92.694 37.5177 92.6939 37.5177 92.6939C37.5074 92.7053 37.4818 92.7249 37.4252 92.7434C37.366 92.7627 37.2871 92.7762 37.1901 92.7826C36.9961 92.7954 36.7578 92.7783 36.5204 92.7476C36.2847 92.7171 36.0577 92.6744 35.8891 92.639C35.805 92.6214 35.7358 92.6057 35.6878 92.5945C35.6638 92.5889 35.6452 92.5844 35.6326 92.5813C35.6263 92.5798 35.6216 92.5786 35.6185 92.5778L35.6151 92.577L35.6141 92.5767C35.5138 92.5513 35.4118 92.6121 35.3863 92.7125C35.3609 92.8129 35.4216 92.9149 35.522 92.9404L35.5681 92.7585C35.522 92.9404 35.522 92.9404 35.522 92.9404L35.5237 92.9408L35.5279 92.9418C35.5315 92.9427 35.5367 92.944 35.5436 92.9457C35.5572 92.949 35.577 92.9538 35.6022 92.9597C35.6526 92.9715 35.7247 92.9879 35.8121 93.0062C35.9866 93.0427 36.2238 93.0875 36.4723 93.1196C36.7191 93.1515 36.9851 93.172 37.2146 93.1569C37.3293 93.1494 37.442 93.1325 37.5414 93.1Z" fill="#4B862F"/>
<path d="M5.45268 27.2624C5.3119 34.2813 10.541 53.7142 12.5424 58.2117C16.0439 61.3141 32.5667 46.0131 45.8025 41.2895C44.935 39.4759 46.3701 37.0414 44.375 36.7365C41.8812 36.3555 45.7976 32.9687 44.8711 33.4166C43.9446 33.8645 43.3086 30.558 40.9773 29.4813C38.6461 28.4047 40.3855 24.4787 37.857 21.7345C35.3284 18.9903 33.7169 19.8575 32.5094 20.0005C31.302 20.1435 31.1095 16.4463 29.7442 15.2552C28.3789 14.0642 26.0034 14.6837 24.6381 13.4926C23.2729 12.3016 21.8776 6.71773 19.1423 6.36526C16.407 6.0128 17.3587 11.9873 15.2642 12.9117C13.1697 13.8361 8.53499 6.82917 6.6567 7.84369C4.12485 9.21123 5.53427 23.1946 5.45268 27.2624Z" fill="#91CE75"/>
<path fill-rule="evenodd" clip-rule="evenodd" d="M7.42619 7.98771C7.14391 7.90346 6.92172 7.91356 6.74573 8.00861C6.48839 8.14761 6.25464 8.46432 6.05595 8.97212C5.85949 9.47422 5.7091 10.1326 5.59746 10.9093C5.37432 12.462 5.31047 14.4539 5.32329 16.5392C5.3361 18.623 5.42536 20.7917 5.50647 22.6964C5.51015 22.7829 5.51382 22.8689 5.51747 22.9544C5.59389 24.7457 5.6597 26.2883 5.64009 27.2661C5.57027 30.7473 6.83568 37.3369 8.37632 43.6379C9.90749 49.9002 11.7001 55.8358 12.6967 58.097C13.0733 58.4102 13.6361 58.5073 14.4042 58.3838C15.1907 58.2573 16.1561 57.9046 17.2744 57.3714C19.5097 56.3055 22.3066 54.5431 25.4201 52.5279C25.929 52.1985 26.4463 51.8624 26.9708 51.5216C32.7902 47.7403 39.5003 43.3803 45.551 41.1807C45.3823 40.7503 45.3232 40.2988 45.3066 39.863C45.2949 39.5579 45.3044 39.2429 45.3133 38.9485C45.3187 38.7716 45.3238 38.6022 45.324 38.447C45.3244 38.0122 45.2879 37.6645 45.1521 37.4096C45.0257 37.1723 44.7989 36.991 44.3466 36.9218C44.0138 36.871 43.7599 36.7662 43.5883 36.6012C43.4114 36.4313 43.3419 36.2168 43.3431 35.993C43.3443 35.7751 43.412 35.5461 43.5084 35.3254C43.6057 35.1029 43.7375 34.8771 43.8786 34.6626C44.0902 34.3409 44.3323 34.0313 44.5207 33.7904C44.5622 33.7373 44.601 33.6876 44.6364 33.6418C44.5753 33.6348 44.5151 33.6176 44.4565 33.5912C44.3087 33.5249 44.1771 33.4038 44.0573 33.2641C43.857 33.0307 43.6486 32.6946 43.4228 32.3304C43.3798 32.2611 43.3362 32.1908 43.2919 32.1201C42.7243 31.2126 42.0079 30.1638 40.8986 29.6515C40.2596 29.3564 39.9023 28.8634 39.6855 28.2665C39.4738 27.6837 39.3915 26.9883 39.3066 26.2703L39.3048 26.2552C39.1315 24.7902 38.9367 23.1832 37.719 21.8615C36.4757 20.5123 35.4788 20.0723 34.6645 19.9708C34.254 19.9197 33.8797 19.9532 33.5288 20.0102C33.3812 20.0342 33.2397 20.0619 33.1 20.0893C33.0726 20.0947 33.0452 20.1001 33.0179 20.1054C32.8533 20.1374 32.6899 20.1679 32.5314 20.1866C32.1123 20.2363 31.8164 19.9418 31.5995 19.584C31.3784 19.2193 31.1926 18.7142 31.0089 18.1901C30.9829 18.1158 30.9569 18.041 30.9307 17.9658C30.7697 17.5028 30.6046 17.0283 30.4112 16.5958C30.1855 16.0913 29.931 15.6671 29.6208 15.3965C28.9866 14.8432 28.1107 14.7041 27.1627 14.5592L27.1353 14.555C26.2207 14.4153 25.2386 14.2653 24.5148 13.6338C24.1428 13.3093 23.7849 12.7047 23.422 12.0131C23.2657 11.7154 23.1089 11.4022 22.9476 11.0802C22.7235 10.6327 22.4907 10.168 22.2391 9.70378C21.8104 8.91313 21.3455 8.16077 20.8241 7.58605C20.3021 7.01073 19.7398 6.63126 19.1183 6.55118C18.8111 6.5116 18.5675 6.56154 18.3663 6.67182C18.1626 6.78343 17.9886 6.96451 17.8359 7.20877C17.5266 7.70359 17.3291 8.41641 17.1455 9.20225C17.1097 9.3552 17.0745 9.51082 17.0391 9.66746C16.8956 10.3018 16.7483 10.953 16.5453 11.5131C16.2937 12.2075 15.9376 12.8193 15.3398 13.0832C15.0231 13.223 14.672 13.2061 14.3151 13.097C13.959 12.9881 13.5812 12.7829 13.1949 12.5226C12.4228 12.0023 11.5776 11.2344 10.7529 10.4824L10.712 10.4451C9.89509 9.70013 9.09987 8.97496 8.39359 8.49231C8.0347 8.24706 7.7099 8.07239 7.42619 7.98771ZM14.4248 12.7383C14.7295 12.8315 14.9815 12.8314 15.1884 12.74C15.6378 12.5417 15.9482 12.06 16.1927 11.3853C16.3868 10.8497 16.5274 10.2287 16.6705 9.59657C16.7066 9.437 16.7429 9.27672 16.7803 9.11692C16.9624 8.33765 17.1708 7.56515 17.5179 7.00999C17.6933 6.72926 17.91 6.49419 18.1861 6.34292C18.4645 6.19032 18.7895 6.13065 19.1662 6.1792C19.9124 6.27534 20.5502 6.72603 21.1018 7.33402C21.654 7.94263 22.136 8.72675 22.5688 9.525C22.8201 9.98849 23.0612 10.4696 23.2898 10.9257C23.451 11.2475 23.6061 11.5569 23.7541 11.8388C24.1222 12.5402 24.4507 13.0802 24.7613 13.3512C25.3955 13.9045 26.2715 14.0436 27.2194 14.1885L27.2468 14.1927C28.1615 14.3324 29.1435 14.4824 29.8674 15.1138C30.2398 15.4388 30.5213 15.9234 30.7535 16.4426C30.9541 16.8912 31.1251 17.3829 31.2858 17.8448C31.3117 17.9194 31.3374 17.9933 31.3629 18.066C31.549 18.5972 31.723 19.0641 31.9202 19.3896C32.1217 19.7219 32.3027 19.836 32.4873 19.8142C32.6306 19.7972 32.7818 19.7693 32.9463 19.7372C32.9726 19.7321 32.9993 19.7269 33.0263 19.7216C33.1661 19.6942 33.3146 19.6651 33.4687 19.64C33.8385 19.58 34.2516 19.5414 34.7109 19.5986C35.6364 19.7139 36.7095 20.2124 37.9948 21.6074C39.3003 23.0242 39.5037 24.7442 39.6752 26.1936L39.6773 26.2111C39.7643 26.9469 39.8427 27.6007 40.038 28.1385C40.2298 28.6663 40.5293 29.0678 41.0559 29.311C42.2778 29.8753 43.0451 31.0182 43.6099 31.9211C43.6568 31.9961 43.7021 32.0692 43.7461 32.1399C43.9729 32.5053 44.1623 32.8105 44.3419 33.0199C44.4484 33.144 44.5368 33.2161 44.6101 33.2491C44.6733 33.2774 44.7265 33.2781 44.7894 33.2477C44.8222 33.2318 44.8541 33.218 44.8839 33.2079C44.9107 33.1989 44.95 33.1877 44.9932 33.1883C45.0379 33.1889 45.1271 33.2049 45.1771 33.2948C45.2175 33.3676 45.2012 33.4387 45.1946 33.4635C45.179 33.5214 45.1425 33.5811 45.1122 33.6271C45.0778 33.6793 45.0331 33.7402 44.983 33.8061C44.9311 33.8745 44.872 33.95 44.8083 34.0315C44.6212 34.2708 44.3942 34.5613 44.1919 34.8687C44.0572 35.0734 43.9377 35.2797 43.8521 35.4755C43.7657 35.6732 43.719 35.8488 43.7182 35.995C43.7174 36.1353 43.7582 36.2444 43.8482 36.3308C43.9433 36.4223 44.1126 36.5067 44.4033 36.5511C44.9484 36.6344 45.2904 36.8717 45.4831 37.2332C45.6665 37.5773 45.6995 38.0087 45.699 38.4474C45.6988 38.6268 45.6933 38.8052 45.6876 38.9851C45.6789 39.2664 45.67 39.5511 45.6813 39.8486C45.6995 40.3243 45.7703 40.7877 45.9716 41.2085L46.0614 41.3961L45.8655 41.4661C39.81 43.6271 33.0581 48.0139 27.1685 51.8404C26.6465 52.1796 26.1313 52.5143 25.6239 52.8427C22.5145 54.8554 19.6969 56.6317 17.4358 57.7099C16.3059 58.2487 15.3026 58.6192 14.4637 58.7541C13.6269 58.8887 12.9169 58.794 12.418 58.352L12.3875 58.325L12.371 58.2879C11.3627 56.0221 9.5518 50.0246 8.012 43.727C6.47293 37.4325 5.19416 30.7963 5.26512 27.2586C5.28449 26.293 5.21913 24.7607 5.1423 22.9596C5.13881 22.8778 5.13529 22.7953 5.13176 22.7124C5.05067 20.8083 4.96111 18.6331 4.94825 16.5416C4.9354 14.4516 4.99901 12.4371 5.22623 10.856C5.33977 10.066 5.49529 9.37575 5.70669 8.83549C5.91585 8.30092 6.1919 7.88151 6.56752 7.67862C6.8611 7.52005 7.19461 7.52718 7.53349 7.62832C7.87094 7.72904 8.23274 7.92811 8.60521 8.18264C9.33353 8.68035 10.1452 9.42052 10.9514 10.1558C10.9695 10.1723 10.9876 10.1888 11.0056 10.2052C11.8362 10.9626 12.6598 11.7097 13.4045 12.2115C13.7765 12.4622 14.1191 12.6449 14.4248 12.7383Z" fill="#86CA67"/>
<path fill-rule="evenodd" clip-rule="evenodd" d="M61.4301 32.1543C60.9363 26.9732 59.73 19.9215 57.8177 15.962C54.9782 10.0828 52.8321 7.94069 50.1001 8.29215C49.0965 8.42126 48.1429 9.89394 47.1699 11.3967C46.1779 12.9286 45.1658 14.4917 44.0598 14.6945C43.0737 14.8753 42.3002 14.2436 41.5344 13.6182C40.5985 12.8539 39.6741 12.099 38.3872 12.8472C36.8757 13.7259 36.5961 15.535 36.3643 17.0355C36.2372 17.8579 36.1245 18.5875 35.8311 19.0205C35.4167 19.632 34.6242 20.1091 33.8317 20.5862C33.0391 21.0633 32.2466 21.5404 31.8322 22.1519C31.4468 22.7208 31.4705 23.4716 31.4922 24.1564C31.5171 24.9437 31.5393 25.6436 30.9335 25.8792C30.7688 25.9432 30.5913 26.0027 30.4041 26.0655C29.3035 26.4345 27.8659 26.9164 26.7081 29.0987C26.0307 30.3755 26.4107 31.3536 26.7433 32.2095C27.0758 33.0653 27.3608 33.7989 26.4934 34.5866C26.0897 34.9532 25.8826 35.4186 25.79 35.9189C14.238 39.6987 13.7133 47.2279 22.1055 71.0958C25.7157 80.3874 40.047 84.3853 50.2431 81.0957C64.0624 75.7215 64.3271 65.6779 64.0829 55.3228C63.1117 49.9333 62.8274 45.2112 62.591 41.2859C62.3591 37.434 62.1734 34.3494 61.4301 32.1543Z" fill="#C4E897"/>
<path fill-rule="evenodd" clip-rule="evenodd" d="M47.0172 11.2876L47.0125 11.2948C46.5147 12.0635 46.0205 12.8262 45.5146 13.4228C45.0038 14.0252 44.5107 14.4212 44.026 14.5101C43.1398 14.6725 42.4358 14.1122 41.653 13.473L41.6392 13.4617C41.1814 13.0878 40.6962 12.6916 40.1583 12.49C39.5978 12.2799 38.9862 12.2821 38.293 12.6851C37.4892 13.1524 37.0187 13.8652 36.7208 14.6411C36.4258 15.4095 36.2954 16.2534 36.1804 16.9978L36.179 17.007C36.1151 17.4201 36.0563 17.8001 35.9776 18.1307C35.8986 18.4628 35.8034 18.7271 35.6759 18.9153C35.486 19.1955 35.2038 19.4527 34.8625 19.7024C34.5216 19.9519 34.1328 20.1861 33.735 20.4256L33.7309 20.428C33.3375 20.6649 32.9352 20.907 32.5794 21.1673C32.2227 21.4283 31.9015 21.7154 31.677 22.0468C31.2572 22.6663 31.2828 23.47 31.3039 24.1336L31.3048 24.1624C31.3175 24.5636 31.3272 24.9092 31.2663 25.1842C31.2083 25.4461 31.0931 25.616 30.8656 25.7045C30.7058 25.7666 30.5327 25.8247 30.3445 25.8877L30.3386 25.8897C29.7901 26.0736 29.1349 26.2932 28.4717 26.7474C27.8034 27.205 27.1347 27.8947 26.5425 29.0109C25.8248 30.3635 26.2323 31.4123 26.5654 32.2695L26.5685 32.2775C26.7381 32.714 26.8769 33.0777 26.8808 33.4258C26.8845 33.7542 26.7667 34.0852 26.3674 34.4479C25.9567 34.8208 25.7356 35.2852 25.6279 35.7749C22.7757 36.719 20.5789 37.9019 19.0253 39.5238C17.4489 41.1694 16.5485 43.2524 16.2821 45.956C16.0161 48.6543 16.3811 51.974 17.3335 56.1039C18.2863 60.2353 19.8297 65.1887 21.9286 71.1581L21.9297 71.161L21.9308 71.1639C23.7633 75.8803 28.3062 79.2319 33.6459 80.9919C38.9878 82.7526 45.1606 82.9326 50.3006 81.2742L50.3058 81.2725L50.311 81.2705C57.2627 78.5671 60.8265 74.6778 62.6112 70.1458C64.3902 65.6286 64.3924 60.4919 64.2704 55.3184L64.27 55.3038L64.2675 55.2895C63.2984 49.9121 63.0145 45.2001 62.7782 41.2746L62.7764 41.2451C62.5467 37.4296 62.3603 34.3324 61.6147 32.1149C61.1195 26.9341 59.9119 19.8671 57.9865 15.8805C56.5649 12.9371 55.3073 10.9076 54.0508 9.65766C52.7853 8.39875 51.5105 7.92167 50.0762 8.10619C49.4987 8.18049 48.9691 8.63224 48.4805 9.20803C47.9872 9.78943 47.5002 10.5416 47.0172 11.2876ZM48.7664 9.45069C49.2488 8.88218 49.6979 8.53303 50.124 8.47821C51.4216 8.31128 52.5859 8.72954 53.7863 9.92364C54.9957 11.1267 56.2309 13.1079 57.6488 16.0437C59.5454 19.9706 60.7498 26.9928 61.2434 32.1722L61.2455 32.1939L61.2525 32.2145C61.9858 34.3801 62.1713 37.4344 62.4039 41.2972L62.404 41.2998C62.6401 45.221 62.9246 49.9474 63.8958 55.3418C64.0176 60.5184 64.0079 65.5758 62.2623 70.0085C60.5213 74.4295 57.0444 78.2483 50.1802 80.919C45.1253 82.5484 39.0368 82.3737 33.7633 80.6356C28.4869 78.8965 24.0598 75.6044 22.2814 71.0308C20.1847 65.0675 18.647 60.1302 17.699 56.0195C16.7505 51.9067 16.3951 48.6326 16.6553 45.9927C16.915 43.3581 17.7872 41.3583 19.296 39.7832C20.8087 38.2041 22.975 37.0373 25.8483 36.0972L25.9541 36.0625L25.9744 35.953C26.0615 35.4823 26.2534 35.0579 26.6194 34.7255C27.0875 34.3005 27.2609 33.8708 27.2558 33.4215C27.251 32.9984 27.086 32.5739 26.9254 32.1604L26.918 32.1415C26.5866 31.2885 26.2388 30.3833 26.8737 29.1866C27.4394 28.1205 28.0684 27.4781 28.6835 27.0569C29.3012 26.6339 29.9127 26.4281 30.4636 26.2434L30.4661 26.2425C30.6515 26.1804 30.8325 26.1197 31.0014 26.054C31.3797 25.9069 31.5563 25.609 31.6324 25.2652C31.7046 24.9393 31.6922 24.5479 31.6802 24.167L31.6796 24.1504C31.6575 23.45 31.6424 22.7664 31.9875 22.2571C32.1773 21.977 32.4596 21.7197 32.8008 21.47C33.1418 21.2206 33.5305 20.9864 33.9283 20.7469L33.9324 20.7444C34.3258 20.5076 34.7281 20.2655 35.0839 20.0051C35.4406 19.7441 35.7618 19.4571 35.9863 19.1257C36.1522 18.881 36.26 18.5639 36.3425 18.2174C36.425 17.8708 36.4859 17.4766 36.5488 17.0693L36.5496 17.0642C36.6661 16.3104 36.7915 15.5032 37.0709 14.7754C37.3487 14.0519 37.7737 13.4208 38.4814 13.0093C39.0752 12.6642 39.5691 12.6698 40.0266 12.8412C40.5011 13.0191 40.9417 13.3764 41.4157 13.7635L41.4452 13.7876C42.1868 14.3934 43.0218 15.0755 44.0935 14.879C44.7148 14.7651 45.2808 14.2782 45.8006 13.6654C46.3237 13.0485 46.8301 12.2665 47.3228 11.5054L47.3272 11.4986C47.8157 10.7443 48.2904 10.0117 48.7664 9.45069Z" fill="#B6E081"/>
<path fill-rule="evenodd" clip-rule="evenodd" d="M49.7366 18.9845C49.6391 19.0196 49.5885 19.1271 49.6236 19.2245C50.1506 20.6904 50.3252 22.8699 50.2159 25.4115C50.1069 27.9479 49.7163 30.8256 49.1266 33.6765C48.5369 36.5273 47.7491 39.3471 46.8474 41.7678C45.9441 44.1925 44.9321 46.2019 43.8999 47.4436C43.8336 47.5232 43.8445 47.6415 43.9241 47.7077C44.0037 47.7739 44.1219 47.763 44.1882 47.6834C45.261 46.3928 46.2908 44.3362 47.1987 41.8987C48.1082 39.4573 48.9009 36.6187 49.4938 33.7524C50.0866 30.8862 50.4805 27.9881 50.5906 25.4275C50.7004 22.8722 50.5286 20.6335 49.9764 19.0975C49.9414 19 49.834 18.9495 49.7366 18.9845Z" fill="#E0FFBA"/>
<path fill-rule="evenodd" clip-rule="evenodd" d="M46.6284 23.44C46.532 23.4779 46.4845 23.5867 46.5224 23.6831C46.7557 24.278 47.331 25.0257 47.9344 25.7053C48.5433 26.3909 49.201 27.0292 49.6221 27.4086C49.6991 27.4779 49.8176 27.4717 49.887 27.3947C49.9563 27.3177 49.9501 27.1991 49.8732 27.1298C49.4607 26.7582 48.813 26.1298 48.2149 25.4562C47.6113 24.7765 47.078 24.0725 46.8715 23.546C46.8336 23.4496 46.7248 23.4022 46.6284 23.44Z" fill="#E0FFBA"/>
<path fill-rule="evenodd" clip-rule="evenodd" d="M40.8661 35.4143C40.7634 35.4277 40.691 35.5218 40.7043 35.6245C40.9238 37.3166 41.8933 38.9554 42.9967 40.3074C44.1023 41.662 45.3585 42.7484 46.1822 43.3372C46.2664 43.3974 46.3836 43.3779 46.4438 43.2936C46.504 43.2093 46.4846 43.0922 46.4003 43.032C45.6011 42.4608 44.3699 41.3967 43.2872 40.0701C42.2023 38.7408 41.2827 37.1674 41.0762 35.5761C41.0629 35.4734 40.9688 35.4009 40.8661 35.4143Z" fill="#E0FFBA"/>
<path fill-rule="evenodd" clip-rule="evenodd" d="M45.0825 29.869C44.9801 29.8849 44.9101 29.9808 44.926 30.0832C45.1178 31.3169 45.7445 32.5302 46.4388 33.5392C47.1342 34.5498 47.9078 35.3702 48.4122 35.8197C48.4895 35.8886 48.608 35.8818 48.6769 35.8045C48.7458 35.7271 48.739 35.6086 48.6617 35.5397C48.179 35.1094 47.4255 34.3115 46.7477 33.3265C46.0688 32.3399 45.4762 31.1805 45.2966 30.0255C45.2806 29.9231 45.1848 29.8531 45.0825 29.869Z" fill="#E0FFBA"/>
<path fill-rule="evenodd" clip-rule="evenodd" d="M52.5256 36.798C52.4251 36.7728 52.3232 36.8338 52.298 36.9343C52.2023 37.3153 51.9291 37.7907 51.528 38.32C51.1301 38.8452 50.6187 39.4075 50.0657 39.9608C48.9599 41.0671 47.6993 42.1255 46.8771 42.7611C46.7951 42.8245 46.78 42.9422 46.8433 43.0242C46.9066 43.1061 47.0244 43.1212 47.1063 43.0579C47.9382 42.4149 49.2113 41.346 50.3309 40.2259C50.8906 39.6659 51.4148 39.0903 51.8269 38.5465C52.2358 38.0068 52.5471 37.4821 52.6617 37.0256C52.687 36.9251 52.626 36.8233 52.5256 36.798Z" fill="#E0FFBA"/>
<path fill-rule="evenodd" clip-rule="evenodd" d="M53.5739 30.4768C53.479 30.4354 53.3684 30.4789 53.327 30.5738C53.2262 30.8051 53.0107 31.0981 52.7114 31.4278C52.4151 31.7543 52.048 32.1046 51.6574 32.4497C50.8763 33.14 50.0109 33.8014 49.4535 34.1987C49.3691 34.2588 49.3495 34.376 49.4096 34.4603C49.4696 34.5446 49.5867 34.5643 49.6711 34.5042C50.2367 34.101 51.1127 33.4315 51.9057 32.7308C52.3021 32.3805 52.6802 32.0202 52.9891 31.6799C53.295 31.3429 53.5447 31.0129 53.6708 30.7237C53.7122 30.6287 53.6688 30.5182 53.5739 30.4768Z" fill="#E0FFBA"/>
<path fill-rule="evenodd" clip-rule="evenodd" d="M53.5823 23.7085C53.4811 23.6866 53.3812 23.7508 53.3592 23.8521C53.348 23.9039 53.3129 23.9785 53.2415 24.0763C53.1716 24.1719 53.0749 24.2789 52.9546 24.3949C52.7139 24.6267 52.3917 24.8819 52.035 25.1378C51.3222 25.6489 50.4893 26.1499 49.9404 26.4547C49.8498 26.5049 49.8172 26.6191 49.8674 26.7097C49.9176 26.8002 50.0318 26.8329 50.1223 26.7826C50.6798 26.4731 51.5257 25.9644 52.2534 25.4426C52.617 25.1819 52.9555 24.9147 53.2147 24.665C53.3443 24.5401 53.4573 24.4165 53.5443 24.2975C53.6297 24.1806 53.6986 24.0566 53.7257 23.9316C53.7477 23.8304 53.6835 23.7305 53.5823 23.7085Z" fill="#E0FFBA"/>
<path fill-rule="evenodd" clip-rule="evenodd" d="M7.38234 47.4852C5.38769 42.6784 3.14464 35.885 2.9757 31.4907C2.72486 24.9659 3.61494 22.0667 6.19221 21.0942C7.139 20.7369 8.67191 21.5896 10.2361 22.4596C11.8307 23.3466 13.4577 24.2516 14.5295 23.9113C15.485 23.6079 15.8716 22.6869 16.2545 21.7751C16.7223 20.6608 17.1844 19.5601 18.6717 19.6165C20.4187 19.6827 21.5143 21.1489 22.4229 22.365C22.9209 23.0314 23.3628 23.6228 23.825 23.8674C24.4777 24.2128 25.4014 24.2619 26.325 24.3111C27.2487 24.3602 28.1723 24.4093 28.8251 24.7548C29.4323 25.0761 29.7636 25.7503 30.0657 26.3651C30.413 27.072 30.7218 27.7004 31.3673 27.624C31.5428 27.6032 31.7274 27.5724 31.9222 27.5399C33.0671 27.3489 34.5626 27.0995 36.6087 28.4828C37.8059 29.2921 37.9292 30.3343 38.0371 31.2462C38.1449 32.1581 38.2374 32.9397 39.3729 33.2279C39.9014 33.3621 40.3026 33.6758 40.6191 34.0741C52.5929 31.9874 56.5885 38.3893 60.3753 63.4058C61.5465 73.3055 50.7672 83.5651 40.2207 85.4479C25.4969 87.1914 20.5514 78.4471 15.909 69.1887C14.2382 63.9737 12.2739 59.6705 10.6411 56.0934C9.03889 52.5834 7.7558 49.7725 7.38234 47.4852Z" fill="#BFE897"/>
<path fill-rule="evenodd" clip-rule="evenodd" d="M10.3197 22.2915L10.3272 22.2957C11.1274 22.7408 11.9216 23.1822 12.6482 23.4714C13.3818 23.7635 14.003 23.8817 14.4727 23.7325C15.3314 23.4599 15.6902 22.6345 16.0815 21.7025L16.0884 21.686C16.3173 21.1409 16.5598 20.5632 16.9402 20.1326C17.3366 19.684 17.8777 19.3987 18.6788 19.4291C19.6078 19.4643 20.3577 19.8728 20.9847 20.418C21.6057 20.958 22.1167 21.6419 22.5676 22.2453L22.5731 22.2527C22.8233 22.5876 23.0535 22.8955 23.2781 23.1504C23.5037 23.4066 23.7117 23.5953 23.9126 23.7016C24.2117 23.8598 24.5816 23.9544 25.0001 24.0147C25.4182 24.0749 25.8713 24.0991 26.3349 24.1238L26.3397 24.124C26.7982 24.1484 27.267 24.1734 27.7033 24.2362C28.1408 24.2991 28.559 24.4018 28.9127 24.589C29.5741 24.9389 29.9286 25.6606 30.2212 26.2565L30.2339 26.2823C30.4109 26.6426 30.5645 26.9523 30.7473 27.1665C30.9214 27.3705 31.1028 27.4665 31.3452 27.4377C31.5154 27.4176 31.6955 27.3876 31.8913 27.3549L31.8975 27.3539C32.468 27.2587 33.1496 27.145 33.9483 27.2346C34.7532 27.3249 35.6672 27.6199 36.7137 28.3274C37.982 29.1848 38.1142 30.3022 38.2222 31.2156L38.2232 31.2241C38.2783 31.6891 38.3263 32.0755 38.4862 32.3848C38.6369 32.6765 38.8962 32.9134 39.419 33.0461C39.9567 33.1826 40.3698 33.4889 40.6946 33.8708C43.656 33.3652 46.1508 33.3782 48.2835 34.0808C50.4475 34.7937 52.2198 36.2102 53.7234 38.4724C55.2242 40.7302 56.4592 43.8329 57.5557 47.9269C58.6526 52.0224 59.6136 57.121 60.5607 63.3777L60.5611 63.3807L60.5615 63.3837C61.156 68.4089 58.7168 73.5016 54.8275 77.5629C50.9365 81.626 45.5703 84.6834 40.2536 85.6326L40.2482 85.6335L40.2427 85.6342C32.8359 86.5112 27.8645 84.7504 24.1624 81.5866C20.4724 78.4331 18.0607 73.8983 15.7413 69.2728L15.7348 69.2598L15.7303 69.2459C14.0633 64.0426 12.1034 59.7485 10.4705 56.1713L10.4582 56.1444C8.87111 52.6675 7.58277 49.8451 7.20077 47.537C5.20752 42.7297 2.95836 35.9222 2.78827 31.4979C2.66269 28.2313 2.82106 25.8487 3.3442 24.155C3.87108 22.4491 4.77287 21.4293 6.12598 20.9187C6.6708 20.7131 7.35036 20.8634 8.0519 21.1424C8.76027 21.4241 9.54315 21.8596 10.3197 22.2915ZM7.91326 21.4909C7.2206 21.2154 6.66031 21.118 6.25835 21.2696C5.03419 21.7315 4.2023 22.6476 3.70254 24.2656C3.19903 25.8958 3.03778 28.2253 3.16304 31.4834C3.33058 35.8415 5.56149 42.608 7.55549 47.4133L7.56385 47.4334L7.56736 47.4549C7.9358 49.7115 9.20489 52.4955 10.8117 56.0155L10.8127 56.0179C12.4439 59.5912 14.4099 63.8982 16.083 69.1176C18.404 73.7458 20.7852 78.207 24.4061 81.3015C28.0175 84.3878 32.8792 86.1273 40.1932 85.2624C45.4212 84.3276 50.7156 81.3145 54.5567 77.3035C58.4 73.2902 60.7647 68.3045 60.1894 63.4309C59.2432 57.1807 58.2848 52.0989 57.1934 48.024C56.1015 43.947 54.8793 40.889 53.4111 38.6801C51.9458 36.4756 50.2374 35.1194 48.1662 34.437C46.0896 33.7529 43.6293 33.7398 40.6512 34.2588L40.5414 34.278L40.4722 34.1908C40.1744 33.8159 39.8059 33.5313 39.3267 33.4097C38.714 33.2541 38.3593 32.9561 38.153 32.557C37.9587 32.1812 37.9052 31.7288 37.8532 31.2883L37.8508 31.2682C37.7433 30.3594 37.6257 29.3967 36.5037 28.6382C35.504 27.9624 34.6472 27.6904 33.9065 27.6074C33.1626 27.5239 32.5261 27.6293 31.953 27.7249L31.9503 27.7253C31.7574 27.7575 31.5692 27.7889 31.3893 27.8102C30.9862 27.8579 30.6905 27.6778 30.462 27.41C30.2453 27.1561 30.0727 26.8046 29.9046 26.4626L29.8973 26.4478C29.5883 25.8189 29.2809 25.2081 28.7373 24.9205C28.4382 24.7622 28.0683 24.6676 27.6498 24.6074C27.2317 24.5472 26.7786 24.523 26.315 24.4983L26.3102 24.4981C25.8517 24.4737 25.3829 24.4487 24.9466 24.3859C24.5092 24.3229 24.0909 24.2203 23.7372 24.0331C23.4759 23.8948 23.232 23.6656 22.9966 23.3983C22.7611 23.1309 22.5224 22.8115 22.2757 22.4813L22.2727 22.4772C21.8162 21.8663 21.3267 21.2124 20.7386 20.701C20.1539 20.1925 19.4825 19.8349 18.6646 19.8039C17.9784 19.7779 17.5448 20.0147 17.2213 20.3809C16.8857 20.7608 16.6643 21.2833 16.4273 21.8476L16.4126 21.8827C16.042 22.7659 15.6247 23.7603 14.5862 24.09C13.9841 24.2812 13.2559 24.117 12.5094 23.8199C11.7581 23.5208 10.9441 23.068 10.1519 22.6274L10.1449 22.6235C9.35968 22.1867 8.59679 21.7628 7.91326 21.4909Z" fill="#B4E187"/>
<path fill-rule="evenodd" clip-rule="evenodd" d="M37.5416 65.5417C37.1675 65.6988 36.9059 66.0731 36.7829 66.3807C36.754 66.4529 36.6721 66.4879 36.6 66.4591C36.5279 66.4302 36.4928 66.3484 36.5217 66.2762C36.6599 65.9309 36.9627 65.4797 37.4326 65.2824C37.9195 65.0778 38.5377 65.1642 39.2543 65.8038C39.3123 65.8555 39.3173 65.9444 39.2656 66.0024C39.2139 66.0603 39.125 66.0654 39.067 66.0137C38.404 65.4219 37.8986 65.3917 37.5416 65.5417Z" fill="#4B862F"/>
<path fill-rule="evenodd" clip-rule="evenodd" d="M11.0655 30.3621C11.1688 30.3547 11.2585 30.4325 11.2659 30.5358C11.3764 32.0898 12.0976 34.1537 13.2248 36.4341C14.3496 38.7098 15.87 41.1837 17.5616 43.5526C19.2531 45.9213 21.1134 48.1816 22.9165 50.0308C24.7226 51.8831 26.4604 53.3114 27.9063 54.0295C27.9991 54.0756 28.0369 54.1881 27.9909 54.2809C27.9448 54.3736 27.8323 54.4115 27.7395 54.3654C26.2367 53.6191 24.4636 52.1547 22.648 50.2927C20.8295 48.4277 18.9571 46.1522 17.2564 43.7705C15.5558 41.3889 14.0242 38.8977 12.8886 36.6003C11.7553 34.3076 11.0076 32.1906 10.8918 30.5624C10.8844 30.4591 10.9622 30.3694 11.0655 30.3621Z" fill="#E0FFBA"/>
<path fill-rule="evenodd" clip-rule="evenodd" d="M15.709 33.1799C15.8125 33.1755 15.8999 33.2558 15.9043 33.3593C15.9313 33.9977 15.7074 34.9144 15.4301 35.78C15.1504 36.6534 14.8068 37.5032 14.575 38.0205C14.5326 38.1151 14.4217 38.1574 14.3272 38.115C14.2327 38.0727 14.1904 37.9617 14.2327 37.8672C14.4598 37.3604 14.7981 36.5237 15.0729 35.6656C15.3502 34.7999 15.5534 33.9402 15.5296 33.3751C15.5252 33.2717 15.6056 33.1842 15.709 33.1799Z" fill="#E0FFBA"/>
<path fill-rule="evenodd" clip-rule="evenodd" d="M25.819 41.8004C25.9183 41.7711 26.0226 41.8278 26.0519 41.9272C26.5351 43.5636 26.3108 45.4546 25.8481 47.1375C25.3844 48.8237 24.6745 50.3255 24.1592 51.1972C24.1065 51.2864 23.9915 51.3159 23.9023 51.2632C23.8132 51.2105 23.7836 51.0955 23.8363 51.0063C24.3364 50.1606 25.0324 48.6894 25.4864 47.0381C25.9414 45.3834 26.1466 43.5723 25.6922 42.0334C25.6629 41.934 25.7197 41.8297 25.819 41.8004Z" fill="#E0FFBA"/>
<path fill-rule="evenodd" clip-rule="evenodd" d="M19.7215 38.4342C19.8215 38.4074 19.9243 38.4667 19.9511 38.5667C20.2743 39.7727 20.1916 41.1359 19.9644 42.3396C19.7368 43.5452 19.3608 44.6085 19.0812 45.2237C19.0384 45.318 18.9272 45.3597 18.8329 45.3168C18.7386 45.274 18.697 45.1628 18.7398 45.0685C19.0074 44.4797 19.374 43.4451 19.5958 42.2701C19.818 41.0931 19.8914 39.793 19.5889 38.6639C19.5621 38.5638 19.6214 38.461 19.7215 38.4342Z" fill="#E0FFBA"/>
<path fill-rule="evenodd" clip-rule="evenodd" d="M15.7145 47.7825C15.7962 47.7189 15.914 47.7334 15.9777 47.8151C16.2192 48.1248 16.6612 48.4491 17.242 48.771C17.8182 49.0904 18.5132 49.3978 19.2426 49.6801C20.7011 50.2445 22.2818 50.7026 23.2908 50.9513C23.3913 50.9761 23.4527 51.0777 23.4279 51.1783C23.4032 51.2788 23.3015 51.3403 23.201 51.3155C22.1803 51.0639 20.5839 50.6013 19.1072 50.0298C18.369 49.7441 17.6568 49.4297 17.0602 49.099C16.468 48.7709 15.9713 48.4169 15.6819 48.0457C15.6182 47.9641 15.6328 47.8462 15.7145 47.7825Z" fill="#E0FFBA"/>
<path fill-rule="evenodd" clip-rule="evenodd" d="M12.2009 42.4253C12.271 42.3491 12.3896 42.3441 12.4659 42.4142C12.6515 42.5849 12.967 42.7657 13.3741 42.9462C13.777 43.1249 14.2543 43.2968 14.7511 43.4545C15.7445 43.7698 16.8033 44.0246 17.4737 44.1625C17.5752 44.1834 17.6405 44.2825 17.6196 44.384C17.5988 44.4854 17.4996 44.5507 17.3982 44.5299C16.7179 44.39 15.6461 44.132 14.6376 43.8119C14.1335 43.6519 13.642 43.4754 13.222 43.2891C12.806 43.1046 12.4443 42.9038 12.212 42.6903C12.1358 42.6202 12.1308 42.5016 12.2009 42.4253Z" fill="#E0FFBA"/>
<path fill-rule="evenodd" clip-rule="evenodd" d="M9.45761 36.2384C9.5413 36.1774 9.6586 36.1957 9.71962 36.2794C9.75085 36.3223 9.8131 36.3763 9.91791 36.4368C10.0205 36.496 10.1522 36.5548 10.3091 36.6122C10.6229 36.7269 11.0207 36.8299 11.4504 36.9196C12.3089 37.0987 13.2732 37.22 13.8984 37.2767C14.0016 37.286 14.0776 37.3772 14.0682 37.4804C14.0589 37.5835 13.9677 37.6596 13.8646 37.6502C13.2296 37.5927 12.2504 37.4696 11.3738 37.2867C10.936 37.1954 10.5184 37.088 10.1804 36.9644C10.0114 36.9027 9.85805 36.8353 9.73043 36.7617C9.60504 36.6893 9.49194 36.6038 9.41657 36.5004C9.35555 36.4167 9.37393 36.2994 9.45761 36.2384Z" fill="#E0FFBA"/>
<path fill-rule="evenodd" clip-rule="evenodd" d="M47.6344 64.1055C47.2492 64.2326 46.9589 64.5851 46.8119 64.8821C46.7775 64.9517 46.6931 64.9802 46.6235 64.9457C46.5539 64.9113 46.5254 64.8269 46.5598 64.7573C46.7248 64.4239 47.0622 63.998 47.5463 63.8383C48.0478 63.6729 48.6572 63.8078 49.3212 64.5019C49.3749 64.558 49.3729 64.647 49.3168 64.7007C49.2606 64.7544 49.1716 64.7525 49.1179 64.6963C48.5036 64.0541 48.0022 63.9842 47.6344 64.1055Z" fill="#4B862F"/>
<path d="M44.8952 66.8122C44.9283 67.0734 44.9097 67.3387 44.8404 67.5927C44.7711 67.8468 44.6525 68.0847 44.4913 68.2929C44.3301 68.501 44.1295 68.6754 43.9009 68.806C43.6724 68.9367 43.4203 69.021 43.1592 69.0541C42.8981 69.0873 42.633 69.0687 42.3791 68.9994C42.1251 68.9301 41.8873 68.8114 41.6792 68.6501C41.4711 68.4888 41.2968 68.2881 41.1663 68.0595C41.0357 67.8308 40.9514 67.5787 40.9183 67.3174L42.9067 67.0648L44.8952 66.8122Z" fill="#4B862F"/>
<path fill-rule="evenodd" clip-rule="evenodd" d="M19.6395 82.7246C19.7393 82.7521 19.8425 82.6934 19.87 82.5935C21.0057 78.4639 23.5955 76.4963 25.6118 75.9139C25.7113 75.8852 25.7687 75.7812 25.74 75.6817C25.7113 75.5822 25.6073 75.5249 25.5078 75.5536C23.3595 76.1741 20.6768 78.2454 19.5084 82.4941C19.4809 82.594 19.5396 82.6972 19.6395 82.7246Z" fill="#4B862F"/>
<path opacity="0.3" d="M31.0364 93.7399C31.0364 94.9347 33.3999 94.9348 36.3153 94.9348C39.2308 94.9348 41.5942 94.3998 41.5942 93.7399C41.5942 93.08 39.2308 92.545 36.3153 92.545C33.3999 92.545 31.0364 91.9476 31.0364 93.7399Z" fill="#4B862F"/>
</svg>
