<svg width="111" height="84" viewBox="0 0 111 84" fill="none" xmlns="http://www.w3.org/2000/svg">
<path opacity="0.2" d="M79.086 76.8592C78.9339 79.489 65.4834 76.6129 60.4784 79.0651C55.4733 81.5172 37.7514 79.619 37.9206 76.6943C38.0898 73.7697 46.9967 76.7269 59.3682 75.8374C71.1342 74.2057 79.2833 73.4486 79.086 76.8592Z" fill="#805125"/>
<path fill-rule="evenodd" clip-rule="evenodd" d="M73.191 69.1346C73.0279 69.1429 72.8579 69.1205 72.7122 69.0314C72.661 69.0001 72.6163 68.9563 72.5799 68.9156C72.5413 68.8726 72.5013 68.821 72.4603 68.7636C72.3784 68.6488 72.2842 68.4987 72.1798 68.3214C71.9707 67.9662 71.711 67.485 71.4125 66.9213C71.2815 66.6739 71.1428 66.4102 70.9972 66.1334C70.4776 65.1454 69.8704 63.9907 69.2124 62.8168C68.37 61.3139 67.449 59.7878 66.5302 58.5511C65.6036 57.3038 64.707 56.3899 63.9211 56.0601C63.8091 56.0131 63.7529 55.8839 63.7958 55.7716C63.8387 55.6593 63.9642 55.6064 64.0763 55.6534C64.9856 56.035 65.9458 57.043 66.8742 58.2927C67.8105 59.553 68.7428 61.0991 69.5885 62.608C70.2498 63.7878 70.8609 64.9499 71.3808 65.9384C71.5258 66.2143 71.6638 66.4767 71.7938 66.7221C72.0925 67.2862 72.3477 67.7588 72.551 68.104C72.6527 68.2769 72.7391 68.4137 72.8095 68.5124C72.8448 68.5618 72.8739 68.5986 72.8971 68.6245C72.9185 68.6484 72.9288 68.656 72.9287 68.6561C72.9287 68.6562 72.9287 68.6561 72.9287 68.6561C72.9699 68.6809 73.0408 68.7 73.1559 68.6942C73.2703 68.6884 73.4095 68.6589 73.5689 68.6072C73.8876 68.5039 74.2547 68.3226 74.6079 68.1219C74.9593 67.9221 75.2889 67.7077 75.5312 67.5428C75.6522 67.4605 75.751 67.3907 75.8193 67.3417C75.8535 67.3172 75.8801 67.2979 75.898 67.2848C75.9069 67.2782 75.9137 67.2732 75.9182 67.2699L75.9232 67.2662L75.9246 67.2652C75.9246 67.2652 75.9246 67.2652 75.9246 67.2652M72.9287 68.6561C72.9284 68.6559 72.928 68.6557 72.9276 68.6555C72.9282 68.6558 72.9286 68.6561 72.9287 68.6561ZM73.191 69.1346C73.3559 69.1263 73.5337 69.0857 73.7128 69.0276L73.191 69.1346ZM73.7128 69.0276C74.071 68.9115 74.4665 68.7143 74.8291 68.5082L73.7128 69.0276ZM74.8291 68.5082C75.1935 68.3011 75.533 68.0801 75.7809 67.9114L74.8291 68.5082ZM75.7809 67.9114C75.9051 67.8269 76.0066 67.7552 76.0773 67.7045L75.7809 67.9114ZM76.0773 67.7045C76.1127 67.6792 76.1404 67.6591 76.1593 67.6452L76.0773 67.7045ZM76.1593 67.6452C76.1688 67.6383 76.176 67.6329 76.181 67.6292L76.1593 67.6452ZM76.181 67.6292L76.1867 67.625L76.181 67.6292ZM76.1867 67.625L76.1883 67.6239L76.1867 67.625ZM76.1883 67.6239L76.1887 67.6235L76.1883 67.6239ZM76.1887 67.6235L76.1888 67.6234L76.1887 67.6235ZM76.1888 67.6234C76.1888 67.6234 76.1889 67.6234 76.0568 67.4443L76.1888 67.6234Z" fill="#805125"/>
<path fill-rule="evenodd" clip-rule="evenodd" d="M46.2388 76.5232C46.401 76.4821 46.5677 76.4098 46.6793 76.2729C46.7233 76.2188 46.7508 76.1505 46.7692 76.0971C46.7898 76.0373 46.8089 75.9658 46.827 75.8863C46.8634 75.7269 46.8996 75.5178 46.9365 75.2689C47.0104 74.7704 47.0894 74.0942 47.177 73.2998C47.2154 72.9516 47.2555 72.5803 47.2976 72.1905C47.4479 70.7979 47.6237 69.1689 47.8392 67.5129C48.115 65.3926 48.4547 63.2374 48.8862 61.4889C49.102 60.6144 49.3391 59.8483 49.5997 59.2421C49.8632 58.6291 50.1387 58.2084 50.4168 57.9921C50.5134 57.9169 50.5357 57.7771 50.4667 57.6798C50.3976 57.5825 50.2633 57.5646 50.1667 57.6398C49.7939 57.9299 49.4799 58.4411 49.2078 59.0739C48.9329 59.7134 48.6886 60.507 48.4697 61.394C48.0318 63.1687 47.6894 65.3448 47.4129 67.4698C47.1967 69.1314 47.0202 70.7673 46.8698 72.1603C46.8278 72.5493 46.7879 72.9194 46.7497 73.2657C46.6621 74.0607 46.5839 74.7288 46.5114 75.2176C46.4751 75.4624 46.4409 75.6577 46.4086 75.7996C46.3924 75.8708 46.3776 75.9241 46.3647 75.9616C46.3572 75.9832 46.3521 75.9945 46.3501 75.9988C46.3263 76.0239 46.2694 76.061 46.1513 76.091C46.0294 76.1219 45.87 76.1383 45.6798 76.1404C45.3004 76.1447 44.834 76.0921 44.3747 76.0178C43.9172 75.9437 43.475 75.8495 43.1466 75.7737C42.9825 75.7358 42.8473 75.7026 42.7532 75.6788C42.7062 75.667 42.6694 75.6575 42.6446 75.651C42.6322 75.6478 42.6227 75.6453 42.6164 75.6436L42.6093 75.6418L42.6072 75.6412C42.6072 75.6412 42.6072 75.6412 42.6072 75.6412C42.4934 75.6107 42.3736 75.6824 42.3398 75.8015C42.306 75.9206 42.3709 76.0419 42.4848 76.0725L42.546 75.8568C42.4848 76.0725 42.4848 76.0725 42.4848 76.0725L42.4876 76.0732L42.4954 76.0753C42.5021 76.0771 42.5121 76.0797 42.525 76.0831C42.5508 76.0898 42.5886 76.0995 42.6368 76.1117C42.7331 76.1359 42.871 76.1698 43.038 76.2084C43.3718 76.2855 43.8234 76.3817 44.2928 76.4577C44.7603 76.5334 45.2538 76.5903 45.6684 76.5856C45.8752 76.5833 46.0714 76.5657 46.2388 76.5232Z" fill="#805125"/>
<path fill-rule="evenodd" clip-rule="evenodd" d="M109.508 32.2856C109.411 32.2115 109.275 32.2302 109.206 32.3273C108.652 33.1049 107.396 33.9534 105.749 34.788C104.113 35.6171 102.127 36.4154 100.15 37.1056C98.1732 37.7955 96.2109 38.3756 94.6252 38.7691C93.8322 38.9658 93.1355 39.1153 92.5797 39.2086C92.0154 39.3033 91.6193 39.3358 91.4141 39.3118C91.2948 39.2979 91.1904 39.3849 91.1808 39.5062C91.1713 39.6274 91.2603 39.7371 91.3795 39.751C91.6521 39.7828 92.103 39.7391 92.6644 39.6449C93.2342 39.5493 93.9419 39.3972 94.7412 39.1988C96.3403 38.8021 98.3149 38.2182 100.303 37.5244C102.29 36.8307 104.295 36.0255 105.953 35.1853C107.6 34.3507 108.94 33.4643 109.56 32.5954C109.629 32.4983 109.606 32.3596 109.508 32.2856Z" fill="#805125"/>
<path d="M46.6715 62.3855C31.8564 66.5808 16.6167 61.4354 14.5719 54.8844C4.27731 21.904 32.2362 6.73578 49.2047 6.78115C75.8636 6.85243 95.1461 22.872 94.1507 41.8257C93.1553 60.7794 61.4865 58.1903 46.6715 62.3855Z" fill="#EAB947"/>
<path fill-rule="evenodd" clip-rule="evenodd" d="M25.936 62.2405C31.7802 63.8018 39.2144 64.0384 46.5447 61.9626C50.2855 60.9033 55.0773 60.2751 60.1362 59.6328C60.3303 59.6082 60.5248 59.5835 60.7197 59.5588C65.6191 58.9376 70.7545 58.2864 75.4885 57.2116C80.4148 56.0931 84.8612 54.5249 88.131 52.0893C91.3831 49.6669 93.4738 46.3866 93.715 41.7928C94.2038 32.485 89.718 23.874 81.7823 17.5648C73.8437 11.2533 62.4591 7.25569 49.2132 7.22027C40.8354 7.19787 29.7155 10.9391 21.9772 18.7614C14.2653 26.5571 9.88917 38.4266 14.9879 54.7612C15.4577 56.2663 16.7051 57.7424 18.6073 59.0492C20.5036 60.3519 23.0139 61.4599 25.936 62.2405ZM14.5719 54.8844C16.6167 61.4354 31.8564 66.5808 46.6715 62.3855C50.5189 61.296 55.5029 60.6641 60.7911 59.9936C75.8663 58.0822 93.4138 55.8573 94.1507 41.8257C95.1461 22.872 75.8636 6.85243 49.2047 6.78115C32.2362 6.73578 4.27731 21.904 14.5719 54.8844Z" fill="#EAB740"/>
<path opacity="0.5" d="M36.5924 26.6153C36.4782 27.5013 35.2706 27.3953 33.7931 27.1699C32.3156 26.9446 31.1277 26.6854 31.242 25.7994C31.3563 24.9133 32.6467 24.3776 34.1242 24.6029C35.6017 24.8282 36.7067 25.7292 36.5924 26.6153Z" fill="#ECB368"/>
<path opacity="0.5" d="M51.0793 30.7427C51.156 31.6339 49.9586 31.8291 48.4732 31.975C46.9879 32.1209 45.7772 32.1621 45.7005 31.2709C45.6238 30.3797 46.7657 29.539 48.2511 29.3931C49.7364 29.2472 51.0027 29.8514 51.0793 30.7427Z" fill="#ECB368"/>
<path opacity="0.5" d="M84.7994 35.6779C84.8003 36.5728 83.5911 36.649 82.0994 36.6476C80.6076 36.6463 79.3983 36.5678 79.3973 35.6729C79.3964 34.7781 80.6049 34.0537 82.0966 34.0551C83.5884 34.0564 84.7984 34.783 84.7994 35.6779Z" fill="#ECB368"/>
<path opacity="0.5" d="M22.3338 40.9828C22.3655 41.8771 23.5767 41.907 25.0673 41.8487C26.5579 41.7903 27.7636 41.6657 27.7319 40.7714C27.7002 39.8771 26.4662 39.1994 24.9755 39.2578C23.4849 39.3162 22.3022 40.0885 22.3338 40.9828Z" fill="#ECB368"/>
<path opacity="0.5" d="M53.9067 18.6466C53.9384 19.5409 55.1495 19.5709 56.6402 19.5125C58.1308 19.4541 59.3365 19.3295 59.3048 18.4352C59.2731 17.5409 58.039 16.8632 56.5484 16.9216C55.0578 16.98 53.875 17.7523 53.9067 18.6466Z" fill="#ECB368"/>
<path opacity="0.5" d="M73.9471 38.878C73.9907 39.7718 72.8184 40.5624 71.3287 40.6439C69.8391 40.7254 68.5961 40.0669 68.5525 39.1732C68.509 38.2795 69.6812 37.4889 71.1709 37.4073C72.6606 37.3258 73.9035 37.9843 73.9471 38.878Z" fill="#ECB368"/>
<path opacity="0.5" d="M67.2706 31.4842C67.3048 32.1849 66.3857 32.8047 65.2178 32.8686C64.05 32.9325 63.0755 32.4163 63.0414 31.7156C63.0072 31.0149 63.9262 30.3951 65.0941 30.3312C66.262 30.2673 67.2364 30.7835 67.2706 31.4842Z" fill="#ECB368"/>
<path opacity="0.5" d="M84.3482 48.455C84.2796 48.9866 83.5586 49.3162 82.7378 49.191C81.917 49.0658 81.3071 48.5334 81.3757 48.0017C81.4443 47.4701 82.1653 47.1405 82.9861 47.2657C83.8069 47.3909 84.4167 47.9233 84.3482 48.455Z" fill="#ECB368"/>
<path opacity="0.5" d="M40.3551 36.9338C40.357 37.4708 39.6867 37.9074 38.858 37.9091C38.0293 37.9108 37.3559 37.4769 37.354 36.94C37.352 36.403 38.0223 35.9664 38.851 35.9647C39.6797 35.963 40.3531 36.3969 40.3551 36.9338Z" fill="#ECB368"/>
<path opacity="0.5" d="M76.5854 25.0002C76.6221 25.5357 75.9818 26.0219 75.1553 26.086C74.3288 26.1502 73.6291 25.7681 73.5925 25.2325C73.5558 24.697 74.1961 24.2108 75.0226 24.1466C75.8491 24.0825 76.5488 24.4646 76.5854 25.0002Z" fill="#ECB368"/>
<path opacity="0.5" d="M61.171 26.0784C61.2076 26.614 60.5673 27.1001 59.7408 27.1643C58.9144 27.2285 58.2147 26.8463 58.178 26.3108C58.1414 25.7752 58.7817 25.2891 59.6082 25.2249C60.4347 25.1607 61.1344 25.5429 61.171 26.0784Z" fill="#ECB368"/>
<path opacity="0.5" d="M35.1051 51.2738C35.1488 51.935 34.4796 51.8194 33.4844 51.894C32.4893 51.9685 31.545 52.2051 31.5013 51.5439C31.4576 50.8827 32.2289 50.2862 33.224 50.2116C34.2192 50.137 35.0614 50.6126 35.1051 51.2738Z" fill="#ECB368"/>
<path d="M50.1893 21.6442C50.1859 16.6258 47.1172 9.36809 43.6141 9.36339C40.1111 9.3587 37.2741 13.4231 37.2775 18.4415C37.281 23.4599 36.8797 31.7336 40.3828 31.7383C43.8858 31.743 50.1928 26.6626 50.1893 21.6442Z" fill="#E97736"/>
<path fill-rule="evenodd" clip-rule="evenodd" d="M47.8216 13.8168C49.0009 16.2059 49.7499 19.209 49.7516 21.6436C49.7532 23.9797 48.2744 26.3971 46.3006 28.2559C45.321 29.1785 44.2377 29.9452 43.1935 30.4789C42.1429 31.016 41.1626 31.3016 40.3825 31.3006C39.7243 31.2997 39.2159 30.9282 38.8065 30.1593C38.3896 29.3763 38.1192 28.2489 37.9521 26.9165C37.6794 24.741 37.6955 22.1514 37.7095 19.8948C37.7126 19.3912 37.7156 18.9042 37.7153 18.4421C37.7136 16.0114 38.4005 13.8306 39.49 12.2698C40.5805 10.7075 42.0455 9.79903 43.6144 9.80113C44.3332 9.80209 45.0781 10.1759 45.8139 10.8919C46.547 11.6054 47.2326 12.6234 47.8216 13.8168ZM43.6141 9.36339C47.1172 9.36809 50.1859 16.6258 50.1893 21.6442C50.1928 26.6626 43.8858 31.743 40.3828 31.7383C37.1975 31.734 37.2403 24.8929 37.2717 19.8789C37.2748 19.3787 37.2779 18.8967 37.2775 18.4415C37.2741 13.4231 40.1111 9.3587 43.6141 9.36339Z" fill="#E4702F"/>
<path d="M73.6731 18.2044C73.6696 13.186 68.8653 5.92599 63.3779 5.91863C57.8905 5.91128 53.4449 9.97353 53.4483 14.9919C53.4518 20.0103 52.82 28.2837 58.3074 28.2911C63.7948 28.2984 73.6765 23.2228 73.6731 18.2044Z" fill="#FFDC25"/>
<path fill-rule="evenodd" clip-rule="evenodd" d="M70.2358 10.4495C72.0799 12.8367 73.2337 15.8147 73.2353 18.2038C73.2361 19.3137 72.6883 20.4741 71.7126 21.6135C70.7403 22.7489 69.3748 23.8253 67.8234 24.757C64.7102 26.6267 60.9461 27.8569 58.3071 27.8533C57.0633 27.8517 56.1978 27.3897 55.5697 26.6359C54.9252 25.8624 54.5089 24.7539 54.2509 23.4373C53.828 21.2788 53.8537 18.71 53.8764 16.4536C53.8815 15.9482 53.8864 15.4585 53.8861 14.9925C53.8828 10.2519 58.0949 6.34929 63.3782 6.35637C65.9285 6.35978 68.3879 8.05759 70.2358 10.4495ZM63.3779 5.91863C68.8653 5.92599 73.6696 13.186 73.6731 18.2044C73.6765 23.2228 63.7948 28.2984 58.3074 28.2911C53.3178 28.2844 53.3875 21.4433 53.4386 16.4294C53.4437 15.9292 53.4486 15.4472 53.4483 14.9919C53.4449 9.97354 57.8905 5.91128 63.3779 5.91863Z" fill="#FBD820"/>
<path d="M60.959 18.9125C60.9556 13.8941 57.8868 6.6364 54.3838 6.63171C50.8807 6.62701 48.0437 10.6914 48.0472 15.7098C48.0506 20.7282 47.6494 29.0019 51.1524 29.0066C54.6555 29.0113 60.9625 23.9309 60.959 18.9125Z" fill="#689F4E"/>
<path fill-rule="evenodd" clip-rule="evenodd" d="M58.5913 11.0851C59.7705 13.4742 60.5196 16.4773 60.5213 18.9119C60.5229 21.248 59.044 23.6654 57.0702 25.5243C56.0906 26.4468 55.0074 27.2135 53.9632 27.7472C52.9125 28.2843 51.9323 28.5699 51.1521 28.5689C50.4939 28.568 49.9855 28.1965 49.5762 27.4276C49.1593 26.6446 48.8888 25.5172 48.7218 24.1848C48.4491 22.0093 48.4651 19.4197 48.4791 17.1631C48.4822 16.6595 48.4852 16.1725 48.4849 15.7104C48.4833 13.2797 49.1702 11.099 50.2596 9.53813C51.3501 7.97585 52.8151 7.06734 54.3841 7.06944C55.1029 7.0704 55.8478 7.44419 56.5835 8.16024C57.3166 8.87374 58.0022 9.89166 58.5913 11.0851ZM54.3838 6.63171C57.8868 6.6364 60.9556 13.8941 60.959 18.9125C60.9625 23.9309 54.6555 29.0113 51.1524 29.0066C47.9672 29.0023 48.01 22.1612 48.0414 17.1472C48.0445 16.647 48.0475 16.165 48.0472 15.7098C48.0437 10.6914 50.8807 6.62701 54.3838 6.63171Z" fill="#509131"/>
<path d="M32.8932 30.2938C32.8898 25.2755 29.821 18.0177 26.318 18.0131C22.8149 18.0084 19.9779 22.0728 19.9814 27.0912C19.9848 32.1095 19.5836 40.3833 23.0866 40.388C26.5897 40.3926 32.8967 35.3122 32.8932 30.2938Z" fill="#689F4E"/>
<path fill-rule="evenodd" clip-rule="evenodd" d="M30.5255 22.4664C31.7047 24.8556 32.4538 27.8587 32.4555 30.2933C32.4571 32.6294 30.9783 35.0468 29.0044 36.9056C28.0248 37.8281 26.9416 38.5948 25.8974 39.1286C24.8467 39.6657 23.8665 39.9513 23.0863 39.9502C22.4281 39.9493 21.9197 39.5779 21.5104 38.809C21.0935 38.026 20.823 36.8985 20.656 35.5661C20.3833 33.3906 20.3993 30.8011 20.4133 28.5444C20.4164 28.0409 20.4194 27.5539 20.4191 27.0917C20.4175 24.6611 21.1044 22.4803 22.1939 20.9195C23.2843 19.3572 24.7493 18.4487 26.3183 18.4508C27.0371 18.4517 27.782 18.8255 28.5177 19.5416C29.2509 20.2551 29.9364 21.273 30.5255 22.4664ZM26.318 18.0131C29.821 18.0177 32.8898 25.2755 32.8932 30.2938C32.8967 35.3122 26.5897 40.3926 23.0866 40.388C19.9014 40.3837 19.9442 33.5425 19.9756 28.5286C19.9787 28.0284 19.9817 27.5464 19.9814 27.0912C19.9779 22.0728 22.8149 18.0084 26.318 18.0131Z" fill="#509131"/>
<path d="M27.7278 48.8742C32.155 47.3572 37.0943 40.2246 35.4251 34.5764C33.7559 28.9282 28.8138 25.5792 24.3866 27.0962C19.9594 28.6133 12.4659 30.4584 14.1351 36.1066C15.8043 41.7547 23.3006 50.3912 27.7278 48.8742Z" fill="#FFDC25"/>
<path fill-rule="evenodd" clip-rule="evenodd" d="M33.4947 43.0551C31.9516 45.6721 29.6857 47.741 27.6037 48.4544C26.6545 48.7797 25.4807 48.5773 24.1732 47.9149C22.8744 47.257 21.5056 46.1754 20.2067 44.8571C17.6032 42.2148 15.3581 38.7018 14.5492 35.9647C14.1622 34.655 14.3132 33.6071 14.7863 32.7339C15.2689 31.8433 16.1121 31.088 17.1866 30.4307C18.9532 29.3499 21.2159 28.6056 23.2136 27.9484C23.6622 27.8008 24.0974 27.6576 24.5107 27.516C28.6255 26.1061 33.3822 29.2068 35.011 34.7183C35.7981 37.3815 35.0355 40.442 33.4947 43.0551ZM35.4251 34.5764C37.0943 40.2246 32.155 47.3572 27.7278 48.8742C23.3006 50.3912 15.8043 41.7547 14.1351 36.1066C12.6174 30.9707 18.6753 28.9793 23.1152 27.5198C23.5582 27.3742 23.985 27.2339 24.3866 27.0962C28.8138 25.5792 33.7559 28.9282 35.4251 34.5764Z" fill="#FBD820"/>
<path d="M86.2596 33.1772C90.3869 30.8792 94.9442 24.6166 93.3339 21.2538C91.7236 17.8911 87.0723 17.0279 82.945 19.3259C78.8177 21.624 71.8256 25.0223 73.4359 28.385C75.0461 31.7478 82.1323 35.4752 86.2596 33.1772Z" fill="#E97736"/>
<path fill-rule="evenodd" clip-rule="evenodd" d="M91.5969 27.3737C90.1781 29.592 88.0599 31.6747 86.0705 32.7824C84.1772 33.8366 81.5239 33.5348 79.0766 32.4876C76.6313 31.4412 74.5606 29.7222 73.8183 28.1721C73.4979 27.503 73.587 26.8303 74.0211 26.1026C74.4681 25.3532 75.2636 24.5843 76.2794 23.8174C77.9389 22.5647 80.0706 21.3993 81.9337 20.3808C82.35 20.1532 82.7529 19.933 83.1341 19.7208C87.1395 17.4906 91.4848 18.404 92.9514 21.4667C93.2942 22.1826 93.3245 23.0858 93.075 24.1163C92.8258 25.146 92.305 26.2667 91.5969 27.3737ZM93.3339 21.2538C94.9442 24.6166 90.3869 30.8792 86.2596 33.1772C82.1323 35.4752 75.0461 31.7478 73.4359 28.385C71.9716 25.3273 77.6199 22.2402 81.7597 19.9776C82.1726 19.7519 82.5706 19.5344 82.945 19.3259C87.0723 17.0279 91.7236 17.8911 93.3339 21.2538Z" fill="#E4702F"/>
<path d="M79.5537 26.4835C77.7515 30.4547 78.9482 38.2125 83.2948 40.5196C87.6414 42.8267 92.626 41.4777 94.4282 37.5064C96.2304 33.5352 99.7068 27.2554 95.3602 24.9483C91.0136 22.6413 81.3559 22.5122 79.5537 26.4835Z" fill="#FFDC25"/>
<path fill-rule="evenodd" clip-rule="evenodd" d="M79.5335 34.0376C78.9325 31.3846 79.0906 28.5613 79.9404 26.6887C80.3292 25.8319 81.1646 25.1515 82.3426 24.6615C83.515 24.1738 84.9792 23.8955 86.5413 23.8093C89.6763 23.6361 93.0956 24.2409 95.1793 25.347C96.1573 25.866 96.6682 26.586 96.8907 27.4297C97.1196 28.2978 97.053 29.337 96.7853 30.4809C96.346 32.3579 95.4057 34.3706 94.5764 36.1459C94.3902 36.5444 94.2097 36.9309 94.0416 37.3012C92.3592 41.0084 87.654 42.3388 83.4757 40.121C81.4679 39.0554 80.1354 36.6941 79.5335 34.0376ZM83.2948 40.5196C78.9482 38.2125 77.7515 30.4547 79.5537 26.4835C81.3559 22.5122 91.0136 22.6413 95.3602 24.9483C99.3126 27.0462 96.7968 32.4286 94.9529 36.3734C94.769 36.7669 94.5917 37.1462 94.4282 37.5064C92.626 41.4777 87.6414 42.8267 83.2948 40.5196Z" fill="#FBD820"/>
<path fill-rule="evenodd" clip-rule="evenodd" d="M40.7798 17.1131C39.8992 15.5779 38.0167 14.5307 35.8502 14.5586C32.867 14.5971 30.4748 16.6594 30.5072 19.1649L30.5072 19.1649L30.5072 19.1649C27.524 19.2034 25.1318 21.2657 25.1642 23.7712C25.1965 26.2767 27.641 28.2766 30.6242 28.2382C32.3756 28.2156 33.9232 27.4954 34.8962 26.3976C36.2268 27.4779 38.1263 28.1414 40.2269 28.1143C44.2044 28.063 47.3971 25.555 47.3578 22.5126C47.3209 19.6495 44.4349 17.3334 40.7798 17.1131Z" fill="#B67E49"/>
<path fill-rule="evenodd" clip-rule="evenodd" d="M40.5177 17.5359L40.4001 17.3309C39.6091 15.9519 37.8859 14.9701 35.8558 14.9963C33.0397 15.0327 30.9165 16.964 30.9449 19.1593L30.9505 19.597L30.5128 19.6026C27.6967 19.639 25.5735 21.5703 25.6019 23.7656C25.6302 25.9609 27.8025 27.8368 30.6186 27.8005C32.2562 27.7793 33.6835 27.1059 34.5686 26.1073L34.8466 25.7935L35.1721 26.0578C36.4155 27.0672 38.2126 27.7025 40.2212 27.6766C42.1224 27.6521 43.8198 27.0401 45.0282 26.0909C46.2362 25.142 46.9376 23.8745 46.9201 22.5183C46.8873 19.9772 44.2855 17.7629 40.7535 17.5501L40.5177 17.5359ZM34.8962 26.3976C33.9232 27.4954 32.3756 28.2156 30.6242 28.2382C27.641 28.2766 25.1965 26.2767 25.1642 23.7712C25.1318 21.2657 27.524 19.2034 30.5072 19.1649C30.4748 16.6594 32.867 14.5971 35.8502 14.5586C38.0167 14.5307 39.8992 15.5779 40.7798 17.1131C44.4349 17.3334 47.3209 19.6495 47.3578 22.5126C47.3971 25.555 44.2044 28.063 40.2269 28.1143C38.1263 28.1414 36.2268 27.4779 34.8962 26.3976Z" fill="#AA723D"/>
<path fill-rule="evenodd" clip-rule="evenodd" d="M68.0304 9.16196C69.2913 7.98073 71.3751 7.58916 73.4361 8.31597C76.2738 9.3167 77.9934 12.0587 77.277 14.4405L77.277 14.4405C80.1146 15.4412 81.8343 18.1832 81.1178 20.565C80.4014 22.9467 77.5202 24.0662 74.6825 23.0655C73.0165 22.478 71.7359 21.2903 71.1074 19.9277C69.5413 20.5292 67.5462 20.5488 65.5481 19.8442C61.7645 18.5099 59.4025 15.0837 60.2725 12.1916C61.0912 9.46989 64.4804 8.19112 68.0304 9.16196Z" fill="#B67E49"/>
<path fill-rule="evenodd" clip-rule="evenodd" d="M68.1599 9.65221L68.3276 9.49503C69.4591 8.43504 71.3746 8.0526 73.31 8.73515C75.9968 9.68265 77.4895 12.2158 76.8642 14.2949L76.7381 14.7141L77.1509 14.8597C79.8376 15.8072 81.3304 18.3403 80.705 20.4194C80.0796 22.4984 77.4953 23.5938 74.8086 22.6463C73.2477 22.0958 72.0679 20.9897 71.4961 19.7501L71.3193 19.3668L70.943 19.5113C69.4789 20.0736 67.5873 20.0997 65.6742 19.425C63.8634 18.7864 62.4087 17.6523 61.5142 16.3547C60.6198 15.0573 60.2987 13.6224 60.6853 12.3372C61.4097 9.92885 64.4966 8.6504 67.9343 9.59052L68.1599 9.65221ZM71.1074 19.9277C71.7359 21.2903 73.0165 22.478 74.6825 23.0655C77.5202 24.0662 80.4014 22.9467 81.1178 20.565C81.8343 18.1832 80.1146 15.4412 77.277 14.4405C77.9934 12.0588 76.2738 9.3167 73.4361 8.31597C71.3751 7.58916 69.2913 7.98073 68.0304 9.16196C64.4804 8.19112 61.0912 9.46989 60.2725 12.1916C59.4025 15.0837 61.7645 18.5099 65.5481 19.8442C67.5462 20.5488 69.5413 20.5292 71.1074 19.9277Z" fill="#AA723D"/>
<path fill-rule="evenodd" clip-rule="evenodd" d="M93.7591 46.9661C92.5019 48.9175 90.3853 49.9861 88.2642 49.5033C85.3438 48.8386 83.5209 45.4844 84.1927 42.0117L84.1926 42.0117C81.2722 41.3469 79.4493 37.9928 80.1211 34.52C80.7929 31.0473 83.705 28.7709 86.6255 29.4356C88.34 29.8259 89.6763 31.1431 90.3516 32.8671C91.9346 31.6395 93.9699 31.1074 96.0263 31.5754C99.9203 32.4617 102.416 36.5987 101.6 40.8157C100.832 44.7842 97.4056 47.4092 93.7591 46.9661Z" fill="#B67E49"/>
<path fill-rule="evenodd" clip-rule="evenodd" d="M93.5351 46.4967L93.3928 46.7175C92.2092 48.5547 90.2556 49.5079 88.3474 49.0735C85.7264 48.477 83.9801 45.414 84.6195 42.1088L84.7086 41.648L84.2613 41.5786C81.6484 40.974 79.9097 37.9163 80.5479 34.6172C81.1873 31.312 83.9214 29.2688 86.5423 29.8654C88.0871 30.217 89.3175 31.4092 89.948 33.0189L90.1655 33.5742L90.6223 33.22C92.1148 32.0626 94.0226 31.5681 95.9432 32.0052C99.5727 32.8313 101.949 36.709 101.173 40.7185C100.443 44.4901 97.1998 46.942 93.7981 46.5286L93.5351 46.4967ZM84.1927 42.0117C84.1926 42.0118 84.1926 42.012 84.1926 42.0122C84.1647 42.1565 84.1411 42.3005 84.1217 42.4442C83.6744 45.7588 85.4652 48.8662 88.2642 49.5033C90.3853 49.9861 92.5019 48.9175 93.7591 46.9661C97.4056 47.4092 100.832 44.7842 101.6 40.8157C102.416 36.5987 99.9203 32.4617 96.0263 31.5754C94.1224 31.1421 92.2366 31.5661 90.7111 32.6056C90.5889 32.6888 90.469 32.7761 90.3516 32.8671C90.2955 32.7239 90.2349 32.5836 90.1698 32.4463C89.4518 30.9307 88.1976 29.7935 86.6255 29.4356C83.705 28.7709 80.7929 31.0473 80.1211 34.52C79.4496 37.9909 81.2702 41.3433 84.1879 42.0106C84.1895 42.011 84.1911 42.0113 84.1926 42.0117L84.1927 42.0117Z" fill="#AA723D"/>
<path d="M19.3185 31.4719C17.8836 36.242 18.7237 44.1644 22.0556 45.3395C25.3875 46.5145 29.2517 43.6001 30.6866 38.8299C32.1215 34.0598 34.8744 26.3314 31.5425 25.1563C28.2106 23.9813 20.7534 26.7017 19.3185 31.4719Z" fill="#E97736"/>
<path fill-rule="evenodd" clip-rule="evenodd" d="M19.3251 39.6962C18.8878 37.0326 19.0357 33.9298 19.7313 31.6175C20.3981 29.4007 22.4956 27.5983 24.9074 26.491C26.104 25.9416 27.3548 25.5749 28.5019 25.4165C29.6559 25.2571 30.6722 25.3131 31.4164 25.5755C32.0476 25.7981 32.4245 26.3243 32.5931 27.189C32.7651 28.0712 32.6996 29.2317 32.4767 30.5532C32.1129 32.711 31.3558 35.1656 30.6958 37.3055C30.5485 37.783 30.406 38.2449 30.2738 38.6843C29.5794 40.9928 28.3019 42.8343 26.8187 43.9529C25.3346 45.0722 23.6784 45.4481 22.1817 44.9203C21.4944 44.6779 20.8917 44.0714 20.397 43.1456C19.904 42.2226 19.5435 41.0265 19.3251 39.6962ZM22.0556 45.3395C18.7237 44.1644 17.8836 36.242 19.3185 31.4719C20.7534 26.7017 28.2106 23.9813 31.5425 25.1563C34.5722 26.2248 32.5709 32.7116 31.1041 37.4659C30.9578 37.9402 30.8168 38.3972 30.6866 38.8299C29.2517 43.6001 25.3875 46.5145 22.0556 45.3395Z" fill="#E4702F"/>
<path fill-rule="evenodd" clip-rule="evenodd" d="M23.1585 40.108C24.468 38.4059 26.441 37.6025 28.2559 38.2425C30.7548 39.1238 32.0076 42.4079 31.0541 45.5778L31.0541 45.5779C33.553 46.4592 34.8058 49.7433 33.8522 52.9132C32.8987 56.0831 30.0999 57.9384 27.601 57.0571C26.1339 56.5398 25.0964 55.1942 24.6826 53.5298C23.1622 54.5291 21.3168 54.8409 19.5572 54.2204C16.2253 53.0454 14.4629 48.9724 15.6207 45.1233C16.7103 41.5009 19.9979 39.3676 23.1585 40.108Z" fill="#B67E49"/>
<path fill-rule="evenodd" clip-rule="evenodd" d="M23.3391 40.6017L23.5009 40.3913C24.7346 38.7878 26.5347 38.0991 28.1298 38.6617C30.3198 39.434 31.5528 42.402 30.6413 45.4322L30.5152 45.8515L30.928 45.9971C33.1179 46.7694 34.351 49.7373 33.4394 52.7676C32.5279 55.7979 29.917 57.4102 27.7271 56.638C26.4353 56.1824 25.4858 54.9851 25.1006 53.4353L24.9476 52.8199L24.4404 53.1533C23.0138 54.0911 21.3024 54.3722 19.6833 53.8012C16.6278 52.7237 14.9295 48.939 16.0335 45.2688C17.0715 41.8183 20.1737 39.8601 23.0778 40.5405L23.3391 40.6017ZM24.8119 53.9789C24.7637 53.8321 24.7205 53.6823 24.6826 53.5298C24.5574 53.6121 24.4299 53.6897 24.3005 53.7626C22.8588 54.5742 21.1718 54.7898 19.5572 54.2204C16.2253 53.0454 14.4629 48.9724 15.6207 45.1233C16.7103 41.5009 19.9979 39.3676 23.1585 40.108C24.468 38.4059 26.441 37.6025 28.2559 38.2425C30.7548 39.1238 32.0076 42.4079 31.0541 45.5778C33.553 46.4591 34.8058 49.7433 33.8522 52.9132C32.8987 56.0831 30.0999 57.9384 27.601 57.0571C26.2684 56.5872 25.2901 55.4338 24.8119 53.9789Z" fill="#AA723D"/>
<path d="M31.1868 57.7816C34.3853 54.1477 36.7858 46.6135 34.2444 44.0047C31.703 41.3959 27.0499 42.2269 23.8513 45.8608C20.6528 49.4947 15.0838 55.1832 17.6252 57.792C20.1666 60.4008 27.9882 61.4155 31.1868 57.7816Z" fill="#689F4E"/>
<path fill-rule="evenodd" clip-rule="evenodd" d="M34.4626 50.3861C33.7962 52.9881 32.4272 55.7117 30.8813 57.468C29.4051 59.1452 26.8007 59.7973 24.1762 59.674C22.8758 59.613 21.5983 59.362 20.4966 58.9706C19.3891 58.5771 18.4879 58.0521 17.9144 57.4634C17.4191 56.955 17.2945 56.2954 17.4849 55.4467C17.6802 54.576 18.1998 53.5641 18.927 52.4778C20.1146 50.7038 21.7752 48.845 23.2248 47.2225C23.5485 46.8601 23.8617 46.5096 24.1568 46.1744C25.6993 44.4219 27.5819 43.3582 29.3645 43.0399C31.1469 42.7215 32.8018 43.1493 33.9552 44.3333C34.4891 44.8813 34.7918 45.7175 34.8693 46.7808C34.9466 47.8423 34.7953 49.0871 34.4626 50.3861ZM34.2444 44.0047C36.7858 46.6135 34.3853 54.1477 31.1868 57.7816C27.9882 61.4155 20.1666 60.4008 17.6252 57.792C15.3143 55.4198 19.7092 50.5014 22.9302 46.8966C23.2515 46.537 23.5612 46.1904 23.8513 45.8608C27.0499 42.2269 31.703 41.3959 34.2444 44.0047Z" fill="#509131"/>
<path d="M80.6328 28.623C83.8314 24.9891 86.2319 17.455 83.6905 14.8462C81.1491 12.2373 76.4959 13.0683 73.2974 16.7022C70.0988 20.3361 64.5298 26.0246 67.0712 28.6334C69.6126 31.2422 77.4343 32.2569 80.6328 28.623Z" fill="#689F4E"/>
<path fill-rule="evenodd" clip-rule="evenodd" d="M83.9087 21.2275C83.2422 23.8295 81.8733 26.5531 80.3274 28.3094C78.8511 29.9866 76.2467 30.6387 73.6222 30.5155C72.3219 30.4544 71.0443 30.2034 69.9426 29.812C68.8351 29.4186 67.9339 28.8935 67.3604 28.3048C66.8651 27.7964 66.7406 27.1368 66.931 26.2881C67.1263 25.4175 67.6459 24.4055 68.3731 23.3192C69.5606 21.5452 71.2213 19.6864 72.6708 18.0639C72.9946 17.7016 73.3078 17.351 73.6028 17.0158C75.1454 15.2633 77.028 14.1996 78.8106 13.8813C80.593 13.563 82.2479 13.9907 83.4013 15.1747C83.9351 15.7228 84.2378 16.5589 84.3153 17.6222C84.3927 18.6837 84.2414 19.9285 83.9087 21.2275ZM83.6905 14.8462C86.2319 17.455 83.8314 24.9891 80.6328 28.623C77.4343 32.2569 69.6126 31.2422 67.0712 28.6334C64.7604 26.2613 69.1552 21.3428 72.3762 17.738C72.6976 17.3784 73.0072 17.0319 73.2974 16.7022C76.4959 13.0683 81.1491 12.2373 83.6905 14.8462Z" fill="#509131"/>
<path d="M55.7471 60.8514C40.932 65.0467 26.3757 66.6386 24.3308 60.0876C14.0363 27.1072 41.9952 11.939 58.9637 11.9844C85.6225 12.0556 99.9935 28.1723 98.9981 47.1261C98.0027 66.0798 70.5621 56.6562 55.7471 60.8514Z" fill="#FFD573"/>
<path fill-rule="evenodd" clip-rule="evenodd" d="M35.2327 64.0603C40.9249 63.9578 48.2267 62.5222 55.6203 60.4285C59.3864 59.3621 63.9322 59.1658 68.6053 59.1632C70.006 59.1624 71.4173 59.1789 72.825 59.1954C76.1375 59.2342 79.4303 59.2728 82.519 59.0848C86.9205 58.817 90.8167 58.0913 93.6668 56.3027C96.4836 54.5352 98.3203 51.7031 98.5624 47.0932C99.0536 37.7389 95.7551 29.1026 89.0568 22.7917C82.3558 16.4783 72.2152 12.4589 58.9722 12.4235C50.5944 12.4011 39.4745 16.1423 31.7362 23.9646C24.0242 31.7603 19.6481 43.6298 24.7469 59.9645C25.2039 61.4286 26.3631 62.4744 28.1633 63.1495C29.9725 63.828 32.384 64.1116 35.2327 64.0603ZM24.3308 60.0876C26.3757 66.6386 40.932 65.0467 55.7471 60.8514C60.5516 59.4909 66.684 59.5627 72.8116 59.6344C85.5789 59.7839 98.3255 59.9331 98.9981 47.1261C99.9935 28.1723 85.6225 12.0556 58.9637 11.9844C41.9952 11.939 14.0363 27.1072 24.3308 60.0876Z" fill="#FDCF61"/>
<path opacity="0.5" d="M46.9097 28.5701C46.7954 29.4562 45.5878 29.3501 44.1103 29.1248C42.6329 28.8995 41.445 28.6403 41.5593 27.7542C41.6736 26.8681 42.964 26.3324 44.4414 26.5577C45.9189 26.783 47.024 27.684 46.9097 28.5701Z" fill="#ECB368"/>
<path opacity="0.5" d="M63.7973 32.6665C63.874 33.5577 62.9476 33.7263 61.7966 33.8394C60.6457 33.9524 59.706 33.967 59.6293 33.0758C59.5526 32.1846 60.4235 31.3705 61.5745 31.2575C62.7254 31.1445 63.7206 31.7753 63.7973 32.6665Z" fill="#ECB368"/>
<path opacity="0.5" d="M94.4755 44.6662C94.4765 45.5611 93.2672 45.6373 91.7755 45.6359C90.2838 45.6345 89.0744 45.5561 89.0735 44.6612C89.0725 43.7663 90.2811 43.042 91.7728 43.0434C93.2645 43.0447 94.4746 43.7713 94.4755 44.6662Z" fill="#ECB368"/>
<path opacity="0.5" d="M32.651 42.9376C32.6827 43.8319 33.8938 43.8619 35.3844 43.8035C36.8751 43.7451 38.0807 43.6205 38.0491 42.7262C38.0174 41.8319 36.7833 41.1543 35.2927 41.2126C33.802 41.271 32.6193 42.0433 32.651 42.9376Z" fill="#ECB368"/>
<path opacity="0.5" d="M64.2239 20.6015C64.2555 21.4958 65.4667 21.5257 66.9573 21.4673C68.448 21.4089 69.6536 21.2843 69.6219 20.39C69.5903 19.4957 68.3562 18.8181 66.8655 18.8765C65.3749 18.9349 64.1922 19.7072 64.2239 20.6015Z" fill="#ECB368"/>
<path opacity="0.5" d="M82.8317 40.9113C82.8637 41.5676 82.0027 42.1483 80.9087 42.2081C79.8147 42.268 78.9018 41.7844 78.8698 41.128C78.8378 40.4717 79.6988 39.891 80.7928 39.8312C81.8868 39.7713 82.7997 40.2549 82.8317 40.9113Z" fill="#ECB368"/>
<path opacity="0.5" d="M77.588 33.4391C77.6221 34.1398 76.7031 34.7596 75.5352 34.8235C74.3673 34.8874 73.3929 34.3712 73.3587 33.6705C73.3246 32.9699 74.2436 32.3501 75.4115 32.2862C76.5794 32.2222 77.5538 32.7385 77.588 33.4391Z" fill="#ECB368"/>
<path opacity="0.5" d="M33.4377 54.334C33.4719 55.0347 32.5528 55.6545 31.3849 55.7184C30.2171 55.7823 29.2426 55.2661 29.2085 54.5654C29.1743 53.8648 30.0934 53.245 31.2612 53.181C32.4291 53.1171 33.4035 53.6334 33.4377 54.334Z" fill="#ECB368"/>
<path opacity="0.5" d="M88.0366 50.3406C87.9681 50.8723 87.2471 51.2018 86.4263 51.0766C85.6054 50.9514 84.9956 50.419 85.0642 49.8873C85.1328 49.3557 85.8538 49.0262 86.6746 49.1513C87.4954 49.2765 88.1052 49.809 88.0366 50.3406Z" fill="#ECB368"/>
<path opacity="0.5" d="M50.6724 38.8885C50.6744 39.4255 50.0041 39.8621 49.1754 39.8638C48.3467 39.8655 47.6733 39.4316 47.6713 38.8947C47.6694 38.3578 48.3397 37.9211 49.1684 37.9194C49.9971 37.9177 50.6705 38.3516 50.6724 38.8885Z" fill="#ECB368"/>
<path opacity="0.5" d="M86.9028 26.955C86.9394 27.4906 86.2991 27.9767 85.4727 28.0409C84.6462 28.105 83.9465 27.7229 83.9098 27.1874C83.8732 26.6518 84.5135 26.1656 85.34 26.1015C86.1665 26.0373 86.8662 26.4195 86.9028 26.955Z" fill="#ECB368"/>
<path opacity="0.5" d="M42.7525 47.8499C42.7892 48.3855 42.1489 48.8716 41.3224 48.9358C40.4959 48.9999 39.7962 48.6178 39.7596 48.0822C39.7229 47.5467 40.3632 47.0605 41.1897 46.9964C42.0162 46.9322 42.7159 47.3144 42.7525 47.8499Z" fill="#ECB368"/>
<path opacity="0.5" d="M55.8086 22.4018C55.8452 22.9373 55.2049 23.4235 54.3784 23.4877C53.5519 23.5518 52.8522 23.1697 52.8156 22.6341C52.779 22.0986 53.4193 21.6124 54.2458 21.5483C55.0722 21.4841 55.7719 21.8662 55.8086 22.4018Z" fill="#ECB368"/>
<path opacity="0.5" d="M45.4725 57.1172C45.5162 57.7784 44.847 57.6628 43.8519 57.7373C42.8567 57.8119 41.9124 58.0485 41.8687 57.3873C41.825 56.7261 42.5963 56.1296 43.5915 56.055C44.5866 55.9804 45.4288 56.456 45.4725 57.1172Z" fill="#ECB368"/>
<path fill-rule="evenodd" clip-rule="evenodd" d="M0.662314 42.1163C0.757983 42.0397 0.893658 42.0549 0.965353 42.1502C1.53962 42.9132 2.81673 43.729 4.4847 44.5209C6.14149 45.3075 8.14793 46.0543 10.1421 46.6932C12.1358 47.3319 14.1124 47.8613 15.7077 48.2137C16.5055 48.3899 17.2058 48.5214 17.7638 48.6003C18.3304 48.6804 18.7273 48.7026 18.9318 48.6734C19.0506 48.6564 19.1573 48.7407 19.1699 48.8617C19.1826 48.9827 19.0965 49.0945 18.9776 49.1115C18.7059 49.1504 18.2541 49.1183 17.6905 49.0386C17.1183 48.9577 16.407 48.8239 15.6028 48.6463C13.994 48.2909 12.005 47.7582 10.0001 47.1159C7.99574 46.4737 5.97066 45.7205 4.2916 44.9233C2.6237 44.1315 1.2606 43.2799 0.618905 42.4273C0.54721 42.332 0.566645 42.1928 0.662314 42.1163Z" fill="#805125"/>
<path d="M57.3458 49.0393C57.5297 50.9221 56.2655 52.6064 54.5222 52.8011C52.7789 52.9959 51.2166 51.6275 51.0328 49.7446C50.849 47.8618 52.1132 46.1776 53.8565 45.9828C55.5998 45.788 57.162 47.1565 57.3458 49.0393Z" fill="#805125"/>
<path d="M76.3388 46.7996C76.5226 48.6824 75.2584 50.3666 73.5151 50.5614C71.7718 50.7562 70.2096 49.3877 70.0257 47.5049C69.8419 45.622 71.1061 43.9378 72.8494 43.743C74.5927 43.5483 76.1549 44.9167 76.3388 46.7996Z" fill="#805125"/>
<path d="M61.0557 48.9924C61.1021 49.4673 61.2346 49.9279 61.4458 50.3478C61.6569 50.7678 61.9424 51.1389 62.2862 51.44C62.6299 51.7411 63.025 51.9662 63.449 52.1026C63.873 52.2389 64.3176 52.2838 64.7573 52.2347C65.197 52.1856 65.6233 52.0434 66.0118 51.8163C66.4003 51.5891 66.7434 51.2815 67.0216 50.9109C67.2997 50.5404 67.5074 50.1141 67.6329 49.6566C67.7583 49.199 67.799 48.7191 67.7526 48.2441L64.4042 48.6182L61.0557 48.9924Z" fill="#805125"/>
</svg>
