<svg width="1080" height="1080" viewBox="0 0 1080 1080" fill="none" xmlns="http://www.w3.org/2000/svg">
<rect width="1080" height="1080" fill="#FAB0B0"/>
<path d="M625.5 747.522C657.416 742.375 748.581 839.134 756.352 839.625C764.122 840.116 786.53 809.981 786.53 809.981" stroke="#967E30" stroke-width="4" stroke-linecap="round"/>
<path d="M503.278 745.585C471.086 742.624 386.723 845.369 379.005 846.388C371.286 847.406 346.876 818.868 346.876 818.868" stroke="#967E30" stroke-width="4" stroke-linecap="round"/>
<mask id="path-3-inside-1_686_5720" fill="white">
<path fill-rule="evenodd" clip-rule="evenodd" d="M921.79 374.863C921.79 374.862 921.79 374.862 921.79 374.862C921.79 320.218 745.156 275.921 527.268 275.921C309.38 275.921 132.747 320.218 132.747 374.862C132.747 374.862 132.747 374.862 132.747 374.863H132.747V684.877C132.747 739.52 309.38 783.818 527.268 783.818C745.156 783.818 921.79 739.52 921.79 684.877V374.917"/>
</mask>
<path fill-rule="evenodd" clip-rule="evenodd" d="M921.79 374.863C921.79 374.862 921.79 374.862 921.79 374.862C921.79 320.218 745.156 275.921 527.268 275.921C309.38 275.921 132.747 320.218 132.747 374.862C132.747 374.862 132.747 374.862 132.747 374.863H132.747V684.877C132.747 739.52 309.38 783.818 527.268 783.818C745.156 783.818 921.79 739.52 921.79 684.877V374.917" fill="#F5DF96"/>
<path d="M923.79 374.917V374.863H919.79V374.917H923.79ZM132.747 374.863V378.863H136.747V374.863H132.747ZM132.747 374.863V370.863H128.747V374.863H132.747ZM925.79 374.863C925.79 374.919 925.788 374.97 925.787 375.012C925.785 375.055 925.783 375.091 925.781 375.119C925.779 375.147 925.778 375.17 925.777 375.184C925.776 375.191 925.776 375.196 925.775 375.2C925.775 375.203 925.775 375.206 925.775 375.205C925.775 375.205 925.775 375.205 925.775 375.205C925.775 375.205 925.775 375.205 925.775 375.205C925.775 375.205 925.775 375.205 925.775 375.205C925.775 375.205 925.775 375.205 925.775 375.205C925.775 375.205 925.775 375.204 925.775 375.204C925.775 375.203 925.775 375.201 925.775 375.2C925.776 375.196 925.776 375.191 925.777 375.183C925.778 375.17 925.78 375.147 925.781 375.119C925.783 375.091 925.785 375.054 925.787 375.011C925.788 374.969 925.79 374.918 925.79 374.862H917.79C917.79 374.805 917.791 374.755 917.792 374.712C917.794 374.67 917.796 374.633 917.798 374.605C917.8 374.577 917.801 374.555 917.802 374.541C917.803 374.534 917.804 374.528 917.804 374.525C917.804 374.522 917.804 374.519 917.804 374.519C917.804 374.519 917.804 374.519 917.804 374.519C917.804 374.519 917.804 374.519 917.804 374.52C917.804 374.52 917.804 374.52 917.804 374.52C917.804 374.52 917.804 374.52 917.804 374.52C917.804 374.52 917.804 374.52 917.804 374.521C917.804 374.522 917.804 374.523 917.804 374.525C917.804 374.528 917.803 374.534 917.802 374.541C917.801 374.555 917.8 374.578 917.798 374.606C917.796 374.634 917.794 374.671 917.792 374.713C917.791 374.756 917.79 374.806 917.79 374.863H925.79ZM925.79 374.862C925.79 358.92 913.001 344.871 892.826 332.909C872.387 320.79 843.077 310.015 807.21 301.02C735.414 283.015 636.441 271.921 527.268 271.921V279.921C635.983 279.921 734.271 290.976 805.264 308.78C840.791 317.69 869.258 328.235 888.746 339.79C908.499 351.502 917.79 363.482 917.79 374.862H925.79ZM527.268 271.921C418.095 271.921 319.122 283.015 247.326 301.02C211.459 310.015 182.149 320.79 161.71 332.909C141.535 344.871 128.747 358.92 128.747 374.862H136.747C136.747 363.482 146.037 351.502 165.79 339.79C185.279 328.235 213.745 317.69 249.272 308.78C320.265 290.976 418.553 279.921 527.268 279.921V271.921ZM128.747 374.862C128.747 374.862 128.747 374.862 128.747 374.862C128.747 374.863 128.747 374.863 128.747 374.863H136.747C136.747 374.863 136.747 374.862 136.747 374.862C136.747 374.862 136.747 374.862 136.747 374.862H128.747ZM132.747 378.863H132.747V370.863H132.747V378.863ZM136.747 684.877V374.863H128.747V684.877H136.747ZM128.747 684.877C128.747 700.819 141.535 714.867 161.71 726.83C182.149 738.949 211.459 749.723 247.326 758.718C319.122 776.724 418.095 787.818 527.268 787.818V779.818C418.553 779.818 320.265 768.763 249.272 750.959C213.745 742.049 185.279 731.504 165.79 719.948C146.037 708.237 136.747 696.257 136.747 684.877H128.747ZM527.268 787.818C636.441 787.818 735.414 776.724 807.21 758.718C843.077 749.723 872.387 738.949 892.826 726.83C913.001 714.867 925.79 700.819 925.79 684.877H917.79C917.79 696.257 908.499 708.237 888.746 719.948C869.258 731.504 840.791 742.049 805.264 750.959C734.271 768.763 635.983 779.818 527.268 779.818V787.818ZM917.79 374.917V684.877H925.79V374.917H917.79Z" fill="#EED47E" mask="url(#path-3-inside-1_686_5720)"/>
<ellipse cx="527.268" cy="378.159" rx="369.272" ry="89.0465" fill="#E0C159"/>
<path d="M909.166 374.861C909.166 429.504 738.185 473.802 527.269 473.802C316.353 473.802 145.372 429.504 145.372 374.861" stroke="#EED47E" stroke-width="4"/>
<path d="M909.166 513.378C909.166 568.022 738.185 612.319 527.269 612.319C316.353 612.319 145.372 568.022 145.372 513.378" stroke="#EED47E" stroke-width="4"/>
<mask id="mask0_686_5720" style="mask-type:alpha" maskUnits="userSpaceOnUse" x="123" y="144" width="799" height="324">
<path d="M921.79 331.987C921.79 421.238 731.212 467.206 527.269 467.206C323.325 467.206 123.279 421.238 123.279 331.987C123.279 242.736 323.325 144 527.269 144C731.212 144 921.79 242.736 921.79 331.987Z" fill="#E0C159"/>
</mask>
<g mask="url(#mask0_686_5720)">
<mask id="path-9-inside-2_686_5720" fill="white">
<path fill-rule="evenodd" clip-rule="evenodd" d="M334.823 275.083C342.996 258.964 363.327 243.642 384.456 246.808C403.587 249.674 418.015 266.894 423.177 283.39C432.097 273.742 443.332 267.384 454.526 269.061C477.356 272.482 491.366 308.028 488.187 331.202C486.991 339.917 483.263 347.619 477.863 353.655C513.197 387.936 540.293 432.005 538.224 466.547C534.37 530.896 464.085 552.717 379.444 545.228C294.803 537.74 227.859 503.778 231.713 439.429C233.706 406.155 256.75 368.298 287.291 340.269C274.197 332.539 266.276 319.366 268.138 305.792C270.757 286.708 293.306 262.541 316.553 266.024C323.437 267.055 329.611 270.396 334.823 275.083Z"/>
</mask>
<path fill-rule="evenodd" clip-rule="evenodd" d="M334.823 275.083C342.996 258.964 363.327 243.642 384.456 246.808C403.587 249.674 418.015 266.894 423.177 283.39C432.097 273.742 443.332 267.384 454.526 269.061C477.356 272.482 491.366 308.028 488.187 331.202C486.991 339.917 483.263 347.619 477.863 353.655C513.197 387.936 540.293 432.005 538.224 466.547C534.37 530.896 464.085 552.717 379.444 545.228C294.803 537.74 227.859 503.778 231.713 439.429C233.706 406.155 256.75 368.298 287.291 340.269C274.197 332.539 266.276 319.366 268.138 305.792C270.757 286.708 293.306 262.541 316.553 266.024C323.437 267.055 329.611 270.396 334.823 275.083Z" fill="#FFF8E6"/>
<path d="M334.823 275.083L337.496 276.471L335.745 279.924L332.839 277.311L334.823 275.083ZM423.177 283.39L425.384 285.448L421.879 289.238L420.321 284.259L423.177 283.39ZM477.863 353.655L475.795 355.804L473.706 353.777L475.624 351.633L477.863 353.655ZM538.224 466.547L535.235 466.332L538.224 466.547ZM379.444 545.228L379.672 542.235L379.444 545.228ZM231.713 439.429L234.703 439.644L231.713 439.429ZM287.291 340.269L288.786 337.683L292.307 339.762L289.326 342.497L287.291 340.269ZM332.151 273.695C336.492 265.132 343.999 256.876 353.179 251.156C362.371 245.428 373.44 242.124 384.863 243.836L384.048 249.78C374.343 248.326 364.682 251.1 356.382 256.272C348.072 261.451 341.327 268.915 337.496 276.471L332.151 273.695ZM384.863 243.836C405.504 246.928 420.648 265.313 426.033 282.52L420.321 284.259C415.381 268.475 401.67 252.42 384.048 249.78L384.863 243.836ZM420.97 281.332C430.168 271.383 442.313 264.198 454.934 266.089L454.118 272.034C444.352 270.57 434.026 276.1 425.384 285.448L420.97 281.332ZM454.934 266.089C467.803 268.017 477.659 278.852 483.796 291.428C489.976 304.092 492.837 319.376 491.154 331.646L485.22 330.757C486.716 319.853 484.161 305.778 478.423 294.02C472.643 282.174 464.079 273.526 454.118 272.034L454.934 266.089ZM491.154 331.646C489.875 340.965 485.885 349.212 480.102 355.678L475.624 351.633C480.641 346.025 484.107 338.868 485.22 330.757L491.154 331.646ZM479.931 351.507C497.773 368.816 513.578 388.636 524.68 408.56C535.755 428.438 542.296 448.686 541.214 466.763L535.235 466.332C536.221 449.866 530.249 430.809 519.46 411.446C508.697 392.13 493.287 372.775 475.795 355.804L479.931 351.507ZM541.214 466.763C539.206 500.273 519.788 522.669 490.356 535.583C461.084 548.425 421.788 551.988 379.216 548.222L379.672 542.235C421.741 545.957 459.907 542.354 487.902 530.071C515.736 517.859 533.388 497.171 535.235 466.332L541.214 466.763ZM379.216 548.222C336.64 544.455 298.195 534.012 270.784 516.166C243.243 498.236 226.718 472.705 228.724 439.213L234.703 439.644C232.855 470.501 247.874 494.125 274.002 511.136C300.259 528.23 337.608 538.513 379.672 542.235L379.216 548.222ZM228.724 439.213C230.781 404.865 254.417 366.343 285.255 338.04L289.326 342.497C259.082 370.254 236.631 407.445 234.703 439.644L228.724 439.213ZM285.795 342.854C271.932 334.671 263.102 320.427 265.171 305.348L271.105 306.237C269.449 318.304 276.462 330.408 288.786 337.683L285.795 342.854ZM265.171 305.348C266.598 294.948 273.339 283.537 282.594 275.199C291.863 266.848 304.162 261.134 316.961 263.052L316.145 268.996C305.696 267.431 295.098 272.059 286.625 279.692C278.14 287.337 272.297 297.552 271.105 306.237L265.171 305.348ZM316.961 263.052C324.542 264.188 331.245 267.854 336.807 272.856L332.839 277.311C327.977 272.938 322.333 269.923 316.145 268.996L316.961 263.052Z" fill="#F0E1B9" mask="url(#path-9-inside-2_686_5720)"/>
<path d="M419.692 378.694C437.837 393.629 461.18 424.891 470.542 449.615" stroke="#F0E1B9" stroke-width="3" stroke-linecap="round" stroke-linejoin="round"/>
<path d="M333.32 387.319C323.572 399.576 304.652 428.723 306.961 447.254" stroke="#F0E1B9" stroke-width="3" stroke-linecap="round" stroke-linejoin="round"/>
<path d="M378.619 399.194C384.266 412.257 395.203 440.993 393.769 451.44" stroke="#F0E1B9" stroke-width="3" stroke-linecap="round" stroke-linejoin="round"/>
<mask id="path-14-inside-3_686_5720" fill="white">
<path fill-rule="evenodd" clip-rule="evenodd" d="M752.832 314.236C752.949 313.278 753.037 312.306 753.1 311.323C754.33 291.937 745.521 263.789 715.383 261.702C693.928 260.215 674.484 272.824 664.617 287.206C656.719 276.469 645.854 268.417 633.429 267.556C606.837 265.714 583.168 297.513 581.674 321.053C581.135 329.56 583.447 337.68 587.875 344.669C539.614 370.382 498.357 408.062 493.046 442.951C483.269 507.183 558.029 544.704 655.479 556.644C752.929 568.585 836.166 550.424 845.944 486.192C851.311 450.934 830.962 405.179 799.461 369.597C804.084 365.216 806.962 359.769 807.345 353.722C808.38 337.42 791.512 313.095 768.902 311.528C763.29 311.14 757.853 312.189 752.832 314.236Z"/>
</mask>
<path fill-rule="evenodd" clip-rule="evenodd" d="M752.832 314.236C752.949 313.278 753.037 312.306 753.1 311.323C754.33 291.937 745.521 263.789 715.383 261.702C693.928 260.215 674.484 272.824 664.617 287.206C656.719 276.469 645.854 268.417 633.429 267.556C606.837 265.714 583.168 297.513 581.674 321.053C581.135 329.56 583.447 337.68 587.875 344.669C539.614 370.382 498.357 408.062 493.046 442.951C483.269 507.183 558.029 544.704 655.479 556.644C752.929 568.585 836.166 550.424 845.944 486.192C851.311 450.934 830.962 405.179 799.461 369.597C804.084 365.216 806.962 359.769 807.345 353.722C808.38 337.42 791.512 313.095 768.902 311.528C763.29 311.14 757.853 312.189 752.832 314.236Z" fill="#FFF8E6"/>
<path d="M752.832 314.236L749.855 313.857L749.237 318.95L753.977 317.017L752.832 314.236ZM664.617 287.206L662.205 288.976L664.712 292.384L667.092 288.915L664.617 287.206ZM587.875 344.669L589.297 347.32L592.138 345.806L590.405 343.072L587.875 344.669ZM493.046 442.951L490.082 442.483L493.046 442.951ZM655.479 556.644L655.132 559.623L655.479 556.644ZM845.944 486.192L848.908 486.66L845.944 486.192ZM799.461 369.597L797.392 367.412L795.293 369.402L797.221 371.58L799.461 369.597ZM755.809 314.615C755.933 313.597 756.027 312.568 756.093 311.53L750.107 311.116C750.048 312.044 749.964 312.958 749.855 313.857L755.809 314.615ZM756.093 311.53C756.737 301.375 754.772 288.853 748.575 278.495C742.297 268.001 731.71 259.825 715.573 258.708L715.193 264.696C729.194 265.665 738.08 272.607 743.434 281.556C748.868 290.64 750.693 301.884 750.107 311.116L756.093 311.53ZM715.573 258.708C692.853 257.134 672.477 270.433 662.142 285.498L667.092 288.915C676.491 275.214 695.004 263.297 715.193 264.696L715.573 258.708ZM667.028 285.436C658.83 274.291 647.246 265.506 633.619 264.562L633.24 270.55C644.463 271.327 654.608 278.647 662.205 288.976L667.028 285.436ZM633.619 264.562C619.04 263.552 605.647 271.754 595.889 282.79C586.118 293.839 579.479 308.28 578.681 320.846L584.667 321.261C585.363 310.286 591.305 297.057 600.39 286.782C609.488 276.494 621.226 269.718 633.24 270.55L633.619 264.562ZM578.681 320.846C578.099 330.032 580.601 338.778 585.346 346.266L590.405 343.072C586.293 336.582 584.171 329.088 584.667 321.261L578.681 320.846ZM586.454 342.018C562.122 354.982 539.489 370.995 522.23 388.239C505.026 405.427 492.876 424.124 490.082 442.483L496.011 443.42C498.528 426.888 509.662 409.301 526.479 392.499C543.241 375.753 565.367 360.069 589.297 347.32L586.454 342.018ZM490.082 442.483C484.956 476.153 502.161 502.625 532.452 521.935C562.64 541.181 606.198 553.627 655.132 559.623L655.827 553.665C607.311 547.72 564.763 535.436 535.653 516.878C506.645 498.386 491.359 473.982 496.011 443.42L490.082 442.483ZM655.132 559.623C704.074 565.62 749.734 564.103 784.526 552.839C819.392 541.551 843.792 520.272 848.908 486.66L842.979 485.723C838.318 516.343 816.211 536.261 782.651 547.127C749.018 558.016 704.335 559.609 655.827 553.665L655.132 559.623ZM848.908 486.66C851.7 468.318 847.782 447.493 839.299 426.886C830.804 406.25 817.651 385.632 801.7 367.614L797.221 371.58C812.771 389.144 825.543 409.194 833.756 429.145C841.981 449.126 845.554 468.808 842.979 485.723L848.908 486.66ZM801.529 371.782C806.601 366.975 809.899 360.854 810.338 353.93L804.353 353.515C804.025 358.684 801.566 363.457 797.392 367.412L801.529 371.782ZM810.338 353.93C810.918 344.789 806.534 333.898 799.291 325.187C792.006 316.426 781.432 309.389 769.092 308.535L768.712 314.522C778.982 315.234 788.147 321.143 794.69 329.011C801.275 336.93 804.807 346.354 804.353 353.515L810.338 353.93ZM769.092 308.535C762.968 308.11 757.074 309.259 751.687 311.456L753.977 317.017C758.631 315.119 763.613 314.169 768.712 314.522L769.092 308.535Z" fill="#F0E1B9" mask="url(#path-14-inside-3_686_5720)"/>
<path d="M646.519 383.504C622.7 394.068 589.407 419.519 573.378 441.725" stroke="#F0E1B9" stroke-width="3" stroke-linecap="round" stroke-linejoin="round"/>
<path d="M742.387 411.704C750.728 425.996 765.739 459.008 759.053 476.725" stroke="#F0E1B9" stroke-width="3" stroke-linecap="round" stroke-linejoin="round"/>
<path d="M688.506 413.061C679.243 424.632 660.55 450.429 659.876 461.041" stroke="#F0E1B9" stroke-width="3" stroke-linecap="round" stroke-linejoin="round"/>
</g>
<circle cx="469.536" cy="610.286" r="33.7459" transform="rotate(-5.20761 469.536 610.286)" fill="#967E30"/>
<circle cx="613.669" cy="600.334" r="33.7459" transform="rotate(-5.20761 613.669 600.334)" fill="#967E30"/>
<path d="M510.742 660.851C511.169 665.532 512.514 670.084 514.699 674.246C516.885 678.408 519.869 682.099 523.481 685.107C527.093 688.116 531.263 690.384 535.751 691.781C540.24 693.179 544.96 693.678 549.641 693.252C554.323 692.825 558.875 691.48 563.037 689.295C567.199 687.109 570.889 684.125 573.898 680.512C576.907 676.9 579.174 672.731 580.572 668.242C581.969 663.754 582.469 659.034 582.042 654.353L546.392 657.602L510.742 660.851Z" fill="#967E30"/>
<path d="M81.9999 552.503C98.9486 577.425 129.907 599.676 161.12 599.676" stroke="#967E30" stroke-width="4" stroke-linecap="round"/>
<path d="M997.006 569.302C974.42 601.636 924.658 626.657 866.291 619.072" stroke="#967E30" stroke-width="4" stroke-linecap="round"/>
<path opacity="0.2" d="M432.867 921.603C432.874 929.05 426.518 934.982 384.726 935.019C342.935 935.057 309.059 938.458 309.044 921.603C309.029 904.747 342.91 908.088 384.702 908.051C426.494 908.013 432.86 914.156 432.867 921.603Z" fill="#967E30"/>
<path opacity="0.2" d="M704.616 921.456C704.61 928.904 726.935 934.961 754.482 934.985C782.029 935.01 804.358 938.401 804.373 921.546C804.388 904.69 782.054 908.041 754.507 908.017C726.96 907.992 704.623 914.009 704.616 921.456Z" fill="#967E30"/>
</svg>
