<svg width="1080" height="1080" viewBox="0 0 1080 1080" fill="none" xmlns="http://www.w3.org/2000/svg">
<rect width="1080" height="1080" fill="#FFEAA7"/>
<ellipse opacity="0.3" cx="439.362" cy="941.375" rx="49.6643" ry="11.461" fill="#C5BFAB"/>
<ellipse opacity="0.3" cx="771.731" cy="941.375" rx="30.5627" ry="11.461" fill="#C5BFAB"/>
<path d="M733.528 491.448C776.014 484.82 832.947 451.68 866.086 372.145" stroke="#898989" stroke-width="4" stroke-linecap="round"/>
<path d="M502.299 741.464C506.893 784.218 421.789 890.226 421.37 900.383C420.952 910.54 453.341 927.045 453.341 927.045" stroke="#898989" stroke-width="4" stroke-linecap="round"/>
<path d="M620.198 754.474C703.62 776.034 747.948 858.976 757.047 868.83C766.145 878.685 804.335 857.262 804.335 857.262" stroke="#898989" stroke-width="4" stroke-linecap="round"/>
<path d="M892.269 598.296L892.318 598.372L892.372 598.445C924.473 641.215 935.011 691.37 923.714 731.87C912.465 772.198 879.474 803.33 823.519 808.239L346.941 850.049C234.695 859.896 155.345 753.417 203.216 658.904L203.236 658.864L203.255 658.824L396.734 239.89C444.805 145.056 584.761 132.765 648.632 217.751L892.269 598.296Z" fill="#F5F5F5" stroke="#DEDEDE" stroke-width="4.86237"/>
<path d="M394.973 565.29C394.621 561.277 397.589 557.739 401.601 557.387L725.559 528.966C729.572 528.614 733.11 531.582 733.462 535.595L757.887 813.998L419.397 843.693L394.973 565.29Z" fill="#4B7841" stroke="#3E6336" stroke-width="4.86237"/>
<circle cx="453.341" cy="436.579" r="39.7675" fill="#898989"/>
<circle cx="678.69" cy="436.579" r="39.7675" fill="#898989"/>
<path d="M532.876 463.092C532.876 468.314 533.904 473.485 535.903 478.31C537.901 483.135 540.831 487.519 544.523 491.212C548.216 494.904 552.6 497.834 557.425 499.832C562.25 501.831 567.421 502.859 572.643 502.859C577.866 502.859 583.037 501.831 587.862 499.832C592.687 497.834 597.07 494.904 600.763 491.212C604.456 487.519 607.385 483.135 609.384 478.31C611.382 473.485 612.411 468.314 612.411 463.092L572.643 463.092L532.876 463.092Z" fill="#898989"/>
<path d="M343.91 578.428C301.257 583.879 237.354 567.882 183.4 500.703" stroke="#898989" stroke-width="4" stroke-linecap="round"/>
<path d="M837.592 661.5C845.764 699.018 829.692 714.93 802.055 717.355" stroke="#DEDEDE" stroke-width="4" stroke-linecap="round"/>
</svg>
