<svg width="1080" height="1080" viewBox="0 0 1080 1080" fill="none" xmlns="http://www.w3.org/2000/svg">
<rect width="1080" height="1080" fill="#F7B9D3"/>
<path d="M427.005 741.576C402.588 752.161 382.277 859.696 377.106 863.483C371.935 867.269 343.029 856.309 343.029 856.309" stroke="#AC3920" stroke-width="4" stroke-linecap="round"/>
<path d="M486.419 760.282C469.449 780.746 498.222 882.794 495.299 888.458C492.376 894.122 462.081 898.118 462.081 898.118" stroke="#AC3920" stroke-width="4" stroke-linecap="round"/>
<path d="M129.383 569.863C160.532 651.982 262.266 627.823 287.96 627.823" stroke="#AC3920" stroke-width="4" stroke-linecap="round"/>
<mask id="path-4-inside-1_686_5055" fill="white">
<path fill-rule="evenodd" clip-rule="evenodd" d="M838.134 618.403C851.166 605.244 863.188 589.962 874.189 572.494C948.403 454.657 878.369 310.244 714.849 248.922C551.33 187.6 320.874 240.683 277.096 357.421C270.156 375.926 267.305 394.309 268.071 412.387L267.517 412.225L219.901 723.159L620.502 884.172L838.134 618.403Z"/>
</mask>
<path fill-rule="evenodd" clip-rule="evenodd" d="M838.134 618.403C851.166 605.244 863.188 589.962 874.189 572.494C948.403 454.657 878.369 310.244 714.849 248.922C551.33 187.6 320.874 240.683 277.096 357.421C270.156 375.926 267.305 394.309 268.071 412.387L267.517 412.225L219.901 723.159L620.502 884.172L838.134 618.403Z" fill="#EE5939"/>
<path d="M874.189 572.494L870.805 570.363L874.189 572.494ZM838.134 618.403L835.292 615.588L835.159 615.723L835.039 615.869L838.134 618.403ZM268.071 412.387L266.951 416.227L272.304 417.788L272.068 412.217L268.071 412.387ZM267.517 412.225L268.637 408.385L264.254 407.106L263.563 411.619L267.517 412.225ZM219.901 723.159L215.947 722.553L215.467 725.687L218.41 726.87L219.901 723.159ZM620.502 884.172L619.011 887.884L621.736 888.979L623.597 886.707L620.502 884.172ZM870.805 570.363C859.943 587.608 848.099 602.656 835.292 615.588L840.976 621.218C854.233 607.831 866.433 592.316 877.574 574.626L870.805 570.363ZM713.445 252.667C794.447 283.044 851.94 333.867 880.077 391.275C908.168 448.588 907.137 512.673 870.805 570.363L877.574 574.626C915.455 514.478 916.514 447.438 887.261 387.754C858.055 328.166 798.772 276.122 716.254 245.176L713.445 252.667ZM280.841 358.826C302.021 302.348 368.907 260.382 452.01 240.287C534.873 220.249 632.538 222.326 713.445 252.667L716.254 245.176C633.641 214.195 534.319 212.153 450.129 232.511C366.179 252.811 295.949 295.757 273.35 356.017L280.841 358.826ZM272.068 412.217C271.324 394.688 274.085 376.84 280.841 358.826L273.35 356.017C266.227 375.012 263.285 393.929 264.075 412.556L272.068 412.217ZM266.397 416.065L266.951 416.227L269.191 408.547L268.637 408.385L266.397 416.065ZM223.855 723.764L271.471 412.83L263.563 411.619L215.947 722.553L223.855 723.764ZM621.994 880.461L221.393 719.447L218.41 726.87L619.011 887.884L621.994 880.461ZM835.039 615.869L617.408 881.638L623.597 886.707L841.228 620.937L835.039 615.869Z" fill="#DE4C2C" mask="url(#path-4-inside-1_686_5055)"/>
<mask id="path-6-inside-2_686_5055" fill="white">
<path fill-rule="evenodd" clip-rule="evenodd" d="M745.713 546.164C746.116 545.149 746.51 544.129 746.895 543.103C786.98 436.212 713.465 309.804 582.694 260.763C451.922 211.722 313.416 258.619 273.33 365.51C272.945 366.536 272.571 367.563 272.207 368.593L272.178 368.582L272.148 368.761C265.429 387.832 262.283 407.489 262.393 427.187L211.913 729.517L619.013 884.107L745.743 546.175L745.713 546.164Z"/>
</mask>
<path fill-rule="evenodd" clip-rule="evenodd" d="M745.713 546.164C746.116 545.149 746.51 544.129 746.895 543.103C786.98 436.212 713.465 309.804 582.694 260.763C451.922 211.722 313.416 258.619 273.33 365.51C272.945 366.536 272.571 367.563 272.207 368.593L272.178 368.582L272.148 368.761C265.429 387.832 262.283 407.489 262.393 427.187L211.913 729.517L619.013 884.107L745.743 546.175L745.713 546.164Z" fill="#FFDC98"/>
<path d="M745.713 546.164L741.995 544.689L740.492 548.478L744.309 549.91L745.713 546.164ZM272.207 368.593L270.803 372.338L274.62 373.77L275.978 369.926L272.207 368.593ZM272.178 368.582L273.582 364.837L269.033 363.13L268.232 367.923L272.178 368.582ZM272.148 368.761L275.921 370.09L276.036 369.762L276.093 369.419L272.148 368.761ZM262.393 427.187L266.338 427.846L266.394 427.508L266.392 427.165L262.393 427.187ZM211.913 729.517L207.968 728.859L207.428 732.093L210.493 733.257L211.913 729.517ZM619.013 884.107L617.593 887.847L621.348 889.273L622.759 885.512L619.013 884.107ZM745.743 546.175L749.488 547.58L750.892 543.834L747.147 542.43L745.743 546.175ZM743.15 541.698C742.774 542.7 742.389 543.697 741.995 544.689L749.431 547.64C749.843 546.601 750.246 545.557 750.64 544.507L743.15 541.698ZM581.289 264.508C710.733 313.052 782.208 437.547 743.15 541.698L750.64 544.507C791.753 434.877 716.197 306.557 584.098 257.018L581.289 264.508ZM277.075 366.914C316.134 262.762 451.845 215.965 581.289 264.508L584.098 257.018C452 207.479 310.697 254.475 269.585 364.105L277.075 366.914ZM275.978 369.926C276.334 368.92 276.699 367.916 277.075 366.914L269.585 364.105C269.191 365.155 268.808 366.207 268.436 367.26L275.978 369.926ZM270.773 372.327L270.803 372.338L273.612 364.848L273.582 364.837L270.773 372.327ZM276.093 369.419L276.123 369.241L268.232 367.923L268.202 368.102L276.093 369.419ZM266.392 427.165C266.286 407.911 269.36 388.713 275.921 370.09L268.375 367.432C261.499 386.951 258.281 407.066 258.393 427.209L266.392 427.165ZM215.858 730.176L266.338 427.846L258.447 426.528L207.968 728.859L215.858 730.176ZM620.433 880.368L213.333 725.778L210.493 733.257L617.593 887.847L620.433 880.368ZM741.997 544.771L615.268 882.703L622.759 885.512L749.488 547.58L741.997 544.771ZM744.309 549.91L744.338 549.92L747.147 542.43L747.118 542.419L744.309 549.91Z" fill="#DE4C2C" mask="url(#path-6-inside-2_686_5055)"/>
<circle cx="375.016" cy="658.236" r="27.7794" transform="rotate(-2.35698 375.016 658.236)" fill="#AC3920"/>
<circle cx="493.926" cy="669.563" r="27.7794" transform="rotate(-2.35698 493.926 669.563)" fill="#AC3920"/>
<path d="M398.285 698.872C398.185 702.74 398.847 706.591 400.235 710.203C401.622 713.816 403.708 717.12 406.372 719.926C409.036 722.733 412.227 724.987 415.763 726.561C419.299 728.134 423.11 728.995 426.978 729.096C430.847 729.196 434.697 728.534 438.31 727.146C441.922 725.759 445.226 723.673 448.033 721.009C450.839 718.345 453.093 715.154 454.667 711.618C456.24 708.082 457.102 704.272 457.202 700.403L427.744 699.637L398.285 698.872Z" fill="#AC3920"/>
<path d="M755.881 854.755C736.06 775.468 715.157 758.277 693.584 744.32" stroke="#AC3920" stroke-width="4" stroke-linecap="round"/>
<path opacity="0.2" d="M526.955 903.697C526.961 910.447 483.695 915.957 430.317 916.005C376.939 916.053 333.67 919.147 333.657 903.87C333.643 888.593 376.917 891.61 430.295 891.562C483.673 891.514 526.949 896.947 526.955 903.697Z" fill="#AC3920"/>
</svg>
