<svg width="1080" height="1080" viewBox="0 0 1080 1080" fill="none" xmlns="http://www.w3.org/2000/svg">
<rect width="1080" height="1080" fill="#FAB1A0"/>
<path opacity="0.3" d="M798.725 871.568C798.725 924.091 656.163 969.11 562.372 916.588C468.581 864.065 401.052 852.106 401.052 807.791C401.052 763.475 460.343 781.529 547.366 781.529C634.388 781.529 798.725 819.045 798.725 871.568Z" fill="#742919"/>
<path d="M633.653 832.968C666.815 823.723 761.715 877.007 769.791 876.003C777.867 874.999 786.648 847.252 786.648 847.252" stroke="#742919" stroke-width="4" stroke-linecap="round"/>
<path d="M507.413 844.833C541.456 839.713 629.128 904.203 637.266 904.194C645.405 904.185 657.513 877.72 657.513 877.72" stroke="#742919" stroke-width="4" stroke-linecap="round"/>
<path d="M771.956 544.384C803.716 620.205 804.53 687.81 776.716 741.854C748.895 795.911 692.214 836.829 608.088 858.799C530.018 879.188 456.258 853.745 398.79 800.578C341.295 747.386 300.183 666.486 287.669 576.285C274.575 481.905 288.622 373.21 334.848 288.191C381.026 203.26 459.262 142 574.801 142C632.629 142 669.58 157.589 693.676 183.011C717.837 208.501 729.37 244.175 735.685 284.967C740.071 313.299 741.915 343.87 743.794 375.012C744.623 388.749 745.458 402.597 746.521 416.413C749.985 461.427 755.867 505.973 771.956 544.384Z" fill="#BB4B33" stroke="#AC422A" stroke-width="4"/>
<path d="M476.085 746.326C493.846 775.817 535.629 807.999 604.609 808.513" stroke="#742919" stroke-width="4" stroke-linecap="round"/>
<path d="M733.051 665.229C734.772 699.612 722.069 732.758 695.807 759.02" stroke="#742919" stroke-width="4" stroke-linecap="round"/>
<path d="M659.854 661.164C656.455 654.312 646.186 644.243 632.296 658.787" stroke="#742919" stroke-width="3" stroke-linecap="round"/>
<path d="M549.768 653.499C545.84 646.936 534.809 637.709 522.108 653.303" stroke="#742919" stroke-width="3" stroke-linecap="round"/>
<path d="M572.642 705.886C572.509 708.747 572.941 711.606 573.912 714.301C574.883 716.995 576.376 719.471 578.304 721.589C580.232 723.706 582.558 725.423 585.149 726.641C587.74 727.859 590.545 728.555 593.405 728.688C596.265 728.822 599.123 728.39 601.816 727.419C604.509 726.447 606.984 724.954 609.1 723.025C611.216 721.097 612.932 718.77 614.15 716.178C615.367 713.586 616.062 710.779 616.195 707.918L594.419 706.902L572.642 705.886Z" fill="#742919"/>
<path d="M711.931 527.358C722.515 546.91 728.087 568.198 711.931 576.347C696.852 583.954 668.944 563.655 663.956 536.744C658.74 508.609 663.534 470.846 686.631 468.724C709.728 466.601 701.347 507.806 711.931 527.358Z" fill="#A7351C"/>
<path d="M508.675 217.658C475.326 223.326 431.422 244.654 407.812 291.177" stroke="#E3775F" stroke-width="4" stroke-linecap="round"/>
</svg>
