<svg width="1080" height="1080" viewBox="0 0 1080 1080" fill="none" xmlns="http://www.w3.org/2000/svg">
<rect width="1080" height="1080" fill="#00B894"/>
<path d="M445.263 867.57C379.474 867.57 244.188 788.562 224.211 757.909C204.233 727.255 121.972 636.673 176.056 503.863C219.324 397.614 170.047 335.26 140 317.363C173.052 326.782 237.803 367.096 232.394 452.999C251.174 428.509 286.479 367.096 277.465 317.363C268.451 267.63 273.709 225.055 277.465 209.985C293.365 233.615 319.792 288.97 324.387 353.176C327.873 319.467 336.291 283.234 354.085 266.5C390.141 232.591 358.592 147.818 333.803 128.038C309.014 108.258 460 108.258 432.958 339.969L455.493 286.28L475.775 339.969C472.019 309.828 478.028 243.328 532.113 218.462C586.197 193.595 580.188 115.793 570.423 80C595.962 98.8383 641.183 154.6 617.746 226.939C588.451 317.363 577.183 306.06 597.465 356.923C604.225 343.737 642.632 265.301 642.632 249.477C647.89 259.838 657.505 286.212 653.899 308.818C665.918 301.283 689.956 276.604 689.956 238.174C710.988 254.187 721.859 351.272 696.62 419.09L729.474 390.832C726.469 403.077 714.197 456.955 721.408 461.476C730.423 467.128 755.211 368.227 802.535 317.363C800.282 328.666 799.38 359.184 813.803 390.832C819.061 366.343 831.831 317.363 840.845 317.363C852.113 317.363 835.145 376.704 868.947 419.09C895.99 452.999 868.639 476.547 865.634 484.082L910.704 447.347C909.202 480.315 898.085 549.074 865.634 560.377C876.901 566.029 906.197 571.115 933.239 546.249C935.493 578.274 927.38 645.715 876.901 659.279C890.423 664.93 921.972 672.842 940 659.279C932.488 695.071 908.421 757.909 776.842 824.37C685.48 870.518 587.361 867.57 508.421 867.57H445.263Z" fill="#FF961C" stroke="#E8810A" stroke-width="4" stroke-linecap="round" stroke-linejoin="round"/>
<path d="M467.527 839.049C429.189 839.049 350.353 793.247 338.712 775.477C327.07 757.707 279.134 705.195 310.651 628.204C335.864 566.611 307.149 530.463 289.639 520.088C308.9 525.549 346.632 548.919 343.481 598.718C354.424 584.521 374.998 548.919 369.745 520.088C364.492 491.258 367.556 466.577 369.745 457.84C379.011 471.539 394.41 503.629 397.088 540.85C399.119 521.308 404.025 500.303 414.394 490.602C435.405 470.945 417.02 421.802 402.575 410.335C388.13 398.868 476.114 398.868 460.356 533.193L473.488 502.069L485.307 533.193C483.118 515.72 486.62 477.17 518.137 462.754C549.654 448.339 546.152 403.236 540.461 382.487C555.344 393.407 581.696 425.733 568.038 467.669C550.967 520.088 544.401 513.536 556.22 543.022C560.159 535.377 582.54 489.908 582.54 480.734C585.604 486.741 591.207 502.03 589.106 515.135C596.11 510.766 610.117 496.46 610.117 474.182C622.374 483.464 628.708 539.746 614.001 579.061L633.146 562.679C631.395 569.778 624.243 601.011 628.446 603.632C633.699 606.908 648.144 549.575 675.721 520.088C674.408 526.641 673.883 544.332 682.287 562.679C685.351 548.482 692.793 520.088 698.046 520.088C704.612 520.088 694.724 554.489 714.422 579.061C730.18 598.718 714.242 612.369 712.491 616.737L738.755 595.442C737.879 614.553 731.401 654.414 712.491 660.966C719.057 664.242 736.128 667.191 751.887 652.776C753.2 671.341 748.473 710.437 719.057 718.3C726.936 721.577 745.321 726.163 755.826 718.3C751.449 739.05 737.424 775.477 660.749 814.006C607.509 840.758 550.332 839.049 504.331 839.049H467.527Z" fill="#FD792F" stroke="#FD792F" stroke-width="4" stroke-linecap="round" stroke-linejoin="round"/>
<path d="M553.484 856.69C570.098 881.77 551.35 975.009 554.359 981.453C557.368 987.896 582.8 987.725 582.8 987.725" stroke="#8F1F1F" stroke-width="4" stroke-linecap="round"/>
<path d="M485.217 851.618C449.296 900.026 461.636 964.652 461.017 974.014C460.398 983.377 430.196 988.508 430.196 988.508" stroke="#8F1F1F" stroke-width="4" stroke-linecap="round"/>
<path d="M462.383 755.705C436.052 751.598 326.84 765.258 290.202 652.727" stroke="#8F1F1F" stroke-width="4" stroke-linecap="round"/>
<path d="M614.71 758.322C641.041 754.215 735.633 767.874 758.645 673.663" stroke="#8F1F1F" stroke-width="4" stroke-linecap="round"/>
<path d="M726.1 517.321C733.909 574.223 715.673 663.728 672.13 743.959C628.601 824.163 560.03 894.654 467.539 914.138C444.418 919.009 426.57 918.63 412.914 914.222C399.319 909.833 389.729 901.406 383.143 889.835C376.526 878.209 372.916 863.355 371.471 846.155C370.027 828.969 370.756 809.568 372.721 788.938C375.289 761.972 379.946 733.097 384.565 704.446C387.026 689.186 389.476 673.99 391.595 659.181C397.664 616.767 401.029 577.449 393.684 549.789C379.442 496.159 398.027 443.915 431.458 404.986C464.92 366.023 513.011 340.687 557.287 340.687C601.769 340.687 639.999 356.365 669.08 386.186C698.188 416.034 718.259 460.187 726.1 517.321Z" fill="#D84143" stroke="#C42A2C" stroke-width="4"/>
<path d="M597.749 663.445C594.351 656.592 584.081 646.523 570.191 661.068" stroke="#742919" stroke-width="3" stroke-linecap="round"/>
<path d="M487.663 655.78C483.735 649.217 472.704 639.989 460.004 655.584" stroke="#742919" stroke-width="3" stroke-linecap="round"/>
<path d="M510.538 708.167C510.405 711.028 510.836 713.887 511.808 716.581C512.779 719.276 514.271 721.752 516.199 723.87C518.127 725.987 520.453 727.704 523.044 728.922C525.635 730.14 528.441 730.835 531.301 730.969C534.16 731.102 537.018 730.671 539.711 729.699C542.404 728.728 544.879 727.235 546.996 725.306C549.112 723.378 550.828 721.051 552.045 718.459C553.263 715.866 553.958 713.06 554.091 710.199L532.314 709.183L510.538 708.167Z" fill="#210203"/>
<mask id="path-11-inside-1_686_5041" fill="white">
<path fill-rule="evenodd" clip-rule="evenodd" d="M637.726 237.797C621.017 220.999 608.407 208.322 591.157 214.792C583.848 217.533 576.955 233.438 568.151 253.753C558.093 276.963 545.541 305.929 527.023 327.593C494.044 335.04 462.924 351.326 462.924 375.063C462.924 392.378 508.191 409.692 557.23 411.616C606.27 413.54 672.284 407.768 672.284 386.606C672.284 372.099 644.806 348.55 614.156 334.555C614.237 319.064 623.12 301.036 631.183 284.672C640.551 265.66 648.813 248.894 640.88 240.962C639.811 239.893 638.761 238.837 637.726 237.797Z"/>
</mask>
<path fill-rule="evenodd" clip-rule="evenodd" d="M637.726 237.797C621.017 220.999 608.407 208.322 591.157 214.792C583.848 217.533 576.955 233.438 568.151 253.753C558.093 276.963 545.541 305.929 527.023 327.593C494.044 335.04 462.924 351.326 462.924 375.063C462.924 392.378 508.191 409.692 557.23 411.616C606.27 413.54 672.284 407.768 672.284 386.606C672.284 372.099 644.806 348.55 614.156 334.555C614.237 319.064 623.12 301.036 631.183 284.672C640.551 265.66 648.813 248.894 640.88 240.962C639.811 239.893 638.761 238.837 637.726 237.797Z" fill="#5AA835"/>
<path d="M591.157 214.792L589.752 211.046V211.046L591.157 214.792ZM637.726 237.797L640.562 234.976L640.562 234.976L637.726 237.797ZM568.151 253.753L571.821 255.343L568.151 253.753ZM527.023 327.593L527.904 331.495L529.2 331.202L530.063 330.192L527.023 327.593ZM462.924 375.063L466.924 375.063V375.063H462.924ZM557.23 411.616L557.387 407.619L557.23 411.616ZM614.156 334.555L610.156 334.534L610.142 337.119L612.494 338.193L614.156 334.555ZM631.183 284.672L627.595 282.904V282.904L631.183 284.672ZM640.88 240.962L643.708 238.133L643.708 238.133L640.88 240.962ZM592.561 218.537C599.794 215.825 605.978 217.015 612.579 220.994C619.462 225.144 626.417 232.099 634.89 240.618L640.562 234.976C632.326 226.696 624.621 218.914 616.71 214.143C608.516 209.203 599.771 207.289 589.752 211.046L592.561 218.537ZM571.821 255.343C576.249 245.126 580.095 236.261 583.727 229.596C585.539 226.271 587.221 223.64 588.801 221.726C590.417 219.768 591.679 218.868 592.561 218.537L589.752 211.046C586.981 212.086 584.639 214.201 582.632 216.632C580.589 219.106 578.627 222.235 576.702 225.768C572.859 232.82 568.857 242.065 564.481 252.162L571.821 255.343ZM530.063 330.192C549.04 307.99 561.812 278.442 571.821 255.343L564.481 252.162C554.375 275.484 542.041 303.867 523.982 324.994L530.063 330.192ZM466.924 375.063C466.924 365.139 473.412 356.19 484.832 348.543C496.185 340.941 511.696 335.155 527.904 331.495L526.142 323.691C509.371 327.478 492.833 333.558 480.381 341.896C467.996 350.188 458.924 361.25 458.924 375.063H466.924ZM557.387 407.619C533.241 406.672 510.106 401.932 493.128 395.379C484.62 392.096 477.854 388.432 473.292 384.709C468.623 380.899 466.924 377.594 466.924 375.063L458.924 375.063C458.924 381.19 462.884 386.541 468.235 390.908C473.693 395.361 481.308 399.393 490.247 402.843C508.162 409.757 532.181 414.636 557.074 415.613L557.387 407.619ZM668.284 386.606C668.284 389.495 666.05 392.808 659.41 396.137C652.979 399.361 643.651 401.925 632.477 403.825C610.206 407.611 581.739 408.574 557.387 407.619L557.074 415.613C581.761 416.582 610.821 415.621 633.817 411.712C645.277 409.764 655.516 407.038 662.996 403.288C670.266 399.643 676.284 394.298 676.284 386.606H668.284ZM612.494 338.193C627.496 345.044 641.688 354.222 652.066 363.387C657.258 367.972 661.398 372.469 664.21 376.579C667.076 380.769 668.284 384.154 668.284 386.606H676.284C676.284 381.805 674.057 376.806 670.813 372.063C667.515 367.24 662.87 362.255 657.361 357.39C646.337 347.655 631.465 338.061 615.817 330.916L612.494 338.193ZM627.595 282.904C623.58 291.053 619.256 299.821 615.939 308.515C612.63 317.189 610.2 326.09 610.156 334.534L618.156 334.576C618.193 327.529 620.245 319.67 623.414 311.367C626.574 303.083 630.724 294.655 634.771 286.44L627.595 282.904ZM638.051 243.79C640.304 246.042 640.883 250.119 638.685 257.524C636.558 264.686 632.332 273.29 627.595 282.904L634.771 286.44C639.402 277.042 643.991 267.758 646.354 259.801C648.645 252.086 649.389 243.814 643.708 238.133L638.051 243.79ZM634.89 240.618C635.924 241.657 636.979 242.717 638.051 243.79L643.708 238.133C642.644 237.069 641.597 236.017 640.562 234.976L634.89 240.618Z" fill="#4F972D" mask="url(#path-11-inside-1_686_5041)"/>
<path d="M481.362 438.583C467.608 449.293 451.448 466.044 447.916 502.356" stroke="#FF9697" stroke-width="4" stroke-linecap="round" stroke-linejoin="round"/>
</svg>
