<svg width="1080" height="1080" viewBox="0 0 1080 1080" fill="none" xmlns="http://www.w3.org/2000/svg">
<g clip-path="url(#clip0_705_5791)">
<rect width="1080" height="1080" fill="#00B894"/>
<path d="M515.19 874.487C497.342 895.902 505.148 983.688 501.722 989.318C498.297 994.948 474.889 992.209 474.889 992.209" stroke="#7D7070" stroke-width="4" stroke-linecap="round"/>
<path d="M621.654 886C604.01 907.929 617.248 1002.43 613.948 1008.26C610.648 1014.1 585.758 1009.84 585.758 1009.84" stroke="#7D7070" stroke-width="4" stroke-linecap="round"/>
<path d="M267.004 250.612H793.915L859.32 636.372C880.058 719.933 828.737 780.965 746.809 823.65C670.772 863.265 616.333 870.938 530.459 870.938C444.586 870.938 390.697 862.19 314.11 823.65C258.984 795.908 180.464 740.959 201.599 636.372L267.004 250.612Z" fill="#BBE9FD"/>
<path fill-rule="evenodd" clip-rule="evenodd" d="M236.851 245.5C239.345 230.792 252.087 220.029 267.004 220.029H793.915C808.832 220.029 821.574 230.792 824.068 245.5L889.288 630.17C901.321 679.919 892.002 724.427 867.091 762.183C842.687 799.17 804.434 828.112 760.94 850.773C679.175 893.373 619.442 901.521 530.459 901.521C441.085 901.521 382.222 892.163 300.363 850.969C271.284 836.336 233.206 813.225 205.242 777.767C176.417 741.217 159.2 692.488 171.524 630.803L236.851 245.5ZM201.599 636.372C180.464 740.96 258.983 795.909 314.11 823.65C390.697 862.191 444.586 870.938 530.459 870.938C616.333 870.938 670.772 863.266 746.809 823.65C828.736 780.965 880.058 719.934 859.32 636.372L793.915 250.613H267.004L201.599 636.372Z" fill="#BBE9FD"/>
<path d="M529.59 886.143C621.136 886.143 679.171 877.969 760.231 835.764C847.57 790.29 902.282 725.27 880.174 636.248L856.419 496.231L205 493L179.006 636.248C156.474 747.67 240.181 806.21 298.949 835.764C380.595 876.824 438.043 886.143 529.59 886.143Z" fill="#99130C"/>
<path d="M823.434 244.622C823.434 281.432 692.507 311.273 531 311.273C369.493 311.273 238.566 281.432 238.566 244.622C238.566 207.811 369.493 177.97 531 177.97C692.507 177.97 823.434 207.811 823.434 244.622Z" fill="#D7F3FF"/>
<path d="M855.093 497.064C855.093 538.016 709.619 571.214 530.167 571.214C350.715 571.214 205.241 538.016 205.241 497.064C205.241 456.113 350.715 422.915 530.167 422.915C709.619 422.915 855.093 456.113 855.093 497.064Z" fill="#C12F28"/>
<path d="M604.113 517.081C604.113 539.496 525.167 557.666 427.781 557.666C330.396 557.666 251.449 539.496 251.449 517.081C251.449 494.666 330.396 476.495 427.781 476.495C525.167 476.495 604.113 494.666 604.113 517.081Z" fill="#A91A13"/>
<circle cx="430.98" cy="676.562" r="40.2171" transform="rotate(-5.20761 430.98 676.562)" fill="#470B07"/>
<circle cx="602.751" cy="664.702" r="40.2171" transform="rotate(-5.20761 602.751 664.702)" fill="#470B07"/>
<path d="M480.088 736.825C480.597 742.404 482.199 747.829 484.804 752.789C487.409 757.749 490.966 762.147 495.27 765.733C499.575 769.318 504.544 772.021 509.893 773.686C515.243 775.352 520.867 775.947 526.447 775.439C532.026 774.93 537.451 773.328 542.411 770.723C547.371 768.118 551.769 764.561 555.355 760.257C558.941 755.952 561.643 750.983 563.309 745.634C564.974 740.284 565.569 734.66 565.061 729.08L522.575 732.952L480.088 736.825Z" fill="#470B07"/>
<ellipse cx="370.943" cy="767.258" rx="40.9951" ry="20.4976" transform="rotate(-3.94952 370.943 767.258)" fill="#D0685C"/>
<ellipse cx="681.611" cy="734.462" rx="40.9951" ry="20.4976" transform="rotate(-3.94952 681.611 734.462)" fill="#D0685C"/>
<path d="M281.183 785.672C271.88 866.254 354.868 866.254 390.979 857.642C413.68 856.883 429.72 862.035 439.42 866.254" stroke="#7D7070" stroke-width="4" stroke-linecap="round"/>
<path d="M419.664 834.852C412.89 845.445 411.99 846.018 408.739 851.103" stroke="#7D7070" stroke-width="4" stroke-linecap="round" stroke-linejoin="round"/>
<path d="M788.492 716C815.367 749.795 831.511 804.157 840.981 873.065" stroke="#7D7070" stroke-width="4" stroke-linecap="round"/>
</g>
<defs>
<clipPath id="clip0_705_5791">
<rect width="1080" height="1080" fill="white"/>
</clipPath>
</defs>
</svg>
