<svg width="1080" height="1080" viewBox="0 0 1080 1080" fill="none" xmlns="http://www.w3.org/2000/svg">
<rect width="1080" height="1080" fill="#A2D0FE"/>
<path d="M729.05 652.783C760.839 643.606 801.086 612.79 818.673 548.865" stroke="#3A1409" stroke-width="4" stroke-linecap="round"/>
<path d="M445.131 811.784L445.211 811.86L445.282 811.943C475.032 847.011 509.805 870.356 542.422 882.989C575.033 895.62 605.273 897.468 626.163 889.906C717.783 842.676 752.072 805.171 760.991 760.15C765.476 737.512 763.593 712.778 759.026 683.593C757.024 670.801 754.515 657.199 751.817 642.569C751.439 640.519 751.057 638.45 750.673 636.36C747.545 619.359 744.234 601.008 741.224 581.049C727.035 486.966 717.003 433.71 706.953 394.173C698.109 359.378 689.25 335.194 677.48 303.065C675.882 298.704 674.231 294.196 672.518 289.496C657.784 249.047 626.67 200.91 577.289 180.513C565.446 175.622 554.439 168.809 543.671 161.623C540.611 159.581 537.576 157.513 534.547 155.449C526.864 150.214 519.215 145.002 511.276 140.294C489.249 127.23 465.44 118.331 434.519 124.807C368.565 138.619 291.052 168.355 235.51 209.415C179.898 250.527 146.974 302.412 168.23 360.764C194.44 432.717 238.381 479.601 276.896 517.625C280.366 521.051 283.796 524.408 287.167 527.708C302.467 542.685 316.56 556.48 327.712 570.107C341.342 586.761 350.791 603.403 352.74 622.016C356.331 656.303 374.129 744.594 445.131 811.784Z" fill="#682A17" stroke="#5A2414" stroke-width="4"/>
<path d="M523.392 750.155L523.471 750.23L523.542 750.314C553.293 785.381 588.066 808.726 620.682 821.359C653.355 834.014 683.647 835.845 704.542 828.234C740.959 814.968 762.382 779.712 771.645 727.355C780.903 675.02 777.899 606.102 765.891 526.48C751.67 432.188 755.03 376.924 758.362 335.421C758.544 333.149 758.726 330.92 758.905 328.729C761.992 290.939 764.147 264.564 750.779 227.867C736.045 187.418 704.931 139.28 655.549 118.884C609.454 99.8446 544.072 99.503 481.076 112.696C415.236 126.485 354.417 157.679 314.544 197.488C274.67 237.295 255.981 285.411 273.451 333.372C299.666 405.339 336.883 443.665 368.592 473.071C371.662 475.918 374.688 478.689 377.653 481.403C389.97 492.677 401.229 502.983 410.18 513.821C421.35 527.345 429.059 541.84 431.001 560.387C434.592 594.674 452.389 682.964 523.392 750.155Z" fill="#71301C" stroke="#5A2414" stroke-width="4"/>
<path d="M401.492 383.197C416.501 332.846 454.528 223.778 486.567 190.323" stroke="#5A2414" stroke-width="4" stroke-linecap="round"/>
<path d="M468.262 483.954C491.997 420.063 550.282 279.89 593.538 230.329" stroke="#5A2414" stroke-width="4" stroke-linecap="round"/>
<path d="M558.505 552.454C582.24 488.563 640.525 348.391 683.781 298.829" stroke="#5A2414" stroke-width="4" stroke-linecap="round"/>
<path d="M431.652 205.356C495.125 259.293 631.705 384.756 670.237 455.106" stroke="#5A2414" stroke-width="4" stroke-linecap="round"/>
<path d="M369.439 291.271C432.913 345.208 569.492 470.67 608.025 541.02" stroke="#5A2414" stroke-width="4" stroke-linecap="round"/>
<path d="M652.661 846.531C670.934 874.116 650.314 976.668 653.624 983.755C656.933 990.842 684.905 990.654 684.905 990.654" stroke="#3A1409" stroke-width="4" stroke-linecap="round"/>
<path d="M577.576 840.953C538.067 894.195 551.639 965.275 550.959 975.573C550.278 985.871 517.06 991.515 517.06 991.515" stroke="#3A1409" stroke-width="4" stroke-linecap="round"/>
<circle r="28.8461" transform="matrix(-0.992034 0.125974 0.125974 0.992034 692.582 613.824)" fill="#3A1409"/>
<circle r="28.8461" transform="matrix(-0.992034 0.125974 0.125974 0.992034 549.027 632.053)" fill="#3A1409"/>
<path d="M656.996 644.246C657.503 648.232 657.219 652.279 656.161 656.156C655.103 660.033 653.292 663.663 650.831 666.84C648.37 670.017 645.308 672.678 641.818 674.671C638.329 676.664 634.481 677.951 630.495 678.457C626.509 678.963 622.461 678.679 618.585 677.621C614.708 676.563 611.078 674.752 607.901 672.291C604.724 669.83 602.063 666.768 600.07 663.279C598.077 659.789 596.79 655.942 596.284 651.955L626.64 648.101L656.996 644.246Z" fill="#3A1409"/>
<path d="M420.09 730.329C388.301 739.507 348.054 770.322 330.467 834.247" stroke="#3A1409" stroke-width="4" stroke-linecap="round"/>
<ellipse opacity="0.3" cx="598.568" cy="1003.21" rx="111.779" ry="18.0288" fill="#3A1409"/>
</svg>
