<svg width="1080" height="1080" viewBox="0 0 1080 1080" fill="none" xmlns="http://www.w3.org/2000/svg">
<rect width="1080" height="1080" fill="#B2E6B1"/>
<path opacity="0.2" d="M778.506 848.476C778.641 872.547 654.312 854.105 610.087 879.365C565.863 904.626 403.147 897.574 402.996 870.805C402.846 844.035 485.786 865.847 598.095 850.573C704.452 828.881 778.33 817.258 778.506 848.476Z" fill="#805125"/>
<path d="M628.755 665.677C660.496 676.688 709.641 775.272 716.719 779.003C723.797 782.734 745.428 764.369 745.428 764.369" stroke="#805125" stroke-width="4" stroke-linecap="round"/>
<path d="M504.886 691.478C482.319 711.457 485.503 854.5 481.068 860.709C476.632 866.918 444.693 860.489 444.693 860.489" stroke="#805125" stroke-width="4" stroke-linecap="round"/>
<path d="M869.165 500.933C886.722 501.862 1009.59 457.434 1029.1 426.043" stroke="#805125" stroke-width="4" stroke-linecap="round"/>
<path d="M473.818 733.356C407.824 756.652 339.527 758.817 284.987 747.895C257.716 742.433 233.952 733.713 215.659 722.784C197.338 711.839 184.683 698.789 179.3 684.742C123.078 538.033 156.249 426.478 222.544 350.37C288.951 274.134 388.693 233.365 465.594 228.69C586.793 221.321 693.398 251.272 769.88 304.534C846.348 357.787 892.673 434.298 893.612 520.238C894.079 562.933 876.601 594.59 847.961 618.89C819.245 643.254 779.296 660.224 734.926 673.303C692.282 685.874 645.742 694.801 601.448 703.298C599.674 703.638 597.903 703.978 596.136 704.317C550.332 713.111 507.153 721.588 473.818 733.356Z" fill="#EAB947" stroke="#EAB740" stroke-width="4"/>
<path opacity="0.5" d="M361.891 414.87C361.362 423.017 350.287 422.748 336.683 421.549C323.079 420.35 312.096 418.674 312.625 410.527C313.154 402.38 324.612 396.747 338.216 397.947C351.821 399.146 362.42 406.723 361.891 414.87Z" fill="#ECB368"/>
<path opacity="0.5" d="M496.396 444.124C497.611 452.207 486.803 454.681 473.342 456.871C459.881 459.061 448.864 460.138 447.648 452.055C446.433 443.972 456.36 435.644 469.821 433.454C483.283 431.263 495.18 436.041 496.396 444.124Z" fill="#ECB368"/>
<path opacity="0.5" d="M806.767 469.609C807.294 477.77 796.31 479.165 782.706 480.016C769.101 480.867 758.026 480.852 757.5 472.692C756.973 464.531 767.575 457.226 781.18 456.375C794.785 455.523 806.24 461.449 806.767 469.609Z" fill="#ECB368"/>
<path opacity="0.5" d="M240.175 554.152C240.982 562.289 252.044 561.861 265.605 560.466C279.165 559.07 290.088 557.236 289.281 549.099C288.475 540.961 276.828 535.496 263.268 536.891C249.707 538.287 239.369 546.015 240.175 554.152Z" fill="#ECB368"/>
<path opacity="0.5" d="M515.176 332.175C515.983 340.313 527.045 339.885 540.605 338.489C554.166 337.094 565.089 335.259 564.282 327.122C563.475 318.985 551.829 313.519 538.268 314.915C524.708 316.31 514.369 324.038 515.176 332.175Z" fill="#ECB368"/>
<ellipse opacity="0.5" rx="24.7988" ry="14.7462" transform="matrix(0.988464 -0.117243 0.112331 0.9977 685.138 507.983)" fill="#ECB368"/>
<ellipse opacity="0.5" rx="19.4419" ry="11.5608" transform="matrix(0.988464 -0.117243 0.112331 0.9977 625.266 443.792)" fill="#ECB368"/>
<ellipse opacity="0.5" rx="13.7381" ry="8.86951" transform="matrix(0.996137 0.0878153 -0.064829 0.997896 796.364 585.187)" fill="#ECB368"/>
<ellipse opacity="0.5" rx="13.7599" ry="8.85736" transform="matrix(0.994391 -0.065173 0.0671437 1.00076 388.496 507.69)" fill="#ECB368"/>
<ellipse opacity="0.5" rx="13.7861" ry="8.84268" transform="matrix(0.985062 -0.139694 0.131898 0.995728 712.097 378.913)" fill="#ECB368"/>
<ellipse opacity="0.5" rx="13.7861" ry="8.84268" transform="matrix(0.985062 -0.139694 0.131898 0.995728 572.146 397.671)" fill="#ECB368"/>
<path opacity="0.5" d="M362.603 640.608C363.385 646.613 357.215 645.946 348.182 647.202C339.15 648.459 330.675 651.163 329.894 645.158C329.112 639.153 335.801 633.267 344.834 632.011C353.866 630.755 361.822 634.604 362.603 640.608Z" fill="#ECB368"/>
<path d="M481.016 361.789C479.569 339.247 470.894 311.998 458.621 290.658C452.488 279.993 445.512 270.902 438.184 264.624C430.844 258.335 423.338 255.019 416.067 255.471C400.925 256.412 387.574 266.065 378.301 281.328C369.032 296.583 363.958 317.285 365.403 339.809C365.672 343.991 365.925 348.412 366.187 352.99C367.365 373.58 368.727 397.376 372.501 417.201C374.809 429.326 377.983 439.741 382.433 446.957C386.844 454.11 392.301 457.836 399.296 457.401C406.847 456.932 415.935 453.598 425.352 448.004C434.74 442.428 444.321 434.687 452.838 425.58C469.935 407.301 482.434 383.882 481.016 361.789Z" fill="#E97736" stroke="#E4702F" stroke-width="4"/>
<path d="M693.188 316.824C691.755 294.49 679.262 267.596 660.849 246.65C642.417 225.684 618.453 211.114 594.312 212.615C545.195 215.667 508.023 254.491 510.878 298.988C511.148 303.188 511.384 307.622 511.629 312.211C512.727 332.804 513.992 356.511 519.157 376.171C522.309 388.171 526.859 398.413 533.518 405.446C540.097 412.394 548.839 416.328 560.767 415.587C585.313 414.062 619.273 400.473 646.77 381.49C660.495 372.015 672.503 361.267 680.879 350.129C689.269 338.971 693.88 327.605 693.188 316.824Z" fill="#FFDC25" stroke="#FBD820" stroke-width="4"/>
<path d="M577.649 330.641C576.202 308.1 567.527 280.851 555.254 259.511C549.121 248.846 542.145 239.755 534.817 233.477C527.477 227.187 519.971 223.872 512.699 224.324C497.557 225.265 484.207 234.918 474.933 250.18C465.664 265.436 460.591 286.137 462.036 308.661C462.304 312.844 462.557 317.264 462.819 321.843C463.998 342.432 465.36 366.229 469.134 386.053C471.442 398.179 474.616 408.594 479.065 415.809C483.477 422.962 488.933 426.688 495.928 426.254C503.48 425.784 512.568 422.45 521.985 416.857C531.373 411.281 540.953 403.539 549.471 394.433C566.568 376.154 579.067 352.734 577.649 330.641Z" fill="#689F4E" stroke="#509131" stroke-width="4"/>
<path d="M328.289 450.684C326.842 428.142 318.167 400.894 305.894 379.553C299.761 368.888 292.785 359.798 285.457 353.519C278.117 347.23 270.611 343.914 263.339 344.366C248.197 345.307 234.847 354.961 225.573 370.223C216.304 385.478 211.23 406.18 212.676 428.704C212.944 432.886 213.197 437.307 213.459 441.885C214.638 462.475 216 486.271 219.773 506.096C222.081 518.221 225.255 528.636 229.705 535.852C234.117 543.005 239.573 546.731 246.568 546.296C254.119 545.827 263.207 542.493 272.624 536.9C282.013 531.323 291.593 523.582 300.111 514.475C317.208 496.196 329.706 472.777 328.289 450.684Z" fill="#689F4E" stroke="#509131" stroke-width="4"/>
<path d="M293.248 621.118C312.409 613.163 332.194 592.535 344.899 567.483C357.596 542.45 362.99 513.468 354.007 488.916C335.739 438.984 289.646 412.383 251.544 428.202C247.909 429.711 244.061 431.253 240.08 432.848C222.238 439.997 201.75 448.207 186.05 459.236C176.48 465.959 168.899 473.596 164.795 482.47C160.729 491.263 159.975 501.485 164.43 513.662C173.534 538.545 196.27 569.534 221.701 592.266C234.403 603.619 247.683 612.827 260.156 618.182C272.671 623.554 284.077 624.926 293.248 621.118Z" fill="#FFDC25" stroke="#FBD820" stroke-width="4"/>
<path d="M817.659 444.213C835.487 432.75 853.823 412.253 865.622 390.941C871.516 380.295 875.725 369.54 877.456 359.699C879.188 349.854 878.414 341.09 874.565 334.208C858.675 305.8 817.138 300.303 781.365 323.305C778.042 325.442 774.517 327.67 770.866 329.977C754.464 340.344 735.534 352.308 721 364.802C712.112 372.441 705.058 380.126 701.225 387.588C697.445 394.948 696.862 401.923 700.596 408.599C708.587 422.885 728.954 437.578 752.063 445.777C775.181 453.979 800.254 455.405 817.659 444.213Z" fill="#E97736" stroke="#E4702F" stroke-width="4"/>
<path d="M755.428 389.622C748.561 407.722 748.815 434.055 755.927 458.222C763.043 482.405 776.851 503.858 796.558 512.767C836.74 530.932 880.148 515.909 893.814 479.888C895.115 476.461 896.525 472.866 897.983 469.147C904.521 452.475 912.033 433.321 914.992 415.715C916.797 404.973 916.854 395.06 914.104 386.796C911.39 378.64 905.888 371.917 896.156 367.517C876.091 358.446 844.184 354.915 815.476 358.334C801.146 360.041 787.739 363.467 777.087 368.713C766.412 373.97 758.719 380.945 755.428 389.622Z" fill="#FFDC25" stroke="#FBD820" stroke-width="4"/>
<mask id="path-25-inside-1_686_5339" fill="white">
<path fill-rule="evenodd" clip-rule="evenodd" d="M394.577 325.79C385.657 312.3 367.883 303.839 348.141 305.348C320.958 307.426 300.336 327.619 302.082 350.449L302.082 350.449L302.081 350.449C274.898 352.527 254.277 372.72 256.022 395.55C257.768 418.381 281.219 435.204 308.402 433.126C324.361 431.906 338.058 424.443 346.295 413.868C359.056 422.949 376.762 427.9 395.903 426.437C432.147 423.666 459.811 398.947 457.691 371.224C455.697 345.134 428.037 325.683 394.577 325.79Z"/>
</mask>
<path fill-rule="evenodd" clip-rule="evenodd" d="M394.577 325.79C385.657 312.3 367.883 303.839 348.141 305.348C320.958 307.426 300.336 327.619 302.082 350.449L302.082 350.449L302.081 350.449C274.898 352.527 254.277 372.72 256.022 395.55C257.768 418.381 281.219 435.204 308.402 433.126C324.361 431.906 338.058 424.443 346.295 413.868C359.056 422.949 376.762 427.9 395.903 426.437C432.147 423.666 459.811 398.947 457.691 371.224C455.697 345.134 428.037 325.683 394.577 325.79Z" fill="#B67E49"/>
<path d="M394.577 325.79L391.24 327.997L392.431 329.797L394.589 329.79L394.577 325.79ZM302.082 350.449L302.387 354.438L306.375 354.133L306.07 350.145L302.082 350.449ZM302.081 350.449L301.777 346.461L302.081 350.449ZM346.295 413.868L348.615 410.609L345.494 408.387L343.14 411.41L346.295 413.868ZM397.913 323.584C388.086 308.721 368.822 299.756 347.836 301.36L348.446 309.337C366.945 307.922 383.228 315.878 391.24 327.997L397.913 323.584ZM347.836 301.36C319.13 303.554 296.132 325.097 298.093 350.754L306.07 350.144C304.541 330.14 322.785 311.298 348.446 309.337L347.836 301.36ZM298.093 350.754L298.093 350.754L306.07 350.145L306.07 350.144L298.093 350.754ZM301.777 346.461L301.777 346.461L302.386 354.438L302.387 354.438L301.777 346.461ZM301.777 346.461C273.071 348.655 250.073 370.198 252.034 395.855L260.011 395.246C258.481 375.241 276.726 356.399 302.386 354.438L301.777 346.461ZM252.034 395.855C253.995 421.512 280.001 439.309 308.707 437.115L308.097 429.138C282.436 431.1 261.54 415.25 260.011 395.246L252.034 395.855ZM308.707 437.115C325.702 435.815 340.469 427.856 349.451 416.326L343.14 411.41C335.646 421.029 323.02 427.997 308.097 429.138L308.707 437.115ZM395.598 422.449C377.295 423.848 360.538 419.095 348.615 410.609L343.976 417.127C357.573 426.804 376.229 431.953 396.208 430.426L395.598 422.449ZM453.703 371.529C454.648 383.887 448.985 395.852 438.518 405.205C428.047 414.561 412.922 421.124 395.598 422.449L396.208 430.426C415.128 428.979 431.956 421.797 443.849 411.17C455.745 400.54 462.854 386.283 461.68 370.919L453.703 371.529ZM394.589 329.79C426.923 329.687 451.933 348.374 453.703 371.529L461.68 370.919C459.461 341.895 429.15 321.679 394.564 321.791L394.589 329.79Z" fill="#AA723D" mask="url(#path-25-inside-1_686_5339)"/>
<mask id="path-27-inside-2_686_5339" fill="white">
<path fill-rule="evenodd" clip-rule="evenodd" d="M638.488 237.503C649.303 226.001 668.081 221.223 687.297 226.658C713.755 234.142 731.025 258.153 725.87 280.288L725.87 280.288C752.328 287.772 769.597 311.782 764.443 333.917C759.288 356.053 733.661 367.93 707.203 360.447C691.669 356.053 679.303 345.964 672.782 333.901C658.848 340.293 640.666 341.628 622.035 336.358C586.757 326.38 563.234 296.502 569.493 269.624C575.384 244.329 605.552 230.705 638.488 237.503Z"/>
</mask>
<path fill-rule="evenodd" clip-rule="evenodd" d="M638.488 237.503C649.303 226.001 668.081 221.223 687.297 226.658C713.755 234.142 731.025 258.153 725.87 280.288L725.87 280.288C752.328 287.772 769.597 311.782 764.443 333.917C759.288 356.053 733.661 367.93 707.203 360.447C691.669 356.053 679.303 345.964 672.782 333.901C658.848 340.293 640.666 341.628 622.035 336.358C586.757 326.38 563.234 296.502 569.493 269.624C575.384 244.329 605.552 230.705 638.488 237.503Z" fill="#B67E49"/>
<path d="M638.488 237.503L641.392 240.368L639.953 241.899L637.86 241.467L638.488 237.503ZM725.87 280.288L729.719 281.376L725.87 280.288ZM725.87 280.288L724.963 284.184L721.114 283.095L722.021 279.199L725.87 280.288ZM672.782 333.901L671.043 330.199L674.39 328.663L676.225 332.056L672.782 333.901ZM635.585 234.638C647.51 221.955 667.818 216.997 688.204 222.763L686.389 230.554C668.344 225.45 651.097 230.047 641.392 240.368L635.585 234.638ZM688.204 222.763C716.069 230.644 735.529 256.428 729.719 281.376L722.021 279.199C726.521 259.877 711.44 237.64 686.389 230.554L688.204 222.763ZM729.719 281.376L729.719 281.377L722.021 279.199L722.021 279.199L729.719 281.376ZM726.777 276.392C754.642 284.274 774.102 310.058 768.292 335.006L760.594 332.829C765.093 313.507 750.013 291.269 724.963 284.184L726.777 276.392ZM768.292 335.006C762.482 359.954 734.161 372.224 706.295 364.343L708.11 356.551C733.161 363.636 756.094 352.151 760.594 332.829L768.292 335.006ZM706.295 364.343C689.783 359.672 676.449 348.897 669.34 335.746L676.225 332.056C682.157 343.03 693.556 352.435 708.11 356.551L706.295 364.343ZM622.942 332.462C640.78 337.508 658.016 336.175 671.043 330.199L674.522 337.604C659.681 344.412 640.551 345.748 621.128 340.254L622.942 332.462ZM573.342 270.712C570.56 282.656 574.319 295.557 583.227 306.871C592.137 318.187 606.059 327.687 622.942 332.462L621.128 340.254C602.733 335.051 587.255 324.624 577.148 311.786C567.039 298.947 562.166 283.469 565.644 268.535L573.342 270.712ZM637.86 241.467C605.966 234.884 578.554 248.33 573.342 270.712L565.644 268.535C572.213 240.328 605.138 226.526 639.117 233.539L637.86 241.467Z" fill="#AA723D" mask="url(#path-27-inside-2_686_5339)"/>
<mask id="path-29-inside-3_686_5339" fill="white">
<path fill-rule="evenodd" clip-rule="evenodd" d="M895.012 567.367C884.676 585.892 865.992 596.862 846.37 593.687C819.351 589.316 800.785 559.783 804.901 527.724L804.901 527.724C777.882 523.352 759.316 493.819 763.432 461.76C767.548 429.701 792.788 407.255 819.807 411.626C835.669 414.193 848.618 425.432 855.774 440.763C869.5 428.651 887.753 422.62 906.778 425.698C942.802 431.526 967.954 467.81 962.956 506.739C958.253 543.374 928.523 569.297 895.012 567.367Z"/>
</mask>
<path fill-rule="evenodd" clip-rule="evenodd" d="M895.012 567.367C884.676 585.892 865.992 596.862 846.37 593.687C819.351 589.316 800.785 559.783 804.901 527.724L804.901 527.724C777.882 523.352 759.316 493.819 763.432 461.76C767.548 429.701 792.788 407.255 819.807 411.626C835.669 414.193 848.618 425.432 855.774 440.763C869.5 428.651 887.753 422.62 906.778 425.698C942.802 431.526 967.954 467.81 962.956 506.739C958.253 543.374 928.523 569.297 895.012 567.367Z" fill="#B67E49"/>
<path d="M895.012 567.367L891.528 565.313L892.698 563.216L895.114 563.355L895.012 567.367ZM804.901 527.724L805.134 523.721L809.396 524.109L808.85 528.363L804.901 527.724ZM804.901 527.724L804.667 531.726L804.529 531.713L804.391 531.691L804.901 527.724ZM855.774 440.763L858.447 443.824L854.486 447.319L852.182 442.381L855.774 440.763ZM898.496 569.422C887.555 589.031 867.451 601.148 845.86 597.655L846.879 589.72C864.533 592.576 881.797 582.753 891.528 565.313L898.496 569.422ZM845.86 597.655C816.071 592.835 796.638 560.691 800.952 527.085L808.85 528.363C804.932 558.875 822.631 585.797 846.879 589.72L845.86 597.655ZM804.668 531.726L804.667 531.726L805.134 523.721L805.134 523.721L804.668 531.726ZM804.391 531.691C774.602 526.871 755.169 494.727 759.484 461.121L767.381 462.399C763.464 492.911 781.163 519.833 805.41 523.756L804.391 531.691ZM759.484 461.121C763.798 427.515 790.526 402.839 820.316 407.659L819.297 415.594C795.05 411.671 771.299 431.886 767.381 462.399L759.484 461.121ZM820.316 407.659C837.749 410.479 851.736 422.797 859.366 439.144L852.182 442.381C845.5 428.066 833.589 417.906 819.297 415.594L820.316 407.659ZM906.268 429.665C888.5 426.791 871.388 432.405 858.447 443.824L853.101 437.702C867.612 424.897 887.005 418.449 907.287 421.731L906.268 429.665ZM959.008 506.1C963.76 469.085 939.846 435.098 906.268 429.665L907.287 421.731C945.758 427.955 972.149 466.534 966.905 507.378L959.008 506.1ZM895.114 563.355C926.376 565.156 954.537 540.917 959.008 506.1L966.905 507.378C961.968 545.831 930.671 573.439 894.909 571.379L895.114 563.355Z" fill="#AA723D" mask="url(#path-29-inside-3_686_5339)"/>
<path d="M209.095 469.707C204.012 491.535 204.476 520.238 210.068 544.547C212.863 556.696 216.913 567.635 222.106 576.029C227.308 584.435 233.527 590.093 240.614 592.097C255.358 596.268 270.878 591.571 284.103 580.213C297.323 568.86 308.1 550.95 313.179 529.139C314.123 525.087 315.149 520.815 316.213 516.389C320.994 496.492 326.519 473.499 328.603 453.462C329.878 441.207 329.835 430.287 327.659 421.972C325.503 413.735 321.365 408.369 314.539 406.438C307.186 404.358 297.548 404.484 286.953 406.638C276.389 408.787 265.022 412.922 254.279 418.705C232.712 430.314 214.075 448.323 209.095 469.707Z" fill="#E97736" stroke="#E4702F" stroke-width="4"/>
<mask id="path-32-inside-4_686_5339" fill="white">
<path fill-rule="evenodd" clip-rule="evenodd" d="M247.189 545.697C258.146 529.416 275.674 520.947 292.596 525.733C315.895 532.323 329.222 561.548 322.361 591.008L322.361 591.009C345.66 597.599 358.986 626.824 352.126 656.284C345.265 685.744 320.816 704.285 297.516 697.694C283.837 693.826 273.596 682.155 268.859 667.216C255.572 677.21 238.923 681.122 222.517 676.481C191.451 667.695 173.02 631.571 181.351 595.798C189.191 562.132 217.937 540.774 247.189 545.697Z"/>
</mask>
<path fill-rule="evenodd" clip-rule="evenodd" d="M247.189 545.697C258.146 529.416 275.674 520.947 292.596 525.733C315.895 532.323 329.222 561.548 322.361 591.008L322.361 591.009C345.66 597.599 358.986 626.824 352.126 656.284C345.265 685.744 320.816 704.285 297.516 697.694C283.837 693.826 273.596 682.155 268.859 667.216C255.572 677.21 238.923 681.122 222.517 676.481C191.451 667.695 173.02 631.571 181.351 595.798C189.191 562.132 217.937 540.774 247.189 545.697Z" fill="#B67E49"/>
<path d="M247.189 545.697L250.476 548.082L249.122 550.095L246.704 549.688L247.189 545.697ZM322.361 591.008L318.512 589.919L322.361 591.008ZM322.361 591.009L321.454 594.904L317.605 593.816L318.512 589.92L322.361 591.009ZM268.859 667.216L266.433 663.923L270.864 660.589L272.616 666.112L268.859 667.216ZM243.902 543.312C255.494 526.088 274.532 516.471 293.503 521.837L291.689 529.629C276.816 525.422 260.798 532.744 250.476 548.082L243.902 543.312ZM293.503 521.837C319.683 529.242 333.373 561.339 326.21 592.097L318.512 589.919C325.07 561.757 312.107 535.404 291.689 529.629L293.503 521.837ZM326.21 592.097L326.21 592.097L318.512 589.92L318.512 589.919L326.21 592.097ZM323.268 587.113C349.448 594.518 363.138 626.614 355.975 657.373L348.277 655.195C354.835 627.033 341.872 600.68 321.454 594.904L323.268 587.113ZM355.975 657.373C348.812 688.131 322.789 708.995 296.609 701.59L298.423 693.799C318.842 699.574 341.718 683.358 348.277 655.195L355.975 657.373ZM296.609 701.59C281.296 697.259 270.165 684.288 265.102 668.319L272.616 666.112C277.027 680.023 286.379 690.392 298.423 693.799L296.609 701.59ZM223.424 672.586C238.52 676.855 253.965 673.301 266.433 663.923L271.285 670.509C257.179 681.119 239.325 685.388 221.609 680.377L223.424 672.586ZM185.2 596.887C177.257 630.996 194.935 664.528 223.424 672.586L221.609 680.377C187.966 670.861 168.784 632.147 177.502 594.709L185.2 596.887ZM246.704 549.688C219.826 545.164 192.668 564.818 185.2 596.887L177.502 594.709C185.714 559.447 216.049 536.384 247.675 541.706L246.704 549.688Z" fill="#AA723D" mask="url(#path-32-inside-4_686_5339)"/>
<path d="M329.153 700.884C342.461 683.68 353.489 657.729 358.114 633.327C360.425 621.135 361.116 609.441 359.754 599.495C358.39 589.54 355.001 581.532 349.322 576.398C337.548 565.753 321.548 562.775 305.034 566.818C288.519 570.862 271.615 581.915 258.323 599.101C255.847 602.302 253.208 605.661 250.476 609.139C238.195 624.776 224.012 642.833 214.129 659.836C208.085 670.235 203.774 680.036 202.434 688.488C201.109 696.839 202.699 703.625 208.19 708.59C214.061 713.898 222.884 718.272 233.367 721.263C243.822 724.246 255.795 725.815 267.854 725.617C292.081 725.218 316.141 717.707 329.153 700.884Z" fill="#689F4E" stroke="#509131" stroke-width="4"/>
<path d="M763.202 406.343C776.509 389.139 787.537 363.187 792.162 338.786C794.473 326.594 795.164 314.9 793.802 304.954C792.438 294.999 789.049 286.991 783.37 281.856C771.596 271.211 755.596 268.234 739.082 272.277C722.567 276.321 705.664 287.374 692.371 304.559C689.895 307.76 687.257 311.119 684.524 314.598C672.243 330.235 658.06 348.292 648.177 365.295C642.133 375.693 637.822 385.495 636.482 393.947C635.157 402.298 636.747 409.084 642.238 414.049C648.109 419.357 656.933 423.73 667.415 426.721C677.87 429.704 689.843 431.274 701.902 431.075C726.129 430.676 750.189 423.166 763.202 406.343Z" fill="#689F4E" stroke="#509131" stroke-width="4"/>
<path d="M555.695 714.111C489.418 737.507 423.475 754.89 371.376 759.14C345.314 761.267 322.872 760.093 305.632 754.846C288.435 749.613 276.623 740.407 271.31 726.543C215.088 579.834 248.258 468.279 314.553 392.171C380.961 315.935 480.703 275.166 557.604 270.491C678.79 263.123 774.136 294 839.384 348.095C904.618 402.18 939.944 479.616 940.886 565.769C941.353 608.538 925.985 636.053 900.764 654.204C875.396 672.461 839.874 681.381 799.813 686.381C771.68 689.893 741.512 691.453 711.247 693.019C698.417 693.683 685.569 694.348 672.852 695.162C630.244 697.891 589.143 702.304 555.695 714.111Z" fill="#FFD573" stroke="#FDCF61" stroke-width="4"/>
<path opacity="0.5" d="M457.112 426.725C456.583 434.872 445.508 434.604 431.904 433.405C418.299 432.205 407.317 430.529 407.846 422.382C408.375 414.235 419.833 408.603 433.437 409.802C447.042 411.002 457.641 418.578 457.112 426.725Z" fill="#ECB368"/>
<path opacity="0.5" d="M613.493 454.307C614.708 462.39 606.357 464.464 595.926 466.161C585.495 467.859 576.934 468.536 575.719 460.453C574.504 452.37 581.974 444.441 592.405 442.744C602.836 441.047 612.277 446.224 613.493 454.307Z" fill="#ECB368"/>
<path opacity="0.5" d="M900.213 545.977C900.74 554.137 889.757 555.533 876.152 556.384C862.547 557.235 851.473 557.22 850.946 549.059C850.419 540.899 861.021 533.594 874.626 532.742C888.231 531.891 899.687 537.816 900.213 545.977Z" fill="#ECB368"/>
<path opacity="0.5" d="M335.396 566.007C336.203 574.145 347.265 573.716 360.826 572.321C374.386 570.926 385.309 569.091 384.502 560.954C383.696 552.817 372.049 547.351 358.489 548.747C344.928 550.142 334.59 557.87 335.396 566.007Z" fill="#ECB368"/>
<path opacity="0.5" d="M610.398 344.031C611.204 352.168 622.267 351.74 635.827 350.344C649.387 348.949 660.31 347.115 659.504 338.977C658.697 330.84 647.05 325.375 633.49 326.77C619.93 328.165 609.591 335.893 610.398 344.031Z" fill="#ECB368"/>
<ellipse opacity="0.5" rx="18.2125" ry="10.8297" transform="matrix(0.988464 -0.117243 0.112331 0.9977 773.85 520.611)" fill="#ECB368"/>
<ellipse opacity="0.5" rx="19.4419" ry="11.5608" transform="matrix(0.988464 -0.117243 0.112331 0.9977 720.489 455.647)" fill="#ECB368"/>
<ellipse opacity="0.5" rx="19.4419" ry="11.5608" transform="matrix(0.988464 -0.117243 0.112331 0.9977 329.951 671.762)" fill="#ECB368"/>
<ellipse opacity="0.5" rx="13.7381" ry="8.86951" transform="matrix(0.996137 0.0878153 -0.064829 0.997896 831.093 600.248)" fill="#ECB368"/>
<ellipse opacity="0.5" rx="13.7599" ry="8.85736" transform="matrix(0.994391 -0.065173 0.0671437 1.00076 483.718 519.545)" fill="#ECB368"/>
<ellipse opacity="0.5" rx="13.7861" ry="8.84268" transform="matrix(0.985062 -0.139694 0.131898 0.995728 807.32 390.769)" fill="#ECB368"/>
<ellipse opacity="0.5" rx="13.7861" ry="8.84268" transform="matrix(0.985062 -0.139694 0.131898 0.995728 416.782 606.882)" fill="#ECB368"/>
<ellipse opacity="0.5" rx="13.7861" ry="8.84268" transform="matrix(0.985062 -0.139694 0.131898 0.995728 521.115 367.247)" fill="#ECB368"/>
<path opacity="0.5" d="M460.533 687.897C461.314 693.901 455.145 693.234 446.112 694.491C437.08 695.747 428.605 698.451 427.824 692.446C427.042 686.442 433.731 680.555 442.764 679.299C451.796 678.043 459.752 681.892 460.533 687.897Z" fill="#ECB368"/>
<path d="M213.938 628.242C196.726 631.83 68.5278 606.595 44.4789 578.534" stroke="#805125" stroke-width="4" stroke-linecap="round"/>
<ellipse rx="29.0237" ry="31.3011" transform="matrix(0.984785 -0.173775 0.160034 0.987111 535.554 612.398)" fill="#805125"/>
<ellipse rx="29.0237" ry="31.3011" transform="matrix(0.984785 -0.173775 0.160034 0.987111 707.467 580.978)" fill="#805125"/>
<path d="M597.943 604.779C598.64 609.084 600.116 613.207 602.284 616.915C604.452 620.623 607.272 623.842 610.581 626.389C613.889 628.935 617.623 630.76 621.569 631.758C625.515 632.756 629.595 632.908 633.576 632.205C637.558 631.503 641.363 629.959 644.775 627.663C648.186 625.367 651.137 622.363 653.459 618.822C655.781 615.282 657.429 611.275 658.308 607.029C659.187 602.784 659.28 598.383 658.582 594.079L628.262 599.429L597.943 604.779Z" fill="#805125"/>
</svg>
