<svg width="1080" height="1080" viewBox="0 0 1080 1080" fill="none" xmlns="http://www.w3.org/2000/svg">
<rect width="1080" height="1080" fill="#59ACEC"/>
<path opacity="0.2" d="M299.563 990.933C299.563 999.399 360.843 1006.26 436.435 1006.26C512.028 1006.26 573.308 1010.1 573.308 990.933C573.308 971.771 512.028 975.603 436.435 975.603C360.843 975.603 299.563 982.467 299.563 990.933Z" fill="#300808"/>
<path d="M280.837 695.152C241.795 684.89 190.041 621.39 181.519 575.486" stroke="#300808" stroke-width="4" stroke-linecap="round"/>
<path d="M380.172 797.837C359.548 813.678 369.324 910.131 369.324 974.653C373.108 979.741 334.512 975.19 334.512 975.19" stroke="#300808" stroke-width="4" stroke-linecap="round"/>
<path d="M458.398 822.541C452.801 847.938 489.944 882.781 531.457 932.175C537.628 933.635 505.153 954.984 505.153 954.984" stroke="#300808" stroke-width="4" stroke-linecap="round"/>
<mask id="path-5-inside-1_686_5976" fill="white">
<path fill-rule="evenodd" clip-rule="evenodd" d="M765.061 351.995C765.062 351.995 765.061 351.995 765.061 351.994C772.342 323.677 680.3 275.54 559.481 244.477C438.661 213.413 334.816 211.187 327.535 239.504C327.367 240.156 327.252 240.818 327.189 241.491L235.85 766.195L236.239 766.295C235.465 794.587 307.107 835.535 401.292 859.75C495.477 883.965 577.985 882.65 590.952 857.494L591.34 857.594L764.408 353.898C764.676 353.28 764.894 352.646 765.061 351.995Z"/>
</mask>
<path fill-rule="evenodd" clip-rule="evenodd" d="M765.061 351.995C765.062 351.995 765.061 351.995 765.061 351.994C772.342 323.677 680.3 275.54 559.481 244.477C438.661 213.413 334.816 211.187 327.535 239.504C327.367 240.156 327.252 240.818 327.189 241.491L235.85 766.195L236.239 766.295C235.465 794.587 307.107 835.535 401.292 859.75C495.477 883.965 577.985 882.65 590.952 857.494L591.34 857.594L764.408 353.898C764.676 353.28 764.894 352.646 765.061 351.995Z" fill="#B45050"/>
<path d="M327.189 241.491L331.13 242.177L331.157 242.022L331.172 241.865L327.189 241.491ZM235.85 766.195L231.909 765.509L231.275 769.149L234.854 770.069L235.85 766.195ZM236.239 766.295L240.238 766.405L240.325 763.216L237.235 762.421L236.239 766.295ZM590.952 857.494L591.948 853.62L588.859 852.826L587.397 855.661L590.952 857.494ZM591.34 857.594L590.344 861.468L593.922 862.388L595.123 858.893L591.34 857.594ZM764.408 353.898L760.738 352.306L760.676 352.45L760.625 352.598L764.408 353.898ZM761.187 350.998C761.132 351.213 761.102 351.407 761.084 351.568C761.076 351.649 761.07 351.723 761.067 351.79C761.063 351.856 761.062 351.916 761.062 351.968C761.061 352.02 761.062 352.066 761.063 352.104C761.064 352.142 761.065 352.175 761.067 352.2C761.068 352.224 761.069 352.244 761.07 352.256C761.07 352.262 761.071 352.267 761.071 352.27C761.071 352.272 761.071 352.273 761.071 352.274C761.071 352.274 761.071 352.274 761.071 352.275C761.071 352.275 761.071 352.275 761.071 352.275C761.071 352.275 761.071 352.275 761.071 352.275C761.071 352.275 761.071 352.275 761.071 352.275C761.071 352.275 761.071 352.273 761.071 352.27C761.071 352.267 761.07 352.262 761.07 352.256C761.069 352.244 761.068 352.224 761.067 352.2C761.065 352.175 761.064 352.142 761.063 352.104C761.062 352.066 761.061 352.02 761.062 351.968C761.062 351.916 761.063 351.856 761.067 351.79C761.07 351.724 761.076 351.649 761.084 351.568C761.102 351.407 761.132 351.214 761.187 350.999L768.935 352.991C768.991 352.776 769.021 352.583 769.039 352.422C769.047 352.341 769.053 352.266 769.056 352.2C769.06 352.134 769.061 352.074 769.061 352.022C769.062 351.97 769.061 351.924 769.06 351.886C769.059 351.847 769.058 351.815 769.056 351.79C769.055 351.765 769.054 351.745 769.053 351.733C769.053 351.727 769.052 351.722 769.052 351.719C769.052 351.718 769.052 351.717 769.052 351.716C769.052 351.715 769.052 351.715 769.052 351.715C769.052 351.715 769.052 351.715 769.052 351.715C769.052 351.715 769.052 351.715 769.052 351.715C769.052 351.715 769.052 351.715 769.052 351.715C769.052 351.714 769.052 351.717 769.052 351.719C769.052 351.722 769.053 351.727 769.053 351.733C769.054 351.745 769.055 351.765 769.056 351.79C769.058 351.815 769.059 351.847 769.06 351.885C769.061 351.924 769.062 351.969 769.061 352.021C769.061 352.073 769.06 352.133 769.056 352.199C769.053 352.266 769.047 352.34 769.039 352.421C769.021 352.582 768.991 352.776 768.936 352.99L761.187 350.998ZM558.485 248.351C618.688 263.829 671.596 283.533 708.455 302.81C726.913 312.463 741.144 321.906 750.252 330.523C754.807 334.832 757.927 338.791 759.7 342.316C761.458 345.81 761.79 348.653 761.187 350.998L768.936 352.99C770.153 348.257 769.201 343.401 766.847 338.721C764.508 334.072 760.688 329.382 755.75 324.711C745.872 315.367 730.907 305.524 712.162 295.721C674.615 276.084 621.093 256.187 560.477 240.603L558.485 248.351ZM331.409 240.5C332.012 238.155 333.674 235.825 336.899 233.612C340.153 231.379 344.796 229.415 350.864 227.838C362.999 224.683 380.02 223.275 400.845 223.722C442.43 224.613 498.282 232.872 558.485 248.351L560.477 240.603C499.86 225.018 443.379 216.632 401.016 215.724C379.868 215.27 362.011 216.674 348.851 220.095C342.273 221.805 336.664 224.071 332.373 227.015C328.054 229.979 324.878 233.774 323.661 238.508L331.409 240.5ZM331.172 241.865C331.215 241.4 331.295 240.945 331.409 240.5L323.661 238.508C323.44 239.367 323.289 240.237 323.207 241.117L331.172 241.865ZM323.249 240.805L231.909 765.509L239.79 766.881L331.13 242.177L323.249 240.805ZM234.854 770.069L235.243 770.169L237.235 762.421L236.846 762.321L234.854 770.069ZM232.241 766.186C232.002 774.922 237.295 783.802 245.609 792.236C254.043 800.792 266.213 809.53 281.181 818.029C311.147 835.045 352.951 851.451 400.296 863.624L402.288 855.876C355.448 843.833 314.339 827.658 285.131 811.073C270.512 802.772 259.03 794.455 251.306 786.62C243.461 778.662 240.09 771.814 240.238 766.405L232.241 766.186ZM400.296 863.624C447.641 875.797 492.175 881.588 526.631 881.136C543.843 880.91 558.718 879.125 570.233 875.699C581.583 872.321 590.504 867.095 594.508 859.327L587.397 855.661C584.918 860.471 578.662 864.844 567.951 868.031C557.406 871.169 543.336 872.916 526.526 873.137C492.941 873.577 449.128 867.919 402.288 855.876L400.296 863.624ZM589.956 861.368L590.344 861.468L592.336 853.72L591.948 853.62L589.956 861.368ZM595.123 858.893L768.191 355.198L760.625 352.598L587.557 856.294L595.123 858.893ZM761.187 350.999C761.073 351.443 760.924 351.878 760.738 352.306L768.077 355.49C768.428 354.682 768.715 353.849 768.935 352.991L761.187 350.999Z" fill="#8C4343" mask="url(#path-5-inside-1_686_5976)"/>
<mask id="mask0_686_5976" style="mask-type:alpha" maskUnits="userSpaceOnUse" x="235" y="219" width="531" height="659">
<path fill-rule="evenodd" clip-rule="evenodd" d="M765.061 351.995C765.062 351.995 765.061 351.995 765.061 351.994C772.342 323.677 680.3 275.54 559.481 244.477C438.661 213.413 334.816 211.187 327.535 239.504C327.367 240.156 327.252 240.818 327.189 241.491L235.85 766.195L236.239 766.295C235.465 794.587 307.107 835.535 401.292 859.75C495.477 883.965 577.985 882.65 590.952 857.494L591.34 857.594L764.408 353.898C764.676 353.28 764.894 352.646 765.061 351.995Z" fill="#9F3434"/>
</mask>
<g mask="url(#mask0_686_5976)">
<rect x="465.406" y="308.301" width="49.4108" height="592.93" transform="rotate(13.5198 465.406 308.301)" fill="#FFF3F3"/>
<rect x="561.473" y="332.449" width="49.4108" height="592.93" transform="rotate(15.3564 561.473 332.449)" fill="#FFF3F3"/>
<rect x="662.056" y="351.02" width="49.4108" height="592.93" transform="rotate(17.0324 662.056 351.02)" fill="#FFF3F3"/>
<rect width="49.4108" height="592.93" transform="matrix(-0.978849 -0.204583 -0.204583 0.978849 437.746 264.198)" fill="#FFF3F3"/>
</g>
<mask id="path-12-inside-2_686_5976" fill="white">
<path fill-rule="evenodd" clip-rule="evenodd" d="M765.061 351.995C765.062 351.995 765.061 351.995 765.061 351.994C772.342 323.677 680.3 275.54 559.481 244.477C438.661 213.413 334.816 211.187 327.535 239.504C327.367 240.156 327.252 240.818 327.189 241.491L235.85 766.195L236.239 766.295C235.465 794.587 307.107 835.535 401.292 859.75C495.477 883.965 577.985 882.65 590.952 857.494L591.34 857.594L764.408 353.898C764.676 353.28 764.894 352.646 765.061 351.995Z"/>
</mask>
<path d="M327.189 241.491L331.13 242.177L331.157 242.022L331.172 241.865L327.189 241.491ZM235.85 766.195L231.909 765.509L231.275 769.149L234.854 770.069L235.85 766.195ZM236.239 766.295L240.238 766.405L240.325 763.216L237.235 762.421L236.239 766.295ZM590.952 857.494L591.948 853.62L588.859 852.826L587.397 855.661L590.952 857.494ZM591.34 857.594L590.344 861.468L593.922 862.388L595.123 858.893L591.34 857.594ZM764.408 353.898L760.738 352.306L760.676 352.45L760.625 352.598L764.408 353.898ZM761.187 350.998C761.132 351.213 761.102 351.407 761.084 351.568C761.076 351.649 761.07 351.723 761.067 351.79C761.063 351.856 761.062 351.916 761.062 351.968C761.061 352.02 761.062 352.066 761.063 352.104C761.064 352.142 761.065 352.175 761.067 352.2C761.068 352.224 761.069 352.244 761.07 352.256C761.07 352.262 761.071 352.267 761.071 352.27C761.071 352.272 761.071 352.273 761.071 352.274C761.071 352.274 761.071 352.274 761.071 352.275C761.071 352.275 761.071 352.275 761.071 352.275C761.071 352.275 761.071 352.275 761.071 352.275C761.071 352.275 761.071 352.275 761.071 352.275C761.071 352.275 761.071 352.273 761.071 352.27C761.071 352.267 761.07 352.262 761.07 352.256C761.069 352.244 761.068 352.224 761.067 352.2C761.065 352.175 761.064 352.142 761.063 352.104C761.062 352.066 761.061 352.02 761.062 351.968C761.062 351.916 761.063 351.856 761.067 351.79C761.07 351.724 761.076 351.649 761.084 351.568C761.102 351.407 761.132 351.214 761.187 350.999L768.935 352.991C768.991 352.776 769.021 352.583 769.039 352.422C769.047 352.341 769.053 352.266 769.056 352.2C769.06 352.134 769.061 352.074 769.061 352.022C769.062 351.97 769.061 351.924 769.06 351.886C769.059 351.847 769.058 351.815 769.056 351.79C769.055 351.765 769.054 351.745 769.053 351.733C769.053 351.727 769.052 351.722 769.052 351.719C769.052 351.718 769.052 351.717 769.052 351.716C769.052 351.715 769.052 351.715 769.052 351.715C769.052 351.715 769.052 351.715 769.052 351.715C769.052 351.715 769.052 351.715 769.052 351.715C769.052 351.715 769.052 351.715 769.052 351.715C769.052 351.714 769.052 351.717 769.052 351.719C769.052 351.722 769.053 351.727 769.053 351.733C769.054 351.745 769.055 351.765 769.056 351.79C769.058 351.815 769.059 351.847 769.06 351.885C769.061 351.924 769.062 351.969 769.061 352.021C769.061 352.073 769.06 352.133 769.056 352.199C769.053 352.266 769.047 352.34 769.039 352.421C769.021 352.582 768.991 352.776 768.936 352.99L761.187 350.998ZM558.485 248.351C618.688 263.829 671.596 283.533 708.455 302.81C726.913 312.463 741.144 321.906 750.252 330.523C754.807 334.832 757.927 338.791 759.7 342.316C761.458 345.81 761.79 348.653 761.187 350.998L768.936 352.99C770.153 348.257 769.201 343.401 766.847 338.721C764.508 334.072 760.688 329.382 755.75 324.711C745.872 315.367 730.907 305.524 712.162 295.721C674.615 276.084 621.093 256.187 560.477 240.603L558.485 248.351ZM331.409 240.5C332.012 238.155 333.674 235.825 336.899 233.612C340.153 231.379 344.796 229.415 350.864 227.838C362.999 224.683 380.02 223.275 400.845 223.722C442.43 224.613 498.282 232.872 558.485 248.351L560.477 240.603C499.86 225.018 443.379 216.632 401.016 215.724C379.868 215.27 362.011 216.674 348.851 220.095C342.273 221.805 336.664 224.071 332.373 227.015C328.054 229.979 324.878 233.774 323.661 238.508L331.409 240.5ZM331.172 241.865C331.215 241.4 331.295 240.945 331.409 240.5L323.661 238.508C323.44 239.367 323.289 240.237 323.207 241.117L331.172 241.865ZM323.249 240.805L231.909 765.509L239.79 766.881L331.13 242.177L323.249 240.805ZM234.854 770.069L235.243 770.169L237.235 762.421L236.846 762.321L234.854 770.069ZM232.241 766.186C232.002 774.922 237.295 783.802 245.609 792.236C254.043 800.792 266.213 809.53 281.181 818.029C311.147 835.045 352.951 851.451 400.296 863.624L402.288 855.876C355.448 843.833 314.339 827.658 285.131 811.073C270.512 802.772 259.03 794.455 251.306 786.62C243.461 778.662 240.09 771.814 240.238 766.405L232.241 766.186ZM400.296 863.624C447.641 875.797 492.175 881.588 526.631 881.136C543.843 880.91 558.718 879.125 570.233 875.699C581.583 872.321 590.504 867.095 594.508 859.327L587.397 855.661C584.918 860.471 578.662 864.844 567.951 868.031C557.406 871.169 543.336 872.916 526.526 873.137C492.941 873.577 449.128 867.919 402.288 855.876L400.296 863.624ZM589.956 861.368L590.344 861.468L592.336 853.72L591.948 853.62L589.956 861.368ZM595.123 858.893L768.191 355.198L760.625 352.598L587.557 856.294L595.123 858.893ZM761.187 350.999C761.073 351.443 760.924 351.878 760.738 352.306L768.077 355.49C768.428 354.682 768.715 353.849 768.935 352.991L761.187 350.999Z" fill="#8C4343" mask="url(#path-12-inside-2_686_5976)"/>
<path d="M747.972 347.6C741.176 374.029 646.385 376.143 533.117 347.022C419.848 317.9 334.414 269.448 341.209 243.019" stroke="#8C4343" stroke-width="4" stroke-linecap="round"/>
<ellipse cx="545.42" cy="299.169" rx="211.761" ry="49.4108" transform="rotate(14.4188 545.42 299.169)" fill="#953131"/>
<g filter="url(#filter0_d_686_5976)">
<path fill-rule="evenodd" clip-rule="evenodd" d="M549.387 284.641C541.897 280.27 537.724 272.397 539.655 264.888C541.583 257.39 549.015 252.509 557.668 252.279C560.999 244.335 569.738 239.826 578.328 242.035C586.598 244.161 591.985 251.807 591.562 260.016C591.676 260.044 591.79 260.072 591.904 260.102C603.231 263.014 610.446 273.027 608.019 282.466C606.088 289.975 598.636 294.86 589.966 295.076C586.388 302.95 576.231 307.089 565.928 304.44C555.624 301.79 548.723 293.265 549.387 284.641Z" fill="#F0E8DF"/>
<path d="M581.205 273.365C580.426 276.397 575.203 277.674 569.539 276.218C563.876 274.762 559.917 271.124 560.696 268.092C561.475 265.061 565.287 269.272 570.951 270.728C576.614 272.184 581.985 270.334 581.205 273.365Z" fill="#B98434"/>
</g>
<mask id="mask1_686_5976" style="mask-type:alpha" maskUnits="userSpaceOnUse" x="339" y="149" width="418" height="222">
<path d="M750.51 351.897C743.715 378.327 646.384 376.144 533.116 347.022C419.847 317.9 333.534 272.867 340.329 246.438C347.124 220.008 364.349 110.492 576.276 164.98C788.203 219.467 757.305 325.468 750.51 351.897Z" fill="#522323"/>
</mask>
<g mask="url(#mask1_686_5976)">
<g filter="url(#filter1_d_686_5976)">
<path fill-rule="evenodd" clip-rule="evenodd" d="M455.697 274.834C463.228 270.532 472.132 270.855 477.67 276.282C483.2 281.701 483.711 290.578 479.584 298.187C484.798 305.044 484.333 314.868 478.125 321.203C472.149 327.301 462.834 328.144 455.936 323.673C455.855 323.757 455.774 323.842 455.691 323.926C447.506 332.279 435.227 333.521 428.266 326.7C422.728 321.273 422.224 312.377 426.372 304.76C421.341 297.724 422.835 286.859 430.281 279.26C437.727 271.661 448.56 269.947 455.697 274.834Z" fill="#FBF7E4"/>
<path d="M440.598 301.368C438.363 299.177 439.868 294.015 443.961 289.839C448.054 285.662 453.184 284.052 455.419 286.243C457.655 288.434 452.102 289.629 448.009 293.806C443.917 297.982 442.834 303.559 440.598 301.368Z" fill="#B98434"/>
</g>
<g filter="url(#filter2_d_686_5976)">
<path fill-rule="evenodd" clip-rule="evenodd" d="M491.1 316.789C483.569 321.091 474.665 320.768 469.126 315.341C463.597 309.922 463.086 301.046 467.213 293.437C461.999 286.58 462.464 276.757 468.671 270.422C474.647 264.324 483.963 263.481 490.861 267.952C490.942 267.868 491.023 267.783 491.105 267.699C499.291 259.346 511.57 258.104 518.531 264.925C524.069 270.352 524.572 279.248 520.425 286.864C525.455 293.9 523.961 304.765 516.515 312.363C509.069 319.962 498.236 321.676 491.1 316.789Z" fill="#FBF7E4"/>
<path d="M506.2 290.255C508.436 292.446 506.93 297.608 502.838 301.785C498.745 305.961 493.615 307.571 491.379 305.38C489.144 303.19 494.697 301.994 498.789 297.817C502.882 293.641 503.965 288.065 506.2 290.255Z" fill="#B98434"/>
</g>
<g filter="url(#filter3_d_686_5976)">
<path fill-rule="evenodd" clip-rule="evenodd" d="M501.379 253.803C509.922 255.298 516.571 261.23 517.371 268.942C518.17 276.643 512.897 283.803 504.864 287.027C504.502 295.633 497.875 302.9 489.052 303.815C480.56 304.695 472.85 299.399 470.394 291.555C470.277 291.568 470.161 291.581 470.044 291.593C458.411 292.8 448.166 285.92 447.161 276.226C446.361 268.513 451.65 261.343 459.704 258.127C460.322 249.5 468.406 242.089 478.988 240.991C489.57 239.893 499.003 245.487 501.379 253.803Z" fill="#FBF7E4"/>
<path d="M472.821 264.593C472.498 261.48 476.952 258.467 482.768 257.863C488.584 257.26 493.561 259.295 493.884 262.408C494.207 265.522 489.169 262.898 483.353 263.501C477.536 264.105 473.144 267.706 472.821 264.593Z" fill="#B98434"/>
</g>
<g filter="url(#filter4_d_686_5976)">
<path fill-rule="evenodd" clip-rule="evenodd" d="M445.417 337.821C436.874 336.326 430.226 330.395 429.426 322.682C428.627 314.981 433.899 307.822 441.933 304.598C442.296 295.992 448.923 288.727 457.745 287.812C466.237 286.931 473.946 292.227 476.403 300.071C476.519 300.058 476.636 300.045 476.752 300.033C488.385 298.826 498.631 305.707 499.636 315.401C500.436 323.113 495.147 330.283 487.093 333.499C486.476 342.127 478.391 349.539 467.808 350.637C457.225 351.735 447.791 346.139 445.417 337.821Z" fill="#FBF7E4"/>
<path d="M473.976 327.031C474.299 330.145 469.845 333.158 464.029 333.761C458.212 334.364 453.236 332.33 452.913 329.216C452.59 326.103 457.628 328.727 463.444 328.123C469.26 327.52 473.653 323.918 473.976 327.031Z" fill="#B98434"/>
</g>
<g filter="url(#filter5_d_686_5976)">
<path fill-rule="evenodd" clip-rule="evenodd" d="M522.302 299.249C529.833 294.947 538.738 295.27 544.276 300.698C549.806 306.116 550.317 314.992 546.19 322.601C551.405 329.458 550.941 339.282 544.733 345.618C538.757 351.717 529.44 352.559 522.542 348.087C522.462 348.171 522.381 348.255 522.299 348.339C514.113 356.692 501.835 357.934 494.874 351.113C489.336 345.687 488.832 336.792 492.978 329.176C487.947 322.14 489.441 311.274 496.887 303.675C504.333 296.076 515.166 294.362 522.302 299.249Z" fill="#FBF7E4"/>
<path d="M507.204 325.783C504.968 323.592 506.474 318.43 510.567 314.254C514.659 310.077 519.789 308.467 522.025 310.658C524.261 312.849 518.708 314.044 514.615 318.221C510.522 322.398 509.44 327.974 507.204 325.783Z" fill="#B98434"/>
</g>
<g filter="url(#filter6_d_686_5976)">
<path fill-rule="evenodd" clip-rule="evenodd" d="M424.496 292.376C416.965 296.677 408.061 296.354 402.522 290.927C396.993 285.509 396.482 276.633 400.608 269.025C395.393 262.168 395.857 252.344 402.066 246.008C408.041 239.91 417.357 239.067 424.255 243.539C424.336 243.454 424.417 243.37 424.5 243.286C432.685 234.932 444.964 233.69 451.925 240.512C457.462 245.938 457.967 254.833 453.82 262.449C458.851 269.485 457.358 280.351 449.911 287.95C442.465 295.548 431.632 297.262 424.496 292.376Z" fill="#FBF7E4"/>
<path d="M439.594 265.842C441.83 268.032 440.325 273.194 436.232 277.371C432.139 281.547 427.009 283.157 424.773 280.966C422.538 278.776 428.091 277.58 432.183 273.404C436.276 269.227 437.359 263.651 439.594 265.842Z" fill="#B98434"/>
</g>
<g filter="url(#filter7_d_686_5976)">
<path fill-rule="evenodd" clip-rule="evenodd" d="M480.636 325.274C473.146 320.903 468.974 313.03 470.904 305.52C472.832 298.023 480.264 293.142 488.916 292.911C492.247 284.967 500.987 280.457 509.578 282.666C517.846 284.792 523.234 292.437 522.811 300.646C522.925 300.673 523.039 300.702 523.153 300.731C534.48 303.643 541.695 313.656 539.268 323.095C537.338 330.604 529.886 335.488 521.217 335.705C517.64 343.581 507.482 347.722 497.177 345.072C486.873 342.423 479.972 333.898 480.636 325.274Z" fill="#FEF7DF"/>
<path d="M512.454 313.994C511.675 317.026 506.452 318.303 500.788 316.847C495.125 315.391 491.166 311.753 491.945 308.721C492.724 305.69 496.536 309.901 502.2 311.357C507.863 312.813 513.234 310.963 512.454 313.994Z" fill="#B98434"/>
</g>
<g filter="url(#filter8_d_686_5976)">
<path fill-rule="evenodd" clip-rule="evenodd" d="M462.764 269.66C455.274 265.288 451.103 257.416 453.033 249.907C454.961 242.409 462.392 237.529 471.044 237.298C474.376 229.355 483.115 224.846 491.705 227.054C499.973 229.18 505.361 236.825 504.938 245.034C505.052 245.062 505.167 245.09 505.281 245.119C516.608 248.032 523.822 258.044 521.396 267.483C519.465 274.993 512.013 279.877 503.343 280.093C499.766 287.969 489.608 292.108 479.304 289.459C469 286.81 462.099 278.284 462.764 269.66Z" fill="#FEF7DF"/>
<path d="M494.581 258.383C493.802 261.414 488.579 262.691 482.916 261.235C477.252 259.779 473.293 256.141 474.072 253.11C474.852 250.078 478.664 254.29 484.327 255.746C489.99 257.202 495.361 255.351 494.581 258.383Z" fill="#B98434"/>
</g>
<g filter="url(#filter9_d_686_5976)">
<path fill-rule="evenodd" clip-rule="evenodd" d="M466.162 266.351C473.653 270.722 477.825 278.595 475.894 286.104C473.966 293.602 466.535 298.482 457.883 298.713C454.553 306.659 445.812 311.169 437.221 308.961C428.952 306.834 423.564 299.188 423.987 290.979C423.873 290.951 423.759 290.923 423.645 290.894C412.318 287.981 405.103 277.969 407.53 268.53C409.461 261.02 416.912 256.136 425.582 255.92C429.158 248.043 439.317 243.903 449.621 246.552C459.925 249.202 466.826 257.727 466.162 266.351Z" fill="#FEF7DF"/>
<path d="M434.344 277.63C435.124 274.599 440.347 273.322 446.01 274.778C451.674 276.234 455.633 279.872 454.854 282.903C454.074 285.935 450.262 281.723 444.599 280.267C438.935 278.811 433.565 280.662 434.344 277.63Z" fill="#B98434"/>
</g>
<g filter="url(#filter10_d_686_5976)">
<path fill-rule="evenodd" clip-rule="evenodd" d="M500.178 238.273C497.783 246.608 500.205 255.182 506.789 259.278C513.363 263.367 522.108 261.761 528.523 255.95C536.42 259.393 545.855 256.616 550.54 249.084C555.05 241.834 553.663 232.584 547.685 226.941C547.748 226.843 547.811 226.744 547.872 226.645C554.05 216.714 552.348 204.49 544.073 199.343C537.489 195.247 528.728 196.864 522.31 202.697C514.283 199.475 504.08 203.5 498.461 212.534C492.842 221.567 493.742 232.497 500.178 238.273Z" fill="#FEF7DF"/>
<path d="M530.975 224.445C528.317 222.791 523.659 225.476 520.57 230.442C517.481 235.407 517.132 240.773 519.79 242.426C522.448 244.079 522.294 238.401 525.383 233.435C528.472 228.47 533.633 226.098 530.975 224.445Z" fill="#B98434"/>
</g>
<g filter="url(#filter11_d_686_5976)">
<path fill-rule="evenodd" clip-rule="evenodd" d="M445.25 301.981C447.646 293.646 445.224 285.071 438.64 280.976C432.066 276.887 423.322 278.492 416.907 284.302C409.011 280.861 399.577 283.639 394.892 291.17C390.382 298.42 391.77 307.671 397.747 313.313C397.684 313.412 397.621 313.512 397.558 313.613C391.381 323.543 393.082 335.767 401.358 340.915C407.942 345.01 416.703 343.393 423.121 337.56C431.148 340.782 441.352 336.758 446.971 327.724C452.591 318.689 451.69 307.757 445.25 301.981Z" fill="#FEF7DF"/>
<path d="M414.456 315.81C417.114 317.463 421.772 314.778 424.861 309.812C427.949 304.847 428.298 299.482 425.641 297.828C422.983 296.175 423.136 301.853 420.048 306.819C416.959 311.784 411.798 314.156 414.456 315.81Z" fill="#B98434"/>
</g>
<g filter="url(#filter12_d_686_5976)">
<path fill-rule="evenodd" clip-rule="evenodd" d="M427.381 246.368C429.777 238.033 427.354 229.459 420.77 225.364C414.197 221.275 405.452 222.881 399.037 228.691C391.14 225.249 381.706 228.026 377.021 235.558C372.511 242.808 373.899 252.059 379.876 257.701C379.813 257.801 379.75 257.9 379.687 258.001C373.51 267.932 375.211 280.155 383.487 285.303C390.072 289.399 398.835 287.781 405.253 281.946C413.279 285.166 423.481 281.142 429.1 272.108C434.719 263.075 433.819 252.144 427.381 246.368Z" fill="#FEF7DF"/>
<path d="M396.585 260.198C399.242 261.851 403.901 259.166 406.99 254.2C410.078 249.235 410.427 243.87 407.77 242.216C405.112 240.563 405.265 246.241 402.177 251.207C399.088 256.172 393.927 258.544 396.585 260.198Z" fill="#B98434"/>
</g>
<g filter="url(#filter13_d_686_5976)">
<path fill-rule="evenodd" clip-rule="evenodd" d="M547.241 349.685C539.75 345.313 535.578 337.44 537.508 329.931C539.436 322.433 546.868 317.552 555.52 317.322C558.851 309.377 567.591 304.868 576.182 307.076C584.451 309.202 589.838 316.848 589.415 325.058C589.529 325.085 589.643 325.114 589.757 325.143C601.084 328.055 608.299 338.068 605.872 347.507C603.942 355.016 596.49 359.9 587.821 360.117C584.244 367.993 574.086 372.134 563.781 369.484C553.476 366.835 546.575 358.309 547.241 349.685Z" fill="#FEF7DF"/>
<path d="M579.06 338.406C578.28 341.438 573.057 342.715 567.394 341.259C561.731 339.803 557.771 336.165 558.551 333.133C559.33 330.102 563.142 334.313 568.805 335.769C574.469 337.225 579.839 335.375 579.06 338.406Z" fill="#B98434"/>
</g>
<g filter="url(#filter14_d_686_5976)">
<path fill-rule="evenodd" clip-rule="evenodd" d="M529.371 294.073C521.88 289.701 517.708 281.829 519.639 274.319C521.567 266.821 528.999 261.94 537.651 261.71C540.983 253.767 549.722 249.257 558.312 251.466C566.581 253.592 571.969 261.238 571.546 269.447C571.66 269.475 571.774 269.504 571.888 269.533C583.215 272.445 590.43 282.458 588.003 291.897C586.072 299.407 578.62 304.291 569.95 304.507C566.372 312.381 556.215 316.52 545.912 313.871C535.608 311.222 528.707 302.696 529.371 294.073Z" fill="#FFF0DF"/>
<path d="M561.189 282.795C560.409 285.826 555.186 287.103 549.523 285.647C543.86 284.191 539.9 280.553 540.68 277.522C541.459 274.49 545.271 278.701 550.934 280.157C556.598 281.614 561.968 279.763 561.189 282.795Z" fill="#B98434"/>
</g>
<g filter="url(#filter15_d_686_5976)">
<path fill-rule="evenodd" clip-rule="evenodd" d="M487.874 286.127C485.479 294.463 487.901 303.037 494.485 307.132C501.059 311.221 509.803 309.616 516.218 303.805C524.115 307.247 533.549 304.47 538.234 296.938C542.744 289.688 541.357 280.438 535.38 274.796C535.443 274.697 535.506 274.598 535.568 274.497C541.745 264.567 540.044 252.343 531.769 247.196C525.184 243.1 516.422 244.717 510.005 250.551C501.978 247.33 491.776 251.355 486.157 260.388C480.538 269.421 481.438 280.351 487.874 286.127Z" fill="#FEF7DF"/>
<path d="M518.671 272.299C516.013 270.646 511.354 273.331 508.266 278.296C505.177 283.262 504.828 288.627 507.486 290.28C510.144 291.934 509.99 286.255 513.079 281.29C516.167 276.325 521.329 273.952 518.671 272.299Z" fill="#B98434"/>
</g>
<g filter="url(#filter16_d_686_5976)">
<path fill-rule="evenodd" clip-rule="evenodd" d="M636.113 372.534C628.624 368.163 624.452 360.291 626.383 352.781C628.311 345.283 635.742 340.403 644.395 340.172C647.727 332.229 656.466 327.72 665.056 329.929C673.325 332.055 678.712 339.7 678.29 347.909C678.403 347.936 678.517 347.965 678.63 347.994C689.957 350.906 697.172 360.919 694.745 370.358C692.814 377.867 685.362 382.751 676.693 382.968C673.115 390.843 662.958 394.983 652.654 392.333C642.35 389.684 635.448 381.159 636.113 372.534Z" fill="#FEF7DF"/>
<path d="M667.933 361.255C667.153 364.287 661.93 365.564 656.267 364.108C650.603 362.652 646.644 359.014 647.424 355.982C648.203 352.951 652.015 357.162 657.678 358.618C663.342 360.075 668.712 358.224 667.933 361.255Z" fill="#B98434"/>
</g>
<g filter="url(#filter17_d_686_5976)">
<path fill-rule="evenodd" clip-rule="evenodd" d="M399.558 241.939C407.047 246.311 411.219 254.183 409.288 261.692C407.361 269.19 399.929 274.071 391.277 274.301C387.945 282.246 379.206 286.755 370.615 284.547C362.346 282.421 356.958 274.774 357.382 266.565C357.268 266.537 357.154 266.509 357.041 266.48C345.714 263.568 338.499 253.555 340.926 244.116C342.857 236.606 350.309 231.722 358.978 231.506C362.556 223.631 372.713 219.491 383.017 222.14C393.322 224.79 400.223 233.315 399.558 241.939Z" fill="#FEF7DF"/>
<path d="M367.739 253.218C368.518 250.187 373.741 248.91 379.404 250.366C385.068 251.822 389.027 255.46 388.248 258.491C387.468 261.523 383.656 257.312 377.993 255.855C372.329 254.399 366.959 256.25 367.739 253.218Z" fill="#B98434"/>
</g>
<g filter="url(#filter18_d_686_5976)">
<path fill-rule="evenodd" clip-rule="evenodd" d="M459.803 234.394C467.292 238.766 471.464 246.638 469.533 254.147C467.606 261.645 460.174 266.525 451.522 266.756C448.192 274.701 439.451 279.212 430.86 277.003C422.591 274.877 417.203 267.231 417.627 259.021C417.513 258.994 417.399 258.966 417.286 258.936C405.959 256.024 398.744 246.011 401.171 236.572C403.102 229.063 410.553 224.179 419.223 223.962C422.799 216.086 432.957 211.946 443.262 214.595C453.567 217.244 460.468 225.77 459.803 234.394Z" fill="#FEF7DF"/>
<path d="M427.984 245.673C428.763 242.641 433.986 241.364 439.649 242.82C445.313 244.277 449.272 247.914 448.493 250.946C447.713 253.977 443.901 249.766 438.238 248.31C432.575 246.854 427.204 248.704 427.984 245.673Z" fill="#B98434"/>
</g>
<g filter="url(#filter19_d_686_5976)">
<path fill-rule="evenodd" clip-rule="evenodd" d="M482.263 203.727C489.754 208.098 493.926 215.971 491.995 223.48C490.067 230.978 482.635 235.859 473.983 236.089C470.652 244.035 461.912 248.545 453.32 246.337C445.051 244.21 439.664 236.564 440.087 228.355C439.973 228.327 439.859 228.299 439.745 228.27C428.418 225.357 421.203 215.345 423.63 205.906C425.56 198.396 433.013 193.512 441.683 193.296C445.26 185.419 455.418 181.279 465.723 183.928C476.027 186.578 482.928 195.103 482.263 203.727Z" fill="#FEF7DF"/>
<path d="M450.444 215.006C451.223 211.975 456.446 210.698 462.11 212.154C467.773 213.61 471.732 217.248 470.953 220.279C470.173 223.311 466.362 219.1 460.698 217.644C455.035 216.187 449.664 218.038 450.444 215.006Z" fill="#B98434"/>
</g>
<g filter="url(#filter20_d_686_5976)">
<path fill-rule="evenodd" clip-rule="evenodd" d="M647.706 297.281C655.197 301.653 659.369 309.525 657.438 317.035C655.51 324.533 648.079 329.413 639.427 329.644C636.095 337.588 627.356 342.098 618.765 339.89C610.496 337.764 605.108 330.117 605.531 321.908C605.417 321.881 605.303 321.852 605.189 321.823C593.862 318.91 586.647 308.898 589.074 299.459C591.005 291.949 598.457 287.065 607.127 286.849C610.704 278.973 620.861 274.834 631.165 277.483C641.469 280.132 648.371 288.657 647.706 297.281Z" fill="#FBF7E4"/>
<path d="M615.887 308.559C616.666 305.528 621.889 304.251 627.552 305.707C633.216 307.163 637.175 310.801 636.396 313.832C635.616 316.864 631.805 312.653 626.141 311.197C620.478 309.74 615.107 311.591 615.887 308.559Z" fill="#FBF7E4"/>
</g>
<g filter="url(#filter21_d_686_5976)">
<path fill-rule="evenodd" clip-rule="evenodd" d="M395.848 284.717C403.338 289.088 407.509 296.961 405.579 304.47C403.651 311.967 396.22 316.848 387.568 317.079C384.236 325.022 375.497 329.531 366.907 327.323C358.638 325.197 353.25 317.551 353.674 309.341C353.56 309.314 353.446 309.285 353.331 309.256C342.005 306.344 334.79 296.331 337.216 286.892C339.147 279.382 346.599 274.498 355.269 274.282C358.846 266.407 369.004 262.267 379.308 264.916C389.613 267.566 396.514 276.092 395.848 284.717Z" fill="#FEF7DF"/>
<path d="M364.029 295.993C364.808 292.961 370.031 291.684 375.695 293.14C381.358 294.596 385.318 298.234 384.538 301.266C383.759 304.297 379.947 300.086 374.283 298.63C368.62 297.174 363.25 299.024 364.029 295.993Z" fill="#B98434"/>
</g>
<g filter="url(#filter22_d_686_5976)">
<path fill-rule="evenodd" clip-rule="evenodd" d="M632.081 329.706C639.571 334.077 643.744 341.95 641.813 349.46C639.885 356.958 632.453 361.839 623.8 362.069C620.468 370.013 611.729 374.523 603.138 372.314C594.869 370.188 589.481 362.542 589.905 354.333C589.791 354.305 589.678 354.277 589.564 354.248C578.237 351.335 571.022 341.323 573.449 331.884C575.38 324.374 582.832 319.49 591.502 319.274C595.079 311.398 605.236 307.259 615.54 309.908C625.844 312.557 632.745 321.082 632.081 329.706Z" fill="#FEF7DF"/>
<path d="M600.262 340.986C601.041 337.954 606.264 336.677 611.927 338.133C617.591 339.59 621.55 343.227 620.771 346.259C619.991 349.29 616.18 345.079 610.516 343.623C604.853 342.167 599.482 344.017 600.262 340.986Z" fill="#B98434"/>
</g>
<g filter="url(#filter23_d_686_5976)">
<path fill-rule="evenodd" clip-rule="evenodd" d="M614.21 274.095C621.699 278.466 625.871 286.339 623.94 293.848C622.012 301.346 614.581 306.227 605.928 306.457C602.596 314.4 593.857 318.909 585.267 316.701C576.998 314.575 571.611 306.929 572.033 298.721C571.92 298.693 571.806 298.665 571.693 298.636C560.366 295.723 553.151 285.711 555.578 276.272C557.509 268.762 564.96 263.878 573.63 263.662C577.206 255.785 587.364 251.645 597.669 254.294C607.974 256.944 614.876 265.47 614.21 274.095Z" fill="#ECDCC9"/>
<path d="M582.39 285.372C583.17 282.341 588.393 281.064 594.056 282.52C599.72 283.976 603.679 287.614 602.899 290.645C602.12 293.677 598.308 289.465 592.645 288.009C586.981 286.553 581.611 288.404 582.39 285.372Z" fill="#B98434"/>
</g>
<g filter="url(#filter24_d_686_5976)">
<path fill-rule="evenodd" clip-rule="evenodd" d="M720.953 352.557C728.444 356.928 732.617 364.801 730.686 372.311C728.758 379.808 721.326 384.689 712.674 384.92C709.343 392.864 700.603 397.374 692.013 395.165C683.743 393.039 678.356 385.393 678.779 377.184C678.665 377.156 678.551 377.127 678.437 377.098C667.11 374.186 659.895 364.173 662.322 354.734C664.252 347.225 671.704 342.341 680.373 342.124C683.95 334.248 694.108 330.107 704.413 332.757C714.718 335.406 721.619 343.932 720.953 352.557Z" fill="#FEF7DF"/>
<path d="M689.134 363.835C689.914 360.803 695.137 359.526 700.8 360.982C706.463 362.438 710.423 366.076 709.643 369.108C708.864 372.139 705.052 367.928 699.389 366.472C693.725 365.016 688.355 366.866 689.134 363.835Z" fill="#B98434"/>
</g>
<g filter="url(#filter25_d_686_5976)">
<path fill-rule="evenodd" clip-rule="evenodd" d="M553.103 329.541C545.614 325.17 541.442 317.298 543.373 309.789C545.301 302.291 552.732 297.411 561.383 297.18C564.715 289.236 573.454 284.727 582.044 286.936C590.313 289.062 595.701 296.707 595.278 304.916C595.392 304.943 595.506 304.972 595.62 305.001C606.947 307.913 614.162 317.926 611.735 327.365C609.804 334.875 602.352 339.759 593.683 339.975C590.105 347.85 579.948 351.99 569.644 349.341C559.34 346.691 552.438 338.166 553.103 329.541Z" fill="#FEF7DF"/>
<path d="M584.923 318.263C584.143 321.294 578.92 322.571 573.257 321.115C567.593 319.659 563.634 316.021 564.414 312.99C565.193 309.958 569.005 314.169 574.668 315.626C580.332 317.082 585.702 315.231 584.923 318.263Z" fill="#B98434"/>
</g>
<g filter="url(#filter26_d_686_5976)">
<path fill-rule="evenodd" clip-rule="evenodd" d="M543.788 287.316C550.389 292.94 559.198 294.274 565.647 289.97C572.086 285.672 574.236 277.044 571.593 268.802C577.988 263.032 579.354 253.294 574.43 245.917C569.69 238.815 560.694 236.258 553.086 239.371C553.022 239.273 552.958 239.175 552.892 239.077C546.4 229.349 534.565 225.85 526.459 231.261C520.009 235.566 517.863 244.213 520.525 252.467C514.275 258.447 513.726 269.402 519.633 278.251C525.54 287.1 535.868 290.795 543.788 287.316Z" fill="#FEF7DF"/>
<path d="M545.533 255.989C542.929 257.726 543.451 263.078 546.697 267.941C549.944 272.805 554.686 275.339 557.289 273.601C559.893 271.864 558.75 266.927 555.504 262.063C552.257 257.2 548.136 254.251 545.533 255.989Z" fill="#B98434"/>
</g>
<g filter="url(#filter27_d_686_5976)">
<path fill-rule="evenodd" clip-rule="evenodd" d="M639.824 329.762C632.333 325.391 628.16 317.517 630.091 310.007C632.018 302.509 639.45 297.628 648.103 297.398C651.434 289.453 660.174 284.942 668.765 287.151C677.035 289.277 682.423 296.924 681.999 305.134C682.112 305.162 682.226 305.19 682.34 305.22C693.667 308.132 700.881 318.144 698.455 327.583C696.524 335.093 689.072 339.977 680.403 340.194C676.825 348.068 666.668 352.206 656.365 349.557C646.062 346.908 639.161 338.385 639.824 329.762Z" fill="#FEF7DF"/>
<path d="M671.642 318.481C670.863 321.513 665.64 322.79 659.976 321.334C654.313 319.877 650.354 316.24 651.133 313.208C651.912 310.177 655.724 314.388 661.388 315.844C667.051 317.3 672.422 315.45 671.642 318.481Z" fill="#B98434"/>
</g>
<g filter="url(#filter28_d_686_5976)">
<path fill-rule="evenodd" clip-rule="evenodd" d="M621.952 274.149C614.461 269.778 610.289 261.905 612.219 254.395C614.147 246.898 621.578 242.017 630.23 241.786C633.561 233.841 642.301 229.33 650.893 231.539C659.162 233.665 664.549 241.311 664.126 249.52C664.24 249.548 664.354 249.577 664.468 249.606C675.795 252.518 683.01 262.531 680.583 271.97C678.653 279.479 671.201 284.363 662.532 284.58C658.955 292.456 648.797 296.597 638.492 293.947C628.188 291.298 621.287 282.773 621.952 274.149Z" fill="#FEF7DF"/>
<path d="M653.769 262.869C652.99 265.901 647.767 267.178 642.103 265.722C636.44 264.266 632.481 260.628 633.26 257.596C634.039 254.565 637.851 258.776 643.515 260.232C649.178 261.688 654.548 259.838 653.769 262.869Z" fill="#B98434"/>
</g>
<g filter="url(#filter29_d_686_5976)">
<path fill-rule="evenodd" clip-rule="evenodd" d="M605.835 291.87C598.346 287.498 594.174 279.626 596.105 272.117C598.032 264.619 605.463 259.739 614.115 259.508C617.447 251.565 626.186 247.055 634.776 249.264C643.045 251.39 648.432 259.035 648.01 267.244C648.124 267.271 648.238 267.3 648.352 267.329C659.679 270.241 666.894 280.254 664.467 289.693C662.536 297.203 655.084 302.087 646.414 302.303C642.837 310.178 632.68 314.318 622.376 311.669C612.071 309.019 605.17 300.494 605.835 291.87Z" fill="#FEF7DF"/>
<path d="M637.653 280.591C636.873 283.622 631.65 284.899 625.987 283.443C620.323 281.987 616.364 278.349 617.144 275.318C617.923 272.286 621.735 276.498 627.398 277.954C633.062 279.41 638.432 277.559 637.653 280.591Z" fill="#B98434"/>
</g>
<g filter="url(#filter30_d_686_5976)">
<path fill-rule="evenodd" clip-rule="evenodd" d="M692.757 350.657C685.266 346.286 681.094 338.413 683.025 330.903C684.952 323.405 692.384 318.525 701.036 318.294C704.367 310.35 713.107 305.84 721.698 308.049C729.967 310.175 735.355 317.821 734.931 326.03C735.045 326.058 735.159 326.086 735.274 326.116C746.6 329.028 753.815 339.04 751.388 348.479C749.458 355.989 742.006 360.873 733.336 361.09C729.759 368.965 719.601 373.104 709.297 370.455C698.993 367.806 692.092 359.281 692.757 350.657Z" fill="#FBF5E1"/>
<path d="M724.576 339.377C723.797 342.409 718.574 343.686 712.91 342.23C707.247 340.773 703.287 337.136 704.067 334.104C704.846 331.073 708.658 335.284 714.322 336.74C719.985 338.196 725.355 336.346 724.576 339.377Z" fill="#B98434"/>
</g>
<g filter="url(#filter31_d_686_5976)">
<path fill-rule="evenodd" clip-rule="evenodd" d="M654.988 306.152C651.689 298.131 653.153 289.342 659.247 284.547C665.331 279.759 674.2 280.393 681.215 285.463C688.685 281.174 698.367 282.897 703.852 289.866C709.132 296.576 708.771 305.923 703.451 312.189C703.525 312.28 703.598 312.372 703.671 312.464C710.903 321.655 710.558 333.991 702.899 340.018C696.806 344.814 687.919 344.171 680.898 339.079C673.275 343.165 662.691 340.287 656.112 331.927C649.532 323.566 649.224 312.602 654.988 306.152Z" fill="#FEF7DF"/>
<path d="M687.119 316.507C684.659 318.443 679.733 316.287 676.117 311.692C672.501 307.097 671.563 301.802 674.023 299.867C676.482 297.931 676.955 303.591 680.571 308.187C684.187 312.782 689.578 314.572 687.119 316.507Z" fill="#B98434"/>
</g>
<g filter="url(#filter32_d_686_5976)">
<path fill-rule="evenodd" clip-rule="evenodd" d="M560.163 280.128C552.672 275.757 548.5 267.884 550.43 260.374C552.358 252.876 559.79 247.996 568.443 247.765C571.775 239.822 580.514 235.313 589.104 237.521C597.373 239.647 602.76 247.294 602.337 255.503C602.451 255.53 602.565 255.559 602.679 255.588C614.006 258.501 621.221 268.513 618.794 277.952C616.864 285.462 609.411 290.346 600.741 290.562C597.163 298.436 587.006 302.575 576.703 299.926C566.399 297.277 559.498 288.752 560.163 280.128Z" fill="#FEF7DF"/>
<path d="M591.98 268.85C591.201 271.881 585.978 273.159 580.314 271.702C574.651 270.246 570.692 266.608 571.471 263.577C572.251 260.545 576.062 264.757 581.726 266.213C587.389 267.669 592.76 265.818 591.98 268.85Z" fill="#B98434"/>
</g>
<g filter="url(#filter33_d_686_5976)">
<path fill-rule="evenodd" clip-rule="evenodd" d="M685.654 289.051C678.163 284.68 673.991 276.807 675.922 269.297C677.849 261.799 685.281 256.918 693.934 256.688C697.266 248.745 706.005 244.236 714.595 246.444C722.864 248.57 728.252 256.216 727.828 264.426C727.942 264.453 728.057 264.482 728.171 264.511C739.498 267.423 746.712 277.436 744.286 286.875C742.355 294.385 734.902 299.269 726.232 299.485C722.654 307.359 712.498 311.498 702.194 308.849C691.89 306.2 684.989 297.675 685.654 289.051Z" fill="#FEF7DF"/>
<path d="M717.471 277.773C716.692 280.804 711.469 282.081 705.806 280.625C700.142 279.169 696.183 275.531 696.962 272.5C697.742 269.468 701.554 273.68 707.217 275.136C712.88 276.592 718.251 274.741 717.471 277.773Z" fill="#B98434"/>
</g>
</g>
<g filter="url(#filter34_d_686_5976)">
<path fill-rule="evenodd" clip-rule="evenodd" d="M704.588 197.673C695.717 192.497 690.776 183.173 693.062 174.279C695.345 165.399 704.148 159.619 714.395 159.346C718.341 149.939 728.691 144.598 738.864 147.214C748.657 149.732 755.038 158.787 754.536 168.51C754.671 168.542 754.806 168.576 754.941 168.611C768.355 172.06 776.899 183.917 774.025 195.096C771.739 203.989 762.913 209.773 752.646 210.03C748.41 219.356 736.38 224.259 724.177 221.122C711.974 217.984 703.8 207.887 704.588 197.673Z" fill="#FEF7DF"/>
<path d="M743.094 187.487C742.171 191.077 735.985 192.59 729.278 190.865C722.571 189.141 717.882 184.833 718.806 181.243C719.729 177.652 724.243 182.64 730.95 184.364C737.657 186.089 744.017 183.897 743.094 187.487Z" fill="#B98434"/>
</g>
<g filter="url(#filter35_d_686_5976)">
<path fill-rule="evenodd" clip-rule="evenodd" d="M883.035 245.172C884.229 245.379 885.457 245.487 886.711 245.487C898.499 245.487 908.054 235.931 908.054 224.144C908.054 212.356 898.499 202.8 886.711 202.8C885.216 202.8 883.757 202.954 882.349 203.246C879.931 192.285 871.609 184.206 861.715 184.206C852.337 184.206 844.372 191.463 841.507 201.553C831.204 203.372 823.296 214.023 823.296 226.892C823.296 239.76 831.204 250.411 841.506 252.23C844.37 262.322 852.336 269.581 861.715 269.581C873.167 269.581 882.512 258.759 883.035 245.172Z" fill="#FEF7DF"/>
<path d="M856.104 231.637C851.247 231.637 853.365 229.137 853.365 222.151C853.365 215.166 853.985 212.665 858.842 212.665C863.699 212.665 862.16 215.166 862.16 222.151C862.16 229.137 860.96 231.637 856.104 231.637Z" fill="#B98434"/>
</g>
<g filter="url(#filter36_d_686_5976)">
<path fill-rule="evenodd" clip-rule="evenodd" d="M469.705 89.742C471.524 79.8252 478.482 72.1524 487.456 71.2953C496.415 70.4396 504.688 76.6357 508.36 86.0043C518.361 86.5078 526.745 94.2802 527.725 104.544C528.669 114.426 522.438 123.338 513.296 126.119C513.311 126.255 513.325 126.392 513.338 126.529C514.63 140.063 506.535 151.909 495.256 152.986C486.282 153.843 477.997 147.625 474.334 138.231C464.311 137.43 455.773 127.962 454.597 115.651C453.421 103.338 460.014 92.4238 469.705 89.742Z" fill="#FEF7DF"/>
<path d="M491.957 121.89C488.335 122.236 484.874 117.03 484.228 110.263C483.581 103.495 485.994 97.7288 489.616 97.3828C493.239 97.0368 490.141 102.869 490.787 109.636C491.434 116.403 495.58 121.544 491.957 121.89Z" fill="#B98434"/>
</g>
<g filter="url(#filter37_d_686_5976)">
<path fill-rule="evenodd" clip-rule="evenodd" d="M600.003 192.302C597.594 183.935 600.022 175.326 606.63 171.211C613.228 167.103 622.007 168.712 628.45 174.542C636.376 171.084 645.848 173.868 650.554 181.427C655.085 188.704 653.696 197.991 647.697 203.658C647.76 203.758 647.824 203.857 647.886 203.958C654.092 213.925 652.389 226.197 644.083 231.368C637.475 235.482 628.679 233.863 622.233 228.009C614.177 231.247 603.932 227.211 598.287 218.144C592.642 209.077 593.541 198.103 600.003 192.302Z" fill="#FEF7DF"/>
<path d="M629.573 208.596C626.905 210.257 622.228 207.563 619.125 202.58C616.022 197.596 615.669 192.21 618.337 190.549C621.004 188.888 620.853 194.589 623.955 199.572C627.058 204.556 632.24 206.935 629.573 208.596Z" fill="#B98434"/>
</g>
<circle cx="360.043" cy="703.591" r="28.9132" transform="rotate(-0.738992 360.043 703.591)" fill="#300808"/>
<circle cx="483.824" cy="704.713" r="28.9132" transform="rotate(-0.738992 483.824 704.713)" fill="#300808"/>
<path d="M391.866 749.534C391.918 753.562 392.762 757.539 394.352 761.24C395.941 764.941 398.243 768.293 401.128 771.104C404.013 773.915 407.423 776.131 411.163 777.624C414.904 779.117 418.902 779.859 422.93 779.807C426.957 779.755 430.935 778.911 434.636 777.321C438.337 775.732 441.689 773.429 444.5 770.545C447.311 767.66 449.526 764.25 451.02 760.51C452.513 756.769 453.255 752.771 453.203 748.743L422.534 749.139L391.866 749.534Z" fill="#300808"/>
<path d="M606.05 721.291C644.19 734.517 722.544 710.613 755.192 677.239" stroke="#300808" stroke-width="4" stroke-linecap="round"/>
<defs>
<filter id="filter0_d_686_5976" x="535.186" y="237.475" width="77.3035" height="71.7646" filterUnits="userSpaceOnUse" color-interpolation-filters="sRGB">
<feFlood flood-opacity="0" result="BackgroundImageFix"/>
<feColorMatrix in="SourceAlpha" type="matrix" values="0 0 0 0 0 0 0 0 0 0 0 0 0 0 0 0 0 0 127 0" result="hardAlpha"/>
<feOffset/>
<feGaussianBlur stdDeviation="2"/>
<feComposite in2="hardAlpha" operator="out"/>
<feColorMatrix type="matrix" values="0 0 0 0 0 0 0 0 0 0 0 0 0 0 0 0 0 0 0.03 0"/>
<feBlend mode="normal" in2="BackgroundImageFix" result="effect1_dropShadow_686_5976"/>
<feBlend mode="normal" in="SourceGraphic" in2="effect1_dropShadow_686_5976" result="shape"/>
</filter>
<filter id="filter1_d_686_5976" x="419.429" y="267.88" width="67.7388" height="67.2227" filterUnits="userSpaceOnUse" color-interpolation-filters="sRGB">
<feFlood flood-opacity="0" result="BackgroundImageFix"/>
<feColorMatrix in="SourceAlpha" type="matrix" values="0 0 0 0 0 0 0 0 0 0 0 0 0 0 0 0 0 0 127 0" result="hardAlpha"/>
<feOffset/>
<feGaussianBlur stdDeviation="2"/>
<feComposite in2="hardAlpha" operator="out"/>
<feColorMatrix type="matrix" values="0 0 0 0 0 0 0 0 0 0 0 0 0 0 0 0 0 0 0.03 0"/>
<feBlend mode="normal" in2="BackgroundImageFix" result="effect1_dropShadow_686_5976"/>
<feBlend mode="normal" in="SourceGraphic" in2="effect1_dropShadow_686_5976" result="shape"/>
</filter>
<filter id="filter2_d_686_5976" x="459.629" y="256.522" width="67.7388" height="67.2212" filterUnits="userSpaceOnUse" color-interpolation-filters="sRGB">
<feFlood flood-opacity="0" result="BackgroundImageFix"/>
<feColorMatrix in="SourceAlpha" type="matrix" values="0 0 0 0 0 0 0 0 0 0 0 0 0 0 0 0 0 0 127 0" result="hardAlpha"/>
<feOffset/>
<feGaussianBlur stdDeviation="2"/>
<feComposite in2="hardAlpha" operator="out"/>
<feColorMatrix type="matrix" values="0 0 0 0 0 0 0 0 0 0 0 0 0 0 0 0 0 0 0.03 0"/>
<feBlend mode="normal" in2="BackgroundImageFix" result="effect1_dropShadow_686_5976"/>
<feBlend mode="normal" in="SourceGraphic" in2="effect1_dropShadow_686_5976" result="shape"/>
</filter>
<filter id="filter3_d_686_5976" x="443.081" y="236.854" width="78.3701" height="71.0564" filterUnits="userSpaceOnUse" color-interpolation-filters="sRGB">
<feFlood flood-opacity="0" result="BackgroundImageFix"/>
<feColorMatrix in="SourceAlpha" type="matrix" values="0 0 0 0 0 0 0 0 0 0 0 0 0 0 0 0 0 0 127 0" result="hardAlpha"/>
<feOffset/>
<feGaussianBlur stdDeviation="2"/>
<feComposite in2="hardAlpha" operator="out"/>
<feColorMatrix type="matrix" values="0 0 0 0 0 0 0 0 0 0 0 0 0 0 0 0 0 0 0.03 0"/>
<feBlend mode="normal" in2="BackgroundImageFix" result="effect1_dropShadow_686_5976"/>
<feBlend mode="normal" in="SourceGraphic" in2="effect1_dropShadow_686_5976" result="shape"/>
</filter>
<filter id="filter4_d_686_5976" x="425.346" y="283.716" width="78.3701" height="71.0581" filterUnits="userSpaceOnUse" color-interpolation-filters="sRGB">
<feFlood flood-opacity="0" result="BackgroundImageFix"/>
<feColorMatrix in="SourceAlpha" type="matrix" values="0 0 0 0 0 0 0 0 0 0 0 0 0 0 0 0 0 0 127 0" result="hardAlpha"/>
<feOffset/>
<feGaussianBlur stdDeviation="2"/>
<feComposite in2="hardAlpha" operator="out"/>
<feColorMatrix type="matrix" values="0 0 0 0 0 0 0 0 0 0 0 0 0 0 0 0 0 0 0.03 0"/>
<feBlend mode="normal" in2="BackgroundImageFix" result="effect1_dropShadow_686_5976"/>
<feBlend mode="normal" in="SourceGraphic" in2="effect1_dropShadow_686_5976" result="shape"/>
</filter>
<filter id="filter5_d_686_5976" x="486.035" y="292.295" width="67.7405" height="67.2212" filterUnits="userSpaceOnUse" color-interpolation-filters="sRGB">
<feFlood flood-opacity="0" result="BackgroundImageFix"/>
<feColorMatrix in="SourceAlpha" type="matrix" values="0 0 0 0 0 0 0 0 0 0 0 0 0 0 0 0 0 0 127 0" result="hardAlpha"/>
<feOffset/>
<feGaussianBlur stdDeviation="2"/>
<feComposite in2="hardAlpha" operator="out"/>
<feColorMatrix type="matrix" values="0 0 0 0 0 0 0 0 0 0 0 0 0 0 0 0 0 0 0.03 0"/>
<feBlend mode="normal" in2="BackgroundImageFix" result="effect1_dropShadow_686_5976"/>
<feBlend mode="normal" in="SourceGraphic" in2="effect1_dropShadow_686_5976" result="shape"/>
</filter>
<filter id="filter6_d_686_5976" x="393.023" y="232.109" width="67.7405" height="67.2209" filterUnits="userSpaceOnUse" color-interpolation-filters="sRGB">
<feFlood flood-opacity="0" result="BackgroundImageFix"/>
<feColorMatrix in="SourceAlpha" type="matrix" values="0 0 0 0 0 0 0 0 0 0 0 0 0 0 0 0 0 0 127 0" result="hardAlpha"/>
<feOffset/>
<feGaussianBlur stdDeviation="2"/>
<feComposite in2="hardAlpha" operator="out"/>
<feColorMatrix type="matrix" values="0 0 0 0 0 0 0 0 0 0 0 0 0 0 0 0 0 0 0.03 0"/>
<feBlend mode="normal" in2="BackgroundImageFix" result="effect1_dropShadow_686_5976"/>
<feBlend mode="normal" in="SourceGraphic" in2="effect1_dropShadow_686_5976" result="shape"/>
</filter>
<filter id="filter7_d_686_5976" x="466.435" y="278.106" width="77.3035" height="71.7664" filterUnits="userSpaceOnUse" color-interpolation-filters="sRGB">
<feFlood flood-opacity="0" result="BackgroundImageFix"/>
<feColorMatrix in="SourceAlpha" type="matrix" values="0 0 0 0 0 0 0 0 0 0 0 0 0 0 0 0 0 0 127 0" result="hardAlpha"/>
<feOffset/>
<feGaussianBlur stdDeviation="2"/>
<feComposite in2="hardAlpha" operator="out"/>
<feColorMatrix type="matrix" values="0 0 0 0 0 0 0 0 0 0 0 0 0 0 0 0 0 0 0.03 0"/>
<feBlend mode="normal" in2="BackgroundImageFix" result="effect1_dropShadow_686_5976"/>
<feBlend mode="normal" in="SourceGraphic" in2="effect1_dropShadow_686_5976" result="shape"/>
</filter>
<filter id="filter8_d_686_5976" x="448.563" y="222.494" width="77.302" height="71.7644" filterUnits="userSpaceOnUse" color-interpolation-filters="sRGB">
<feFlood flood-opacity="0" result="BackgroundImageFix"/>
<feColorMatrix in="SourceAlpha" type="matrix" values="0 0 0 0 0 0 0 0 0 0 0 0 0 0 0 0 0 0 127 0" result="hardAlpha"/>
<feOffset/>
<feGaussianBlur stdDeviation="2"/>
<feComposite in2="hardAlpha" operator="out"/>
<feColorMatrix type="matrix" values="0 0 0 0 0 0 0 0 0 0 0 0 0 0 0 0 0 0 0.03 0"/>
<feBlend mode="normal" in2="BackgroundImageFix" result="effect1_dropShadow_686_5976"/>
<feBlend mode="normal" in="SourceGraphic" in2="effect1_dropShadow_686_5976" result="shape"/>
</filter>
<filter id="filter9_d_686_5976" x="403.06" y="241.753" width="77.3037" height="71.7678" filterUnits="userSpaceOnUse" color-interpolation-filters="sRGB">
<feFlood flood-opacity="0" result="BackgroundImageFix"/>
<feColorMatrix in="SourceAlpha" type="matrix" values="0 0 0 0 0 0 0 0 0 0 0 0 0 0 0 0 0 0 127 0" result="hardAlpha"/>
<feOffset/>
<feGaussianBlur stdDeviation="2"/>
<feComposite in2="hardAlpha" operator="out"/>
<feColorMatrix type="matrix" values="0 0 0 0 0 0 0 0 0 0 0 0 0 0 0 0 0 0 0.03 0"/>
<feBlend mode="normal" in2="BackgroundImageFix" result="effect1_dropShadow_686_5976"/>
<feBlend mode="normal" in="SourceGraphic" in2="effect1_dropShadow_686_5976" result="shape"/>
</filter>
<filter id="filter10_d_686_5976" x="490.746" y="193.066" width="66.459" height="72.488" filterUnits="userSpaceOnUse" color-interpolation-filters="sRGB">
<feFlood flood-opacity="0" result="BackgroundImageFix"/>
<feColorMatrix in="SourceAlpha" type="matrix" values="0 0 0 0 0 0 0 0 0 0 0 0 0 0 0 0 0 0 127 0" result="hardAlpha"/>
<feOffset/>
<feGaussianBlur stdDeviation="2"/>
<feComposite in2="hardAlpha" operator="out"/>
<feColorMatrix type="matrix" values="0 0 0 0 0 0 0 0 0 0 0 0 0 0 0 0 0 0 0.03 0"/>
<feBlend mode="normal" in2="BackgroundImageFix" result="effect1_dropShadow_686_5976"/>
<feBlend mode="normal" in="SourceGraphic" in2="effect1_dropShadow_686_5976" result="shape"/>
</filter>
<filter id="filter11_d_686_5976" x="388.227" y="274.699" width="66.459" height="72.4915" filterUnits="userSpaceOnUse" color-interpolation-filters="sRGB">
<feFlood flood-opacity="0" result="BackgroundImageFix"/>
<feColorMatrix in="SourceAlpha" type="matrix" values="0 0 0 0 0 0 0 0 0 0 0 0 0 0 0 0 0 0 127 0" result="hardAlpha"/>
<feOffset/>
<feGaussianBlur stdDeviation="2"/>
<feComposite in2="hardAlpha" operator="out"/>
<feColorMatrix type="matrix" values="0 0 0 0 0 0 0 0 0 0 0 0 0 0 0 0 0 0 0.03 0"/>
<feBlend mode="normal" in2="BackgroundImageFix" result="effect1_dropShadow_686_5976"/>
<feBlend mode="normal" in="SourceGraphic" in2="effect1_dropShadow_686_5976" result="shape"/>
</filter>
<filter id="filter12_d_686_5976" x="370.356" y="219.088" width="66.459" height="72.4915" filterUnits="userSpaceOnUse" color-interpolation-filters="sRGB">
<feFlood flood-opacity="0" result="BackgroundImageFix"/>
<feColorMatrix in="SourceAlpha" type="matrix" values="0 0 0 0 0 0 0 0 0 0 0 0 0 0 0 0 0 0 127 0" result="hardAlpha"/>
<feOffset/>
<feGaussianBlur stdDeviation="2"/>
<feComposite in2="hardAlpha" operator="out"/>
<feColorMatrix type="matrix" values="0 0 0 0 0 0 0 0 0 0 0 0 0 0 0 0 0 0 0.03 0"/>
<feBlend mode="normal" in2="BackgroundImageFix" result="effect1_dropShadow_686_5976"/>
<feBlend mode="normal" in="SourceGraphic" in2="effect1_dropShadow_686_5976" result="shape"/>
</filter>
<filter id="filter13_d_686_5976" x="533.039" y="302.516" width="77.3035" height="71.7678" filterUnits="userSpaceOnUse" color-interpolation-filters="sRGB">
<feFlood flood-opacity="0" result="BackgroundImageFix"/>
<feColorMatrix in="SourceAlpha" type="matrix" values="0 0 0 0 0 0 0 0 0 0 0 0 0 0 0 0 0 0 127 0" result="hardAlpha"/>
<feOffset/>
<feGaussianBlur stdDeviation="2"/>
<feComposite in2="hardAlpha" operator="out"/>
<feColorMatrix type="matrix" values="0 0 0 0 0 0 0 0 0 0 0 0 0 0 0 0 0 0 0.03 0"/>
<feBlend mode="normal" in2="BackgroundImageFix" result="effect1_dropShadow_686_5976"/>
<feBlend mode="normal" in="SourceGraphic" in2="effect1_dropShadow_686_5976" result="shape"/>
</filter>
<filter id="filter14_d_686_5976" x="515.169" y="246.906" width="77.3035" height="71.7646" filterUnits="userSpaceOnUse" color-interpolation-filters="sRGB">
<feFlood flood-opacity="0" result="BackgroundImageFix"/>
<feColorMatrix in="SourceAlpha" type="matrix" values="0 0 0 0 0 0 0 0 0 0 0 0 0 0 0 0 0 0 127 0" result="hardAlpha"/>
<feOffset/>
<feGaussianBlur stdDeviation="2"/>
<feComposite in2="hardAlpha" operator="out"/>
<feColorMatrix type="matrix" values="0 0 0 0 0 0 0 0 0 0 0 0 0 0 0 0 0 0 0.03 0"/>
<feBlend mode="normal" in2="BackgroundImageFix" result="effect1_dropShadow_686_5976"/>
<feBlend mode="normal" in="SourceGraphic" in2="effect1_dropShadow_686_5976" result="shape"/>
</filter>
<filter id="filter15_d_686_5976" x="478.442" y="240.919" width="66.4573" height="72.4897" filterUnits="userSpaceOnUse" color-interpolation-filters="sRGB">
<feFlood flood-opacity="0" result="BackgroundImageFix"/>
<feColorMatrix in="SourceAlpha" type="matrix" values="0 0 0 0 0 0 0 0 0 0 0 0 0 0 0 0 0 0 127 0" result="hardAlpha"/>
<feOffset/>
<feGaussianBlur stdDeviation="2"/>
<feComposite in2="hardAlpha" operator="out"/>
<feColorMatrix type="matrix" values="0 0 0 0 0 0 0 0 0 0 0 0 0 0 0 0 0 0 0.03 0"/>
<feBlend mode="normal" in2="BackgroundImageFix" result="effect1_dropShadow_686_5976"/>
<feBlend mode="normal" in="SourceGraphic" in2="effect1_dropShadow_686_5976" result="shape"/>
</filter>
<filter id="filter16_d_686_5976" x="621.913" y="325.368" width="77.3018" height="71.7646" filterUnits="userSpaceOnUse" color-interpolation-filters="sRGB">
<feFlood flood-opacity="0" result="BackgroundImageFix"/>
<feColorMatrix in="SourceAlpha" type="matrix" values="0 0 0 0 0 0 0 0 0 0 0 0 0 0 0 0 0 0 127 0" result="hardAlpha"/>
<feOffset/>
<feGaussianBlur stdDeviation="2"/>
<feComposite in2="hardAlpha" operator="out"/>
<feColorMatrix type="matrix" values="0 0 0 0 0 0 0 0 0 0 0 0 0 0 0 0 0 0 0.03 0"/>
<feBlend mode="normal" in2="BackgroundImageFix" result="effect1_dropShadow_686_5976"/>
<feBlend mode="normal" in="SourceGraphic" in2="effect1_dropShadow_686_5976" result="shape"/>
</filter>
<filter id="filter17_d_686_5976" x="336.456" y="217.341" width="77.302" height="71.7664" filterUnits="userSpaceOnUse" color-interpolation-filters="sRGB">
<feFlood flood-opacity="0" result="BackgroundImageFix"/>
<feColorMatrix in="SourceAlpha" type="matrix" values="0 0 0 0 0 0 0 0 0 0 0 0 0 0 0 0 0 0 127 0" result="hardAlpha"/>
<feOffset/>
<feGaussianBlur stdDeviation="2"/>
<feComposite in2="hardAlpha" operator="out"/>
<feColorMatrix type="matrix" values="0 0 0 0 0 0 0 0 0 0 0 0 0 0 0 0 0 0 0.03 0"/>
<feBlend mode="normal" in2="BackgroundImageFix" result="effect1_dropShadow_686_5976"/>
<feBlend mode="normal" in="SourceGraphic" in2="effect1_dropShadow_686_5976" result="shape"/>
</filter>
<filter id="filter18_d_686_5976" x="396.701" y="209.795" width="77.302" height="71.7678" filterUnits="userSpaceOnUse" color-interpolation-filters="sRGB">
<feFlood flood-opacity="0" result="BackgroundImageFix"/>
<feColorMatrix in="SourceAlpha" type="matrix" values="0 0 0 0 0 0 0 0 0 0 0 0 0 0 0 0 0 0 127 0" result="hardAlpha"/>
<feOffset/>
<feGaussianBlur stdDeviation="2"/>
<feComposite in2="hardAlpha" operator="out"/>
<feColorMatrix type="matrix" values="0 0 0 0 0 0 0 0 0 0 0 0 0 0 0 0 0 0 0.03 0"/>
<feBlend mode="normal" in2="BackgroundImageFix" result="effect1_dropShadow_686_5976"/>
<feBlend mode="normal" in="SourceGraphic" in2="effect1_dropShadow_686_5976" result="shape"/>
</filter>
<filter id="filter19_d_686_5976" x="419.16" y="179.129" width="77.3052" height="71.7681" filterUnits="userSpaceOnUse" color-interpolation-filters="sRGB">
<feFlood flood-opacity="0" result="BackgroundImageFix"/>
<feColorMatrix in="SourceAlpha" type="matrix" values="0 0 0 0 0 0 0 0 0 0 0 0 0 0 0 0 0 0 127 0" result="hardAlpha"/>
<feOffset/>
<feGaussianBlur stdDeviation="2"/>
<feComposite in2="hardAlpha" operator="out"/>
<feColorMatrix type="matrix" values="0 0 0 0 0 0 0 0 0 0 0 0 0 0 0 0 0 0 0.03 0"/>
<feBlend mode="normal" in2="BackgroundImageFix" result="effect1_dropShadow_686_5976"/>
<feBlend mode="normal" in="SourceGraphic" in2="effect1_dropShadow_686_5976" result="shape"/>
</filter>
<filter id="filter20_d_686_5976" x="584.604" y="272.683" width="77.3035" height="71.7664" filterUnits="userSpaceOnUse" color-interpolation-filters="sRGB">
<feFlood flood-opacity="0" result="BackgroundImageFix"/>
<feColorMatrix in="SourceAlpha" type="matrix" values="0 0 0 0 0 0 0 0 0 0 0 0 0 0 0 0 0 0 127 0" result="hardAlpha"/>
<feOffset/>
<feGaussianBlur stdDeviation="2"/>
<feComposite in2="hardAlpha" operator="out"/>
<feColorMatrix type="matrix" values="0 0 0 0 0 0 0 0 0 0 0 0 0 0 0 0 0 0 0.03 0"/>
<feBlend mode="normal" in2="BackgroundImageFix" result="effect1_dropShadow_686_5976"/>
<feBlend mode="normal" in="SourceGraphic" in2="effect1_dropShadow_686_5976" result="shape"/>
</filter>
<filter id="filter21_d_686_5976" x="332.747" y="260.117" width="77.302" height="71.7661" filterUnits="userSpaceOnUse" color-interpolation-filters="sRGB">
<feFlood flood-opacity="0" result="BackgroundImageFix"/>
<feColorMatrix in="SourceAlpha" type="matrix" values="0 0 0 0 0 0 0 0 0 0 0 0 0 0 0 0 0 0 127 0" result="hardAlpha"/>
<feOffset/>
<feGaussianBlur stdDeviation="2"/>
<feComposite in2="hardAlpha" operator="out"/>
<feColorMatrix type="matrix" values="0 0 0 0 0 0 0 0 0 0 0 0 0 0 0 0 0 0 0.03 0"/>
<feBlend mode="normal" in2="BackgroundImageFix" result="effect1_dropShadow_686_5976"/>
<feBlend mode="normal" in="SourceGraphic" in2="effect1_dropShadow_686_5976" result="shape"/>
</filter>
<filter id="filter22_d_686_5976" x="568.979" y="305.108" width="77.3035" height="71.7661" filterUnits="userSpaceOnUse" color-interpolation-filters="sRGB">
<feFlood flood-opacity="0" result="BackgroundImageFix"/>
<feColorMatrix in="SourceAlpha" type="matrix" values="0 0 0 0 0 0 0 0 0 0 0 0 0 0 0 0 0 0 127 0" result="hardAlpha"/>
<feOffset/>
<feGaussianBlur stdDeviation="2"/>
<feComposite in2="hardAlpha" operator="out"/>
<feColorMatrix type="matrix" values="0 0 0 0 0 0 0 0 0 0 0 0 0 0 0 0 0 0 0.03 0"/>
<feBlend mode="normal" in2="BackgroundImageFix" result="effect1_dropShadow_686_5976"/>
<feBlend mode="normal" in="SourceGraphic" in2="effect1_dropShadow_686_5976" result="shape"/>
</filter>
<filter id="filter23_d_686_5976" x="551.108" y="249.495" width="77.3018" height="71.7664" filterUnits="userSpaceOnUse" color-interpolation-filters="sRGB">
<feFlood flood-opacity="0" result="BackgroundImageFix"/>
<feColorMatrix in="SourceAlpha" type="matrix" values="0 0 0 0 0 0 0 0 0 0 0 0 0 0 0 0 0 0 127 0" result="hardAlpha"/>
<feOffset/>
<feGaussianBlur stdDeviation="2"/>
<feComposite in2="hardAlpha" operator="out"/>
<feColorMatrix type="matrix" values="0 0 0 0 0 0 0 0 0 0 0 0 0 0 0 0 0 0 0.03 0"/>
<feBlend mode="normal" in2="BackgroundImageFix" result="effect1_dropShadow_686_5976"/>
<feBlend mode="normal" in="SourceGraphic" in2="effect1_dropShadow_686_5976" result="shape"/>
</filter>
<filter id="filter24_d_686_5976" x="657.852" y="327.957" width="77.3035" height="71.7678" filterUnits="userSpaceOnUse" color-interpolation-filters="sRGB">
<feFlood flood-opacity="0" result="BackgroundImageFix"/>
<feColorMatrix in="SourceAlpha" type="matrix" values="0 0 0 0 0 0 0 0 0 0 0 0 0 0 0 0 0 0 127 0" result="hardAlpha"/>
<feOffset/>
<feGaussianBlur stdDeviation="2"/>
<feComposite in2="hardAlpha" operator="out"/>
<feColorMatrix type="matrix" values="0 0 0 0 0 0 0 0 0 0 0 0 0 0 0 0 0 0 0.03 0"/>
<feBlend mode="normal" in2="BackgroundImageFix" result="effect1_dropShadow_686_5976"/>
<feBlend mode="normal" in="SourceGraphic" in2="effect1_dropShadow_686_5976" result="shape"/>
</filter>
<filter id="filter25_d_686_5976" x="538.903" y="282.376" width="77.302" height="71.7644" filterUnits="userSpaceOnUse" color-interpolation-filters="sRGB">
<feFlood flood-opacity="0" result="BackgroundImageFix"/>
<feColorMatrix in="SourceAlpha" type="matrix" values="0 0 0 0 0 0 0 0 0 0 0 0 0 0 0 0 0 0 127 0" result="hardAlpha"/>
<feOffset/>
<feGaussianBlur stdDeviation="2"/>
<feComposite in2="hardAlpha" operator="out"/>
<feColorMatrix type="matrix" values="0 0 0 0 0 0 0 0 0 0 0 0 0 0 0 0 0 0 0.03 0"/>
<feBlend mode="normal" in2="BackgroundImageFix" result="effect1_dropShadow_686_5976"/>
<feBlend mode="normal" in="SourceGraphic" in2="effect1_dropShadow_686_5976" result="shape"/>
</filter>
<filter id="filter26_d_686_5976" x="511.504" y="224.716" width="69.8975" height="71.7991" filterUnits="userSpaceOnUse" color-interpolation-filters="sRGB">
<feFlood flood-opacity="0" result="BackgroundImageFix"/>
<feColorMatrix in="SourceAlpha" type="matrix" values="0 0 0 0 0 0 0 0 0 0 0 0 0 0 0 0 0 0 127 0" result="hardAlpha"/>
<feOffset/>
<feGaussianBlur stdDeviation="2"/>
<feComposite in2="hardAlpha" operator="out"/>
<feColorMatrix type="matrix" values="0 0 0 0 0 0 0 0 0 0 0 0 0 0 0 0 0 0 0.03 0"/>
<feBlend mode="normal" in2="BackgroundImageFix" result="effect1_dropShadow_686_5976"/>
<feBlend mode="normal" in="SourceGraphic" in2="effect1_dropShadow_686_5976" result="shape"/>
</filter>
<filter id="filter27_d_686_5976" x="625.621" y="282.591" width="77.3035" height="71.7664" filterUnits="userSpaceOnUse" color-interpolation-filters="sRGB">
<feFlood flood-opacity="0" result="BackgroundImageFix"/>
<feColorMatrix in="SourceAlpha" type="matrix" values="0 0 0 0 0 0 0 0 0 0 0 0 0 0 0 0 0 0 127 0" result="hardAlpha"/>
<feOffset/>
<feGaussianBlur stdDeviation="2"/>
<feComposite in2="hardAlpha" operator="out"/>
<feColorMatrix type="matrix" values="0 0 0 0 0 0 0 0 0 0 0 0 0 0 0 0 0 0 0.03 0"/>
<feBlend mode="normal" in2="BackgroundImageFix" result="effect1_dropShadow_686_5976"/>
<feBlend mode="normal" in="SourceGraphic" in2="effect1_dropShadow_686_5976" result="shape"/>
</filter>
<filter id="filter28_d_686_5976" x="607.75" y="226.979" width="77.3037" height="71.7678" filterUnits="userSpaceOnUse" color-interpolation-filters="sRGB">
<feFlood flood-opacity="0" result="BackgroundImageFix"/>
<feColorMatrix in="SourceAlpha" type="matrix" values="0 0 0 0 0 0 0 0 0 0 0 0 0 0 0 0 0 0 127 0" result="hardAlpha"/>
<feOffset/>
<feGaussianBlur stdDeviation="2"/>
<feComposite in2="hardAlpha" operator="out"/>
<feColorMatrix type="matrix" values="0 0 0 0 0 0 0 0 0 0 0 0 0 0 0 0 0 0 0.03 0"/>
<feBlend mode="normal" in2="BackgroundImageFix" result="effect1_dropShadow_686_5976"/>
<feBlend mode="normal" in="SourceGraphic" in2="effect1_dropShadow_686_5976" result="shape"/>
</filter>
<filter id="filter29_d_686_5976" x="591.635" y="244.704" width="77.302" height="71.7644" filterUnits="userSpaceOnUse" color-interpolation-filters="sRGB">
<feFlood flood-opacity="0" result="BackgroundImageFix"/>
<feColorMatrix in="SourceAlpha" type="matrix" values="0 0 0 0 0 0 0 0 0 0 0 0 0 0 0 0 0 0 127 0" result="hardAlpha"/>
<feOffset/>
<feGaussianBlur stdDeviation="2"/>
<feComposite in2="hardAlpha" operator="out"/>
<feColorMatrix type="matrix" values="0 0 0 0 0 0 0 0 0 0 0 0 0 0 0 0 0 0 0.03 0"/>
<feBlend mode="normal" in2="BackgroundImageFix" result="effect1_dropShadow_686_5976"/>
<feBlend mode="normal" in="SourceGraphic" in2="effect1_dropShadow_686_5976" result="shape"/>
</filter>
<filter id="filter30_d_686_5976" x="678.555" y="303.489" width="77.3035" height="71.7664" filterUnits="userSpaceOnUse" color-interpolation-filters="sRGB">
<feFlood flood-opacity="0" result="BackgroundImageFix"/>
<feColorMatrix in="SourceAlpha" type="matrix" values="0 0 0 0 0 0 0 0 0 0 0 0 0 0 0 0 0 0 127 0" result="hardAlpha"/>
<feOffset/>
<feGaussianBlur stdDeviation="2"/>
<feComposite in2="hardAlpha" operator="out"/>
<feColorMatrix type="matrix" values="0 0 0 0 0 0 0 0 0 0 0 0 0 0 0 0 0 0 0.03 0"/>
<feBlend mode="normal" in2="BackgroundImageFix" result="effect1_dropShadow_686_5976"/>
<feBlend mode="normal" in="SourceGraphic" in2="effect1_dropShadow_686_5976" result="shape"/>
</filter>
<filter id="filter31_d_686_5976" x="646.905" y="277.285" width="65.9722" height="69.9949" filterUnits="userSpaceOnUse" color-interpolation-filters="sRGB">
<feFlood flood-opacity="0" result="BackgroundImageFix"/>
<feColorMatrix in="SourceAlpha" type="matrix" values="0 0 0 0 0 0 0 0 0 0 0 0 0 0 0 0 0 0 127 0" result="hardAlpha"/>
<feOffset/>
<feGaussianBlur stdDeviation="2"/>
<feComposite in2="hardAlpha" operator="out"/>
<feColorMatrix type="matrix" values="0 0 0 0 0 0 0 0 0 0 0 0 0 0 0 0 0 0 0.03 0"/>
<feBlend mode="normal" in2="BackgroundImageFix" result="effect1_dropShadow_686_5976"/>
<feBlend mode="normal" in="SourceGraphic" in2="effect1_dropShadow_686_5976" result="shape"/>
</filter>
<filter id="filter32_d_686_5976" x="545.961" y="232.961" width="77.3035" height="71.7646" filterUnits="userSpaceOnUse" color-interpolation-filters="sRGB">
<feFlood flood-opacity="0" result="BackgroundImageFix"/>
<feColorMatrix in="SourceAlpha" type="matrix" values="0 0 0 0 0 0 0 0 0 0 0 0 0 0 0 0 0 0 127 0" result="hardAlpha"/>
<feOffset/>
<feGaussianBlur stdDeviation="2"/>
<feComposite in2="hardAlpha" operator="out"/>
<feColorMatrix type="matrix" values="0 0 0 0 0 0 0 0 0 0 0 0 0 0 0 0 0 0 0.03 0"/>
<feBlend mode="normal" in2="BackgroundImageFix" result="effect1_dropShadow_686_5976"/>
<feBlend mode="normal" in="SourceGraphic" in2="effect1_dropShadow_686_5976" result="shape"/>
</filter>
<filter id="filter33_d_686_5976" x="671.452" y="241.884" width="77.3035" height="71.7646" filterUnits="userSpaceOnUse" color-interpolation-filters="sRGB">
<feFlood flood-opacity="0" result="BackgroundImageFix"/>
<feColorMatrix in="SourceAlpha" type="matrix" values="0 0 0 0 0 0 0 0 0 0 0 0 0 0 0 0 0 0 127 0" result="hardAlpha"/>
<feOffset/>
<feGaussianBlur stdDeviation="2"/>
<feComposite in2="hardAlpha" operator="out"/>
<feColorMatrix type="matrix" values="0 0 0 0 0 0 0 0 0 0 0 0 0 0 0 0 0 0 0.03 0"/>
<feBlend mode="normal" in2="BackgroundImageFix" result="effect1_dropShadow_686_5976"/>
<feBlend mode="normal" in="SourceGraphic" in2="effect1_dropShadow_686_5976" result="shape"/>
</filter>
<filter id="filter34_d_686_5976" x="688.506" y="142.551" width="90.0757" height="83.5178" filterUnits="userSpaceOnUse" color-interpolation-filters="sRGB">
<feFlood flood-opacity="0" result="BackgroundImageFix"/>
<feColorMatrix in="SourceAlpha" type="matrix" values="0 0 0 0 0 0 0 0 0 0 0 0 0 0 0 0 0 0 127 0" result="hardAlpha"/>
<feOffset/>
<feGaussianBlur stdDeviation="2"/>
<feComposite in2="hardAlpha" operator="out"/>
<feColorMatrix type="matrix" values="0 0 0 0 0 0 0 0 0 0 0 0 0 0 0 0 0 0 0.03 0"/>
<feBlend mode="normal" in2="BackgroundImageFix" result="effect1_dropShadow_686_5976"/>
<feBlend mode="normal" in="SourceGraphic" in2="effect1_dropShadow_686_5976" result="shape"/>
</filter>
<filter id="filter35_d_686_5976" x="819.296" y="180.206" width="92.7585" height="93.3757" filterUnits="userSpaceOnUse" color-interpolation-filters="sRGB">
<feFlood flood-opacity="0" result="BackgroundImageFix"/>
<feColorMatrix in="SourceAlpha" type="matrix" values="0 0 0 0 0 0 0 0 0 0 0 0 0 0 0 0 0 0 127 0" result="hardAlpha"/>
<feOffset/>
<feGaussianBlur stdDeviation="2"/>
<feComposite in2="hardAlpha" operator="out"/>
<feColorMatrix type="matrix" values="0 0 0 0 0 0 0 0 0 0 0 0 0 0 0 0 0 0 0.03 0"/>
<feBlend mode="normal" in2="BackgroundImageFix" result="effect1_dropShadow_686_5976"/>
<feBlend mode="normal" in="SourceGraphic" in2="effect1_dropShadow_686_5976" result="shape"/>
</filter>
<filter id="filter36_d_686_5976" x="450.461" y="67.2166" width="81.3582" height="89.8481" filterUnits="userSpaceOnUse" color-interpolation-filters="sRGB">
<feFlood flood-opacity="0" result="BackgroundImageFix"/>
<feColorMatrix in="SourceAlpha" type="matrix" values="0 0 0 0 0 0 0 0 0 0 0 0 0 0 0 0 0 0 127 0" result="hardAlpha"/>
<feOffset/>
<feGaussianBlur stdDeviation="2"/>
<feComposite in2="hardAlpha" operator="out"/>
<feColorMatrix type="matrix" values="0 0 0 0 0 0 0 0 0 0 0 0 0 0 0 0 0 0 0.03 0"/>
<feBlend mode="normal" in2="BackgroundImageFix" result="effect1_dropShadow_686_5976"/>
<feBlend mode="normal" in="SourceGraphic" in2="effect1_dropShadow_686_5976" result="shape"/>
</filter>
<filter id="filter37_d_686_5976" x="590.552" y="164.922" width="66.6812" height="72.7344" filterUnits="userSpaceOnUse" color-interpolation-filters="sRGB">
<feFlood flood-opacity="0" result="BackgroundImageFix"/>
<feColorMatrix in="SourceAlpha" type="matrix" values="0 0 0 0 0 0 0 0 0 0 0 0 0 0 0 0 0 0 127 0" result="hardAlpha"/>
<feOffset/>
<feGaussianBlur stdDeviation="2"/>
<feComposite in2="hardAlpha" operator="out"/>
<feColorMatrix type="matrix" values="0 0 0 0 0 0 0 0 0 0 0 0 0 0 0 0 0 0 0.03 0"/>
<feBlend mode="normal" in2="BackgroundImageFix" result="effect1_dropShadow_686_5976"/>
<feBlend mode="normal" in="SourceGraphic" in2="effect1_dropShadow_686_5976" result="shape"/>
</filter>
</defs>
</svg>
