<svg width="1080" height="1080" viewBox="0 0 1080 1080" fill="none" xmlns="http://www.w3.org/2000/svg">
<rect width="1080" height="1080" fill="#D9B163"/>
<path d="M840.74 726.397C884.533 741.583 974.499 714.137 1011.99 675.816" stroke="#634713" stroke-width="4" stroke-linecap="round"/>
<path d="M603.914 820.075C627.595 838.264 620.687 896.331 620.687 970.416C616.342 976.258 660.658 971.033 660.658 971.033" stroke="#634713" stroke-width="4" stroke-linecap="round"/>
<path d="M521.831 792.477C500.366 820.075 512.451 896.331 512.451 970.416C516.796 976.258 472.48 971.033 472.48 971.033" stroke="#634713" stroke-width="4" stroke-linecap="round"/>
<path d="M198.525 392.991L925.108 557.478L915.066 909.562C882.116 913.26 266.158 800.315 196.185 757.142L198.525 392.991Z" fill="#FFFBF7"/>
<path d="M198.525 392.991L198.966 391.041C198.376 390.907 197.756 391.048 197.282 391.425C196.807 391.801 196.529 392.373 196.525 392.978L198.525 392.991ZM925.108 557.478L927.107 557.535C927.135 556.579 926.482 555.738 925.55 555.527L925.108 557.478ZM915.066 909.562L915.289 911.549C916.28 911.438 917.037 910.615 917.066 909.619L915.066 909.562ZM196.185 757.142L194.185 757.129C194.18 757.828 194.54 758.478 195.135 758.844L196.185 757.142ZM198.083 394.942L924.667 559.428L925.55 555.527L198.966 391.041L198.083 394.942ZM923.109 557.421L913.067 909.505L917.066 909.619L927.107 557.535L923.109 557.421ZM914.843 907.574C913.034 907.778 908.917 907.583 902.531 906.944C896.23 906.313 887.919 905.272 877.864 903.865C857.758 901.05 830.741 896.776 799.014 891.406C735.562 880.666 653.31 865.549 569.899 848.967C486.485 832.385 401.932 814.341 333.87 797.748C299.837 789.452 269.949 781.523 246.397 774.326C222.769 767.105 205.731 760.682 197.235 755.44L195.135 758.844C204.131 764.395 221.649 770.946 245.228 778.151C268.884 785.38 298.855 793.329 332.923 801.634C401.063 818.246 485.678 836.302 569.119 852.89C652.563 869.479 734.852 884.603 798.346 895.35C830.092 900.723 857.15 905.003 877.309 907.826C887.387 909.237 895.756 910.286 902.132 910.924C908.423 911.554 912.98 911.809 915.289 911.549L914.843 907.574ZM198.185 757.155L200.525 393.004L196.525 392.978L194.185 757.129L198.185 757.155Z" fill="#F8F1EB"/>
<path d="M214.006 702.112L903.21 851.795L901.421 894.646C885.489 904.434 282.352 775.488 215.06 751.26L214.006 702.112Z" fill="#FFDD9C"/>
<path d="M212.666 585.432L901.87 735.115L900.081 777.966C884.149 787.754 281.011 658.807 213.719 634.58L212.666 585.432Z" fill="#FFDD9C"/>
<path d="M213.431 474.98L906.473 624.82L904.685 667.67C888.667 677.455 282.17 548.371 214.501 524.128L213.431 474.98Z" fill="#FFDD9C"/>
<path d="M574.946 195.791L922.446 550.791L198.691 388.962C193.453 260.892 505.326 182.93 574.946 195.791Z" fill="#FFFBF7" stroke="#F8F1EB" stroke-width="4" stroke-linecap="round" stroke-linejoin="round"/>
<path d="M598.039 182.653C596.722 214.572 567.866 239.534 533.303 238.108C498.74 236.682 472.038 209.428 473.355 177.508C474.02 161.407 481.937 140.315 494.132 123.423C506.373 106.467 522.461 94.3502 539.206 95.0411C555.95 95.7319 570.986 109.133 581.789 127.04C592.55 144.879 598.704 166.551 598.039 182.653Z" fill="#FFFBF7" stroke="#F8F1EB" stroke-width="4"/>
<path d="M517.471 201.374C516.09 234.842 488.396 260.807 455.695 259.457C422.995 258.108 397.534 229.95 398.915 196.483C399.609 179.648 407.251 157.613 418.936 139.963C430.694 122.204 446.039 109.61 461.851 110.263C477.663 110.915 491.918 124.73 502.173 143.398C512.365 161.95 518.165 184.54 517.471 201.374Z" fill="#FFFBF7" stroke="#F8F1EB" stroke-width="4"/>
<path d="M442.675 228.979C441.298 262.355 412.32 288.358 377.836 286.936C343.351 285.513 316.614 257.21 317.991 223.835C318.685 207.023 326.654 185.014 338.885 167.388C351.175 149.678 367.286 137.052 383.991 137.741C400.697 138.43 415.712 152.341 426.502 171.003C437.24 189.577 443.369 212.167 442.675 228.979Z" fill="#FFFBF7" stroke="#F8F1EB" stroke-width="4"/>
<path d="M361.499 262.458C360.122 295.834 331.144 321.838 296.66 320.415C262.175 318.992 235.438 290.69 236.815 257.314C237.508 240.502 245.478 218.493 257.709 200.867C269.999 183.158 286.109 170.531 302.815 171.22C319.521 171.91 334.536 185.82 345.325 204.482C356.063 223.056 362.192 245.647 361.499 262.458Z" fill="#FFFBF7" stroke="#F8F1EB" stroke-width="4"/>
<path d="M297.395 328.458C295.902 364.653 265.405 392.78 229.285 391.29C193.166 389.8 165.09 359.256 166.583 323.061C167.335 304.853 175.731 281.037 188.583 261.966C201.502 242.795 218.424 229.117 235.947 229.84C253.469 230.563 269.207 245.589 280.503 265.759C291.74 285.824 298.146 310.25 297.395 328.458Z" fill="#FFFBF7" stroke="#F8F1EB" stroke-width="4"/>
<path d="M643.343 329.775C642.763 351.567 633.86 367.959 619.761 378.802C605.612 389.684 586.066 395.095 564.08 394.511C542.091 393.926 522.163 387.463 507.924 375.801C493.737 364.182 485.085 347.322 485.663 325.584C486.246 303.659 495.922 274.896 511.022 251.763C526.189 228.528 546.34 211.68 567.571 212.244C588.803 212.809 608.03 230.704 621.941 254.711C635.791 278.614 643.925 307.851 643.343 329.775Z" fill="#8F2F22" stroke="#7E2418" stroke-width="4"/>
<circle cx="506.393" cy="731.042" r="33.1983" transform="rotate(-0.738992 506.393 731.042)" fill="#634713"/>
<circle cx="648.517" cy="732.329" r="33.1983" transform="rotate(-0.738992 648.517 732.329)" fill="#634713"/>
<path d="M542.931 783.792C542.991 788.417 543.961 792.984 545.785 797.233C547.61 801.483 550.254 805.331 553.566 808.559C556.878 811.787 560.794 814.331 565.089 816.045C569.384 817.76 573.975 818.612 578.599 818.552C583.223 818.492 587.791 817.522 592.04 815.698C596.29 813.873 600.138 811.229 603.366 807.917C606.594 804.605 609.138 800.689 610.852 796.394C612.567 792.099 613.418 787.508 613.359 782.884L578.145 783.338L542.931 783.792Z" fill="#634713"/>
<path d="M68 683.009C104.485 711.598 198.488 714.865 246.39 690.8" stroke="#634713" stroke-width="4" stroke-linecap="round"/>
<path opacity="0.2" d="M424.613 985.742C424.613 994.515 488.115 1001.63 566.448 1001.63C644.781 1001.63 708.283 1005.6 708.283 985.742C708.283 965.885 644.781 969.856 566.448 969.856C488.115 969.856 424.613 976.969 424.613 985.742Z" fill="#A1783A"/>
</svg>
