<svg width="1080" height="1080" viewBox="0 0 1080 1080" fill="none" xmlns="http://www.w3.org/2000/svg">
<rect width="1080" height="1080" fill="#DAD8FF"/>
<path d="M287.802 613.063C256.313 608.15 214.118 583.589 189.557 524.642" stroke="#D59A28" stroke-width="4" stroke-linecap="round"/>
<path opacity="0.3" d="M467.4 924.039C467.4 933.517 442.521 941.201 411.831 941.201C381.142 941.201 356.263 944.551 356.263 924.039C356.263 903.527 381.142 906.877 411.831 906.877C442.521 906.877 467.4 914.561 467.4 924.039Z" fill="#D59A28"/>
<ellipse opacity="0.3" cx="700.092" cy="924.04" rx="31.2572" ry="10.4191" fill="#D59A28"/>
<path d="M441.717 781.645C419.296 804.294 419.616 905.048 415.165 911.126C410.713 917.204 384.319 911.799 384.319 911.799" stroke="#D59A28" stroke-width="4" stroke-linecap="round"/>
<path d="M585.483 744.53C645.291 766.913 671.508 831.494 677.447 839.466C683.386 847.437 713.201 834.62 713.201 834.62" stroke="#D59A28" stroke-width="4" stroke-linecap="round"/>
<path d="M793.374 366.762C826.856 405.887 795.105 534.083 790.549 563.559C785.993 593.035 784.398 683.522 731.713 714.928C689.853 739.881 612.419 821.618 513.286 815.172C414.154 808.725 376.689 796.239 326.821 748.116C276.953 699.994 259.823 637.927 247.914 579.061C236.005 520.195 265.168 465.825 301.572 425.716C326.585 398.157 380.826 361.729 407.582 334.995C434.339 308.262 451.745 279.302 468.98 253.043C486.216 226.784 536.52 202.918 584.795 211.48C650.397 223.115 678.594 283.388 699.442 307.749C720.289 332.11 759.891 327.637 793.374 366.762Z" fill="#FFFFF8" stroke="#F7F2E2" stroke-width="4"/>
<path d="M655.837 537.26C655.837 597.976 604.144 672.051 500.513 672.051C465.517 672.051 426.258 661.905 397.6 639.996C368.984 618.121 350.906 584.503 358.188 537.378C365.972 487.009 384.109 456.666 409.896 438.882C435.715 421.076 469.34 415.76 508.318 415.76C593.889 415.76 655.837 467.353 655.837 537.26Z" fill="#FFCA63" stroke="#FFC452" stroke-width="1.54667"/>
<circle cx="411.831" cy="545.48" r="27.7842" fill="#D59A28"/>
<circle cx="555.194" cy="550.204" r="27.7842" fill="#D59A28"/>
<path d="M453.507 574.954C453.507 578.824 454.27 582.657 455.751 586.233C457.232 589.809 459.403 593.058 462.14 595.795C464.877 598.532 468.126 600.703 471.702 602.184C475.278 603.665 479.11 604.427 482.981 604.427C486.851 604.427 490.684 603.665 494.26 602.184C497.836 600.703 501.085 598.532 503.822 595.795C506.559 593.058 508.73 589.809 510.211 586.233C511.692 582.657 512.454 578.824 512.454 574.954L482.981 574.954L453.507 574.954Z" fill="#D59A28"/>
<path d="M738.296 594.043C769.607 599.982 817.597 591.004 860.515 543.716" stroke="#D59A28" stroke-width="4" stroke-linecap="round"/>
<path d="M462.378 448.302C452.079 446.661 436.75 449.478 424.033 463.573" stroke="#FFECC7" stroke-width="2.32" stroke-linecap="round"/>
</svg>
