<svg width="1080" height="1080" viewBox="0 0 1080 1080" fill="none" xmlns="http://www.w3.org/2000/svg">
<rect width="1080" height="1080" fill="#FDB1CC"/>
<path d="M876.016 622.48C880.205 664.468 828.313 698.663 776.966 729.36" stroke="#4B862F" stroke-width="4" stroke-linecap="round"/>
<path d="M671.844 871.85C694.817 874.412 740.556 931.43 745.838 932.831C751.12 934.233 763.549 919.147 763.549 919.147" stroke="#4B862F" stroke-width="4" stroke-linecap="round"/>
<path d="M559.254 909.68C542.254 925.349 539.124 998.392 535.696 1002.65C532.268 1006.91 513.325 1002.11 513.325 1002.11" stroke="#4B862F" stroke-width="4" stroke-linecap="round"/>
<path d="M192.14 303.582C190.639 378.439 246.408 585.694 267.753 633.66C305.097 666.749 481.315 503.561 622.477 453.183C613.225 433.84 628.53 407.876 607.252 404.625C580.655 400.561 622.425 364.44 612.544 369.217C602.662 373.994 595.879 338.73 571.016 327.247C546.153 315.764 564.704 273.893 537.737 244.626C510.77 215.359 493.582 224.607 480.704 226.132C467.827 227.657 465.774 188.226 451.213 175.523C436.652 162.821 411.317 169.427 396.756 156.725C382.195 144.022 367.315 84.4696 338.142 80.7105C308.97 76.9514 319.12 140.671 296.781 150.529C274.443 160.388 225.013 85.6581 204.981 96.4782C177.979 111.063 193.01 260.198 192.14 303.582Z" fill="#91CE75" stroke="#86CA67" stroke-width="4"/>
<path fill-rule="evenodd" clip-rule="evenodd" d="M789.149 355.755C783.883 300.498 771.017 225.291 750.621 183.062C720.338 120.36 697.449 97.5134 668.312 101.262C657.609 102.639 647.439 118.345 637.061 134.372C626.482 150.71 615.687 167.381 603.891 169.544C593.375 171.472 585.126 164.735 576.958 158.065C566.977 149.914 557.118 141.863 543.393 149.842C527.272 159.214 524.291 178.508 521.818 194.511C520.463 203.282 519.26 211.063 516.131 215.681C511.712 222.203 503.26 227.291 494.807 232.38C486.355 237.468 477.902 242.556 473.483 249.078C469.372 255.145 469.626 263.153 469.857 270.456C470.122 278.853 470.359 286.318 463.898 288.83C462.141 289.513 460.248 290.148 458.252 290.817C446.514 294.752 431.182 299.892 418.833 323.167C411.609 336.784 415.662 347.216 419.208 356.344C422.755 365.472 425.795 373.295 416.544 381.696C412.238 385.606 410.029 390.569 409.042 395.905C285.838 436.217 280.242 516.517 369.746 771.073C408.249 870.169 561.095 912.806 669.837 877.722C817.222 820.406 820.045 713.29 817.442 602.851C807.083 545.371 804.051 495.009 801.53 453.145C799.057 412.064 797.076 379.166 789.149 355.755Z" fill="#C4E897"/>
<path d="M750.621 183.062L748.821 183.933L750.621 183.062ZM789.149 355.755L787.254 356.397L787.18 356.177L787.158 355.945L789.149 355.755ZM668.312 101.262L668.567 103.246L668.312 101.262ZM637.061 134.372L635.383 133.285L637.061 134.372ZM603.891 169.544L604.252 171.511L603.891 169.544ZM576.958 158.065L578.223 156.515L578.223 156.515L576.958 158.065ZM543.393 149.842L544.398 151.571L543.393 149.842ZM521.818 194.511L519.842 194.206L519.842 194.206L521.818 194.511ZM516.131 215.681L517.787 216.803L516.131 215.681ZM494.807 232.38L493.776 230.666L493.776 230.666L494.807 232.38ZM473.483 249.078L475.139 250.2L473.483 249.078ZM469.857 270.456L467.858 270.52L469.857 270.456ZM458.252 290.817L458.887 292.714L458.252 290.817ZM418.833 323.167L417.067 322.23L418.833 323.167ZM416.544 381.696L417.888 383.177L417.888 383.177L416.544 381.696ZM409.042 395.905L411.009 396.268L410.792 397.437L409.663 397.806L409.042 395.905ZM369.746 771.073L367.882 771.798L367.871 771.767L367.86 771.737L369.746 771.073ZM669.837 877.722L670.562 879.587L670.507 879.608L670.451 879.626L669.837 877.722ZM817.442 602.851L819.41 602.495L819.437 602.648L819.441 602.803L817.442 602.851ZM801.53 453.145L803.527 453.024L801.53 453.145ZM752.422 182.192C772.985 224.769 785.872 300.29 791.139 355.565L787.158 355.945C781.894 300.707 769.048 225.813 748.821 183.933L752.422 182.192ZM668.058 99.278C683.355 97.31 696.95 102.398 710.447 115.825C723.849 129.156 737.261 150.8 752.422 182.192L748.821 183.933C733.698 152.622 720.525 131.492 707.627 118.661C694.824 105.926 682.407 101.465 668.567 103.246L668.058 99.278ZM635.383 133.285C640.551 125.303 645.761 117.25 651.04 111.029C656.25 104.888 661.898 100.07 668.058 99.278L668.567 103.246C664.023 103.83 659.234 107.554 654.089 113.617C649.012 119.601 643.949 127.414 638.74 135.459L635.383 133.285ZM603.531 167.577C608.701 166.629 613.959 162.405 619.407 155.98C624.803 149.618 630.074 141.484 635.383 133.285L638.74 135.459C633.469 143.598 628.053 151.969 622.457 158.567C616.914 165.104 610.878 170.297 604.252 171.511L603.531 167.577ZM578.223 156.515C586.571 163.333 594.08 169.309 603.531 167.577L604.252 171.511C592.67 173.635 583.68 166.137 575.693 159.614L578.223 156.515ZM542.389 148.112C549.781 143.815 556.305 143.792 562.282 146.032C568.077 148.203 573.297 152.493 578.223 156.515L575.693 159.614C570.637 155.486 565.938 151.674 560.877 149.778C555.998 147.949 550.73 147.89 544.398 151.571L542.389 148.112ZM519.842 194.206C521.072 186.243 522.461 177.203 525.621 168.973C528.797 160.699 533.816 153.096 542.389 148.112L544.398 151.571C536.85 155.959 532.317 162.69 529.354 170.406C526.375 178.168 525.037 186.777 523.794 194.816L519.842 194.206ZM514.476 214.559C515.836 212.552 516.852 209.733 517.694 206.191C518.533 202.665 519.161 198.613 519.842 194.206L523.794 194.816C523.12 199.18 522.469 203.403 521.585 207.116C520.706 210.812 519.556 214.192 517.787 216.803L514.476 214.559ZM493.776 230.666C498.019 228.112 502.165 225.614 505.801 222.954C509.441 220.291 512.451 217.547 514.476 214.559L517.787 216.803C515.392 220.337 511.967 223.398 508.162 226.182C504.355 228.968 500.048 231.559 495.838 234.093L493.776 230.666ZM471.828 247.956C474.222 244.422 477.648 241.361 481.452 238.577C485.26 235.791 489.567 233.2 493.776 230.666L495.838 234.093C491.595 236.647 487.45 239.145 483.813 241.805C480.174 244.468 477.163 247.212 475.139 250.2L471.828 247.956ZM467.858 270.52C467.632 263.384 467.286 254.66 471.828 247.956L475.139 250.2C471.458 255.631 471.619 262.922 471.856 270.392L467.858 270.52ZM463.173 286.966C465.6 286.022 466.829 284.211 467.447 281.418C468.097 278.485 467.993 274.799 467.858 270.52L471.856 270.392C471.986 274.51 472.133 278.755 471.352 282.282C470.54 285.949 468.656 289.126 464.622 290.694L463.173 286.966ZM457.616 288.921C459.623 288.248 461.469 287.629 463.173 286.966L464.622 290.694C462.813 291.398 460.874 292.048 458.887 292.714L457.616 288.921ZM417.067 322.23C423.383 310.325 430.515 302.97 437.642 298.089C444.742 293.228 451.754 290.886 457.616 288.921L458.887 292.714C453.011 294.684 446.489 296.879 439.901 301.39C433.341 305.882 426.632 312.734 420.6 324.104L417.067 322.23ZM417.344 357.069C413.786 347.91 409.389 336.7 417.067 322.23L420.6 324.104C413.828 336.867 417.538 346.521 421.072 355.619L417.344 357.069ZM415.199 380.216C419.459 376.348 420.715 372.818 420.675 369.316C420.634 365.603 419.153 361.723 417.344 357.069L421.072 355.619C422.81 360.092 424.623 364.688 424.675 369.269C424.729 374.061 422.88 378.644 417.888 383.177L415.199 380.216ZM407.076 395.542C408.121 389.891 410.493 384.49 415.199 380.216L417.888 383.177C413.984 386.722 411.937 391.248 411.009 396.268L407.076 395.542ZM409.663 397.806C379.02 407.833 355.916 420.276 339.783 437.118C323.691 453.917 314.388 475.244 311.619 503.343C308.844 531.498 312.634 566.417 322.75 610.281C332.862 654.129 349.266 706.796 371.633 770.409L367.86 771.737C345.474 708.071 329.014 655.243 318.852 611.181C308.694 567.135 304.802 531.73 307.638 502.952C310.48 474.117 320.083 451.902 336.895 434.351C353.665 416.844 377.462 404.133 408.421 394.004L409.663 397.806ZM371.61 770.348C390.569 819.142 437.792 854.263 494.078 872.815C550.34 891.359 615.301 893.216 669.224 875.819L670.451 879.626C615.632 897.312 549.798 895.393 492.826 876.615C435.878 857.845 387.427 822.099 367.882 771.798L371.61 770.348ZM669.113 875.858C742.356 847.375 779.452 806.637 798.024 759.475C816.659 712.155 816.745 658.161 815.442 602.898L819.441 602.803C820.742 657.979 820.718 712.763 801.746 760.94C782.712 809.275 744.703 850.754 670.562 879.587L669.113 875.858ZM815.474 603.206C805.091 545.597 802.054 495.128 799.534 453.266L803.527 453.024C806.047 494.89 809.074 545.145 819.41 602.495L815.474 603.206ZM799.534 453.266C797.054 412.068 795.076 379.493 787.254 356.397L791.043 355.113C799.077 378.839 801.06 412.06 803.527 453.024L799.534 453.266Z" fill="#B6E081"/>
<path d="M603.722 520.095C648.624 466.081 688.13 281.209 665.111 217.178" stroke="#E0FFBA" stroke-width="4" stroke-linecap="round"/>
<path d="M664.553 303.654C655.663 295.645 636.709 276.636 632.017 264.677" stroke="#E0FFBA" stroke-width="4" stroke-linecap="round"/>
<path d="M627.689 473.394C610.381 461.023 574.63 427.525 570.087 392.506" stroke="#E0FFBA" stroke-width="4" stroke-linecap="round"/>
<path d="M651.64 393.353C641.112 383.97 619.066 358.834 615.104 333.358" stroke="#E0FFBA" stroke-width="4" stroke-linecap="round"/>
<path d="M635.16 470.46C652.801 456.823 689.205 425.084 693.692 407.22" stroke="#E0FFBA" stroke-width="4" stroke-linecap="round"/>
<path d="M662.576 379.188C674.554 370.65 699.72 350.8 704.56 339.698" stroke="#E0FFBA" stroke-width="4" stroke-linecap="round"/>
<path d="M667.578 296.716C679.377 290.165 703.386 275.178 705.024 267.634" stroke="#E0FFBA" stroke-width="4" stroke-linecap="round"/>
<path fill-rule="evenodd" clip-rule="evenodd" d="M212.721 519.26C191.448 467.995 167.525 395.543 165.723 348.677C163.048 279.089 172.541 248.168 200.028 237.797C210.126 233.987 226.474 243.08 243.156 252.359C260.163 261.819 277.516 271.471 288.946 267.841C299.137 264.606 303.26 254.784 307.344 245.058C312.333 233.175 317.262 221.436 333.124 222.037C351.756 222.743 363.44 238.38 373.131 251.35C378.442 258.458 383.155 264.765 388.084 267.373C395.046 271.057 404.896 271.581 414.747 272.105C424.598 272.629 434.449 273.153 441.411 276.837C447.887 280.264 451.42 287.454 454.642 294.011C458.347 301.551 461.64 308.253 468.524 307.438C470.395 307.216 472.364 306.888 474.442 306.541C486.652 304.505 502.602 301.844 524.425 316.597C537.193 325.229 538.508 336.344 539.658 346.069C540.809 355.794 541.795 364.131 553.905 367.205C559.541 368.636 563.821 371.981 567.195 376.229C694.898 353.974 737.512 422.252 777.899 689.056C790.389 794.639 675.427 904.058 562.947 924.139C405.915 942.734 353.17 849.474 303.658 750.732C285.84 695.113 264.89 649.219 247.476 611.069C230.388 573.633 216.704 543.655 212.721 519.26Z" fill="#BFE897"/>
<path d="M165.723 348.677L167.722 348.6L165.723 348.677ZM212.721 519.26L214.695 518.938L214.657 518.708L214.568 518.494L212.721 519.26ZM200.028 237.797L200.734 239.668L200.028 237.797ZM243.156 252.359L242.184 254.107L243.156 252.359ZM288.946 267.841L288.341 265.935L288.946 267.841ZM307.344 245.058L305.5 244.284L305.5 244.284L307.344 245.058ZM333.124 222.037L333.048 224.035L333.124 222.037ZM373.131 251.35L371.529 252.547L373.131 251.35ZM388.084 267.373L387.148 269.141L388.084 267.373ZM414.747 272.105L414.854 270.108L414.747 272.105ZM441.411 276.837L442.346 275.069L441.411 276.837ZM454.642 294.011L452.847 294.894L452.847 294.894L454.642 294.011ZM474.442 306.541L474.113 304.569L474.442 306.541ZM524.425 316.597L523.305 318.254L524.425 316.597ZM539.658 346.069L537.672 346.304L539.658 346.069ZM553.905 367.205L554.397 365.266L553.905 367.205ZM567.195 376.229L565.629 377.474L566.368 378.404L567.539 378.2L567.195 376.229ZM777.899 689.056L779.885 688.821L779.881 688.789L779.876 688.757L777.899 689.056ZM562.947 924.139L563.182 926.126L563.241 926.119L563.299 926.108L562.947 924.139ZM303.658 750.732L301.754 751.343L301.801 751.49L301.871 751.629L303.658 750.732ZM247.476 611.069L245.657 611.899L247.476 611.069ZM163.725 348.754C165.541 396.006 189.593 468.745 210.874 520.027L214.568 518.494C193.302 467.245 169.509 395.079 167.722 348.6L163.725 348.754ZM199.322 235.925C184.891 241.371 175.273 252.247 169.654 270.441C164.075 288.505 162.385 313.915 163.725 348.754L167.722 348.6C166.386 313.851 168.106 289.007 173.476 271.621C178.806 254.364 187.678 244.594 200.734 239.668L199.322 235.925ZM244.129 250.611C235.821 245.99 227.442 241.326 219.862 238.311C212.38 235.335 205.133 233.733 199.322 235.925L200.734 239.668C205.021 238.05 210.996 239.09 218.384 242.028C225.674 244.927 233.81 249.449 242.184 254.107L244.129 250.611ZM288.341 265.935C283.332 267.526 276.707 266.265 268.882 263.15C261.133 260.066 252.663 255.358 244.129 250.611L242.184 254.107C250.657 258.82 259.366 263.668 267.402 266.867C275.363 270.036 283.13 271.786 289.551 269.748L288.341 265.935ZM305.5 244.284C301.326 254.225 297.499 263.027 288.341 265.935L289.551 269.748C300.774 266.184 305.195 255.343 309.188 245.832L305.5 244.284ZM333.2 220.038C324.656 219.714 318.885 222.757 314.658 227.542C310.56 232.18 307.962 238.42 305.5 244.284L309.188 245.832C311.715 239.813 314.076 234.241 317.655 230.19C321.106 226.284 325.73 223.758 333.048 224.035L333.2 220.038ZM374.733 250.152C369.911 243.698 364.443 236.368 357.793 230.585C351.106 224.77 343.108 220.414 333.2 220.038L333.048 224.035C341.772 224.366 348.932 228.181 355.168 233.604C361.44 239.058 366.66 246.031 371.529 252.547L374.733 250.152ZM389.019 265.605C386.877 264.471 384.658 262.459 382.252 259.727C379.857 257.008 377.402 253.724 374.733 250.152L371.529 252.547C374.172 256.084 376.728 259.507 379.25 262.371C381.76 265.221 384.362 267.666 387.148 269.141L389.019 265.605ZM414.854 270.108C409.909 269.845 405.076 269.586 400.617 268.944C396.154 268.302 392.209 267.293 389.019 265.605L387.148 269.141C390.921 271.137 395.382 272.232 400.047 272.904C404.717 273.576 409.735 273.841 414.641 274.102L414.854 270.108ZM442.346 275.069C438.574 273.073 434.113 271.978 429.448 271.307C424.778 270.634 419.76 270.369 414.854 270.108L414.641 274.102C419.586 274.365 424.418 274.624 428.877 275.266C433.34 275.908 437.286 276.917 440.475 278.605L442.346 275.069ZM456.437 293.129C453.289 286.723 449.502 278.856 442.346 275.069L440.475 278.605C446.273 281.673 449.551 288.186 452.847 294.894L456.437 293.129ZM468.289 305.452C465.703 305.758 463.769 304.735 461.912 302.559C459.963 300.274 458.325 296.971 456.437 293.129L452.847 294.894C454.664 298.591 456.525 302.408 458.869 305.156C461.307 308.012 464.46 309.933 468.759 309.424L468.289 305.452ZM474.113 304.569C472.025 304.917 470.105 305.237 468.289 305.452L468.759 309.424C470.686 309.196 472.704 308.859 474.771 308.514L474.113 304.569ZM525.545 314.94C514.383 307.395 504.635 304.248 496.052 303.286C487.502 302.327 480.211 303.551 474.113 304.569L474.771 308.514C480.883 307.495 487.672 306.371 495.606 307.261C503.505 308.147 512.644 311.047 523.305 318.254L525.545 314.94ZM541.644 345.834C540.49 336.076 539.113 324.113 525.545 314.94L523.305 318.254C535.272 326.345 536.525 336.611 537.672 346.304L541.644 345.834ZM554.397 365.266C548.822 363.851 546.057 361.324 544.448 358.213C542.744 354.914 542.231 350.794 541.644 345.834L537.672 346.304C538.236 351.07 538.792 355.98 540.895 360.05C543.095 364.306 546.878 367.484 553.413 369.143L554.397 365.266ZM568.761 374.985C565.187 370.486 560.559 366.83 554.397 365.266L553.413 369.143C558.524 370.441 562.454 373.476 565.629 377.474L568.761 374.985ZM567.539 378.2C599.301 372.664 625.54 372.804 647.687 380.1C669.777 387.377 687.997 401.842 703.625 425.353C719.284 448.911 732.319 481.525 743.964 525.007C755.606 568.474 765.829 622.682 775.921 689.356L779.876 688.757C769.775 622.028 759.526 567.65 747.828 523.972C736.134 480.309 722.962 447.218 706.956 423.138C690.919 399.011 672.018 383.904 648.939 376.301C625.917 368.716 598.941 368.667 566.852 374.259L567.539 378.2ZM775.913 689.291C782.063 741.28 756.841 794.466 715.843 837.278C674.862 880.07 618.373 912.213 562.596 922.17L563.299 926.108C620.002 915.985 677.233 883.377 718.731 840.044C760.212 796.729 786.225 742.415 779.885 688.821L775.913 689.291ZM562.712 922.153C484.675 931.394 432.808 912.841 394.282 879.916C355.628 846.883 330.222 799.245 305.446 749.836L301.871 751.629C326.607 800.961 352.329 849.325 391.683 882.957C431.166 916.7 484.188 935.479 563.182 926.126L562.712 922.153ZM305.563 750.122C287.704 694.377 266.709 648.387 249.296 610.238L245.657 611.899C263.072 650.051 283.975 695.848 301.754 751.343L305.563 750.122ZM249.296 610.238C232.159 572.697 218.624 543.004 214.695 518.938L210.747 519.583C214.784 544.305 228.617 574.57 245.657 611.899L249.296 610.238Z" fill="#B4E187"/>
<path d="M524.889 720.228C527.675 713.264 536.927 702.62 551.641 715.751" stroke="#4B862F" stroke-width="3" stroke-linecap="round"/>
<path d="M430.722 590.848C367.824 559.611 256.97 406.51 252.144 338.635" stroke="#E0FFBA" stroke-width="4" stroke-linecap="round"/>
<path d="M287.606 417.501C292.5 406.579 302.152 381.526 301.61 368.69" stroke="#E0FFBA" stroke-width="4" stroke-linecap="round"/>
<path d="M389.928 557.832C400.757 539.515 419.916 494.416 409.918 460.549" stroke="#E0FFBA" stroke-width="4" stroke-linecap="round"/>
<path d="M335.671 494.315C341.507 481.474 351.511 449.567 344.838 424.663" stroke="#E0FFBA" stroke-width="4" stroke-linecap="round"/>
<path d="M381.908 558.17C360.262 552.834 314.138 538.532 302.814 524.01" stroke="#E0FFBA" stroke-width="4" stroke-linecap="round"/>
<path d="M319.945 485.782C305.539 482.82 274.499 474.845 265.584 466.65" stroke="#E0FFBA" stroke-width="4" stroke-linecap="round"/>
<path d="M282.035 412.378C268.595 411.161 240.579 407.166 236.032 400.929" stroke="#E0FFBA" stroke-width="4" stroke-linecap="round"/>
<path d="M631.898 704.136C635.225 697.414 645.287 687.532 658.92 701.784" stroke="#4B862F" stroke-width="3" stroke-linecap="round"/>
<path d="M612.8 725.386C613.154 728.172 612.956 731.001 612.217 733.71C611.478 736.42 610.212 738.957 608.493 741.177C606.774 743.398 604.634 745.257 602.197 746.65C599.759 748.044 597.071 748.943 594.286 749.297C591.501 749.65 588.674 749.452 585.966 748.713C583.257 747.973 580.721 746.707 578.502 744.987C576.283 743.267 574.424 741.127 573.031 738.688C571.639 736.25 570.74 733.56 570.386 730.774L591.593 728.08L612.8 725.386Z" fill="#4B862F"/>
<path d="M406.586 820.536C384.377 826.95 356.261 848.488 343.975 893.166" stroke="#4B862F" stroke-width="4" stroke-linecap="round"/>
<path opacity="0.3" d="M464.995 1012.57C464.995 1025.32 490.201 1025.32 521.295 1025.32C552.389 1025.32 577.595 1019.61 577.595 1012.57C577.595 1005.54 552.389 999.831 521.295 999.831C490.201 999.831 464.995 993.46 464.995 1012.57Z" fill="#4B862F"/>
</svg>
