<svg width="1080" height="1080" viewBox="0 0 1080 1080" fill="none" xmlns="http://www.w3.org/2000/svg">
<rect width="1080" height="1080" fill="#71D3C0"/>
<path opacity="0.2" d="M782.117 905.113C782.117 913.988 706.865 921.183 614.037 921.183C521.209 921.183 445.957 925.201 445.957 905.113C445.957 885.025 521.209 889.043 614.037 889.043C706.865 889.043 782.117 896.238 782.117 905.113Z" fill="#805125"/>
<path d="M560.889 700.138C570.514 736.373 462.193 853.513 462.411 862.549C462.63 871.584 501.702 893.781 501.702 893.781" stroke="#805125" stroke-width="4" stroke-linecap="round"/>
<path d="M644.886 704.393C676.32 726.671 673.021 885.072 679.218 891.979C685.414 898.885 729.632 891.979 729.632 891.979" stroke="#805125" stroke-width="4" stroke-linecap="round"/>
<mask id="path-4-inside-1_686_5654" fill="white">
<path fill-rule="evenodd" clip-rule="evenodd" d="M845.513 270.478L985.868 626.992C988.657 631.594 990.549 636.359 991.491 641.275L991.769 641.979L991.622 641.991C991.813 643.099 991.956 644.214 992.05 645.337C998.009 716.318 807.139 790.29 565.73 810.557C324.32 830.824 123.788 789.712 117.829 718.73C117.735 717.607 117.69 716.484 117.694 715.36L117.548 715.372L117.703 714.639C117.812 709.623 118.887 704.598 120.877 699.583L199.782 325.324C201.397 282.299 341.128 236.193 516.276 221.489C682.575 207.528 822.112 226.803 843.291 264.867L843.303 264.866L843.335 264.947C844.329 266.749 845.058 268.594 845.513 270.478Z"/>
</mask>
<path fill-rule="evenodd" clip-rule="evenodd" d="M845.513 270.478L985.868 626.992C988.657 631.594 990.549 636.359 991.491 641.275L991.769 641.979L991.622 641.991C991.813 643.099 991.956 644.214 992.05 645.337C998.009 716.318 807.139 790.29 565.73 810.557C324.32 830.824 123.788 789.712 117.829 718.73C117.735 717.607 117.69 716.484 117.694 715.36L117.548 715.372L117.703 714.639C117.812 709.623 118.887 704.598 120.877 699.583L199.782 325.324C201.397 282.299 341.128 236.193 516.276 221.489C682.575 207.528 822.112 226.803 843.291 264.867L843.303 264.866L843.335 264.947C844.329 266.749 845.058 268.594 845.513 270.478Z" fill="#FFCE85"/>
<path d="M985.868 626.992L982.146 628.457L982.271 628.774L982.447 629.065L985.868 626.992ZM845.513 270.478L841.624 271.416L841.689 271.685L841.791 271.944L845.513 270.478ZM991.491 641.275L987.563 642.028L987.633 642.393L987.77 642.74L991.491 641.275ZM991.769 641.979L992.103 645.965L997.46 645.515L995.491 640.514L991.769 641.979ZM991.622 641.991L991.287 638.005L986.939 638.371L987.68 642.671L991.622 641.991ZM117.694 715.36L121.694 715.373L121.708 711.009L117.359 711.374L117.694 715.36ZM117.548 715.372L113.634 714.547L112.525 719.808L117.883 719.358L117.548 715.372ZM117.703 714.639L121.617 715.464L121.694 715.099L121.702 714.726L117.703 714.639ZM120.877 699.583L124.595 701.059L124.721 700.742L124.791 700.408L120.877 699.583ZM199.782 325.324L203.696 326.149L203.766 325.815L203.779 325.474L199.782 325.324ZM843.291 264.867L839.795 266.812L841.051 269.069L843.625 268.853L843.291 264.867ZM843.303 264.866L847.025 263.401L845.935 260.631L842.969 260.88L843.303 264.866ZM843.335 264.947L839.613 266.412L839.708 266.653L839.833 266.879L843.335 264.947ZM989.59 625.527L849.235 269.013L841.791 271.944L982.146 628.457L989.59 625.527ZM995.42 640.521C994.379 635.094 992.299 629.886 989.29 624.919L982.447 629.065C985.015 633.302 986.719 637.624 987.563 642.028L995.42 640.521ZM995.491 640.514L995.213 639.809L987.77 642.74L988.047 643.444L995.491 640.514ZM991.957 645.977L992.103 645.965L991.434 637.993L991.287 638.005L991.957 645.977ZM996.036 645.002C995.932 643.763 995.774 642.533 995.564 641.312L987.68 642.671C987.851 643.665 987.98 644.665 988.064 645.671L996.036 645.002ZM566.064 814.543C687.039 804.387 795.503 780.767 873.098 750.695C911.871 735.668 943.157 718.948 964.45 701.33C985.632 683.803 997.691 664.717 996.036 645.002L988.064 645.671C989.388 661.447 979.824 678.226 959.35 695.166C938.987 712.014 908.584 728.362 870.208 743.235C793.505 772.961 685.829 796.46 565.395 806.571L566.064 814.543ZM113.843 719.065C115.498 738.779 130.571 755.588 154.379 769.337C178.312 783.158 211.948 794.429 252.682 802.78C334.205 819.494 445.089 824.699 566.064 814.543L565.395 806.571C444.961 816.682 334.874 811.465 254.289 794.943C213.97 786.677 181.267 775.627 158.38 762.41C135.368 749.12 123.14 734.171 121.815 718.395L113.843 719.065ZM113.694 715.347C113.69 716.587 113.739 717.826 113.843 719.065L121.815 718.395C121.731 717.389 121.69 716.381 121.694 715.373L113.694 715.347ZM117.883 719.358L118.028 719.346L117.359 711.374L117.213 711.387L117.883 719.358ZM113.789 713.814L113.634 714.547L121.462 716.198L121.617 715.464L113.789 713.814ZM117.159 698.108C115.011 703.52 113.824 709.014 113.704 714.552L121.702 714.726C121.799 710.232 122.762 705.676 124.595 701.059L117.159 698.108ZM195.868 324.499L116.963 698.758L124.791 700.408L203.696 326.149L195.868 324.499ZM203.779 325.474C204.104 316.819 211.572 306.86 227.489 296.355C243.133 286.029 265.85 275.904 294.203 266.586C350.86 247.966 429.258 232.808 516.611 225.475L515.941 217.503C428.146 224.874 349.105 240.121 291.705 258.986C263.03 268.41 239.564 278.799 223.082 289.678C206.872 300.377 196.267 312.316 195.785 325.174L203.779 325.474ZM516.611 225.475C599.545 218.512 675.705 219.848 733.671 227.633C762.668 231.527 786.973 237.016 805.251 243.817C823.745 250.697 835.237 258.62 839.795 266.812L846.786 262.923C840.755 252.083 826.863 243.321 808.041 236.319C789.002 229.235 764.058 223.642 734.736 219.704C676.065 211.825 599.307 210.504 515.941 217.503L516.611 225.475ZM842.969 260.88L842.956 260.881L843.625 268.853L843.638 268.852L842.969 260.88ZM847.057 263.482L847.025 263.401L839.581 266.331L839.613 266.412L847.057 263.482ZM839.833 266.879C840.668 268.393 841.26 269.904 841.624 271.416L849.401 269.541C848.857 267.283 847.991 265.106 846.837 263.015L839.833 266.879Z" fill="#F8BF69" mask="url(#path-4-inside-1_686_5654)"/>
<path d="M830.42 239.96L830.479 240.112L830.561 240.252C840.889 257.764 850.395 273.333 858.85 287.181C863.155 294.232 867.187 300.836 870.918 307.025C882.004 325.416 890.409 340.114 895.514 352.103C900.64 364.141 902.261 373.061 900.297 380.061C898.369 386.929 892.822 392.479 882.203 397.388C841.708 414.066 809.509 418.783 779.556 417.04C749.629 415.298 721.854 407.108 690.044 397.729L689.728 397.635C625.805 378.787 546.429 355.524 403.415 371.655C376.168 374.729 353.379 388.965 332.815 408.259C314.215 425.711 297.287 447.451 280.459 469.062C278.706 471.312 276.954 473.562 275.202 475.805C256.567 499.658 237.846 522.803 216.727 539.736C195.655 556.631 172.313 567.247 144.414 566.198C137.083 565.923 131.93 562.451 128.39 556.322C124.774 550.062 122.842 541.002 122.357 529.748C121.387 507.271 126.209 476.968 133.479 445.34C145.212 394.29 163.189 340.312 172.9 311.151C175.215 304.2 177.06 298.659 178.239 294.904C181.885 283.295 192.467 272.312 209.524 262.13C226.535 251.976 249.701 242.789 278.003 234.643C334.596 218.356 411.372 206.329 499.642 198.919C587.931 191.506 666.116 189.564 724.613 195.71C753.869 198.784 778.088 203.87 796.151 211.243C814.25 218.631 825.84 228.176 830.42 239.96Z" fill="#985213" stroke="#985213" stroke-width="4"/>
<path d="M826.098 235.327C826.417 239.124 824.856 243.209 821.119 247.584C817.379 251.964 811.592 256.468 803.854 261.006C788.386 270.076 765.527 279.047 736.887 287.394C679.641 304.078 599.712 318.149 510.685 325.623C421.658 333.097 340.501 332.549 281.274 325.644C251.644 322.189 227.609 317.154 210.846 310.791C202.459 307.607 196.002 304.131 191.584 300.436C187.171 296.745 184.95 292.977 184.631 289.18C184.313 285.383 185.874 281.298 189.61 276.923C193.35 272.543 199.137 268.039 206.876 263.502C222.343 254.432 245.203 245.461 273.842 237.114C331.089 220.43 411.018 206.359 500.045 198.885C589.072 191.41 670.228 191.958 729.455 198.864C759.085 202.319 783.12 207.353 799.884 213.717C808.27 216.901 814.727 220.377 819.145 224.072C823.559 227.763 825.779 231.53 826.098 235.327Z" fill="#BF6B1D" stroke="#985213" stroke-width="4"/>
<circle cx="507.308" cy="517.927" r="40.2171" transform="rotate(-5.20761 507.308 517.927)" fill="#8B4B12"/>
<circle cx="679.079" cy="506.066" r="40.2171" transform="rotate(-5.20761 679.079 506.066)" fill="#8B4B12"/>
<path d="M556.416 578.189C556.924 583.769 558.527 589.193 561.132 594.153C563.737 599.113 567.293 603.512 571.598 607.098C575.903 610.683 580.872 613.386 586.221 615.051C591.57 616.716 597.195 617.312 602.774 616.803C608.354 616.295 613.778 614.692 618.739 612.087C623.699 609.483 628.097 605.926 631.683 601.621C635.268 597.317 637.971 592.348 639.636 586.998C641.302 581.649 641.897 576.024 641.389 570.445L598.902 574.317L556.416 578.189Z" fill="#8B4B12"/>
<ellipse cx="447.271" cy="608.623" rx="40.9951" ry="20.4976" transform="rotate(-3.94952 447.271 608.623)" fill="#EFB258"/>
<ellipse cx="757.939" cy="575.827" rx="40.9951" ry="20.4976" transform="rotate(-3.94952 757.939 575.827)" fill="#EFB258"/>
<path d="M667.331 645.837C687.53 675.539 724.425 702.056 761.624 702.056" stroke="#8B4B12" stroke-width="4" stroke-linecap="round"/>
<path d="M589.44 700.138C582.936 707.823 549.357 729.407 511.549 731.272" stroke="#8B4B12" stroke-width="4" stroke-linecap="round"/>
</svg>
