<svg width="1080" height="1080" viewBox="0 0 1080 1080" fill="none" xmlns="http://www.w3.org/2000/svg">
<rect width="1080" height="1080" fill="#FCD9AB"/>
<path d="M135.448 562.831C121.924 529.031 95.887 464.745 163.199 436.748" stroke="#757575" stroke-width="4" stroke-linecap="round"/>
<path d="M148.092 575.577C131.572 432.041 231.733 302.698 371.693 286.59C511.654 270.482 638.578 373.69 655.098 517.226C671.617 660.762 571.457 790.105 431.496 806.213C291.536 822.321 164.611 719.113 148.092 575.577Z" fill="#F8F8F8" stroke="#EBEBEB" stroke-width="4"/>
<circle cx="410.495" cy="413.022" r="31.1476" transform="rotate(163.002 410.495 413.022)" fill="#757575"/>
<circle cx="281.065" cy="439.243" r="28.5752" transform="rotate(163.002 281.065 439.243)" fill="#757575"/>
<mask id="path-5-inside-1_686_5775" fill="white">
<path fill-rule="evenodd" clip-rule="evenodd" d="M923.534 700.179C894.926 694.457 806.069 694.613 726.407 696.119C747.49 669.159 763.133 638.284 772.453 605.234C781.833 571.971 784.625 537.155 780.668 502.776C776.711 468.396 766.084 435.125 749.393 404.862C732.701 374.6 710.273 347.938 683.389 326.4C656.504 304.862 625.689 288.869 592.704 279.334C559.719 269.8 498.239 267.511 491.908 269.171C491.873 269.18 491.84 269.197 491.807 269.222C469.644 270.453 351.178 286.943 351.178 286.943L351.18 286.961C498.915 271.875 631.303 374.658 647.808 518.065C664.313 661.472 558.735 791.642 411.435 810.511L411.439 810.539C411.439 810.539 507.023 800.78 550.891 794.611C566.837 794.227 587.354 793.435 610.683 792.536C708.846 788.75 856.799 783.044 923.535 797.643C1012.65 817.137 979.228 711.318 923.534 700.179Z"/>
</mask>
<path fill-rule="evenodd" clip-rule="evenodd" d="M923.534 700.179C894.926 694.457 806.069 694.613 726.407 696.119C747.49 669.159 763.133 638.284 772.453 605.234C781.833 571.971 784.625 537.155 780.668 502.776C776.711 468.396 766.084 435.125 749.393 404.862C732.701 374.6 710.273 347.938 683.389 326.4C656.504 304.862 625.689 288.869 592.704 279.334C559.719 269.8 498.239 267.511 491.908 269.171C491.873 269.18 491.84 269.197 491.807 269.222C469.644 270.453 351.178 286.943 351.178 286.943L351.18 286.961C498.915 271.875 631.303 374.658 647.808 518.065C664.313 661.472 558.735 791.642 411.435 810.511L411.439 810.539C411.439 810.539 507.023 800.78 550.891 794.611C566.837 794.227 587.354 793.435 610.683 792.536C708.846 788.75 856.799 783.044 923.535 797.643C1012.65 817.137 979.228 711.318 923.534 700.179Z" fill="#267029"/>
<path d="M726.407 696.119L723.256 693.655L718.077 700.277L726.482 700.118L726.407 696.119ZM923.534 700.179L924.319 696.256L923.534 700.179ZM772.453 605.234L776.303 606.32L772.453 605.234ZM780.668 502.776L776.694 503.233L780.668 502.776ZM749.393 404.862L745.89 406.794L749.393 404.862ZM683.389 326.4L680.888 329.522L683.389 326.4ZM592.704 279.334L593.815 275.492L592.704 279.334ZM491.908 269.171L492.922 273.04L492.922 273.04L491.908 269.171ZM491.807 269.222L492.029 273.215L493.261 273.147L494.24 272.397L491.807 269.222ZM351.178 286.943L350.627 282.981L346.758 283.52L347.204 287.4L351.178 286.943ZM351.18 286.961L347.206 287.419L347.658 291.342L351.587 290.941L351.18 286.961ZM411.435 810.511L410.927 806.544L407.01 807.046L407.462 810.969L411.435 810.511ZM411.439 810.539L407.465 810.997L407.916 814.92L411.845 814.519L411.439 810.539ZM550.891 794.611L550.794 790.612L550.563 790.618L550.334 790.65L550.891 794.611ZM610.683 792.536L610.529 788.539L610.683 792.536ZM923.535 797.643L922.68 801.551L923.535 797.643ZM726.482 700.118C766.296 699.366 808.376 698.951 844.061 699.438C879.898 699.927 908.876 701.326 922.75 704.101L924.319 696.256C909.585 693.31 879.83 691.926 844.171 691.439C808.359 690.95 766.18 691.366 726.331 692.119L726.482 700.118ZM768.603 604.148C759.424 636.7 744.017 667.106 723.256 693.655L729.558 698.583C750.962 671.212 766.842 639.869 776.303 606.32L768.603 604.148ZM776.694 503.233C780.592 537.096 777.842 571.387 768.603 604.148L776.303 606.32C785.825 572.554 788.658 537.215 784.642 502.318L776.694 503.233ZM745.89 406.794C762.329 436.6 772.797 469.37 776.694 503.233L784.642 502.318C780.626 467.422 769.838 433.65 752.895 402.93L745.89 406.794ZM680.888 329.522C707.362 350.732 729.451 376.988 745.89 406.794L752.895 402.93C735.952 372.211 713.184 345.145 685.89 323.278L680.888 329.522ZM591.594 283.177C624.071 292.565 654.413 308.312 680.888 329.522L685.89 323.278C658.595 301.412 627.308 285.173 593.815 275.492L591.594 283.177ZM492.922 273.04C492.922 273.04 493.013 273.018 493.236 272.985C493.447 272.955 493.725 272.922 494.077 272.891C494.783 272.828 495.704 272.775 496.836 272.738C499.096 272.663 502.073 272.653 505.617 272.717C512.7 272.846 521.931 273.27 532.005 274.043C552.231 275.595 575.511 278.528 591.594 283.177L593.815 275.492C576.913 270.606 552.96 267.628 532.617 266.067C522.407 265.283 513.019 264.85 505.762 264.719C502.138 264.653 499.015 264.662 496.572 264.742C494.294 264.818 492.19 264.962 490.894 265.302L492.922 273.04ZM494.24 272.397C493.908 272.651 493.468 272.897 492.922 273.04L490.894 265.302C490.279 265.463 489.771 265.743 489.375 266.046L494.24 272.397ZM351.178 286.943C351.73 290.905 351.73 290.905 351.731 290.904C351.732 290.904 351.733 290.904 351.735 290.904C351.738 290.903 351.744 290.903 351.751 290.902C351.765 290.9 351.787 290.897 351.815 290.893C351.872 290.885 351.957 290.873 352.069 290.857C352.294 290.826 352.627 290.78 353.063 290.719C353.936 290.598 355.218 290.421 356.859 290.194C360.14 289.741 364.852 289.093 370.576 288.31C382.025 286.746 397.519 284.647 413.705 282.51C446.185 278.221 481.141 273.821 492.029 273.215L491.585 265.228C480.31 265.854 444.952 270.314 412.658 274.579C396.456 276.718 380.949 278.818 369.493 280.384C363.765 281.167 359.049 281.816 355.765 282.269C354.122 282.496 352.838 282.674 351.964 282.795C351.528 282.856 351.193 282.902 350.968 282.934C350.856 282.949 350.77 282.961 350.713 282.969C350.684 282.973 350.663 282.976 350.648 282.978C350.641 282.979 350.636 282.98 350.632 282.98C350.63 282.981 350.629 282.981 350.628 282.981C350.627 282.981 350.627 282.981 351.178 286.943ZM355.154 286.504L355.152 286.486L347.204 287.4L347.206 287.419L355.154 286.504ZM351.587 290.941C497.263 276.065 627.593 377.407 643.834 518.522L651.782 517.608C635.013 371.908 500.567 267.686 350.774 282.982L351.587 290.941ZM643.834 518.522C660.075 659.638 556.174 787.937 410.927 806.544L411.944 814.479C561.296 795.347 668.55 663.307 651.782 517.608L643.834 518.522ZM415.412 810.082L415.409 810.054L407.462 810.969L407.465 810.997L415.412 810.082ZM550.334 790.65C528.469 793.725 493.664 797.701 464.28 800.912C449.597 802.517 436.284 803.929 426.642 804.94C421.821 805.445 417.918 805.851 415.22 806.129C413.871 806.269 412.824 806.376 412.114 806.449C411.759 806.486 411.488 806.513 411.307 806.532C411.216 806.541 411.147 806.548 411.101 806.553C411.078 806.555 411.061 806.557 411.049 806.558C411.044 806.559 411.039 806.559 411.036 806.56C411.035 806.56 411.034 806.56 411.033 806.56C411.033 806.56 411.032 806.56 411.439 810.539C411.845 814.519 411.845 814.519 411.846 814.519C411.847 814.519 411.848 814.518 411.849 814.518C411.852 814.518 411.857 814.518 411.863 814.517C411.874 814.516 411.892 814.514 411.915 814.512C411.961 814.507 412.03 814.5 412.121 814.49C412.304 814.472 412.575 814.444 412.931 814.407C413.643 814.334 414.692 814.226 416.042 814.087C418.743 813.808 422.651 813.402 427.476 812.896C437.127 811.885 450.452 810.471 465.149 808.865C494.524 805.655 529.445 801.666 551.448 798.572L550.334 790.65ZM610.529 788.539C587.189 789.439 566.705 790.229 550.794 790.612L550.987 798.61C566.969 798.225 587.519 797.432 610.837 796.533L610.529 788.539ZM924.39 793.736C890.543 786.332 836.462 784.121 778.889 784.195C721.201 784.27 659.598 786.646 610.529 788.539L610.837 796.533C659.931 794.639 721.385 792.27 778.899 792.195C836.527 792.121 889.791 794.356 922.68 801.551L924.39 793.736ZM922.75 704.101C935.57 706.665 947.363 714.749 956.523 725.45C965.682 736.15 971.934 749.153 973.889 761.047C975.853 772.992 973.423 783.075 966.348 789.175C959.211 795.329 946.142 798.494 924.39 793.736L922.68 801.551C945.483 806.539 961.653 803.787 971.572 795.234C981.554 786.628 983.997 773.216 981.783 759.75C979.561 746.233 972.585 731.912 962.6 720.247C952.615 708.583 939.346 699.262 924.319 696.256L922.75 704.101Z" fill="#1A601D" mask="url(#path-5-inside-1_686_5775)"/>
<path d="M445.783 492.098C447.469 489.601 450.536 488.433 453.346 489.302C468.713 494.053 482.865 501.928 494.778 512.386C508.087 524.069 518.189 538.614 524.195 554.728C530.201 570.842 531.927 588.029 529.225 604.768C526.523 621.506 519.475 637.286 508.704 650.71C497.932 664.134 483.766 674.791 467.456 681.731C451.145 688.671 433.196 691.679 415.197 690.484C397.199 689.29 379.711 683.929 364.285 674.879C350.658 666.883 339.014 656.228 330.138 643.676C328.342 641.137 328.71 637.654 330.932 635.326L392.471 570.847C392.825 570.476 393.147 570.076 393.433 569.651L445.783 492.098Z" fill="#F5E767" stroke="#E4D651" stroke-width="2"/>
<path d="M322.892 638.475C325.893 623.655 338.64 611.511 355.46 603.938C372.256 596.376 392.909 593.474 411.346 596.992C429.815 600.516 448.445 610.069 461.673 622.506C474.922 634.964 482.578 650.134 479.584 664.917C476.582 679.743 465.455 690 450.326 695.692C435.186 701.388 416.141 702.459 397.631 698.927C379.086 695.388 358.801 687.662 343.951 677.065C329.061 666.438 319.92 653.152 322.892 638.475Z" fill="#B4DE92" stroke="#A1D279" stroke-width="2"/>
<path d="M388.381 691.033C387.434 695.349 383.15 698.147 378.896 696.967C362.728 692.483 347.697 684.67 334.819 674.015C319.899 661.671 308.327 645.894 301.13 628.08C293.933 610.267 291.331 590.967 293.556 571.89C295.781 552.814 302.764 534.549 313.886 518.715C325.009 502.88 339.927 489.965 357.319 481.112C374.712 472.259 394.042 467.742 413.598 467.961C433.153 468.181 452.331 473.13 469.431 482.369C484.138 490.316 496.918 501.225 506.955 514.351C509.653 517.879 508.532 522.911 504.744 525.327L414.555 582.844C412.737 584.003 411.455 585.834 410.996 587.928L388.381 691.033Z" fill="#ECA979"/>
<mask id="mask0_686_5775" style="mask-type:alpha" maskUnits="userSpaceOnUse" x="292" y="467" width="217" height="231">
<path d="M388.381 691.033C387.434 695.349 383.15 698.147 378.896 696.967C362.728 692.483 347.697 684.67 334.819 674.015C319.899 661.671 308.327 645.894 301.13 628.08C293.933 610.267 291.331 590.967 293.556 571.89C295.781 552.814 302.764 534.549 313.886 518.715C325.009 502.88 339.927 489.965 357.319 481.112C374.712 472.259 394.042 467.742 413.598 467.961C433.153 468.181 452.331 473.13 469.431 482.369C484.138 490.316 496.918 501.225 506.955 514.351C509.653 517.879 508.532 522.911 504.744 525.327L414.555 582.844C412.737 584.003 411.455 585.834 410.996 587.928L388.381 691.033Z" fill="#ECA979"/>
</mask>
<g mask="url(#mask0_686_5775)">
<path d="M308.496 508.342C324.158 559.686 362.407 667.324 390.108 687.123" stroke="#FFE7DD" stroke-width="4" stroke-linecap="round" stroke-linejoin="round"/>
<path d="M352.035 470.432C367.697 521.775 405.946 629.413 433.646 649.212" stroke="#FFE7DD" stroke-width="4" stroke-linecap="round" stroke-linejoin="round"/>
<path d="M417.094 456.355C432.756 507.699 471.005 615.336 498.706 635.135" stroke="#FFE7DD" stroke-width="4" stroke-linecap="round" stroke-linejoin="round"/>
</g>
<mask id="path-14-inside-2_686_5775" fill="white">
<path d="M388.381 691.033C387.434 695.349 383.15 698.147 378.896 696.967C362.728 692.483 347.697 684.67 334.819 674.015C319.899 661.671 308.327 645.894 301.13 628.08C293.933 610.267 291.331 590.967 293.556 571.89C295.781 552.814 302.764 534.549 313.886 518.715C325.009 502.88 339.927 489.965 357.319 481.112C374.712 472.259 394.042 467.742 413.598 467.961C433.153 468.181 452.331 473.13 469.431 482.369C484.138 490.316 496.918 501.225 506.955 514.351C509.653 517.879 508.532 522.911 504.744 525.327L414.555 582.844C412.737 584.003 411.455 585.834 410.996 587.928L388.381 691.033Z"/>
</mask>
<path d="M388.381 691.033C387.434 695.349 383.15 698.147 378.896 696.967C362.728 692.483 347.697 684.67 334.819 674.015C319.899 661.671 308.327 645.894 301.13 628.08C293.933 610.267 291.331 590.967 293.556 571.89C295.781 552.814 302.764 534.549 313.886 518.715C325.009 502.88 339.927 489.965 357.319 481.112C374.712 472.259 394.042 467.742 413.598 467.961C433.153 468.181 452.331 473.13 469.431 482.369C484.138 490.316 496.918 501.225 506.955 514.351C509.653 517.879 508.532 522.911 504.744 525.327L414.555 582.844C412.737 584.003 411.455 585.834 410.996 587.928L388.381 691.033Z" stroke="#DF9966" stroke-width="4" mask="url(#path-14-inside-2_686_5775)"/>
<path d="M355.127 364.997C343.429 358.236 316.018 351.757 299.963 379.933" stroke="#757575" stroke-width="4" stroke-linecap="round" stroke-linejoin="round"/>
<path d="M649.566 402.378C663.838 347.578 655.649 297.815 609.882 272.332" stroke="#757575" stroke-width="4" stroke-linecap="round"/>
</svg>
