<svg width="1080" height="1080" viewBox="0 0 1080 1080" fill="none" xmlns="http://www.w3.org/2000/svg">
<rect width="1080" height="1080" fill="#FDB1CC"/>
<path d="M316.485 558.666C277.442 548.403 225.688 484.904 217.167 439" stroke="#300808" stroke-width="4" stroke-linecap="round"/>
<path d="M526.759 846C506.135 861.842 515.911 958.294 515.911 1022.82C519.695 1027.9 481.099 1023.35 481.099 1023.35" stroke="#300808" stroke-width="4" stroke-linecap="round"/>
<path d="M604.985 870.704C599.388 896.101 636.531 930.944 678.044 980.338C684.214 981.798 651.74 1003.15 651.74 1003.15" stroke="#300808" stroke-width="4" stroke-linecap="round"/>
<path d="M641.698 584.804C679.838 598.031 758.192 574.127 790.84 540.752" stroke="#300808" stroke-width="4" stroke-linecap="round"/>
<path fill-rule="evenodd" clip-rule="evenodd" d="M453.291 120.215C451.948 118.334 452.482 115.717 454.396 114.424C466.053 106.551 472.209 98.8162 470.632 92.4845C466.799 77.1028 418.773 75.8256 363.361 89.6317C307.95 103.438 266.137 127.099 269.97 142.481C271.547 148.813 280.615 152.755 294.605 154.238C296.903 154.482 298.602 156.543 298.299 158.834L259.307 453.612C259.306 453.612 259.306 453.613 259.306 453.613C259.306 453.613 259.305 453.613 259.306 453.614L259.306 453.615C259.306 453.615 259.306 453.616 259.306 453.616L483.084 897.503C483.926 899.172 485.81 900.036 487.623 899.584L657.707 857.206C659.592 856.737 660.867 854.981 660.73 853.043L626.033 362.243C626.033 362.243 626.033 362.243 626.034 362.243C626.034 362.243 626.034 362.243 626.034 362.243L626.033 362.242C626.033 362.242 626.033 362.242 626.033 362.242L626.033 362.241C626.033 362.241 626.033 362.24 626.033 362.24C626.032 362.241 626.032 362.24 626.032 362.24L453.291 120.215Z" fill="#403838"/>
<path d="M387.163 549.067C389.176 540.691 398.652 526.581 420.455 537.158" stroke="#BBBBBB" stroke-width="3" stroke-linecap="round"/>
<path d="M530.55 505.649C533.263 495.388 544.42 478.842 567.352 494.748" stroke="#BBBBBB" stroke-width="3" stroke-linecap="round"/>
<path d="M510.111 542.754C511.389 546.517 511.914 550.495 511.655 554.461C511.397 558.426 510.36 562.302 508.603 565.867C506.847 569.431 504.407 572.615 501.421 575.235C498.435 577.856 494.962 579.863 491.2 581.141C487.439 582.418 483.463 582.943 479.498 582.683C475.534 582.424 471.66 581.385 468.097 579.628C464.533 577.871 461.35 575.428 458.73 572.441C456.11 569.453 454.104 565.978 452.826 562.215L481.469 552.484L510.111 542.754Z" fill="#BBBBBB"/>
<ellipse opacity="0.3" cx="392.804" cy="589.25" rx="14.5" ry="11.5" transform="rotate(-11.5238 392.804 589.25)" fill="#FF3535"/>
<ellipse opacity="0.3" rx="14.5" ry="9" transform="matrix(-0.979842 0.199775 0.199775 0.979842 592.516 527.61)" fill="#FF3535"/>
<path opacity="0.3" d="M366.725 429.006C367.037 430.534 365.639 434.99 359.454 436.251C353.27 437.512 348.82 441.301 347.692 435.768C346.564 430.235 351.014 426.446 357.198 425.185C363.383 423.924 366.413 427.478 366.725 429.006Z" fill="#56BCFF"/>
<ellipse opacity="0.3" cx="367.988" cy="441.038" rx="5.5" ry="3" transform="rotate(-11.5238 367.988 441.038)" fill="#56BCFF"/>
<path d="M451 115C452.835 120.816 420.645 136.157 379.102 149.264C337.558 162.372 300.835 161.316 299 155.5" stroke="#5E5C5C" stroke-width="4"/>
<path d="M624.797 365C631.36 391.931 555.465 433.555 455.282 457.97C355.098 482.384 268.563 480.345 262 453.414" stroke="#5E5C5C" stroke-width="4"/>
</svg>
