<svg width="1080" height="1080" viewBox="0 0 1080 1080" fill="none" xmlns="http://www.w3.org/2000/svg">
<rect width="1080" height="1080" fill="#EDA868"/>
<path d="M754.949 881.596C707.317 860.323 662.187 840.419 629.593 780.094" stroke="#A78736" stroke-width="4" stroke-linecap="round"/>
<path d="M591.559 920.082C608.139 937.089 604.029 1009.64 607.26 1014.16C610.491 1018.67 631.238 1015.6 631.238 1015.6" stroke="#A78736" stroke-width="4" stroke-linecap="round"/>
<path d="M539.912 878.423C539.275 906.02 476.247 986.006 475.188 992.375C474.129 998.745 492.288 1013.18 492.288 1013.18" stroke="#A78736" stroke-width="4" stroke-linecap="round"/>
<mask id="path-4-inside-1_686_5602" fill="white">
<path fill-rule="evenodd" clip-rule="evenodd" d="M376.284 80.5492C376.285 80.5916 376.287 80.6341 376.289 80.6767L405.796 832.072C405.796 832.102 405.797 832.132 405.798 832.162C406.542 851.112 465.234 891.191 540.659 927.742C616.084 964.293 717.331 972.35 719.835 950.477L719.836 950.478L719.836 950.471C719.993 949.092 719.932 947.6 719.661 946.005L690.379 200.329C692.691 173.876 637.11 128.48 561.692 91.9321C486.267 55.381 375.539 61.5991 376.284 80.5492Z"/>
</mask>
<path fill-rule="evenodd" clip-rule="evenodd" d="M376.284 80.5492C376.285 80.5916 376.287 80.6341 376.289 80.6767L405.796 832.072C405.796 832.102 405.797 832.132 405.798 832.162C406.542 851.112 465.234 891.191 540.659 927.742C616.084 964.293 717.331 972.35 719.835 950.477L719.836 950.478L719.836 950.471C719.993 949.092 719.932 947.6 719.661 946.005L690.379 200.329C692.691 173.876 637.11 128.48 561.692 91.9321C486.267 55.381 375.539 61.5991 376.284 80.5492Z" fill="#FFE091"/>
<path d="M376.289 80.6767L380.286 80.5197L380.285 80.4946L380.284 80.4694L376.289 80.6767ZM376.284 80.5492L372.287 80.7061L376.284 80.5492ZM405.796 832.072L409.795 831.992L409.794 831.953L409.793 831.915L405.796 832.072ZM405.798 832.162L401.801 832.319L405.798 832.162ZM540.659 927.742L538.915 931.341L540.659 927.742ZM719.835 950.477L722.939 947.953L716.942 940.579L715.861 950.022L719.835 950.477ZM719.836 950.478L716.733 953.002L724.304 962.312L723.833 950.321L719.836 950.478ZM719.836 950.471L715.862 950.018L715.827 950.322L715.839 950.628L719.836 950.471ZM719.661 946.005L715.664 946.162L715.674 946.421L715.717 946.676L719.661 946.005ZM690.379 200.329L686.394 199.981L686.372 200.233L686.382 200.486L690.379 200.329ZM561.692 91.9321L559.948 95.5317L561.692 91.9321ZM380.284 80.4694C380.283 80.4434 380.281 80.4177 380.28 80.3922L372.287 80.7061C372.289 80.7654 372.292 80.8247 372.295 80.884L380.284 80.4694ZM409.793 831.915L380.286 80.5197L372.292 80.8336L401.799 832.229L409.793 831.915ZM409.795 832.005C409.795 832.001 409.795 831.996 409.795 831.992L401.796 832.152C401.798 832.208 401.799 832.263 401.801 832.319L409.795 832.005ZM542.404 924.142C504.816 905.927 471.486 886.874 447.519 870.076C435.523 861.668 425.987 853.904 419.448 847.166C416.179 843.796 413.743 840.768 412.125 838.123C410.484 835.439 409.851 833.42 409.795 832.005L401.801 832.319C401.932 835.642 403.296 839.02 405.301 842.298C407.33 845.615 410.191 849.113 413.707 852.736C420.74 859.985 430.73 868.078 442.928 876.627C467.349 893.744 501.078 913.006 538.915 931.341L542.404 924.142ZM715.861 950.022C715.747 951.02 715.065 952.357 712.528 953.805C709.969 955.266 706.051 956.502 700.762 957.342C690.234 959.012 675.382 958.948 658.029 957.042C623.368 953.236 579.652 942.193 542.404 924.142L538.915 931.341C577.091 949.842 621.711 961.102 657.156 964.994C674.856 966.938 690.499 967.071 702.016 965.243C707.75 964.333 712.742 962.895 716.494 960.753C720.268 958.598 723.298 955.402 723.809 950.932L715.861 950.022ZM722.94 947.954L722.939 947.953L716.732 953.001L716.733 953.002L722.94 947.954ZM715.839 950.628L715.839 950.635L723.833 950.321L723.833 950.314L715.839 950.628ZM715.717 946.676C715.937 947.967 715.969 949.076 715.862 950.018L723.81 950.924C724.017 949.109 723.927 947.233 723.604 945.334L715.717 946.676ZM686.382 200.486L715.664 946.162L723.657 945.848L694.376 200.172L686.382 200.486ZM559.948 95.5317C597.452 113.706 629.904 134.027 652.621 152.987C663.989 162.475 672.797 171.521 678.59 179.686C684.457 187.955 686.849 194.779 686.394 199.981L694.364 200.677C695.065 192.652 691.377 183.883 685.115 175.057C678.78 166.128 669.413 156.582 657.747 146.845C634.397 127.357 601.35 106.705 563.437 88.3325L559.948 95.5317ZM380.28 80.3922C380.274 80.2342 380.332 79.1731 383.041 77.5039C385.615 75.9182 389.696 74.3845 395.243 73.0883C406.267 70.5122 422.041 69.1077 440.355 69.4271C476.991 70.0661 522.912 77.584 559.948 95.5317L563.437 88.3325C525.048 69.7291 477.892 62.0806 440.494 61.4283C421.791 61.1021 405.308 62.5209 393.423 65.2981C387.515 66.6786 382.479 68.4541 378.845 70.6928C375.347 72.8481 372.107 76.1267 372.287 80.7061L380.28 80.3922Z" fill="#FCDA82" mask="url(#path-4-inside-1_686_5602)"/>
<path d="M663.389 200.384C661.764 222.096 573.954 210.99 510.376 180.18C446.798 149.37 404.975 117.324 403.755 95.0242C402.535 72.7241 490.781 79.1724 554.359 109.982C617.937 140.792 665.014 178.672 663.389 200.384Z" fill="#EFD182"/>
<path d="M393.438 89.2083C439.04 137.188 556.936 227.743 663.702 206.131" stroke="#FCDA82" stroke-width="4" stroke-linecap="round" stroke-linejoin="round"/>
<path d="M635.425 347.802L647.207 647.831" stroke="#F2D078" stroke-width="4" stroke-linecap="round" stroke-linejoin="round"/>
<path d="M567.405 299.325L584.702 739.795" stroke="#F2D078" stroke-width="4" stroke-linecap="round" stroke-linejoin="round"/>
<path d="M500.39 276.382L516.182 678.55" stroke="#F2D078" stroke-width="4" stroke-linecap="round" stroke-linejoin="round"/>
<path d="M445.823 233.771L465.125 725.309" stroke="#F2D078" stroke-width="4" stroke-linecap="round" stroke-linejoin="round"/>
<circle cx="527.933" cy="818.233" r="21.344" transform="rotate(-3.54332 527.933 818.233)" fill="#A78736"/>
<circle cx="618.923" cy="810.028" r="21.344" transform="rotate(-3.54332 618.923 810.028)" fill="#A78736"/>
<path d="M557.785 846.583C558.018 849.175 558.845 851.689 560.219 853.979C561.592 856.27 563.485 858.293 565.788 859.933C568.092 861.573 570.762 862.798 573.646 863.538C576.529 864.278 579.57 864.518 582.594 864.246C585.618 863.973 588.567 863.192 591.271 861.948C593.976 860.704 596.383 859.021 598.357 856.996C600.33 854.97 601.83 852.641 602.771 850.141C603.712 847.642 604.077 845.022 603.843 842.429L580.814 844.506L557.785 846.583Z" fill="#A78736"/>
<path d="M330.391 871.488C369.209 848.197 400.264 821.024 424.692 784.108" stroke="#A78736" stroke-width="4" stroke-linecap="round"/>
<path opacity="0.2" d="M655.335 1028.55C655.342 1035.7 609.501 1041.54 552.947 1041.59C496.393 1041.64 450.549 1044.92 450.535 1028.73C450.52 1012.55 496.369 1015.74 552.924 1015.69C609.478 1015.64 655.329 1021.4 655.335 1028.55Z" fill="#A78736"/>
</svg>
