<svg width="1080" height="1080" viewBox="0 0 1080 1080" fill="none" xmlns="http://www.w3.org/2000/svg">
<rect width="1080" height="1080" fill="#C5C2E7"/>
<path opacity="0.2" d="M692.648 1022.5C692.648 1030.6 615.652 1037.16 520.674 1037.16C425.695 1037.16 348.7 1040.82 348.7 1022.5C348.7 1004.19 425.695 1007.85 520.674 1007.85C615.652 1007.85 692.648 1014.41 692.648 1022.5Z" fill="#7D501B"/>
<path d="M332.973 687.966C295.357 682.098 116.34 611.27 87 540.854" stroke="#7D501B" stroke-width="4" stroke-linecap="round"/>
<path d="M444.351 806.374C412.871 837.508 421.276 997.751 415.15 1006.45C409.025 1015.14 369.442 1000.81 369.442 1000.81" stroke="#7D501B" stroke-width="4" stroke-linecap="round"/>
<path d="M520.674 804.423C589.806 841.697 621.747 947.787 628.784 960.909C635.821 974.031 669.567 953.325 669.567 953.325" stroke="#7D501B" stroke-width="4" stroke-linecap="round"/>
<mask id="path-5-inside-1_686_5621" fill="white">
<path fill-rule="evenodd" clip-rule="evenodd" d="M902.531 489.434C928.145 474.81 945.705 447.804 953.288 402.146C978.911 247.861 968.736 158.997 659.375 107.62C350.014 56.2417 255.693 130.843 227.436 300.984C215.325 373.908 259.838 408.553 329.079 427.955C311.848 537.769 291.818 645.074 266.135 766.302C265.266 770.402 267.45 774.436 271.476 775.6C324.573 790.948 668.031 889.697 724.246 892.313C775.72 894.709 835.83 878.719 853.288 873.685C856.33 872.809 858.497 870.239 858.853 867.094C862.679 833.341 884.533 640.707 896.146 542.129C898.087 525.651 900.255 507.809 902.531 489.434Z"/>
</mask>
<path fill-rule="evenodd" clip-rule="evenodd" d="M902.531 489.434C928.145 474.81 945.705 447.804 953.288 402.146C978.911 247.861 968.736 158.997 659.375 107.62C350.014 56.2417 255.693 130.843 227.436 300.984C215.325 373.908 259.838 408.553 329.079 427.955C311.848 537.769 291.818 645.074 266.135 766.302C265.266 770.402 267.45 774.436 271.476 775.6C324.573 790.948 668.031 889.697 724.246 892.313C775.72 894.709 835.83 878.719 853.288 873.685C856.33 872.809 858.497 870.239 858.853 867.094C862.679 833.341 884.533 640.707 896.146 542.129C898.087 525.651 900.255 507.809 902.531 489.434Z" fill="#AE7A3C"/>
<path d="M902.531 489.434L900.547 485.96L898.807 486.954L898.561 488.943L902.531 489.434ZM329.079 427.955L333.031 428.575L333.582 425.063L330.159 424.103L329.079 427.955ZM266.135 766.302L270.048 767.131L266.135 766.302ZM271.476 775.6L272.587 771.757L272.587 771.757L271.476 775.6ZM724.246 892.313L724.432 888.318L724.246 892.313ZM853.288 873.685L854.397 877.529L853.288 873.685ZM858.853 867.094L862.828 867.545L862.828 867.545L858.853 867.094ZM896.146 542.129L900.118 542.597L896.146 542.129ZM949.342 401.49C941.884 446.396 924.786 472.122 900.547 485.96L904.514 492.908C931.503 477.499 949.526 449.211 957.234 402.801L949.342 401.49ZM658.72 111.566C813.391 137.253 891.839 172.157 928.817 218.778C965.604 265.159 962.178 324.204 949.342 401.49L957.234 402.801C970.022 325.802 974.32 263.274 935.085 213.807C896.04 164.58 814.72 129.364 660.03 103.674L658.72 111.566ZM231.382 301.639C245.412 217.161 275.644 157.468 339.806 124.797C404.379 91.9171 504.192 85.9021 658.72 111.566L660.03 103.674C505.196 77.9592 403.168 83.5561 336.176 117.668C268.774 151.988 237.717 214.667 223.49 300.329L231.382 301.639ZM330.159 424.103C295.806 414.477 268.235 401.228 250.717 381.857C233.395 362.703 225.493 337.1 231.382 301.639L223.49 300.329C217.268 337.792 225.567 365.974 244.784 387.223C263.805 408.256 293.112 422.031 328 431.807L330.159 424.103ZM270.048 767.131C295.744 645.843 315.787 538.468 333.031 428.575L325.128 427.335C307.908 537.069 287.892 644.304 262.222 765.473L270.048 767.131ZM272.587 771.757C270.758 771.228 269.574 769.371 270.048 767.131L262.222 765.473C260.959 771.433 264.143 777.644 270.366 779.443L272.587 771.757ZM724.432 888.318C710.844 887.685 679.256 881.14 638.189 871.243C597.308 861.39 547.487 848.333 497.736 834.87C398.241 807.946 299.129 779.429 272.587 771.757L270.366 779.443C296.921 787.119 396.085 815.65 495.647 842.592C545.425 856.062 595.327 869.142 636.315 879.02C677.116 888.854 709.541 895.633 724.06 896.309L724.432 888.318ZM852.18 869.842C834.746 874.869 775.191 890.68 724.432 888.318L724.06 896.309C776.249 898.738 836.913 882.569 854.397 877.529L852.18 869.842ZM854.879 866.644C854.704 868.185 853.665 869.414 852.18 869.842L854.397 877.529C858.994 876.203 862.289 872.293 862.828 867.545L854.879 866.644ZM892.173 541.661C880.559 640.25 858.704 832.894 854.879 866.644L862.828 867.545C866.654 833.789 888.506 641.164 900.118 542.597L892.173 541.661ZM898.561 488.943C896.284 507.323 894.116 525.173 892.173 541.661L900.118 542.597C902.058 526.129 904.225 508.295 906.5 489.926L898.561 488.943Z" fill="#AE7A3C" mask="url(#path-5-inside-1_686_5621)"/>
<mask id="path-7-inside-2_686_5621" fill="white">
<path fill-rule="evenodd" clip-rule="evenodd" d="M825.824 509.933C852.202 497.189 869.996 472.65 877.049 430.187C900.385 289.673 888.803 208.356 577.533 156.661C266.262 104.967 247.328 181.215 223.991 321.729C215.816 370.953 229.087 402.05 257.535 422.967C239.937 543.682 220.683 648.115 189.738 795.47C188.802 799.926 191.752 804.333 196.244 805.079L773.28 900.911C777.837 901.668 782.082 898.466 782.55 893.87C786.294 857.06 801.574 707.979 813.406 609.322C817.039 579.028 821.404 544.328 825.824 509.933Z"/>
</mask>
<path fill-rule="evenodd" clip-rule="evenodd" d="M825.824 509.933C852.202 497.189 869.996 472.65 877.049 430.187C900.385 289.673 888.803 208.356 577.533 156.661C266.262 104.967 247.328 181.215 223.991 321.729C215.816 370.953 229.087 402.05 257.535 422.967C239.937 543.682 220.683 648.115 189.738 795.47C188.802 799.926 191.752 804.333 196.244 805.079L773.28 900.911C777.837 901.668 782.082 898.466 782.55 893.87C786.294 857.06 801.574 707.979 813.406 609.322C817.039 579.028 821.404 544.328 825.824 509.933Z" fill="#FFF0D2"/>
<path d="M825.824 509.933L824.084 506.331L822.133 507.274L821.857 509.423L825.824 509.933ZM257.535 422.967L261.493 423.544L261.839 421.167L259.904 419.744L257.535 422.967ZM189.738 795.47L193.652 796.292L189.738 795.47ZM773.28 900.911L772.624 904.857L773.28 900.911ZM782.55 893.87L778.57 893.465L782.55 893.87ZM813.406 609.322L809.435 608.845L813.406 609.322ZM873.103 429.531C866.203 471.075 848.995 494.296 824.084 506.331L827.564 513.535C855.408 500.083 873.79 474.225 880.995 430.842L873.103 429.531ZM576.877 160.607C654.563 173.509 713.356 188.23 757.497 205.183C801.642 222.138 830.895 241.236 849.76 262.754C887.286 305.556 884.785 359.19 873.103 429.531L880.995 430.842C892.649 360.669 896.025 303.388 855.776 257.48C835.753 234.642 805.206 214.937 760.365 197.715C715.518 180.49 656.137 165.661 578.188 152.715L576.877 160.607ZM227.937 322.384C239.678 251.693 250.139 199.513 294.962 170.474C317.427 155.919 348.92 146.937 394.437 144.881C439.95 142.824 499.186 147.705 576.877 160.607L578.188 152.715C500.244 139.771 440.387 134.796 394.076 136.889C347.768 138.981 314.705 148.15 290.612 163.76C242.315 195.05 231.641 251.251 220.045 321.073L227.937 322.384ZM259.904 419.744C246.237 409.695 236.35 397.317 230.801 381.629C225.234 365.893 223.927 346.53 227.937 322.384L220.045 321.073C215.881 346.151 217.122 366.949 223.259 384.297C229.412 401.693 240.385 415.322 255.165 426.19L259.904 419.744ZM193.652 796.292C224.609 648.882 243.88 544.364 261.493 423.544L253.577 422.39C235.994 543 216.756 647.348 185.823 794.648L193.652 796.292ZM196.899 801.133C194.698 800.767 193.174 798.567 193.652 796.292L185.823 794.648C184.429 801.285 188.805 807.898 195.588 809.025L196.899 801.133ZM773.935 896.965L196.899 801.133L195.588 809.025L772.624 904.857L773.935 896.965ZM778.57 893.465C778.339 895.735 776.245 897.349 773.935 896.965L772.624 904.857C779.429 905.987 785.825 901.198 786.529 894.275L778.57 893.465ZM809.435 608.845C797.598 707.544 782.314 856.66 778.57 893.465L786.529 894.275C790.274 857.46 805.551 708.414 817.378 609.798L809.435 608.845ZM821.857 509.423C817.436 543.824 813.069 578.536 809.435 608.845L817.378 609.798C821.009 579.52 825.372 544.832 829.792 510.443L821.857 509.423Z" fill="#C28946" mask="url(#path-7-inside-2_686_5621)"/>
<path d="M962.967 891.104C934.395 883.76 846.77 836.974 829.555 783.236" stroke="#7D501B" stroke-width="4" stroke-linecap="round"/>
<circle cx="384.99" cy="672.893" r="33.1902" transform="rotate(1.61008 384.99 672.893)" fill="#7D501B"/>
<circle cx="555.485" cy="683.345" r="33.1902" transform="rotate(1.61008 555.485 683.345)" fill="#7D501B"/>
<path d="M435.043 709.486C434.913 714.108 435.695 718.71 437.344 723.03C438.992 727.35 441.476 731.302 444.652 734.662C447.828 738.022 451.635 740.724 455.855 742.612C460.075 744.501 464.626 745.54 469.248 745.67C473.87 745.8 478.472 745.018 482.792 743.369C487.111 741.721 491.064 739.237 494.424 736.061C497.784 732.885 500.485 729.078 502.374 724.858C504.263 720.638 505.302 716.087 505.432 711.465L470.237 710.476L435.043 709.486Z" fill="#7D501B"/>
</svg>
