<svg width="1080" height="1080" viewBox="0 0 1080 1080" fill="none" xmlns="http://www.w3.org/2000/svg">
<rect width="1080" height="1080" fill="#E4C7FF"/>
<ellipse opacity="0.3" cx="612.997" cy="988.065" rx="97.9047" ry="17.2773" fill="#155B20"/>
<path d="M635.252 853.889C653.495 875.778 645.517 965.507 649.018 971.261C652.519 977.016 676.445 974.217 676.445 974.217" stroke="#155B20" stroke-width="4" stroke-linecap="round"/>
<path d="M549.316 847.293C570.05 873.796 561.583 973.392 565.572 980.218C569.56 987.044 596.561 986.526 596.561 986.526" stroke="#155B20" stroke-width="4" stroke-linecap="round"/>
<path d="M701.252 810.809C725.838 825.213 752.892 859.469 754.012 916.554" stroke="#155B20" stroke-width="4" stroke-linecap="round"/>
<path d="M501.433 561.908C444.891 739.66 473.612 774.393 564.854 757.431C663.788 723.9 738.816 685.827 735.863 552.39C732.909 418.953 719.924 232.981 679.991 231.932C640.057 230.882 557.975 384.156 501.433 561.908Z" fill="#389948"/>
<mask id="path-6-inside-1_686_5378" fill="white">
<path fill-rule="evenodd" clip-rule="evenodd" d="M390.909 96.2344C390.734 95.726 390.6 95.2051 390.507 94.6722C388.478 82.989 407.242 69.9721 432.418 65.5982C455.59 61.5725 476.118 66.2715 480.822 76.1543C489.635 79.4903 498.506 84.1285 507.384 89.9341L546.689 83.1056C555.395 81.5931 563.679 87.4247 565.192 96.1308L575.054 152.897L598.363 148.848C607.07 147.335 615.354 153.167 616.866 161.873L626.728 218.639L643.524 215.721C652.23 214.208 660.514 220.04 662.027 228.746L671.929 285.747C679.556 285.757 686.303 291.238 687.653 299.011L696.986 352.732C701.43 354.911 704.803 359.116 705.715 364.365L713.477 409.043L715.663 408.663C721.649 407.623 727.344 411.632 728.384 417.618L747.719 528.913C748.759 534.898 744.75 540.594 738.764 541.633L736.488 542.029C767.825 741.983 682.784 806.646 567.98 826.591C453.177 846.536 351.309 814.345 313.369 615.537L311.092 615.933C305.106 616.973 299.411 612.964 298.371 606.978L279.036 495.683C277.996 489.698 282.005 484.003 287.991 482.963L290.179 482.583L282.417 437.905C281.505 432.655 283.263 427.559 286.712 424.008L277.379 370.288C275.866 361.581 281.698 353.298 290.404 351.785L294.176 351.13L284.314 294.366C282.801 285.66 288.633 277.376 297.339 275.863L307.626 274.076L297.764 217.311C296.251 208.604 302.083 200.321 310.789 198.808L334.099 194.758L324.237 137.992C322.724 129.286 328.556 121.002 337.262 119.489L376.566 112.661C381.148 106.603 385.93 101.11 390.909 96.2344Z"/>
</mask>
<path fill-rule="evenodd" clip-rule="evenodd" d="M390.909 96.2344C390.734 95.726 390.6 95.2051 390.507 94.6722C388.478 82.989 407.242 69.9721 432.418 65.5982C455.59 61.5725 476.118 66.2715 480.822 76.1543C489.635 79.4903 498.506 84.1285 507.384 89.9341L546.689 83.1056C555.395 81.5931 563.679 87.4247 565.192 96.1308L575.054 152.897L598.363 148.848C607.07 147.335 615.354 153.167 616.866 161.873L626.728 218.639L643.524 215.721C652.23 214.208 660.514 220.04 662.027 228.746L671.929 285.747C679.556 285.757 686.303 291.238 687.653 299.011L696.986 352.732C701.43 354.911 704.803 359.116 705.715 364.365L713.477 409.043L715.663 408.663C721.649 407.623 727.344 411.632 728.384 417.618L747.719 528.913C748.759 534.898 744.75 540.594 738.764 541.633L736.488 542.029C767.825 741.983 682.784 806.646 567.98 826.591C453.177 846.536 351.309 814.345 313.369 615.537L311.092 615.933C305.106 616.973 299.411 612.964 298.371 606.978L279.036 495.683C277.996 489.698 282.005 484.003 287.991 482.963L290.179 482.583L282.417 437.905C281.505 432.655 283.263 427.559 286.712 424.008L277.379 370.288C275.866 361.581 281.698 353.298 290.404 351.785L294.176 351.13L284.314 294.366C282.801 285.66 288.633 277.376 297.339 275.863L307.626 274.076L297.764 217.311C296.251 208.604 302.083 200.321 310.789 198.808L334.099 194.758L324.237 137.992C322.724 129.286 328.556 121.002 337.262 119.489L376.566 112.661C381.148 106.603 385.93 101.11 390.909 96.2344Z" fill="#FFEB85"/>
<path d="M390.909 96.2344L393.707 99.0923L395.511 97.3258L394.692 94.9375L390.909 96.2344ZM480.822 76.1543L477.211 77.8734L477.902 79.3258L479.406 79.8952L480.822 76.1543ZM507.384 89.9341L505.195 93.2818L506.515 94.145L508.069 93.8751L507.384 89.9341ZM565.192 96.1308L569.133 95.4462L565.192 96.1308ZM575.054 152.897L571.113 153.582L571.797 157.523L575.738 156.838L575.054 152.897ZM626.728 218.639L622.787 219.323L623.472 223.264L627.413 222.58L626.728 218.639ZM662.027 228.746L665.968 228.061L662.027 228.746ZM671.929 285.747L667.989 286.431L668.564 289.742L671.924 289.747L671.929 285.747ZM687.653 299.011L683.712 299.695L687.653 299.011ZM696.986 352.732L693.045 353.417L693.394 355.425L695.225 356.323L696.986 352.732ZM705.715 364.365L701.775 365.05L705.715 364.365ZM713.477 409.043L709.536 409.728L710.221 413.669L714.162 412.984L713.477 409.043ZM715.663 408.663L716.348 412.604L715.663 408.663ZM728.384 417.618L724.443 418.303L728.384 417.618ZM747.719 528.913L751.66 528.228L747.719 528.913ZM738.764 541.633L738.08 537.692L738.764 541.633ZM736.488 542.029L735.803 538.088L731.927 538.761L732.536 542.648L736.488 542.029ZM313.369 615.537L317.298 614.788L316.561 610.923L312.685 611.596L313.369 615.537ZM311.092 615.933L311.776 619.874L311.092 615.933ZM298.371 606.978L294.43 607.663L298.371 606.978ZM279.036 495.683L282.977 494.999L279.036 495.683ZM290.179 482.583L290.863 486.524L294.804 485.839L294.12 481.898L290.179 482.583ZM282.417 437.905L286.358 437.22L282.417 437.905ZM286.712 424.008L289.581 426.795L291.002 425.333L290.653 423.324L286.712 424.008ZM290.404 351.785L291.089 355.726L290.404 351.785ZM294.176 351.13L294.86 355.071L298.801 354.386L298.117 350.445L294.176 351.13ZM307.626 274.076L308.31 278.017L312.251 277.333L311.567 273.392L307.626 274.076ZM334.099 194.758L334.784 198.699L338.725 198.015L338.04 194.074L334.099 194.758ZM324.237 137.992L328.178 137.307L324.237 137.992ZM376.566 112.661L377.251 116.602L378.804 116.332L379.756 115.074L376.566 112.661ZM394.692 94.9375C394.586 94.6265 394.504 94.3102 394.448 93.9876L386.566 95.3569C386.696 96.0999 386.883 96.8254 387.125 97.5313L394.692 94.9375ZM394.448 93.9876C393.86 90.5984 396.232 85.7505 403.54 80.6808C410.547 75.82 420.955 71.6496 433.103 69.5392L431.734 61.6572C418.705 63.9207 407.142 68.4457 398.981 74.1076C391.12 79.5607 385.126 87.0629 386.566 95.3569L394.448 93.9876ZM433.103 69.5392C444.273 67.5987 454.662 67.7914 462.681 69.5661C470.961 71.3984 475.679 74.6557 477.211 77.8734L484.434 74.4351C481.262 67.7701 473.364 63.7365 464.41 61.7551C455.196 59.716 443.736 59.5721 431.734 61.6572L433.103 69.5392ZM479.406 79.8952C487.905 83.1124 496.518 87.6079 505.195 93.2818L509.573 86.5864C500.494 80.6491 491.365 75.8681 482.239 72.4133L479.406 79.8952ZM508.069 93.8751L547.374 87.0466L546.004 79.1646L506.699 85.9931L508.069 93.8751ZM547.374 87.0466C553.903 85.9122 560.116 90.2859 561.251 96.8155L569.133 95.4462C567.242 84.5635 556.887 77.274 546.004 79.1646L547.374 87.0466ZM561.251 96.8155L571.113 153.582L578.995 152.213L569.133 95.4462L561.251 96.8155ZM575.738 156.838L599.048 152.789L597.679 144.907L574.369 148.956L575.738 156.838ZM599.048 152.789C605.578 151.654 611.791 156.028 612.925 162.558L620.807 161.188C618.916 150.306 608.562 143.016 597.679 144.907L599.048 152.789ZM612.925 162.558L622.787 219.323L630.669 217.954L620.807 161.188L612.925 162.558ZM627.413 222.58L644.209 219.662L642.84 211.78L626.043 214.698L627.413 222.58ZM644.209 219.662C650.738 218.527 656.951 222.901 658.086 229.431L665.968 228.061C664.077 217.179 653.722 209.889 642.84 211.78L644.209 219.662ZM658.086 229.431L667.989 286.431L675.87 285.062L665.968 228.061L658.086 229.431ZM671.924 289.747C677.641 289.754 682.7 293.87 683.712 299.695L691.594 298.326C689.905 288.606 681.47 281.759 671.935 281.747L671.924 289.747ZM683.712 299.695L693.045 353.417L700.927 352.047L691.594 298.326L683.712 299.695ZM695.225 356.323C698.568 357.963 701.091 361.116 701.775 365.05L709.656 363.681C708.516 357.116 704.292 351.86 698.747 349.141L695.225 356.323ZM701.775 365.05L709.536 409.728L717.418 408.358L709.656 363.681L701.775 365.05ZM714.162 412.984L716.348 412.604L714.979 404.722L712.793 405.102L714.162 412.984ZM716.348 412.604C720.157 411.942 723.781 414.494 724.443 418.303L732.325 416.933C730.907 408.771 723.141 403.304 714.979 404.722L716.348 412.604ZM724.443 418.303L743.778 529.598L751.66 528.228L732.325 416.933L724.443 418.303ZM743.778 529.598C744.44 533.407 741.888 537.031 738.08 537.692L739.449 545.574C747.611 544.156 753.078 536.39 751.66 528.228L743.778 529.598ZM738.08 537.692L735.803 538.088L737.172 545.97L739.449 545.574L738.08 537.692ZM732.536 542.648C748.121 642.094 734.621 707.012 703.8 749.464C672.982 791.911 624.223 812.76 567.296 822.65L568.665 830.532C626.541 820.477 677.704 799.023 710.274 754.164C742.839 709.309 756.191 641.918 740.439 541.41L732.536 542.648ZM567.296 822.65C510.368 832.54 457.434 829.358 414.105 799.792C370.772 770.223 336.167 713.663 317.298 614.788L309.44 616.287C328.511 716.219 363.81 775.158 409.596 806.4C455.387 837.646 510.789 840.587 568.665 830.532L567.296 822.65ZM312.685 611.596L310.407 611.992L311.776 619.874L314.054 619.478L312.685 611.596ZM310.407 611.992C306.598 612.654 302.974 610.103 302.312 606.294L294.43 607.663C295.848 615.825 303.614 621.292 311.776 619.874L310.407 611.992ZM302.312 606.294L282.977 494.999L275.095 496.368L294.43 607.663L302.312 606.294ZM282.977 494.999C282.315 491.19 284.866 487.565 288.675 486.904L287.306 479.022C279.144 480.44 273.677 488.206 275.095 496.368L282.977 494.999ZM288.675 486.904L290.863 486.524L289.494 478.642L287.306 479.022L288.675 486.904ZM294.12 481.898L286.358 437.22L278.476 438.59L286.238 483.267L294.12 481.898ZM286.358 437.22C285.674 433.286 286.986 429.467 289.581 426.795L283.842 421.221C279.54 425.651 277.335 432.025 278.476 438.59L286.358 437.22ZM290.653 423.324L281.32 369.603L273.438 370.972L282.771 424.693L290.653 423.324ZM281.32 369.603C280.185 363.073 284.559 356.86 291.089 355.726L289.719 347.844C278.837 349.735 271.547 360.09 273.438 370.972L281.32 369.603ZM291.089 355.726L294.86 355.071L293.491 347.189L289.719 347.844L291.089 355.726ZM298.117 350.445L288.255 293.681L280.373 295.051L290.235 351.814L298.117 350.445ZM288.255 293.681C287.121 287.152 291.494 280.939 298.024 279.804L296.655 271.922C285.772 273.813 278.482 284.168 280.373 295.051L288.255 293.681ZM298.024 279.804L308.31 278.017L306.941 270.135L296.655 271.922L298.024 279.804ZM311.567 273.392L301.705 216.626L293.823 217.995L303.685 274.761L311.567 273.392ZM301.705 216.626C300.57 210.096 304.944 203.883 311.474 202.749L310.104 194.867C299.222 196.758 291.932 207.113 293.823 217.995L301.705 216.626ZM311.474 202.749L334.784 198.699L333.414 190.817L310.104 194.867L311.474 202.749ZM338.04 194.074L328.178 137.307L320.296 138.677L330.158 195.443L338.04 194.074ZM328.178 137.307C327.044 130.778 331.417 124.565 337.947 123.43L336.578 115.548C325.695 117.439 318.405 127.794 320.296 138.677L328.178 137.307ZM337.947 123.43L377.251 116.602L375.881 108.72L336.578 115.548L337.947 123.43ZM379.756 115.074C384.234 109.155 388.886 103.814 393.707 99.0923L388.11 93.3765C382.974 98.4063 378.063 104.051 373.376 110.248L379.756 115.074Z" fill="#FDE35D" mask="url(#path-6-inside-1_686_5378)"/>
<path d="M463.18 192.157C470.92 202.904 481.914 228.141 463.968 243.12C478.932 260.421 501.588 298.474 472.499 312.274C487.331 321.082 511.582 343.833 489.923 364.375C505.531 379.47 529.32 411.851 499.611 420.622C514.831 432.573 539.005 459.163 513.939 469.914C528.13 488.375 549.547 526.793 521.695 532.782C537.561 549.972 561.868 591.012 530.613 605.08C544.543 613.999 563.512 657.825 538.756 671.091" stroke="#FDE35D" stroke-width="4" stroke-linecap="round" stroke-linejoin="round"/>
<path d="M391.263 281.572C387.359 294.227 384.996 321.654 406.785 330.12C398.128 351.293 388.805 394.587 420.777 398.379C409.532 411.461 393.814 440.763 420.897 453.317C410.925 472.604 398.718 510.885 429.672 509.713C419.063 525.898 404.643 558.813 431.829 561C424.275 583.025 416.242 626.27 444.549 623.054C435 644.41 425.067 691.062 459.177 694.416C448.823 707.315 444.837 754.904 472.533 759.573" stroke="#FDE35D" stroke-width="4" stroke-linecap="round" stroke-linejoin="round"/>
<path d="M547.944 240.861C556.433 251.026 569.204 275.412 552.375 291.636C568.539 307.823 593.858 344.158 565.831 360.003C581.256 367.727 607.071 388.685 586.938 410.725C603.585 424.664 629.63 455.261 600.624 466.135C616.66 476.966 642.674 501.759 618.442 514.275C633.916 531.673 658.027 568.461 630.674 576.427C647.73 592.438 674.91 631.635 644.742 647.902C659.274 655.802 681.329 698.159 657.586 713.161" stroke="#FDE35D" stroke-width="4" stroke-linecap="round" stroke-linejoin="round"/>
<mask id="path-11-inside-2_686_5378" fill="white">
<path fill-rule="evenodd" clip-rule="evenodd" d="M605.175 886.827C596.78 889.457 587.591 891.755 577.582 893.686C459.629 914.178 364.965 917.371 311.248 762.435C257.532 607.499 215.492 379.005 259.139 361.358C278.873 353.379 313.611 401.718 358.374 464.006C410.756 536.895 476.865 628.886 548.724 672.094C637.082 516.684 741.298 392.006 778.886 400.547C817.841 409.398 794.149 594.311 770.909 725.742C750.926 838.755 688.214 871.331 605.175 886.827Z"/>
</mask>
<path fill-rule="evenodd" clip-rule="evenodd" d="M605.175 886.827C596.78 889.457 587.591 891.755 577.582 893.686C459.629 914.178 364.965 917.371 311.248 762.435C257.532 607.499 215.492 379.005 259.139 361.358C278.873 353.379 313.611 401.718 358.374 464.006C410.756 536.895 476.865 628.886 548.724 672.094C637.082 516.684 741.298 392.006 778.886 400.547C817.841 409.398 794.149 594.311 770.909 725.742C750.926 838.755 688.214 871.331 605.175 886.827Z" fill="#43A553"/>
<path d="M605.175 886.827L604.442 882.894L604.207 882.938L603.979 883.01L605.175 886.827ZM577.582 893.686L578.267 897.627L578.304 897.62L578.34 897.613L577.582 893.686ZM311.248 762.435L307.469 763.745L311.248 762.435ZM259.139 361.358L260.638 365.066L259.139 361.358ZM358.374 464.006L361.623 461.672L358.374 464.006ZM548.724 672.094L546.663 675.522L550.176 677.635L552.202 674.071L548.724 672.094ZM778.886 400.547L778 404.448L778 404.448L778.886 400.547ZM770.909 725.742L766.97 725.046L770.909 725.742ZM603.979 883.01C595.744 885.59 586.702 887.853 576.825 889.758L578.34 897.613C588.48 895.658 597.817 893.324 606.371 890.643L603.979 883.01ZM576.898 889.745C517.851 900.003 465.68 905.69 421.664 890.076C378.045 874.603 341.633 837.862 315.028 761.125L307.469 763.745C334.581 841.944 372.359 881.074 418.989 897.616C465.223 914.016 519.36 907.861 578.267 897.627L576.898 889.745ZM315.028 761.125C288.246 683.877 264.368 588.26 252.638 509.821C246.769 470.577 243.971 435.823 245.308 409.889C245.978 396.903 247.675 386.36 250.413 378.641C253.181 370.837 256.744 366.641 260.638 365.066L257.64 357.65C250.622 360.487 245.951 367.291 242.873 375.966C239.766 384.725 238.007 396.139 237.319 409.477C235.941 436.191 238.826 471.552 244.726 511.005C256.533 589.959 280.534 686.057 307.469 763.745L315.028 761.125ZM260.638 365.066C263.72 363.82 268.11 364.468 274.492 368.623C280.769 372.71 288.077 379.631 296.379 388.987C312.957 407.67 332.695 435.128 355.126 466.34L361.623 461.672C339.29 430.596 319.278 402.74 302.363 383.677C293.918 374.16 286.043 366.598 278.858 361.919C271.777 357.309 264.425 354.906 257.64 357.65L260.638 365.066ZM355.126 466.34C381.301 502.763 411.02 544.12 443.204 581.779C475.366 619.411 510.188 653.59 546.663 675.522L550.786 668.666C515.401 647.39 481.239 613.97 449.286 576.582C417.356 539.221 387.829 498.138 361.623 461.672L355.126 466.34ZM779.773 396.647C773.885 395.309 767.211 396.669 760.226 399.724C753.182 402.805 745.385 407.8 737.02 414.373C720.28 427.528 700.768 447.397 679.787 472.259C637.797 522.015 589.518 592.25 545.247 670.117L552.202 674.071C596.289 596.528 644.296 526.719 685.901 477.419C706.717 452.753 725.829 433.341 741.963 420.664C750.034 414.321 757.236 409.763 763.432 407.053C769.685 404.318 774.491 403.65 778 404.448L779.773 396.647ZM774.848 726.439C786.477 660.673 798.24 581.414 802.213 517.425C804.197 485.466 804.254 457.094 801.303 436.055C799.831 425.556 797.575 416.614 794.269 409.903C790.971 403.209 786.306 398.131 779.773 396.647L778 404.448C781.205 405.176 784.321 407.813 787.093 413.439C789.856 419.048 791.959 427.031 793.381 437.166C796.218 457.395 796.203 485.125 794.228 516.929C790.284 580.467 778.581 659.38 766.97 725.046L774.848 726.439ZM605.909 890.759C647.679 882.964 684.931 870.779 714.275 845.904C743.711 820.95 764.737 783.619 774.848 726.439L766.97 725.046C757.098 780.878 736.777 816.341 709.102 839.802C681.334 863.342 645.71 875.193 604.442 882.894L605.909 890.759Z" fill="#399F49" mask="url(#path-11-inside-2_686_5378)"/>
<path d="M303.536 491.475C354.724 758.366 409.389 803.601 439.963 832.468" stroke="#48AF58" stroke-width="3" stroke-linecap="round" stroke-linejoin="round"/>
<path d="M389.935 635.198C433.632 700.025 447.925 729.485 454.946 770.943" stroke="#48AF58" stroke-width="3" stroke-linecap="round" stroke-linejoin="round"/>
<path d="M488.197 820.27C468.803 841.146 461.619 897.384 468.141 936.732" stroke="#155B20" stroke-width="4" stroke-linecap="round"/>
<ellipse rx="32.554" ry="35.1085" transform="matrix(0.999142 -0.0414098 0.0274814 0.999622 472.584 748.701)" fill="#481111"/>
<ellipse rx="32.554" ry="35.1085" transform="matrix(0.999142 -0.0414098 0.0274814 0.999622 662.29 744.64)" fill="#481111"/>
<path d="M532.935 752.214C533.069 757.103 534.095 761.907 535.953 766.352C537.811 770.797 540.465 774.795 543.765 778.12C547.064 781.444 550.943 784.028 555.18 785.726C559.418 787.423 563.931 788.2 568.462 788.013C572.993 787.825 577.453 786.676 581.588 784.631C585.723 782.587 589.451 779.687 592.56 776.097C595.669 772.507 598.098 768.298 599.708 763.709C601.317 759.121 602.077 754.242 601.942 749.353L567.439 750.784L532.935 752.214Z" fill="#481111"/>
</svg>
