<svg width="1080" height="1080" viewBox="0 0 1080 1080" fill="none" xmlns="http://www.w3.org/2000/svg">
<rect width="1080" height="1080" fill="#78B6E6"/>
<path d="M459.557 902.487C441.708 923.902 449.514 1011.69 446.089 1017.32C442.663 1022.95 419.256 1020.21 419.256 1020.21" stroke="#7D7070" stroke-width="4" stroke-linecap="round"/>
<path d="M559.515 894.943C541.872 916.872 555.109 1011.37 551.81 1017.21C548.51 1023.04 523.619 1018.78 523.619 1018.78" stroke="#7D7070" stroke-width="4" stroke-linecap="round"/>
<path d="M387.33 225.454L949.978 146.414" stroke="#A65339" stroke-width="4" stroke-linecap="round" stroke-linejoin="round"/>
<mask id="path-4-inside-1_686_5919" fill="white">
<path fill-rule="evenodd" clip-rule="evenodd" d="M512.533 924.81C806.263 901.078 869.694 557.177 863.867 494.33C863.8 493.615 863.712 492.904 863.602 492.197C863.594 491.634 863.564 491.072 863.512 490.512C863.072 485.762 861.064 481.246 857.606 476.979C824.052 425.22 662.938 398.188 473.218 415.779C283.499 433.37 130.103 489.564 106.636 546.61C104.021 551.44 102.877 556.249 103.318 560.999C103.37 561.56 103.444 562.118 103.539 562.673C103.562 563.388 103.606 564.103 103.672 564.817C109.499 627.664 218.802 948.542 512.533 924.81Z"/>
</mask>
<path fill-rule="evenodd" clip-rule="evenodd" d="M512.533 924.81C806.263 901.078 869.694 557.177 863.867 494.33C863.8 493.615 863.712 492.904 863.602 492.197C863.594 491.634 863.564 491.072 863.512 490.512C863.072 485.762 861.064 481.246 857.606 476.979C824.052 425.22 662.938 398.188 473.218 415.779C283.499 433.37 130.103 489.564 106.636 546.61C104.021 551.44 102.877 556.249 103.318 560.999C103.37 561.56 103.444 562.118 103.539 562.673C103.562 563.388 103.606 564.103 103.672 564.817C109.499 627.664 218.802 948.542 512.533 924.81Z" fill="#403838"/>
<path d="M512.533 924.81L512.211 920.823L512.533 924.81ZM863.602 492.197L859.603 492.254L859.607 492.534L859.65 492.81L863.602 492.197ZM857.606 476.979L854.25 479.154L854.365 479.332L854.498 479.497L857.606 476.979ZM106.636 546.61L110.154 548.514L110.254 548.327L110.335 548.131L106.636 546.61ZM103.539 562.673L107.538 562.549L107.529 562.269L107.481 561.993L103.539 562.673ZM859.884 494.699C861.282 509.778 858.52 542.565 848.84 583.856C839.188 625.032 822.736 674.314 797.008 722.35C745.56 818.406 657.275 909.103 512.211 920.823L512.855 928.797C661.522 916.786 751.817 823.666 804.06 726.127C830.177 677.365 846.849 627.404 856.629 585.682C866.383 544.074 869.365 510.306 867.849 493.96L859.884 494.699ZM859.65 492.81C859.747 493.437 859.825 494.066 859.884 494.699L867.849 493.96C867.776 493.164 867.677 492.372 867.555 491.583L859.65 492.81ZM859.53 490.881C859.572 491.337 859.596 491.795 859.603 492.254L867.602 492.14C867.592 491.473 867.557 490.807 867.495 490.142L859.53 490.881ZM854.498 479.497C857.555 483.27 859.175 487.059 859.53 490.881L867.495 490.142C866.969 484.465 864.572 479.222 860.714 474.46L854.498 479.497ZM473.587 419.762C568.187 410.99 655.548 413.357 723.336 424.321C757.236 429.805 786.121 437.419 808.525 446.797C831.032 456.217 846.51 467.215 854.25 479.154L860.963 474.803C851.926 460.863 834.681 449.072 811.614 439.417C788.443 429.718 758.9 421.97 724.613 416.424C656.024 405.33 567.969 402.976 472.849 411.796L473.587 419.762ZM110.335 548.131C115.748 534.972 128.94 521.317 149.332 507.918C169.63 494.581 196.621 481.786 228.936 470.163C293.552 446.922 378.988 428.533 473.587 419.762L472.849 411.796C377.729 420.616 291.608 439.12 226.228 462.635C193.546 474.39 165.931 487.439 144.939 501.232C124.04 514.964 109.257 529.724 102.936 545.088L110.335 548.131ZM107.301 560.63C106.946 556.808 107.842 552.785 110.154 548.514L103.118 544.706C100.201 550.096 98.8085 555.691 99.3349 561.368L107.301 560.63ZM107.481 561.993C107.403 561.541 107.343 561.086 107.301 560.63L99.3349 561.368C99.3966 562.034 99.4843 562.695 99.5976 563.352L107.481 561.993ZM107.655 564.448C107.596 563.815 107.557 563.182 107.538 562.549L99.5414 562.797C99.5661 563.594 99.6152 564.39 99.689 565.186L107.655 564.448ZM512.211 920.823C367.116 932.546 267.553 859.258 203.322 774.858C171.192 732.64 147.967 687.704 132.415 649.412C116.831 611.04 109.061 579.61 107.655 564.448L99.689 565.186C101.197 581.447 109.275 613.695 125.003 652.422C140.764 691.229 164.315 736.813 196.956 779.703C262.266 865.521 364.219 940.806 512.855 928.797L512.211 920.823Z" fill="#362D2D" mask="url(#path-4-inside-1_686_5919)"/>
<circle cx="375.347" cy="704.562" r="40.2171" transform="rotate(-5.20761 375.347 704.562)" fill="#100C0B"/>
<circle cx="547.118" cy="692.701" r="40.2171" transform="rotate(-5.20761 547.118 692.701)" fill="#100C0B"/>
<path d="M424.455 764.825C424.964 770.404 426.566 775.829 429.171 780.789C431.776 785.749 435.332 790.147 439.637 793.733C443.942 797.318 448.911 800.021 454.26 801.686C459.609 803.352 465.234 803.947 470.814 803.439C476.393 802.93 481.817 801.328 486.778 798.723C491.738 796.118 496.136 792.561 499.722 788.257C503.307 783.952 506.01 778.983 507.675 773.634C509.341 768.284 509.936 762.66 509.428 757.08L466.941 760.952L424.455 764.825Z" fill="#100C0B"/>
<ellipse cx="315.31" cy="795.258" rx="40.9951" ry="20.4976" transform="rotate(-3.94952 315.31 795.258)" fill="#822C2C"/>
<ellipse cx="625.978" cy="762.462" rx="40.9951" ry="20.4976" transform="rotate(-3.94952 625.978 762.462)" fill="#822C2C"/>
<path d="M845.081 509.334C849.862 560.894 696.824 610.266 496.19 628.869C295.557 647.473 129.036 620.756 124.255 569.196" stroke="#362D2D" stroke-width="4"/>
<ellipse cx="483.111" cy="522.473" rx="354.94" ry="93.7577" transform="rotate(-5.29747 483.111 522.473)" fill="#AA3D3D"/>
<path d="M138.087 374.661C136.925 373.524 136.393 372.307 136.337 371.009C136.28 369.681 136.719 368.164 137.701 366.457C139.676 363.024 143.685 359.107 149.269 354.931C160.404 346.603 177.417 337.522 195.571 329.464C213.715 321.41 232.933 314.406 248.447 310.214C256.208 308.117 263.008 306.734 268.267 306.266C270.898 306.032 273.106 306.031 274.839 306.269C276.597 306.511 277.731 306.982 278.359 307.57C279.091 308.256 280.051 309.622 281.234 311.699C282.401 313.75 283.737 316.407 285.235 319.598C288.23 325.978 291.843 334.427 296.008 344.29C296.87 346.332 297.756 348.434 298.665 350.591C306.527 369.25 316.097 391.962 326.951 414.828C339.057 440.333 352.78 466.071 367.543 486.627C382.276 507.141 398.174 522.681 414.689 527.501C418.677 528.665 421.583 529.973 423.565 531.371C425.542 532.765 426.535 534.2 426.849 535.621C427.163 537.041 426.841 538.635 425.798 540.434C424.751 542.239 423.015 544.18 420.64 546.226C411.104 554.441 392.061 563.684 370.182 572.226C348.347 580.75 323.828 588.524 303.454 593.837C293.267 596.494 284.13 598.531 276.893 599.74C273.273 600.345 270.143 600.74 267.602 600.903C265.036 601.068 263.157 600.991 261.992 600.701C260.947 600.441 259.549 599.517 257.809 597.783C256.097 596.077 254.158 593.695 252.02 590.707C247.745 584.732 242.746 576.435 237.254 566.524C226.274 546.709 213.387 520.552 200.486 493.887C197.232 487.163 193.978 480.407 190.754 473.713C181.198 453.872 171.905 434.576 163.676 418.286C158.173 407.392 153.138 397.828 148.812 390.333C144.507 382.875 140.847 377.361 138.087 374.661Z" fill="#287030" stroke="#1D6125" stroke-width="2"/>
<path d="M312.714 345.338C312.186 344.105 312.166 343.021 312.528 342.027C312.899 341.007 313.709 339.982 315.015 338.974C317.644 336.945 322.022 335.181 327.736 333.717C339.125 330.8 355.36 329.188 372.167 328.745C388.963 328.302 406.259 329.028 419.746 330.757C426.494 331.622 432.252 332.734 436.507 334.062C438.636 334.727 440.353 335.436 441.619 336.174C442.906 336.925 443.609 337.64 443.891 338.26C444.232 339.011 444.54 340.37 444.795 342.376C445.045 344.352 445.232 346.859 445.374 349.838C445.657 355.796 445.756 363.573 445.83 372.638C445.845 374.514 445.86 376.446 445.874 378.427C446.001 395.57 446.155 416.441 447.264 437.847C448.502 461.723 450.929 486.31 455.848 507.181C460.754 528.001 468.187 545.343 479.599 554.484C482.337 556.677 484.174 558.628 485.262 560.342C486.345 562.052 486.642 563.457 486.438 564.621C486.234 565.785 485.496 566.897 484.118 567.953C482.734 569.013 480.767 569.965 478.255 570.797C468.166 574.137 450.301 575.222 430.417 574.84C410.58 574.46 388.885 572.625 371.229 570.203C362.399 568.992 354.595 567.637 348.546 566.247C345.521 565.551 342.949 564.851 340.914 564.16C338.855 563.461 337.429 562.8 336.63 562.212C335.931 561.696 335.149 560.555 334.349 558.641C333.565 556.764 332.819 554.282 332.112 551.257C330.698 545.209 329.466 537.106 328.369 527.578C326.176 508.527 324.538 483.897 323.054 458.859C322.68 452.547 322.315 446.208 321.954 439.928C320.883 421.312 319.842 403.206 318.663 387.796C317.875 377.492 317.023 368.376 316.058 361.109C315.098 353.883 314.012 348.365 312.714 345.338Z" fill="#287030" stroke="#1D6125" stroke-width="2"/>
<mask id="mask0_686_5919" style="mask-type:alpha" maskUnits="userSpaceOnUse" x="129" y="423" width="708" height="199">
<ellipse cx="483.111" cy="522.473" rx="354.94" ry="93.7577" transform="rotate(-5.29747 483.111 522.473)" fill="#AA3D3D"/>
</mask>
<g mask="url(#mask0_686_5919)">
<path d="M187.719 623.202C199.797 596.3 249.183 546.21 350.1 561.066C476.248 579.634 513.609 619.887 567.817 587.958C622.025 556.029 615.599 522.997 591.641 518.492C567.684 513.988 300.33 532.052 277.367 574.536C254.403 617.019 317.576 681.781 409.94 626.137C502.303 570.493 572.763 641.305 623.637 609.685C674.511 578.065 720.262 563.735 696.856 528.913C673.45 494.092 524.096 551.658 499.278 574.136C474.459 596.615 494.284 629.082 440.875 633.357C387.466 637.632 215.629 634.065 178.578 597.147C141.526 560.228 292.359 482.348 345.463 511.053C398.567 539.757 440.323 663.674 499.72 651.441C559.117 639.207 638.938 520.832 624.365 508.732C609.791 496.632 498.769 459.847 438.269 532.713C389.868 591.007 335.535 609.496 314.418 611.454" stroke="#EEC679" stroke-width="4" stroke-linecap="round" stroke-linejoin="round"/>
<path d="M251.311 583.679C263.389 556.777 312.775 506.687 413.693 521.542C539.84 540.111 577.201 580.364 631.409 548.435C685.617 516.506 679.191 483.473 655.233 478.969C631.276 474.465 363.922 492.529 340.959 535.012C317.995 577.496 381.169 642.258 473.532 586.614C565.895 530.97 636.355 601.782 687.229 570.162C738.103 538.542 783.854 524.211 760.448 489.39C737.042 454.569 587.689 512.134 562.87 534.613C538.051 557.091 557.876 589.559 504.467 593.834C451.058 598.109 279.221 594.542 242.17 557.623C205.118 520.705 355.951 442.825 409.055 471.529C462.16 500.234 503.915 624.151 563.312 611.917C622.709 599.684 702.53 481.309 687.957 469.209C673.383 457.109 562.361 420.324 501.861 493.19C453.46 551.484 399.127 569.973 378.011 571.931" stroke="#E7BE6F" stroke-width="4" stroke-linecap="round" stroke-linejoin="round"/>
<ellipse opacity="0.5" cx="493.18" cy="558.531" rx="354.94" ry="83.7122" transform="rotate(-5.29747 493.18 558.531)" fill="#3F1E00"/>
<path d="M814.765 558.486C797.076 533.81 734.416 492.097 625.287 522.66C488.876 560.863 454.084 606.513 389.025 583.502C323.966 560.49 325.737 526.844 351.486 518.622C377.235 510.401 675.607 486.161 707.84 524.518C740.074 562.875 680.711 636.803 569.659 596.368C458.607 555.933 392.168 636.985 330.843 613.754C269.519 590.523 216.646 583.567 236.893 545.481C257.14 507.394 431.483 540.756 462.538 559.057C493.593 577.358 476.924 612.555 536.637 608.371C596.35 604.187 785.674 573.612 820.663 531.306C855.652 488.999 676.396 435.8 622.341 472.519C568.287 509.238 542.139 638.236 474.524 635.5C406.909 632.765 236.892 531.306 288.456 485.366C303.45 472.006 444.656 446.063 523.276 508.529C586.171 558.501 649.2 568.215 672.852 566.825" stroke="#FED585" stroke-width="4" stroke-linecap="round" stroke-linejoin="round"/>
<path d="M354.519 577.336C351.844 598.702 304.237 640.42 253.1 631.265C201.964 622.11 166.677 565.422 169.336 544.183C171.995 522.943 211.593 545.195 262.73 554.35C313.866 563.505 357.193 555.971 354.519 577.336Z" fill="#EDEDED"/>
<path d="M355.321 570.926C352.647 592.291 309.052 601.962 257.915 592.807C206.779 583.651 167.48 559.012 170.139 537.772C172.798 516.533 216.408 506.737 267.545 515.892C318.681 525.047 357.996 549.561 355.321 570.926Z" fill="#FDFDFD"/>
<path d="M251.592 575.68C237.496 569.404 219.31 559.891 226.798 543.075C234.285 526.26 268.295 523.436 282.391 529.713C296.488 535.989 319.419 550.418 312.549 566.339C305.68 582.259 265.688 581.957 251.592 575.68Z" fill="#FFAD32"/>
</g>
<path d="M461.291 199.595C447.643 232.545 428.915 318.237 463.183 397.402C506.019 496.358 448.453 510.74 473.7 548.646" stroke="#E7BE6F" stroke-width="3" stroke-linecap="round" stroke-linejoin="round"/>
<path d="M446.24 211.23C430.511 267.553 502.182 297.321 512.528 391.586C524.292 498.772 419.192 541.896 507.316 599.153" stroke="#FED585" stroke-width="3" stroke-linecap="round" stroke-linejoin="round"/>
<path d="M527.473 201.173C512.301 234.06 509.805 321.092 533.19 405.84C563.602 516.05 497.3 545.116 525.875 583.159" stroke="#FED585" stroke-width="3" stroke-linecap="round" stroke-linejoin="round"/>
<path d="M469.505 199.242C448.206 253.704 460.52 301.809 461.36 396.635C462.316 504.461 378.963 534.49 460.901 600.296" stroke="#FED585" stroke-width="3" stroke-linecap="round" stroke-linejoin="round"/>
<path d="M357.487 576.214C346.18 518.279 421.655 494.349 440.074 400.456C461.017 293.691 357.598 241.551 452.125 191.363" stroke="#FED585" stroke-width="3" stroke-linecap="round" stroke-linejoin="round"/>
<path d="M498.988 199.998C485.34 232.948 466.612 318.64 500.88 397.805C543.716 496.761 486.15 511.143 511.397 549.049" stroke="#FED585" stroke-width="3" stroke-linecap="round" stroke-linejoin="round"/>
<path d="M376.226 243.946L940.946 237.584" stroke="#A65339" stroke-width="4" stroke-linecap="round" stroke-linejoin="round"/>
<path d="M622.331 502.587C620.409 509.73 618.372 508.457 607.657 505.572C596.943 502.688 581.608 499.286 583.531 492.143C585.454 485 595.698 481.547 606.413 484.431C617.127 487.316 624.254 495.444 622.331 502.587Z" fill="#2B853E"/>
<path d="M611.13 498.699C610.048 502.719 608.902 502.002 602.872 500.379C596.841 498.756 588.211 496.84 589.293 492.82C590.375 488.8 596.141 486.857 602.171 488.48C608.201 490.104 612.213 494.679 611.13 498.699Z" fill="#7FC88F"/>
<path d="M437.727 583.019C439.648 587.018 440.708 586.042 446.706 583.161C452.704 580.279 461.368 576.582 459.447 572.584C457.526 568.585 451.107 567.679 445.109 570.561C439.11 573.443 435.805 579.02 437.727 583.019Z" fill="#2B853E"/>
<path d="M443.9 579.493C444.982 581.743 445.578 581.194 448.954 579.572C452.33 577.951 457.206 575.87 456.125 573.62C455.044 571.369 451.431 570.859 448.055 572.481C444.679 574.103 442.819 577.242 443.9 579.493Z" fill="#7FC88F"/>
<path d="M379.3 460.648C381.221 464.646 382.281 463.671 388.279 460.789C394.277 457.908 402.942 454.211 401.021 450.212C399.099 446.214 392.68 445.308 386.682 448.19C380.684 451.071 377.379 456.649 379.3 460.648Z" fill="#2B853E"/>
<path d="M385.474 457.121C386.555 459.372 387.152 458.823 390.528 457.201C393.903 455.579 398.78 453.499 397.698 451.248C396.617 448.998 393.004 448.488 389.628 450.11C386.253 451.732 384.393 454.871 385.474 457.121Z" fill="#7FC88F"/>
<path d="M440.411 513.152C438.49 517.151 437.43 516.176 431.431 513.294C425.433 510.412 416.769 506.716 418.69 502.717C420.611 498.718 427.031 497.813 433.029 500.695C439.027 503.576 442.332 509.154 440.411 513.152Z" fill="#2B853E"/>
<path d="M434.237 509.626C433.156 511.877 432.559 511.328 429.183 509.706C425.808 508.084 420.931 506.004 422.013 503.753C423.094 501.503 426.707 500.993 430.083 502.615C433.458 504.237 435.318 507.376 434.237 509.626Z" fill="#7FC88F"/>
<path d="M518.282 515.347C518.107 510.914 519.5 511.279 526.15 511.017C532.799 510.755 542.186 509.965 542.36 514.397C542.535 518.83 537.287 522.636 530.638 522.898C523.988 523.161 518.456 519.78 518.282 515.347Z" fill="#2B853E"/>
<path d="M525.389 515.573C525.29 513.078 526.075 513.284 529.817 513.136C533.559 512.989 538.842 512.544 538.94 515.038C539.039 517.533 536.085 519.675 532.343 519.823C528.6 519.97 525.487 518.068 525.389 515.573Z" fill="#7FC88F"/>
<path d="M515.601 345.221C517.315 341.129 518.424 342.049 524.562 344.62C530.7 347.191 539.542 350.439 537.828 354.531C536.114 358.623 529.749 359.856 523.612 357.285C517.474 354.714 513.888 349.313 515.601 345.221Z" fill="#2B853E"/>
<path d="M521.948 348.427C522.913 346.124 523.537 346.641 526.991 348.088C530.445 349.535 535.422 351.363 534.457 353.666C533.493 355.969 529.91 356.663 526.456 355.216C523.002 353.769 520.983 350.73 521.948 348.427Z" fill="#7FC88F"/>
<path fill-rule="evenodd" clip-rule="evenodd" d="M654.989 539.559C659.374 549.218 668.546 556.822 680.451 559.315C691.814 561.693 703.19 558.897 711.688 552.604C711.829 552.635 711.97 552.665 712.111 552.695C728.666 556.161 744.671 549.801 749.683 538.306C759.367 538.068 767.557 534.343 771.381 527.475C778.067 515.466 768.872 498.396 750.844 489.348C746.096 486.965 741.208 485.376 736.462 484.548C734.813 473.525 722.898 463.203 706.519 459.775C697.06 457.794 687.829 458.472 680.405 461.181C677.233 459.779 673.769 458.656 670.077 457.883C650.334 453.75 631.58 461.197 628.19 474.517C626.764 480.117 628.281 485.864 631.986 490.951C622.951 493.719 616.214 499.344 614.311 506.816C610.921 520.136 624.178 534.285 643.921 538.418C647.679 539.205 651.402 539.572 654.989 539.559Z" fill="#EAEAEA"/>
<path fill-rule="evenodd" clip-rule="evenodd" d="M645.686 546.383C650.108 556.254 659.39 564.014 671.454 566.54C683.029 568.963 694.631 566.037 703.278 559.512C704.465 559.847 705.68 560.147 706.92 560.406C726.929 564.595 745.962 556.94 749.431 543.308C749.658 542.417 749.813 541.524 749.898 540.63C758.58 537.683 765.017 532.056 766.895 524.679C770.365 511.047 756.958 496.6 736.949 492.412C734.124 491.82 731.318 491.465 728.572 491.329C727.752 479.546 715.398 468.284 698.124 464.667C688.539 462.661 679.178 463.372 671.645 466.156C668.432 464.728 664.922 463.586 661.181 462.803C641.172 458.615 622.139 466.27 618.67 479.902C617.21 485.634 618.735 491.51 622.48 496.707C613.312 499.556 606.467 505.323 604.52 512.971C601.05 526.603 614.457 541.05 634.466 545.238C638.275 546.036 642.048 546.404 645.686 546.383Z" fill="#F9F3F3"/>
<path d="M679.401 514.085C665.641 511.299 655.455 526.965 672.374 535.509C693.524 546.189 721.7 535.445 722.356 519.128C722.978 503.648 670.302 472.032 644.163 508.778" stroke="#DE7BA5" stroke-linecap="round" stroke-linejoin="round"/>
<path d="M225.55 813.672C216.246 894.254 299.234 894.254 335.346 885.642C358.046 884.883 374.087 890.035 383.786 894.254" stroke="#7D7070" stroke-width="4" stroke-linecap="round"/>
<path d="M364.031 862.852C357.257 873.445 356.357 874.018 353.105 879.103" stroke="#7D7070" stroke-width="4" stroke-linecap="round" stroke-linejoin="round"/>
<path d="M732.859 744C759.734 777.795 775.878 832.157 785.348 901.065" stroke="#7D7070" stroke-width="4" stroke-linecap="round"/>
</svg>
