<svg width="1080" height="1080" viewBox="0 0 1080 1080" fill="none" xmlns="http://www.w3.org/2000/svg">
<rect width="1080" height="1080" fill="#9EC8E9"/>
<path opacity="0.2" d="M695.444 980.693C695.444 988.437 628.188 994.714 545.223 994.714C462.259 994.714 395.003 998.219 395.003 980.693C395.003 963.168 462.259 966.673 545.223 966.673C628.188 966.673 695.444 972.95 695.444 980.693Z" fill="#280D3E"/>
<path d="M740.389 756.432C760.733 762.64 917.951 746.283 950 715.11" stroke="#280D3E" stroke-width="4" stroke-linecap="round"/>
<path d="M80.2544 739.278C98.4011 750.374 254.717 773.833 293.54 751.66" stroke="#280D3E" stroke-width="4" stroke-linecap="round"/>
<path d="M496.908 773.246C471.596 795.655 475.167 956.098 470.192 963.062C465.217 970.026 429.392 962.815 429.392 962.815" stroke="#280D3E" stroke-width="4" stroke-linecap="round"/>
<path d="M597.491 768.743C622.802 791.152 619.231 951.595 624.206 958.559C629.181 965.523 665.006 958.312 665.006 958.312" stroke="#280D3E" stroke-width="4" stroke-linecap="round"/>
<path d="M627.664 62.9367C643.677 57.4956 657.418 60.4448 671.418 68.4901C683.916 75.6718 696.455 86.8116 710.85 99.6007C712.743 101.282 714.668 102.992 716.628 104.725C720.297 107.967 721.884 112.277 721.832 117.702C721.779 123.204 720.031 129.749 717.078 137.168C712.752 148.034 706.035 160.332 698.894 173.407C696.26 178.229 693.568 183.157 690.918 188.157C681.154 206.578 671.994 225.914 668.958 243.92C665.902 262.042 669.026 279.052 684.075 292.353C687.53 295.407 689.136 297.99 689.569 300.081C689.973 302.031 689.418 303.866 687.706 305.729C685.931 307.659 682.976 309.526 678.845 311.252C674.743 312.966 669.628 314.482 663.68 315.789C639.848 321.024 603.491 322.726 568.044 321.072C532.559 319.416 498.349 314.413 478.721 306.422C473.83 304.43 469.947 302.293 467.197 300.049C464.44 297.799 462.978 295.574 462.583 293.418C462.198 291.315 462.757 288.885 464.886 286.029C467.037 283.143 470.708 279.95 476.258 276.486C522.013 247.929 551.831 196.857 574.31 151.888C578.886 142.733 583.147 133.856 587.175 125.461C593.094 113.129 598.513 101.838 603.7 92.2353C608.045 84.1922 612.163 77.4623 616.189 72.4144C620.241 67.3331 624.033 64.1702 627.664 62.9367Z" fill="#5AA835" stroke="#4D942C" stroke-width="4"/>
<path d="M906.762 672.266C900.713 761.033 854.221 821.714 783.08 858.52C711.828 895.384 615.798 908.304 510.933 901.158C406.068 894.012 312.678 868.184 247.086 821.995C181.596 775.878 143.765 709.451 149.814 620.684C152.834 576.367 171.923 528.84 201.449 482.577C230.963 436.333 270.833 391.466 315.245 352.494C359.657 313.521 408.563 280.485 456.117 257.868C503.703 235.237 549.777 223.113 588.576 225.757C627.345 228.399 667.387 246.37 705.52 274.801C743.638 303.222 779.735 342.013 810.587 386.094C872.332 474.313 912.821 583.347 906.762 672.266Z" fill="#593675" stroke="#441E62" stroke-width="4"/>
<path d="M853.136 670.228C841.397 816.271 694.908 868.207 520.48 854.187C346.053 840.166 209.74 765.5 221.478 619.456C233.217 473.412 388.563 311.296 562.99 325.316C737.418 339.336 864.875 524.184 853.136 670.228Z" fill="#A43C3C"/>
<g opacity="0.4">
<ellipse rx="6.27775" ry="13.4427" transform="matrix(0.884056 0.46738 -0.42793 0.903812 389.402 443.917)" fill="#F8D4D4"/>
<ellipse rx="6.23765" ry="13.4997" transform="matrix(-0.953891 -0.300153 -0.275449 0.961316 377.218 519.518)" fill="#F8D4D4"/>
<ellipse rx="6.23765" ry="13.4997" transform="matrix(-0.953891 -0.300153 -0.275449 0.961316 454.554 402.431)" fill="#F8D4D4"/>
<ellipse rx="6.23765" ry="13.4997" transform="matrix(0.990909 -0.134535 0.108931 0.994049 709.906 457.457)" fill="#F8D4D4"/>
<ellipse rx="6.23765" ry="13.4997" transform="matrix(0.990909 -0.134535 0.108931 0.994049 778.082 536.481)" fill="#F8D4D4"/>
<ellipse rx="6.23765" ry="13.4997" transform="matrix(0.990909 -0.134535 0.108931 0.994049 646.236 398.785)" fill="#F8D4D4"/>
<ellipse rx="6.23765" ry="13.4997" transform="matrix(0.990909 -0.134535 0.108931 0.994049 579.191 379.764)" fill="#F8D4D4"/>
<ellipse rx="6.23765" ry="13.4997" transform="matrix(0.990909 -0.134535 0.108931 0.994049 515.531 394.31)" fill="#F8D4D4"/>
<ellipse rx="6.23765" ry="13.4997" transform="matrix(0.990909 -0.134535 0.108931 0.994049 655.524 625.887)" fill="#F8D4D4"/>
<ellipse rx="6.23765" ry="13.4997" transform="matrix(0.990909 -0.134535 0.108931 0.994049 450.45 615.079)" fill="#F8D4D4"/>
<ellipse rx="6.27775" ry="13.4427" transform="matrix(0.884056 0.46738 -0.42793 0.903812 341.519 493.089)" fill="#F8D4D4"/>
<ellipse rx="6.23765" ry="13.4997" transform="matrix(-0.953891 -0.300153 -0.275449 0.961316 380.051 589.887)" fill="#F8D4D4"/>
<ellipse rx="6.23765" ry="13.4997" transform="matrix(-0.953891 -0.300153 -0.275449 0.961316 457.389 472.799)" fill="#F8D4D4"/>
<ellipse rx="6.23765" ry="13.4997" transform="matrix(0.990909 -0.134535 0.108931 0.994049 719.74 531.512)" fill="#F8D4D4"/>
<ellipse rx="6.23765" ry="13.4997" transform="matrix(0.990909 -0.134535 0.108931 0.994049 763.389 605.357)" fill="#F8D4D4"/>
<ellipse rx="6.23765" ry="13.4997" transform="matrix(0.990909 -0.134535 0.108931 0.994049 631.545 467.661)" fill="#F8D4D4"/>
<ellipse rx="6.23765" ry="13.4997" transform="matrix(0.990909 -0.134535 0.108931 0.994049 564.5 448.639)" fill="#F8D4D4"/>
<ellipse rx="6.23765" ry="13.4997" transform="matrix(0.990909 -0.134535 0.108931 0.994049 500.839 463.187)" fill="#F8D4D4"/>
<ellipse rx="6.23765" ry="13.4997" transform="matrix(0.990909 -0.134535 0.108931 0.994049 649.594 695.509)" fill="#F8D4D4"/>
<ellipse rx="6.23765" ry="13.4997" transform="matrix(0.990909 -0.134535 0.108931 0.994049 503.974 646.262)" fill="#F8D4D4"/>
<ellipse rx="6.27775" ry="13.4427" transform="matrix(0.884056 0.46738 -0.42793 0.903812 330.257 552.035)" fill="#F8D4D4"/>
<ellipse rx="6.23765" ry="13.4997" transform="matrix(-0.953891 -0.300153 -0.275449 0.961316 349.867 640.925)" fill="#F8D4D4"/>
<ellipse rx="6.23765" ry="13.4997" transform="matrix(-0.953891 -0.300153 -0.275449 0.961316 427.203 523.838)" fill="#F8D4D4"/>
<ellipse rx="6.23765" ry="13.4997" transform="matrix(0.990909 -0.134535 0.108931 0.994049 716.333 581.741)" fill="#F8D4D4"/>
<ellipse rx="6.23765" ry="13.4997" transform="matrix(0.990909 -0.134535 0.108931 0.994049 784.511 660.765)" fill="#F8D4D4"/>
<ellipse rx="6.23765" ry="13.4997" transform="matrix(0.990909 -0.134535 0.108931 0.994049 664.528 520.155)" fill="#F8D4D4"/>
<ellipse rx="6.23765" ry="13.4997" transform="matrix(0.990909 -0.134535 0.108931 0.994049 585.62 504.047)" fill="#F8D4D4"/>
<ellipse rx="6.23765" ry="13.4997" transform="matrix(0.990909 -0.134535 0.108931 0.994049 521.958 518.594)" fill="#F8D4D4"/>
<ellipse rx="6.23765" ry="13.4997" transform="matrix(0.990909 -0.134535 0.108931 0.994049 723.138 711.519)" fill="#F8D4D4"/>
<ellipse rx="6.23765" ry="13.4997" transform="matrix(0.990909 -0.134535 0.108931 0.994049 414.399 671.915)" fill="#F8D4D4"/>
<ellipse rx="6.27775" ry="13.4427" transform="matrix(0.884056 0.46738 -0.42793 0.903812 294.768 602.264)" fill="#F8D4D4"/>
<ellipse rx="6.23765" ry="13.4997" transform="matrix(-0.953891 -0.300153 -0.275449 0.961316 342.991 703.111)" fill="#F8D4D4"/>
<ellipse rx="6.23765" ry="13.4997" transform="matrix(-0.953891 -0.300153 -0.275449 0.961316 420.329 586.023)" fill="#F8D4D4"/>
<ellipse rx="6.23765" ry="13.4997" transform="matrix(0.990909 -0.134535 0.108931 0.994049 712.594 644.193)" fill="#F8D4D4"/>
<ellipse rx="6.23765" ry="13.4997" transform="matrix(0.990909 -0.134535 0.108931 0.994049 780.772 723.217)" fill="#F8D4D4"/>
<ellipse rx="6.23765" ry="13.4997" transform="matrix(0.990909 -0.134535 0.108931 0.994049 635.236 570.91)" fill="#F8D4D4"/>
<ellipse rx="6.23765" ry="13.4997" transform="matrix(0.990909 -0.134535 0.108931 0.994049 572.139 578.848)" fill="#F8D4D4"/>
<ellipse rx="6.23765" ry="13.4997" transform="matrix(0.990909 -0.134535 0.108931 0.994049 480.304 557.716)" fill="#F8D4D4"/>
<ellipse rx="6.23765" ry="13.4997" transform="matrix(0.990909 -0.134535 0.108931 0.994049 578.904 645.987)" fill="#F8D4D4"/>
<ellipse rx="6.23765" ry="13.4997" transform="matrix(0.990909 -0.134535 0.108931 0.994049 288.201 687.793)" fill="#F8D4D4"/>
</g>
<ellipse rx="32.554" ry="35.1085" transform="matrix(0.995649 0.0931843 -0.107051 0.994254 445.479 761.113)" fill="#481111"/>
<ellipse rx="32.554" ry="35.1085" transform="matrix(0.995649 0.0931843 -0.107051 0.994254 634.011 782.573)" fill="#481111"/>
<path d="M504.811 772.701C504.288 777.564 504.658 782.462 505.903 787.116C507.147 791.771 509.24 796.09 512.062 799.827C514.885 803.564 518.382 806.647 522.353 808.898C526.324 811.149 530.692 812.525 535.207 812.948C539.722 813.371 544.297 812.831 548.669 811.361C553.04 809.89 557.125 807.518 560.688 804.378C564.25 801.238 567.223 797.393 569.434 793.062C571.646 788.732 573.054 784 573.577 779.137L539.194 775.919L504.811 772.701Z" fill="#481111"/>
</svg>
