<svg width="1080" height="1080" viewBox="0 0 1080 1080" fill="none" xmlns="http://www.w3.org/2000/svg">
<rect width="1080" height="1080" fill="#FDBEBE"/>
<path opacity="0.2" d="M359.208 995.886C359.208 1004.46 421.278 1011.41 497.845 1011.41C574.412 1011.41 636.482 1015.3 636.482 995.886C636.482 976.477 574.412 980.359 497.845 980.359C421.278 980.359 359.208 987.311 359.208 995.886Z" fill="#A1783A"/>
<path d="M511.556 804.007C508.515 834.134 511.576 901.307 390.892 898.718C383.536 898.09 411.696 933.509 411.696 933.509" stroke="#A2783A" stroke-width="4" stroke-linecap="round"/>
<path d="M580.305 823.87C594.709 850.504 606.906 899.261 533.668 970.004C527.229 973.616 570.422 987.103 570.422 987.103" stroke="#A2783A" stroke-width="4" stroke-linecap="round"/>
<path d="M759.708 691.283C806.837 728.213 841.122 719.165 903 688.079" stroke="#A2783A" stroke-width="4" stroke-linecap="round"/>
<path d="M177 705.096C212.581 753.251 248.038 753.669 315.963 740.199" stroke="#A2783A" stroke-width="4" stroke-linecap="round"/>
<path d="M800.749 512.653C800.749 515.635 800.749 518.597 800.75 521.538C800.76 573.642 800.769 619.393 797.496 659.212C794.039 701.277 786.929 736.534 772.405 765.506C743.485 823.191 684.774 856.668 564.177 868.233C443.971 879.759 347.751 836.453 281.539 762.584C215.287 688.669 179 584.049 179 472.922C179 361.397 189.788 260.985 239.896 188.443C289.878 116.083 379.338 71 537.882 71C617.138 71 673.015 84.7547 712.317 108.659C751.562 132.528 774.475 166.636 787.6 207.779C800.746 248.988 804.06 297.218 804.06 349.22C804.06 374.765 803.261 401.175 802.448 428.078L802.405 429.481C801.578 456.857 800.749 484.733 800.749 512.653Z" fill="#FAD296" stroke="#E3B46E" stroke-width="4"/>
<path d="M441.867 658.329C446.006 649.714 459.745 636.546 481.597 652.791" stroke="#A2783A" stroke-width="3" stroke-linecap="round"/>
<path d="M612.565 642.51C617.954 631.621 634.254 615.613 656.338 638.699" stroke="#A2783A" stroke-width="3" stroke-linecap="round"/>
<path d="M581.154 679.456C581.727 683.969 581.405 688.551 580.208 692.941C579.011 697.33 576.961 701.44 574.177 705.037C571.392 708.634 567.926 711.646 563.977 713.903C560.028 716.16 555.674 717.616 551.163 718.189C546.651 718.762 542.071 718.441 537.684 717.243C533.297 716.046 529.188 713.995 525.593 711.209C521.998 708.423 518.987 704.955 516.731 701.005C514.475 697.054 513.02 692.698 512.447 688.185L546.8 683.82L581.154 679.456Z" fill="#A2783A"/>
<path opacity="0.3" d="M360.923 182.938C366.382 191.009 357.504 195.9 342.359 206.145C327.213 216.389 311.534 228.109 306.075 220.038C300.616 211.967 308.468 197.12 323.614 186.875C338.76 176.63 355.463 174.867 360.923 182.938Z" fill="#A2783A"/>
<ellipse opacity="0.3" cx="438.556" cy="704.683" rx="16.5542" ry="13.2434" fill="#A2783A"/>
<ellipse opacity="0.3" rx="16.5542" ry="9.93252" transform="matrix(-1 0 0 1 676.937 681.507)" fill="#A2783A"/>
<path opacity="0.3" d="M405.448 721.236C405.448 723.064 402.83 727.858 395.516 727.858C388.202 727.858 382.272 731.168 382.272 724.547C382.272 717.925 388.202 714.614 395.516 714.614C402.83 714.614 405.448 719.407 405.448 721.236Z" fill="#A2783A"/>
<path opacity="0.3" d="M725.733 288.896C724.818 292.214 715.927 299.12 697.797 294.118C679.667 289.115 663.312 291.067 666.627 279.052C669.943 267.037 686.298 265.085 704.428 270.087C722.558 275.09 726.649 285.578 725.733 288.896Z" fill="#A2783A"/>
<path opacity="0.3" d="M647.235 335.473C647.211 332.031 640.416 323.055 621.609 323.185C602.801 323.314 587.512 317.187 587.598 329.651C587.684 342.115 602.973 348.242 621.78 348.113C640.587 347.983 647.258 338.915 647.235 335.473Z" fill="#A2783A"/>
<ellipse opacity="0.3" rx="13.2434" ry="3.31084" transform="matrix(-1 0 0 1 706.734 694.75)" fill="#A2783A"/>
<ellipse opacity="0.3" cx="461.732" cy="721.234" rx="6.62168" ry="3.31084" fill="#A2783A"/>
<ellipse opacity="0.3" rx="6.62168" ry="3.31084" transform="matrix(-1 0 0 1 653.761 694.75)" fill="#A2783A"/>
</svg>
