<?xml version="1.0" encoding="utf-8"?>
<!-- Generator: Adobe Illustrator 22.0.1, SVG Export Plug-In . SVG Version: 6.00 Build 0)  -->
<svg version="1.1" id="Capa_1" xmlns="http://www.w3.org/2000/svg" xmlns:xlink="http://www.w3.org/1999/xlink" x="0px" y="0px"
	 viewBox="0 0 654 94" style="enable-background:new 0 0 654 94;" xml:space="preserve">
<style type="text/css">
	.st0{fill:#F8F8F9;}
	.st1{fill:none;stroke:#55565A;stroke-width:2.001;stroke-miterlimit:10;}
	.st2{fill:#55565A;}
	.st3{fill:#FFFFFF;}
	.st4{fill:none;stroke:#00C1C9;stroke-width:2.001;stroke-miterlimit:10;}
	.st5{fill:#00C1C9;}
	.st6{fill:none;stroke:#55565A;stroke-width:3.8742;stroke-miterlimit:10;}
	.st7{fill:none;stroke:#55565A;stroke-width:3.8956;stroke-miterlimit:10;}
	.st8{fill:none;stroke:#00C1C9;stroke-width:3.8956;stroke-miterlimit:10;}
	.st9{fill:none;stroke:#00C1C9;stroke-width:3.8742;stroke-miterlimit:10;}
	.st10{fill:#51555A;}
	.st11{font-family:'ChevinPro-Thin';}
	.st12{font-size:38.7263px;}
	.st13{font-family:'ChevinPro-DemiBold';}
</style>
<path class="st2" d="M635.6,85.7H18.4c-7.7,0-13.9-6.2-13.9-13.9V22.2c0-7.7,6.2-13.9,13.9-13.9h617.3c7.7,0,13.9,6.2,13.9,13.9
	v49.7C649.5,79.5,643.3,85.7,635.6,85.7"/>
<path class="st3" d="M171.8,40.3c1.7,1.2,4.1,0.8,5.3-0.8l4.4-6.1c1.2-1.7,0.9-4.1-0.8-5.3c-1.7-1.2-4.1-0.9-5.3,0.8L171,35
	C169.7,36.7,170.1,39.1,171.8,40.3 M192.1,31.7c-1.7-1.2-4.1-0.9-5.3,0.8L169,57c-1.2,1.7-0.9,4.1,0.8,5.3c1.7,1.2,4.1,0.9,5.3-0.8
	L192.9,37C194.2,35.3,193.8,32.9,192.1,31.7 M170.1,29.8c1.2-1.7,0.9-4.1-0.8-5.3c-1.7-1.2-4.1-0.8-5.3,0.8
	c-1.2,1.7-0.9,4.1,0.8,5.3C166.5,31.8,168.9,31.5,170.1,29.8 M197.1,63.4c-1.7-1.2-4.1-0.9-5.3,0.8c-1.2,1.7-0.9,4.1,0.8,5.3
	c1.7,1.2,4.1,0.9,5.3-0.8C199.2,67,198.8,64.6,197.1,63.4 M190.2,53.7c-1.7-1.2-4.1-0.9-5.3,0.8l-4.4,6.1c-1.2,1.7-0.9,4.1,0.8,5.3
	c1.7,1.2,4.1,0.9,5.3-0.8L191,59C192.2,57.3,191.9,54.9,190.2,53.7"/>
<text transform="matrix(1 0 0 1 234.0005 58.7529)"><tspan x="0" y="0" class="st3 st11 st12">Paga amb </tspan><tspan x="168.6" y="0" class="st3 st13 st12">Bizum</tspan></text>
</svg>
