<?xml version="1.0" encoding="utf-8"?>
<!-- Generator: Adobe Illustrator 22.0.1, SVG Export Plug-In . SVG Version: 6.00 Build 0)  -->
<svg version="1.1" id="Capa_1" xmlns="http://www.w3.org/2000/svg" xmlns:xlink="http://www.w3.org/1999/xlink" x="0px" y="0px"
	 viewBox="0 0 1315 94" style="enable-background:new 0 0 1315 94;" xml:space="preserve">
<style type="text/css">
	.st0{fill:#F8F8F9;}
	.st1{fill:none;stroke:#55565A;stroke-width:2.001;stroke-miterlimit:10;}
	.st2{fill:#55565A;}
	.st3{fill:#FFFFFF;}
	.st4{fill:none;stroke:#00C1C9;stroke-width:2.001;stroke-miterlimit:10;}
	.st5{fill:#00C1C9;}
	.st6{fill:none;stroke:#55565A;stroke-width:3.8742;stroke-miterlimit:10;}
	.st7{fill:none;stroke:#55565A;stroke-width:3.8956;stroke-miterlimit:10;}
	.st8{fill:none;stroke:#00C1C9;stroke-width:3.8956;stroke-miterlimit:10;}
	.st9{fill:none;stroke:#00C1C9;stroke-width:3.8742;stroke-miterlimit:10;}
	.st10{fill:#51555A;}
	.st11{font-family:'ChevinPro-Thin';}
	.st12{font-size:38.7263px;}
	.st13{font-family:'ChevinPro-DemiBold';}
</style>
<path class="st5" d="M462.4,41.4c1.7,1.2,4.1,0.9,5.3-0.8l4.5-6.1c1.2-1.7,0.9-4.1-0.8-5.3c-1.7-1.2-4.1-0.9-5.3,0.8l-4.5,6.1
	C460.4,37.7,460.7,40.1,462.4,41.4 M482.8,32.7c-1.7-1.2-4.1-0.9-5.3,0.8l-17.9,24.6c-1.2,1.7-0.9,4.1,0.8,5.3
	c1.7,1.2,4.1,0.9,5.3-0.8L483.7,38C484.9,36.3,484.5,33.9,482.8,32.7 M460.7,30.7c1.2-1.7,0.9-4.1-0.8-5.3c-1.7-1.2-4.1-0.9-5.3,0.8
	c-1.2,1.7-0.9,4.1,0.8,5.3C457.1,32.8,459.5,32.4,460.7,30.7 M487.9,64.5c-1.7-1.2-4.1-0.9-5.3,0.8c-1.2,1.7-0.9,4.1,0.8,5.3
	c1.7,1.2,4.1,0.9,5.3-0.8C490,68.2,489.6,65.8,487.9,64.5 M480.9,54.8c-1.7-1.2-4.1-0.9-5.3,0.8l-4.5,6.2c-1.2,1.7-0.9,4.1,0.8,5.3
	c1.7,1.2,4.1,0.9,5.3-0.8l4.5-6.2C483,58.4,482.6,56,480.9,54.8"/>
<path class="st8" d="M1290.5,86.4H22C14.3,86.4,8,80.3,8,72.7V23.4C8,15.9,14.3,9.7,22,9.7h1268.5c7.7,0,13.9,6.2,13.9,13.7v49.2
	C1304.4,80.3,1298.2,86.4,1290.5,86.4z"/>
<text transform="matrix(1 0 0 1 525.0005 59.7529)"><tspan x="0" y="0" class="st5 st11 st12">Paga aquí amb </tspan><tspan x="244.6" y="0" class="st5 st13 st12">Bizum</tspan></text>
</svg>
