<?xml version="1.0" encoding="utf-8"?>
<!-- Generator: Adobe Illustrator 22.0.1, SVG Export Plug-In . SVG Version: 6.00 Build 0)  -->
<svg version="1.1" id="Capa_1" xmlns="http://www.w3.org/2000/svg" xmlns:xlink="http://www.w3.org/1999/xlink" x="0px" y="0px"
	 viewBox="0 0 1315 94" style="enable-background:new 0 0 1315 94;" xml:space="preserve">
<style type="text/css">
	.st0{fill:#F8F8F9;}
	.st1{fill:none;stroke:#55565A;stroke-width:2.001;stroke-miterlimit:10;}
	.st2{fill:#55565A;}
	.st3{fill:#FFFFFF;}
	.st4{fill:none;stroke:#00C1C9;stroke-width:2.001;stroke-miterlimit:10;}
	.st5{fill:#00C1C9;}
	.st6{fill:none;stroke:#55565A;stroke-width:3.8742;stroke-miterlimit:10;}
	.st7{fill:none;stroke:#55565A;stroke-width:3.8956;stroke-miterlimit:10;}
	.st8{fill:none;stroke:#00C1C9;stroke-width:3.8956;stroke-miterlimit:10;}
	.st9{fill:none;stroke:#00C1C9;stroke-width:3.8742;stroke-miterlimit:10;}
	.st10{fill:#51555A;}
	.st11{font-family:'ChevinPro-Thin';}
	.st12{font-size:38.7263px;}
	.st13{font-family:'ChevinPro-DemiBold';}
</style>
<path class="st5" d="M1291.1,86.1H21.9C14.2,86.1,8,79.9,8,72.2V22.2c0-7.7,6.2-13.9,13.9-13.9h1269.1c7.7,0,13.9,6.2,13.9,13.9
	v49.9C1305,79.9,1298.8,86.1,1291.1,86.1"/>
<path class="st3" d="M462.4,40.5c1.7,1.2,4.1,0.9,5.3-0.8l4.5-6.1c1.2-1.7,0.9-4.1-0.8-5.3c-1.7-1.2-4.1-0.9-5.3,0.8l-4.5,6.2
	C460.4,36.9,460.7,39.2,462.4,40.5 M482.8,31.8c-1.7-1.2-4.1-0.9-5.3,0.8l-17.9,24.6c-1.2,1.7-0.9,4.1,0.8,5.3
	c1.7,1.2,4.1,0.9,5.3-0.8l17.9-24.6C484.9,35.4,484.5,33,482.8,31.8 M460.7,29.9c1.2-1.7,0.9-4.1-0.8-5.3c-1.7-1.2-4.1-0.9-5.3,0.8
	c-1.2,1.7-0.9,4.1,0.8,5.3C457.1,31.9,459.5,31.6,460.7,29.9 M487.9,63.7c-1.7-1.2-4.1-0.9-5.3,0.8c-1.2,1.7-0.9,4.1,0.8,5.3
	c1.7,1.2,4.1,0.9,5.3-0.8C490,67.3,489.6,64.9,487.9,63.7 M480.9,53.9c-1.7-1.2-4.1-0.9-5.3,0.8l-4.5,6.2c-1.2,1.7-0.9,4.1,0.8,5.3
	c1.7,1.2,4.1,0.9,5.3-0.8l4.5-6.2C483,57.5,482.6,55.1,480.9,53.9"/>
<text transform="matrix(1 0 0 1 525.0005 57.7529)"><tspan x="0" y="0" class="st3 st11 st12">Paga aquí amb </tspan><tspan x="244.6" y="0" class="st3 st13 st12">Bizum</tspan></text>
</svg>
