<?xml version="1.0" encoding="utf-8"?>
<!-- Generator: Adobe Illustrator 22.0.1, SVG Export Plug-In . SVG Version: 6.00 Build 0)  -->
<svg version="1.1" id="Capa_1" xmlns="http://www.w3.org/2000/svg" xmlns:xlink="http://www.w3.org/1999/xlink" x="0px" y="0px"
	 viewBox="0 0 654 94" style="enable-background:new 0 0 654 94;" xml:space="preserve">
<style type="text/css">
	.st0{fill:#F8F8F9;}
	.st1{fill:none;stroke:#55565A;stroke-width:2.001;stroke-miterlimit:10;}
	.st2{fill:#55565A;}
	.st3{fill:#FFFFFF;}
	.st4{fill:none;stroke:#00C1C9;stroke-width:2.001;stroke-miterlimit:10;}
	.st5{fill:#00C1C9;}
	.st6{fill:none;stroke:#55565A;stroke-width:3.8742;stroke-miterlimit:10;}
	.st7{fill:none;stroke:#55565A;stroke-width:3.8956;stroke-miterlimit:10;}
	.st8{fill:none;stroke:#00C1C9;stroke-width:3.8956;stroke-miterlimit:10;}
	.st9{fill:none;stroke:#00C1C9;stroke-width:3.8742;stroke-miterlimit:10;}
	.st10{fill:#51555A;}
	.st11{font-family:'ChevinPro-DemiBold';}
	.st12{font-size:38.7263px;}
	.st13{font-family:'ChevinPro-Thin';}
</style>
<text transform="matrix(1 0 0 1 234.0005 58.7529)"><tspan x="0" y="0" class="st2 st11 st12">Bizumekin </tspan><tspan x="186.5" y="0" class="st2 st13 st12">ordaindu</tspan></text>
<path class="st6" d="M636.1,85.4H19.2c-7.7,0-13.9-6.1-13.9-13.7v-49c0-7.5,6.2-13.7,13.9-13.7h616.9c7.7,0,13.9,6.1,13.9,13.7v49
	C650,79.3,643.8,85.4,636.1,85.4z"/>
<path class="st2" d="M172.3,40.6c1.7,1.2,4.1,0.8,5.3-0.8l4.4-6.1c1.2-1.7,0.9-4.1-0.8-5.3c-1.7-1.2-4.1-0.9-5.3,0.8l-4.4,6.1
	C170.2,37,170.6,39.4,172.3,40.6 M192.6,32c-1.7-1.2-4.1-0.9-5.3,0.8l-17.8,24.5c-1.2,1.7-0.9,4.1,0.8,5.3c1.7,1.2,4.1,0.9,5.3-0.8
	l17.8-24.5C194.7,35.6,194.3,33.2,192.6,32 M170.6,30c1.2-1.7,0.9-4.1-0.8-5.3c-1.7-1.2-4.1-0.8-5.3,0.8c-1.2,1.7-0.9,4.1,0.8,5.3
	C167,32.1,169.4,31.7,170.6,30 M197.6,63.7c-1.7-1.2-4.1-0.9-5.3,0.8c-1.2,1.7-0.9,4.1,0.8,5.3c1.7,1.2,4.1,0.9,5.3-0.8
	C199.7,67.3,199.3,64.9,197.6,63.7 M190.6,53.9c-1.7-1.2-4.1-0.9-5.3,0.8l-4.4,6.1c-1.2,1.7-0.9,4.1,0.8,5.3
	c1.7,1.2,4.1,0.9,5.3-0.8l4.4-6.1C192.7,57.5,192.3,55.2,190.6,53.9"/>
</svg>
