<?xml version="1.0" encoding="utf-8"?>
<!-- Generator: Adobe Illustrator 22.0.1, SVG Export Plug-In . SVG Version: 6.00 Build 0)  -->
<svg version="1.1" id="Capa_1" xmlns="http://www.w3.org/2000/svg" xmlns:xlink="http://www.w3.org/1999/xlink" x="0px" y="0px"
	 viewBox="0 0 1315 94" style="enable-background:new 0 0 1315 94;" xml:space="preserve">
<style type="text/css">
	.st0{fill:#F8F8F9;}
	.st1{fill:none;stroke:#55565A;stroke-width:2.001;stroke-miterlimit:10;}
	.st2{fill:#55565A;}
	.st3{fill:#FFFFFF;}
	.st4{fill:none;stroke:#00C1C9;stroke-width:2.001;stroke-miterlimit:10;}
	.st5{fill:#00C1C9;}
	.st6{fill:none;stroke:#55565A;stroke-width:3.8742;stroke-miterlimit:10;}
	.st7{fill:none;stroke:#55565A;stroke-width:3.8956;stroke-miterlimit:10;}
	.st8{fill:none;stroke:#00C1C9;stroke-width:3.8956;stroke-miterlimit:10;}
	.st9{fill:none;stroke:#00C1C9;stroke-width:3.8742;stroke-miterlimit:10;}
	.st10{fill:#51555A;}
	.st11{font-family:'ChevinPro-Thin';}
	.st12{font-size:38.7263px;}
	.st13{font-family:'ChevinPro-DemiBold';}
</style>
<text transform="matrix(1 0 0 1 524.0005 58.7529)"><tspan x="0" y="0" class="st2 st11 st12">Ordaindu hemen </tspan><tspan x="271.8" y="0" class="st2 st13 st12">Bizumekin</tspan></text>
<path class="st7" d="M1290.5,85.7H22C14.3,85.7,8,79.6,8,72V22.8C8,15.2,14.3,9,22,9h1268.5c7.7,0,13.9,6.2,13.9,13.7V72
	C1304.4,79.6,1298.2,85.7,1290.5,85.7z"/>
<path class="st2" d="M462.4,40.7c1.7,1.2,4.1,0.9,5.3-0.8l4.5-6.1c1.2-1.7,0.9-4.1-0.8-5.3c-1.7-1.2-4.1-0.9-5.3,0.8l-4.5,6.2
	C460.4,37.1,460.7,39.4,462.4,40.7 M482.8,32c-1.7-1.2-4.1-0.9-5.3,0.8l-17.9,24.6c-1.2,1.7-0.9,4.1,0.8,5.3
	c1.7,1.2,4.1,0.9,5.3-0.8l17.9-24.6C484.9,35.6,484.5,33.2,482.8,32 M460.7,30.1c1.2-1.7,0.9-4.1-0.8-5.3c-1.7-1.2-4.1-0.9-5.3,0.8
	c-1.2,1.7-0.9,4.1,0.8,5.3C457.1,32.1,459.5,31.8,460.7,30.1 M487.9,63.9c-1.7-1.2-4.1-0.9-5.3,0.8c-1.2,1.7-0.9,4.1,0.8,5.3
	c1.7,1.2,4.1,0.9,5.3-0.8C490,67.5,489.6,65.1,487.9,63.9 M480.9,54.1c-1.7-1.2-4.1-0.9-5.3,0.8l-4.5,6.2c-1.2,1.7-0.9,4.1,0.8,5.3
	c1.7,1.2,4.1,0.9,5.3-0.8l4.5-6.1C483,57.7,482.6,55.3,480.9,54.1"/>
</svg>
